G75*
%MOIN*%
%OFA0B0*%
%FSLAX24Y24*%
%IPPOS*%
%LPD*%
%AMOC8*
5,1,8,0,0,1.08239X$1,22.5*
%
%ADD10C,0.0100*%
%ADD11C,0.0600*%
%ADD12R,0.0600X0.0600*%
%ADD13C,0.0590*%
%ADD14C,0.0000*%
%ADD15R,0.0512X0.0591*%
%ADD16R,0.0591X0.0512*%
%ADD17C,0.0679*%
%ADD18C,0.0502*%
%ADD19C,0.0320*%
%ADD20C,0.0240*%
%ADD21C,0.0560*%
%ADD22C,0.0356*%
%ADD23C,0.0400*%
D10*
X004503Y002292D02*
X004503Y021967D01*
X020603Y021967D01*
X020603Y002292D01*
X004503Y002292D01*
X004995Y002616D02*
X004995Y002834D01*
X005253Y003092D01*
X009687Y003092D01*
X009724Y003056D01*
X010169Y003366D02*
X010169Y003439D01*
X010117Y003564D01*
X010117Y004894D01*
X010169Y005019D01*
X010169Y005786D01*
X010101Y005949D01*
X009976Y006074D01*
X009872Y006117D01*
X015284Y006117D01*
X015180Y006074D01*
X015055Y005949D01*
X014987Y005786D01*
X014987Y005019D01*
X015002Y004982D01*
X015002Y003475D01*
X014987Y003439D01*
X014987Y003366D01*
X010169Y003366D01*
X010165Y003449D02*
X014991Y003449D01*
X015002Y003547D02*
X010124Y003547D01*
X010117Y003646D02*
X015002Y003646D01*
X015002Y003744D02*
X010117Y003744D01*
X010117Y003843D02*
X015002Y003843D01*
X015002Y003941D02*
X010117Y003941D01*
X010117Y004040D02*
X015002Y004040D01*
X015002Y004138D02*
X010117Y004138D01*
X010117Y004237D02*
X015002Y004237D01*
X015002Y004335D02*
X010117Y004335D01*
X010117Y004434D02*
X015002Y004434D01*
X015002Y004532D02*
X010117Y004532D01*
X010117Y004631D02*
X015002Y004631D01*
X015002Y004729D02*
X010117Y004729D01*
X010117Y004828D02*
X015002Y004828D01*
X015002Y004926D02*
X010131Y004926D01*
X010169Y005025D02*
X014987Y005025D01*
X014987Y005123D02*
X010169Y005123D01*
X010169Y005222D02*
X014987Y005222D01*
X014987Y005320D02*
X010169Y005320D01*
X010169Y005419D02*
X014987Y005419D01*
X014987Y005517D02*
X010169Y005517D01*
X010169Y005616D02*
X014987Y005616D01*
X014987Y005714D02*
X010169Y005714D01*
X010158Y005813D02*
X014999Y005813D01*
X015039Y005911D02*
X010117Y005911D01*
X010040Y006010D02*
X015116Y006010D01*
X015262Y006108D02*
X009894Y006108D01*
X009503Y006317D02*
X018178Y006317D01*
X018503Y006642D01*
X018503Y017392D01*
X017903Y017892D01*
X011253Y017892D01*
X011128Y018017D01*
X010503Y018017D01*
X010382Y018322D02*
X008812Y018322D01*
X008856Y018278D02*
X008764Y018370D01*
X008643Y018420D01*
X008513Y018420D01*
X008508Y018418D01*
X008508Y018450D01*
X008420Y018538D01*
X008353Y018538D01*
X008353Y018909D01*
X008436Y018992D01*
X010839Y018992D01*
X010775Y018928D01*
X010725Y018808D01*
X010725Y018677D01*
X010775Y018556D01*
X010867Y018464D01*
X010988Y018414D01*
X011098Y018414D01*
X011220Y018292D01*
X011964Y018292D01*
X011950Y018258D01*
X011950Y018127D01*
X011964Y018092D01*
X011336Y018092D01*
X011211Y018217D01*
X010767Y018217D01*
X010689Y018295D01*
X010568Y018345D01*
X010438Y018345D01*
X010317Y018295D01*
X010225Y018203D01*
X010175Y018083D01*
X010175Y017952D01*
X010225Y017831D01*
X010317Y017739D01*
X010438Y017689D01*
X010525Y017689D01*
X010525Y017627D01*
X010575Y017506D01*
X010667Y017414D01*
X010788Y017364D01*
X010918Y017364D01*
X011039Y017414D01*
X011117Y017492D01*
X017781Y017492D01*
X018103Y017224D01*
X018103Y015875D01*
X017653Y016325D01*
X017536Y016442D01*
X015167Y016442D01*
X015089Y016520D01*
X014968Y016570D01*
X014838Y016570D01*
X014717Y016520D01*
X014625Y016428D01*
X014575Y016308D01*
X014575Y016177D01*
X014625Y016056D01*
X014639Y016042D01*
X012842Y016042D01*
X012856Y016056D01*
X012906Y016177D01*
X012906Y016308D01*
X012856Y016428D01*
X012792Y016492D01*
X012806Y016506D01*
X012856Y016627D01*
X012856Y016758D01*
X012806Y016878D01*
X012714Y016970D01*
X012593Y017020D01*
X012483Y017020D01*
X012461Y017042D01*
X011270Y017042D01*
X009531Y017042D01*
X009531Y016977D02*
X009531Y017108D01*
X009481Y017228D01*
X009389Y017320D01*
X009268Y017370D01*
X009138Y017370D01*
X009078Y017346D01*
X009078Y017525D01*
X009028Y017575D01*
X009028Y017925D01*
X008906Y018047D01*
X008906Y018158D01*
X008856Y018278D01*
X008879Y018224D02*
X010246Y018224D01*
X010193Y018125D02*
X008906Y018125D01*
X008926Y018027D02*
X010175Y018027D01*
X010185Y017928D02*
X009025Y017928D01*
X009028Y017830D02*
X010227Y017830D01*
X010336Y017731D02*
X009028Y017731D01*
X009028Y017633D02*
X010525Y017633D01*
X010563Y017534D02*
X009069Y017534D01*
X009078Y017436D02*
X010646Y017436D01*
X010853Y017692D02*
X017853Y017692D01*
X018303Y017317D01*
X018303Y006867D01*
X017953Y006517D01*
X009403Y006517D01*
X007003Y004117D01*
X005497Y004117D01*
X004995Y003616D01*
X005308Y003292D02*
X005377Y003361D01*
X005445Y003526D01*
X005445Y003705D01*
X005423Y003760D01*
X005579Y003917D01*
X005660Y003917D01*
X005614Y003871D01*
X005545Y003705D01*
X005545Y003526D01*
X005614Y003361D01*
X005682Y003292D01*
X005308Y003292D01*
X005366Y003350D02*
X005624Y003350D01*
X005577Y003449D02*
X005413Y003449D01*
X005445Y003547D02*
X005545Y003547D01*
X005545Y003646D02*
X005445Y003646D01*
X005429Y003744D02*
X005561Y003744D01*
X005602Y003843D02*
X005505Y003843D01*
X005297Y004200D02*
X005140Y004043D01*
X005085Y004066D01*
X004906Y004066D01*
X004803Y004023D01*
X004803Y004208D01*
X004906Y004166D01*
X005085Y004166D01*
X005250Y004234D01*
X005377Y004361D01*
X005445Y004526D01*
X005445Y004705D01*
X005423Y004760D01*
X005579Y004917D01*
X005660Y004917D01*
X005614Y004871D01*
X005545Y004705D01*
X005545Y004526D01*
X005614Y004361D01*
X005657Y004317D01*
X005414Y004317D01*
X005297Y004200D01*
X005333Y004237D02*
X005253Y004237D01*
X005235Y004138D02*
X004803Y004138D01*
X004803Y004040D02*
X004843Y004040D01*
X005351Y004335D02*
X005639Y004335D01*
X005584Y004434D02*
X005407Y004434D01*
X005445Y004532D02*
X005545Y004532D01*
X005545Y004631D02*
X005445Y004631D01*
X005435Y004729D02*
X005555Y004729D01*
X005596Y004828D02*
X005490Y004828D01*
X005497Y005117D02*
X007453Y005117D01*
X009253Y006917D01*
X017553Y006917D01*
X017903Y007267D01*
X017903Y015517D01*
X017578Y015842D01*
X012228Y015842D01*
X011953Y016117D01*
X012281Y016102D02*
X012300Y016056D01*
X012314Y016042D01*
X012311Y016042D01*
X012281Y016072D01*
X012281Y016102D01*
X012296Y016057D02*
X012300Y016057D01*
X012453Y016242D02*
X012178Y016517D01*
X011578Y016517D01*
X011503Y016442D01*
X011503Y015992D01*
X011878Y015617D01*
X017453Y015617D01*
X017703Y015367D01*
X017703Y007467D01*
X017353Y007117D01*
X009178Y007117D01*
X007677Y005616D01*
X005995Y005616D01*
X005685Y005942D02*
X005614Y005871D01*
X005545Y005705D01*
X005545Y005526D01*
X005614Y005361D01*
X005657Y005317D01*
X005414Y005317D01*
X005297Y005200D01*
X005140Y005043D01*
X005085Y005066D01*
X004906Y005066D01*
X004803Y005023D01*
X004803Y005208D01*
X004906Y005166D01*
X005085Y005166D01*
X005250Y005234D01*
X005377Y005361D01*
X005445Y005526D01*
X005445Y005705D01*
X005423Y005760D01*
X005604Y005942D01*
X005685Y005942D01*
X005654Y005911D02*
X005573Y005911D01*
X005590Y005813D02*
X005475Y005813D01*
X005442Y005714D02*
X005549Y005714D01*
X005545Y005616D02*
X005445Y005616D01*
X005441Y005517D02*
X005549Y005517D01*
X005590Y005419D02*
X005401Y005419D01*
X005336Y005320D02*
X005654Y005320D01*
X005497Y005117D02*
X004995Y004616D01*
X004806Y005025D02*
X004803Y005025D01*
X004803Y005123D02*
X005220Y005123D01*
X005220Y005222D02*
X005318Y005222D01*
X004995Y005616D02*
X005522Y006142D01*
X007903Y006142D01*
X009078Y007317D01*
X017153Y007317D01*
X017503Y007667D01*
X017503Y015242D01*
X017353Y015392D01*
X014528Y015392D01*
X014278Y015142D01*
X014039Y015367D02*
X011303Y015367D01*
X011303Y015288D02*
X011303Y016328D01*
X011303Y016328D01*
X011303Y015909D01*
X011420Y015792D01*
X011795Y015417D01*
X014089Y015417D01*
X014000Y015328D01*
X013983Y015288D01*
X013777Y015288D01*
X013777Y014892D01*
X014064Y014892D01*
X014092Y014864D01*
X014160Y014836D01*
X014138Y014814D01*
X014125Y014792D01*
X013777Y014792D01*
X013777Y014397D01*
X014003Y014397D01*
X014041Y014407D01*
X014075Y014427D01*
X014103Y014455D01*
X014123Y014489D01*
X014130Y014516D01*
X014503Y014516D01*
X014503Y014416D01*
X014108Y014416D01*
X014108Y014191D01*
X014118Y014152D01*
X014138Y014118D01*
X014164Y014092D01*
X014108Y014036D01*
X014108Y013725D01*
X014025Y013808D01*
X013699Y013808D01*
X013609Y013897D01*
X013621Y013927D01*
X013621Y014058D01*
X013571Y014178D01*
X013479Y014270D01*
X013358Y014320D01*
X013228Y014320D01*
X013219Y014317D01*
X013186Y014397D01*
X013297Y014397D01*
X013353Y014453D01*
X013379Y014427D01*
X013413Y014407D01*
X013451Y014397D01*
X013677Y014397D01*
X013677Y014792D01*
X013777Y014792D01*
X013777Y014892D01*
X013677Y014892D01*
X013677Y015288D01*
X013451Y015288D01*
X013413Y015277D01*
X013379Y015258D01*
X013353Y015232D01*
X013297Y015288D01*
X012661Y015288D01*
X012573Y015200D01*
X012573Y015042D01*
X012558Y015042D01*
X012558Y015200D01*
X012470Y015288D01*
X011834Y015288D01*
X011778Y015232D01*
X011722Y015288D01*
X011303Y015288D01*
X011303Y015466D02*
X011747Y015466D01*
X011648Y015564D02*
X011303Y015564D01*
X011303Y015663D02*
X011550Y015663D01*
X011451Y015761D02*
X011303Y015761D01*
X011303Y015860D02*
X011353Y015860D01*
X011303Y015958D02*
X011303Y015958D01*
X011303Y016057D02*
X011303Y016057D01*
X011303Y016155D02*
X011303Y016155D01*
X011303Y016254D02*
X011303Y016254D01*
X011103Y016592D02*
X011103Y015342D01*
X010328Y014567D01*
X010328Y014043D01*
X010479Y013892D01*
X010073Y013890D02*
X010003Y013890D01*
X010003Y013988D02*
X010073Y013988D01*
X010073Y014087D02*
X010003Y014087D01*
X010003Y014185D02*
X010073Y014185D01*
X010073Y014250D02*
X010073Y013535D01*
X010116Y013492D01*
X010061Y013492D01*
X010003Y013550D01*
X010003Y015003D01*
X010081Y015081D01*
X010131Y015202D01*
X010131Y015333D01*
X010081Y015453D01*
X009989Y015545D01*
X009868Y015595D01*
X009738Y015595D01*
X009653Y015560D01*
X009653Y015584D01*
X009686Y015617D01*
X010464Y015617D01*
X010542Y015539D01*
X010663Y015489D01*
X010793Y015489D01*
X010903Y015535D01*
X010903Y015425D01*
X010128Y014650D01*
X010128Y014305D01*
X010073Y014250D01*
X010107Y014284D02*
X010003Y014284D01*
X010003Y014382D02*
X010128Y014382D01*
X010128Y014481D02*
X010003Y014481D01*
X010003Y014579D02*
X010128Y014579D01*
X010156Y014678D02*
X010003Y014678D01*
X010003Y014776D02*
X010254Y014776D01*
X010353Y014875D02*
X010003Y014875D01*
X010003Y014973D02*
X010451Y014973D01*
X010550Y015072D02*
X010072Y015072D01*
X010118Y015170D02*
X010648Y015170D01*
X010747Y015269D02*
X010131Y015269D01*
X010117Y015367D02*
X010845Y015367D01*
X010903Y015466D02*
X010069Y015466D01*
X009943Y015564D02*
X010517Y015564D01*
X010728Y015817D02*
X009603Y015817D01*
X009453Y015667D01*
X009453Y013167D01*
X009728Y012892D01*
X011703Y012892D01*
X012021Y012981D02*
X012045Y012972D01*
X012042Y012970D01*
X012031Y012959D01*
X012021Y012981D01*
X012311Y013013D02*
X012314Y013014D01*
X012406Y013106D01*
X012456Y013227D01*
X012456Y013266D01*
X012553Y013169D01*
X012553Y013005D01*
X012641Y012917D01*
X013277Y012917D01*
X013333Y012973D01*
X013389Y012917D01*
X014025Y012917D01*
X014113Y013005D01*
X014113Y013162D01*
X014280Y013162D01*
X014430Y013312D01*
X014911Y013312D01*
X014949Y013351D01*
X014900Y013233D01*
X014900Y013122D01*
X014720Y012942D01*
X014603Y012825D01*
X014603Y011175D01*
X014320Y010892D01*
X011917Y010892D01*
X011956Y010931D01*
X012006Y011052D01*
X012006Y011183D01*
X011956Y011303D01*
X011864Y011395D01*
X011743Y011445D01*
X011613Y011445D01*
X011506Y011401D01*
X011506Y011402D01*
X011506Y011508D01*
X011613Y011464D01*
X011743Y011464D01*
X011864Y011514D01*
X011956Y011606D01*
X012006Y011727D01*
X012006Y011858D01*
X011981Y011917D01*
X012104Y011917D01*
X012150Y011806D01*
X012242Y011714D01*
X012363Y011664D01*
X012493Y011664D01*
X012614Y011714D01*
X012706Y011806D01*
X012756Y011927D01*
X012756Y012058D01*
X012706Y012178D01*
X012614Y012270D01*
X012493Y012320D01*
X012363Y012320D01*
X012355Y012317D01*
X011420Y012317D01*
X011320Y012217D01*
X007995Y012217D01*
X007823Y012045D01*
X007713Y012045D01*
X007592Y011995D01*
X007500Y011903D01*
X007450Y011783D01*
X007450Y011652D01*
X007500Y011531D01*
X007592Y011439D01*
X007713Y011389D01*
X007843Y011389D01*
X007964Y011439D01*
X007990Y011465D01*
X008025Y011381D01*
X008117Y011289D01*
X008238Y011239D01*
X008368Y011239D01*
X008387Y011247D01*
X008425Y011156D01*
X008517Y011064D01*
X008638Y011014D01*
X008723Y011014D01*
X008700Y010958D01*
X008700Y010827D01*
X008750Y010706D01*
X008842Y010614D01*
X008963Y010564D01*
X009093Y010564D01*
X009214Y010614D01*
X009306Y010706D01*
X009356Y010827D01*
X009356Y010917D01*
X010845Y010917D01*
X010821Y010893D01*
X010704Y010776D01*
X010704Y010663D01*
X010586Y010663D01*
X010498Y010575D01*
X010498Y009860D01*
X010586Y009772D01*
X011222Y009772D01*
X011278Y009828D01*
X011334Y009772D01*
X011970Y009772D01*
X012003Y009805D01*
X012003Y009767D01*
X009442Y009767D01*
X009364Y009845D01*
X009243Y009895D01*
X009113Y009895D01*
X008992Y009845D01*
X008900Y009753D01*
X008850Y009633D01*
X008850Y009502D01*
X008900Y009381D01*
X008939Y009342D01*
X008186Y009342D01*
X007239Y010289D01*
X007243Y010289D01*
X007364Y010339D01*
X007456Y010431D01*
X007506Y010552D01*
X007506Y010683D01*
X007456Y010803D01*
X007364Y010895D01*
X007253Y010941D01*
X007253Y012334D01*
X007461Y012542D01*
X007911Y012542D01*
X008028Y012659D01*
X008739Y013370D01*
X008813Y013339D01*
X008943Y013339D01*
X009003Y013364D01*
X009003Y012809D01*
X009370Y012442D01*
X011345Y012442D01*
X011395Y012392D01*
X012095Y012392D01*
X012163Y012364D01*
X012293Y012364D01*
X012414Y012414D01*
X012506Y012506D01*
X012556Y012627D01*
X012556Y012758D01*
X012506Y012878D01*
X012414Y012970D01*
X012311Y013013D01*
X012335Y013003D02*
X012555Y013003D01*
X012553Y013102D02*
X012402Y013102D01*
X012445Y013200D02*
X012522Y013200D01*
X012643Y013362D02*
X012959Y013362D01*
X012903Y013418D01*
X012903Y014222D01*
X012673Y013988D02*
X012352Y013988D01*
X012352Y014004D02*
X012352Y013936D01*
X012561Y013727D01*
X012641Y013808D01*
X012703Y013808D01*
X012703Y013958D01*
X012625Y014036D01*
X012575Y014157D01*
X012575Y014288D01*
X012625Y014408D01*
X012637Y014421D01*
X012573Y014485D01*
X012573Y014642D01*
X012558Y014642D01*
X012558Y014485D01*
X012470Y014397D01*
X012352Y014397D01*
X012352Y014004D01*
X012352Y014087D02*
X012604Y014087D01*
X012575Y014185D02*
X012352Y014185D01*
X012352Y014284D02*
X012575Y014284D01*
X012614Y014382D02*
X012352Y014382D01*
X012554Y014481D02*
X012577Y014481D01*
X012573Y014579D02*
X012558Y014579D01*
X012152Y014842D02*
X012152Y013921D01*
X012033Y013802D01*
X011317Y013802D01*
X011227Y013892D01*
X011427Y014092D01*
X011603Y014092D01*
X011481Y014397D02*
X011417Y014370D01*
X011384Y014338D01*
X010909Y014338D01*
X010853Y014282D01*
X010797Y014338D01*
X010528Y014338D01*
X010528Y014484D01*
X010998Y014954D01*
X010998Y014485D01*
X011086Y014397D01*
X011481Y014397D01*
X011446Y014382D02*
X010528Y014382D01*
X010528Y014481D02*
X011002Y014481D01*
X010998Y014579D02*
X010623Y014579D01*
X010721Y014678D02*
X010998Y014678D01*
X010998Y014776D02*
X010820Y014776D01*
X010918Y014875D02*
X010998Y014875D01*
X011103Y015143D02*
X011404Y014842D01*
X011103Y015143D02*
X011103Y015342D01*
X011741Y015269D02*
X011815Y015269D01*
X012152Y014842D02*
X012979Y014842D01*
X012573Y015072D02*
X012558Y015072D01*
X012558Y015170D02*
X012573Y015170D01*
X012642Y015269D02*
X012489Y015269D01*
X013316Y015269D02*
X013399Y015269D01*
X013677Y015269D02*
X013777Y015269D01*
X013777Y015170D02*
X013677Y015170D01*
X013677Y015072D02*
X013777Y015072D01*
X013777Y014973D02*
X013677Y014973D01*
X013727Y014842D02*
X014103Y014466D01*
X014553Y014466D01*
X014602Y014417D01*
X015678Y014417D01*
X015878Y014217D01*
X015878Y013917D01*
X015453Y013492D01*
X015078Y013492D01*
X013978Y012392D01*
X012078Y012392D01*
X012003Y012317D01*
X011228Y012317D01*
X011153Y012392D01*
X007803Y012392D01*
X007653Y012242D01*
X007647Y012018D02*
X007253Y012018D01*
X007253Y011920D02*
X007517Y011920D01*
X007466Y011821D02*
X007253Y011821D01*
X007253Y011723D02*
X007450Y011723D01*
X007461Y011624D02*
X007253Y011624D01*
X007253Y011526D02*
X007506Y011526D01*
X007621Y011427D02*
X007253Y011427D01*
X007253Y011329D02*
X008078Y011329D01*
X008006Y011427D02*
X007935Y011427D01*
X007778Y011717D02*
X008078Y012017D01*
X011403Y012017D01*
X011503Y012117D01*
X012303Y012117D01*
X012428Y011992D01*
X012732Y012117D02*
X014603Y012117D01*
X014603Y012215D02*
X012669Y012215D01*
X012509Y012314D02*
X014603Y012314D01*
X014603Y012412D02*
X012410Y012412D01*
X012508Y012511D02*
X014603Y012511D01*
X014603Y012609D02*
X012549Y012609D01*
X012556Y012708D02*
X014603Y012708D01*
X014603Y012806D02*
X012536Y012806D01*
X012480Y012905D02*
X014683Y012905D01*
X014781Y013003D02*
X014111Y013003D01*
X014113Y013102D02*
X014880Y013102D01*
X014900Y013200D02*
X014318Y013200D01*
X014417Y013299D02*
X014927Y013299D01*
X014998Y013402D02*
X014998Y013518D01*
X015237Y013518D01*
X015458Y013739D01*
X015568Y013739D01*
X015689Y013789D01*
X015781Y013881D01*
X015831Y014002D01*
X015831Y014133D01*
X015781Y014253D01*
X015689Y014345D01*
X015568Y014395D01*
X015438Y014395D01*
X015317Y014345D01*
X015225Y014253D01*
X015175Y014133D01*
X015175Y014022D01*
X015071Y013918D01*
X014998Y013918D01*
X014998Y014036D01*
X014942Y014092D01*
X014968Y014118D01*
X014988Y014152D01*
X014998Y014191D01*
X014998Y014416D01*
X014603Y014416D01*
X014603Y014516D01*
X014998Y014516D01*
X014998Y014742D01*
X014988Y014780D01*
X014968Y014814D01*
X014940Y014842D01*
X014906Y014862D01*
X014868Y014872D01*
X014603Y014872D01*
X014603Y014516D01*
X014503Y014516D01*
X014503Y014872D01*
X014472Y014872D01*
X014556Y014956D01*
X014606Y015077D01*
X014606Y015188D01*
X014611Y015192D01*
X015714Y015192D01*
X015700Y015158D01*
X015700Y015027D01*
X015708Y015008D01*
X015617Y014970D01*
X015525Y014878D01*
X015475Y014758D01*
X015475Y014627D01*
X015525Y014506D01*
X015617Y014414D01*
X015738Y014364D01*
X015868Y014364D01*
X015875Y014367D01*
X015875Y014327D01*
X015925Y014206D01*
X015989Y014142D01*
X015925Y014078D01*
X015875Y013958D01*
X015875Y013827D01*
X015925Y013706D01*
X015989Y013642D01*
X015939Y013592D01*
X015920Y013592D01*
X015803Y013475D01*
X015703Y013375D01*
X015703Y012856D01*
X015639Y012920D01*
X015518Y012970D01*
X015495Y012970D01*
X015506Y012981D01*
X015556Y013102D01*
X015556Y013233D01*
X015506Y013353D01*
X015414Y013445D01*
X015293Y013495D01*
X015163Y013495D01*
X015042Y013445D01*
X014998Y013402D01*
X014998Y013496D02*
X015824Y013496D01*
X015725Y013397D02*
X015462Y013397D01*
X015529Y013299D02*
X015703Y013299D01*
X015703Y013200D02*
X015556Y013200D01*
X015556Y013102D02*
X015703Y013102D01*
X015703Y013003D02*
X015515Y013003D01*
X015655Y012905D02*
X015703Y012905D01*
X015903Y012692D02*
X016103Y012492D01*
X016103Y008992D01*
X015703Y008592D01*
X007728Y008592D01*
X006203Y010117D01*
X005494Y010117D01*
X004995Y010616D01*
X005313Y010935D02*
X005393Y010935D01*
X005411Y010917D02*
X005660Y010917D01*
X005614Y010871D01*
X005545Y010705D01*
X005545Y010526D01*
X005614Y010361D01*
X005657Y010317D01*
X005577Y010317D01*
X005423Y010471D01*
X005445Y010526D01*
X005445Y010705D01*
X005377Y010871D01*
X005250Y010997D01*
X005085Y011066D01*
X004906Y011066D01*
X004803Y011023D01*
X004803Y011208D01*
X004906Y011166D01*
X005085Y011166D01*
X005140Y011189D01*
X005411Y010917D01*
X005391Y010836D02*
X005599Y010836D01*
X005559Y010738D02*
X005432Y010738D01*
X005445Y010639D02*
X005545Y010639D01*
X005545Y010541D02*
X005445Y010541D01*
X005452Y010442D02*
X005580Y010442D01*
X005550Y010344D02*
X005631Y010344D01*
X005995Y010616D02*
X007844Y008767D01*
X015578Y008767D01*
X015903Y009092D01*
X015903Y011442D01*
X015803Y011542D01*
X015703Y011229D02*
X015653Y011249D01*
X015653Y009559D01*
X015536Y009442D01*
X015061Y008967D01*
X015495Y008967D01*
X015703Y009175D01*
X015703Y011229D01*
X015699Y011230D02*
X015653Y011230D01*
X015653Y011132D02*
X015703Y011132D01*
X015703Y011033D02*
X015653Y011033D01*
X015653Y010935D02*
X015703Y010935D01*
X015703Y010836D02*
X015653Y010836D01*
X015653Y010738D02*
X015703Y010738D01*
X015703Y010639D02*
X015653Y010639D01*
X015653Y010541D02*
X015703Y010541D01*
X015703Y010442D02*
X015653Y010442D01*
X015653Y010344D02*
X015703Y010344D01*
X015703Y010245D02*
X015653Y010245D01*
X015653Y010147D02*
X015703Y010147D01*
X015703Y010048D02*
X015653Y010048D01*
X015653Y009950D02*
X015703Y009950D01*
X015703Y009851D02*
X015653Y009851D01*
X015653Y009753D02*
X015703Y009753D01*
X015703Y009654D02*
X015653Y009654D01*
X015649Y009556D02*
X015703Y009556D01*
X015703Y009457D02*
X015551Y009457D01*
X015452Y009359D02*
X015703Y009359D01*
X015703Y009260D02*
X015354Y009260D01*
X015255Y009162D02*
X015690Y009162D01*
X015591Y009063D02*
X015157Y009063D01*
X014887Y009359D02*
X014602Y009359D01*
X014504Y009260D02*
X014788Y009260D01*
X014690Y009162D02*
X014405Y009162D01*
X014386Y009142D02*
X015136Y009892D01*
X015253Y010009D01*
X015253Y011759D01*
X015253Y011759D01*
X015253Y009725D01*
X014670Y009142D01*
X014386Y009142D01*
X014103Y009142D02*
X008103Y009142D01*
X006728Y010517D01*
X006728Y010867D01*
X006478Y011117D01*
X006478Y011867D01*
X006228Y012117D01*
X005553Y012117D01*
X005054Y012616D01*
X004995Y012616D01*
X004803Y013023D02*
X004803Y013208D01*
X004906Y013166D01*
X005085Y013166D01*
X005140Y013189D01*
X005294Y013034D01*
X005411Y012917D01*
X005660Y012917D01*
X005614Y012871D01*
X005545Y012705D01*
X005545Y012526D01*
X005614Y012361D01*
X005657Y012317D01*
X005636Y012317D01*
X005440Y012513D01*
X005445Y012526D01*
X005445Y012705D01*
X005377Y012871D01*
X005250Y012997D01*
X005085Y013066D01*
X004906Y013066D01*
X004803Y013023D01*
X004803Y013102D02*
X005226Y013102D01*
X005236Y013003D02*
X005325Y013003D01*
X005343Y012905D02*
X005648Y012905D01*
X005587Y012806D02*
X005403Y012806D01*
X005444Y012708D02*
X005546Y012708D01*
X005545Y012609D02*
X005445Y012609D01*
X005442Y012511D02*
X005552Y012511D01*
X005541Y012412D02*
X005592Y012412D01*
X005271Y012117D02*
X004803Y012117D01*
X004803Y012208D02*
X004803Y012023D01*
X004906Y012066D01*
X005085Y012066D01*
X005250Y011997D01*
X005377Y011871D01*
X005445Y011705D01*
X005445Y011526D01*
X005545Y011526D01*
X005614Y011361D01*
X005657Y011317D01*
X005577Y011317D01*
X005423Y011471D01*
X005445Y011526D01*
X005445Y011624D02*
X005545Y011624D01*
X005545Y011705D02*
X005545Y011526D01*
X005586Y011427D02*
X005467Y011427D01*
X005565Y011329D02*
X005646Y011329D01*
X005494Y011117D02*
X006228Y011117D01*
X006528Y010817D01*
X006528Y010442D01*
X008028Y008942D01*
X014753Y008942D01*
X015453Y009642D01*
X015453Y011742D01*
X015753Y012042D01*
X015753Y012292D01*
X015453Y012592D01*
X015453Y012642D01*
X015152Y012511D02*
X015003Y012511D01*
X015003Y012609D02*
X015125Y012609D01*
X015125Y012577D02*
X015175Y012456D01*
X015198Y012433D01*
X015167Y012420D01*
X015075Y012328D01*
X015025Y012208D01*
X015025Y012097D01*
X015003Y012075D01*
X015003Y012659D01*
X015183Y012839D01*
X015186Y012839D01*
X015175Y012828D01*
X015125Y012708D01*
X015051Y012708D01*
X015125Y012708D02*
X015125Y012577D01*
X015159Y012412D02*
X015003Y012412D01*
X015003Y012314D02*
X015069Y012314D01*
X015028Y012215D02*
X015003Y012215D01*
X015003Y012117D02*
X015025Y012117D01*
X015053Y011842D02*
X015353Y012142D01*
X015253Y011723D02*
X015253Y011723D01*
X015253Y011624D02*
X015253Y011624D01*
X015253Y011526D02*
X015253Y011526D01*
X015253Y011427D02*
X015253Y011427D01*
X015253Y011329D02*
X015253Y011329D01*
X015253Y011230D02*
X015253Y011230D01*
X015253Y011132D02*
X015253Y011132D01*
X015253Y011033D02*
X015253Y011033D01*
X015253Y010935D02*
X015253Y010935D01*
X015253Y010836D02*
X015253Y010836D01*
X015253Y010738D02*
X015253Y010738D01*
X015253Y010639D02*
X015253Y010639D01*
X015253Y010541D02*
X015253Y010541D01*
X015253Y010442D02*
X015253Y010442D01*
X015253Y010344D02*
X015253Y010344D01*
X015253Y010245D02*
X015253Y010245D01*
X015253Y010147D02*
X015253Y010147D01*
X015253Y010048D02*
X015253Y010048D01*
X015253Y009950D02*
X015193Y009950D01*
X015253Y009851D02*
X015095Y009851D01*
X014996Y009753D02*
X015253Y009753D01*
X015182Y009654D02*
X014898Y009654D01*
X014799Y009556D02*
X015084Y009556D01*
X014985Y009457D02*
X014701Y009457D01*
X014431Y009753D02*
X012507Y009753D01*
X012489Y009770D02*
X012403Y009806D01*
X012403Y010125D01*
X012286Y010242D01*
X012111Y010417D01*
X012058Y010417D01*
X012058Y010492D01*
X014486Y010492D01*
X014603Y010609D01*
X014853Y010859D01*
X014853Y010175D01*
X014020Y009342D01*
X012596Y009342D01*
X012631Y009427D01*
X012631Y009558D01*
X012581Y009678D01*
X012489Y009770D01*
X012403Y009851D02*
X014529Y009851D01*
X014628Y009950D02*
X012403Y009950D01*
X012403Y010048D02*
X014726Y010048D01*
X014825Y010147D02*
X012381Y010147D01*
X012286Y010242D02*
X012286Y010242D01*
X012283Y010245D02*
X014853Y010245D01*
X014853Y010344D02*
X012184Y010344D01*
X012058Y010442D02*
X014853Y010442D01*
X014853Y010541D02*
X014534Y010541D01*
X014633Y010639D02*
X014853Y010639D01*
X014853Y010738D02*
X014731Y010738D01*
X014830Y010836D02*
X014853Y010836D01*
X014803Y011092D02*
X014403Y010692D01*
X011304Y010692D01*
X011229Y010767D01*
X010978Y010767D01*
X010904Y010693D01*
X010904Y010217D01*
X010498Y010245D02*
X007283Y010245D01*
X007369Y010344D02*
X010498Y010344D01*
X010498Y010442D02*
X007461Y010442D01*
X007502Y010541D02*
X010498Y010541D01*
X010563Y010639D02*
X009239Y010639D01*
X009319Y010738D02*
X010704Y010738D01*
X010764Y010836D02*
X009356Y010836D01*
X009253Y011117D02*
X011678Y011117D01*
X012006Y011132D02*
X014560Y011132D01*
X014603Y011230D02*
X011986Y011230D01*
X011931Y011329D02*
X014603Y011329D01*
X014603Y011427D02*
X011787Y011427D01*
X011876Y011526D02*
X014603Y011526D01*
X014603Y011624D02*
X011964Y011624D01*
X012004Y011723D02*
X012234Y011723D01*
X012144Y011821D02*
X012006Y011821D01*
X011678Y011792D02*
X008528Y011792D01*
X008303Y011567D01*
X008703Y011342D02*
X008828Y011467D01*
X011178Y011467D01*
X011506Y011427D02*
X011569Y011427D01*
X011998Y011033D02*
X014461Y011033D01*
X014363Y010935D02*
X011958Y010935D01*
X012028Y010217D02*
X011652Y010217D01*
X012028Y010217D02*
X012203Y010042D01*
X012203Y009592D01*
X012228Y009567D01*
X009178Y009567D01*
X009417Y009342D02*
X009442Y009367D01*
X012000Y009367D01*
X012010Y009342D01*
X009417Y009342D01*
X009434Y009359D02*
X012003Y009359D01*
X012228Y009567D02*
X012303Y009492D01*
X012603Y009359D02*
X014037Y009359D01*
X014135Y009457D02*
X012631Y009457D01*
X012631Y009556D02*
X014234Y009556D01*
X014332Y009654D02*
X012591Y009654D01*
X014103Y009142D02*
X015053Y010092D01*
X015053Y011842D01*
X014603Y011821D02*
X012712Y011821D01*
X012753Y011920D02*
X014603Y011920D01*
X014603Y012018D02*
X012756Y012018D01*
X012623Y011723D02*
X014603Y011723D01*
X014803Y011092D02*
X014803Y012742D01*
X015228Y013167D01*
X015166Y012806D02*
X015150Y012806D01*
X015903Y012692D02*
X015903Y013292D01*
X016003Y013392D01*
X016203Y013392D01*
X015941Y013594D02*
X015313Y013594D01*
X015411Y013693D02*
X015939Y013693D01*
X015890Y013791D02*
X015691Y013791D01*
X015785Y013890D02*
X015875Y013890D01*
X015888Y013988D02*
X015826Y013988D01*
X015831Y014087D02*
X015934Y014087D01*
X015946Y014185D02*
X015809Y014185D01*
X015751Y014284D02*
X015893Y014284D01*
X015694Y014382D02*
X015600Y014382D01*
X015551Y014481D02*
X014603Y014481D01*
X014603Y014579D02*
X014503Y014579D01*
X014503Y014481D02*
X014118Y014481D01*
X014108Y014382D02*
X013192Y014382D01*
X013447Y014284D02*
X014108Y014284D01*
X014109Y014185D02*
X013564Y014185D01*
X013609Y014087D02*
X014158Y014087D01*
X014108Y013988D02*
X013621Y013988D01*
X013616Y013890D02*
X014108Y013890D01*
X014108Y013791D02*
X014041Y013791D01*
X013707Y013553D02*
X013707Y013516D01*
X013293Y013930D01*
X013293Y013992D01*
X012939Y013552D02*
X012959Y013362D01*
X012643Y013362D02*
X012203Y013802D01*
X012033Y013802D01*
X012019Y013602D02*
X011942Y013570D01*
X011864Y013492D01*
X011590Y013492D01*
X011633Y013535D01*
X011633Y013602D01*
X012019Y013602D01*
X012000Y013594D02*
X011633Y013594D01*
X011594Y013496D02*
X011868Y013496D01*
X012128Y013292D02*
X009978Y013292D01*
X009803Y013467D01*
X009803Y015267D01*
X009663Y015564D02*
X009653Y015564D01*
X009403Y015900D02*
X009403Y016778D01*
X009481Y016856D01*
X009531Y016977D01*
X009517Y016943D02*
X011171Y016943D01*
X011153Y016925D02*
X011148Y016920D01*
X011038Y016920D01*
X010917Y016870D01*
X010825Y016778D01*
X010775Y016658D01*
X010775Y016527D01*
X010825Y016406D01*
X010903Y016328D01*
X010903Y016100D01*
X010793Y016145D01*
X010663Y016145D01*
X010542Y016095D01*
X010464Y016017D01*
X009520Y016017D01*
X009403Y015900D01*
X009403Y015958D02*
X009461Y015958D01*
X009403Y016057D02*
X010504Y016057D01*
X010903Y016155D02*
X009403Y016155D01*
X009403Y016254D02*
X010903Y016254D01*
X010879Y016352D02*
X009403Y016352D01*
X009403Y016451D02*
X010807Y016451D01*
X010775Y016549D02*
X009403Y016549D01*
X009403Y016648D02*
X010775Y016648D01*
X010812Y016746D02*
X009403Y016746D01*
X009470Y016845D02*
X010892Y016845D01*
X011153Y016925D02*
X011270Y017042D01*
X011353Y016842D02*
X012378Y016842D01*
X012528Y016692D01*
X012824Y016549D02*
X014787Y016549D01*
X014648Y016451D02*
X012834Y016451D01*
X012888Y016352D02*
X014594Y016352D01*
X014575Y016254D02*
X012906Y016254D01*
X012897Y016155D02*
X014584Y016155D01*
X014625Y016057D02*
X012856Y016057D01*
X012578Y016242D02*
X012453Y016242D01*
X012856Y016648D02*
X018103Y016648D01*
X018103Y016746D02*
X012856Y016746D01*
X012820Y016845D02*
X018103Y016845D01*
X018103Y016943D02*
X012741Y016943D01*
X012461Y017042D02*
X018103Y017042D01*
X018103Y017140D02*
X009518Y017140D01*
X009471Y017239D02*
X018085Y017239D01*
X017967Y017337D02*
X009348Y017337D01*
X009203Y017042D02*
X009203Y012892D01*
X009453Y012642D01*
X011428Y012642D01*
X011478Y012592D01*
X012128Y012592D01*
X012228Y012692D01*
X011439Y013092D02*
X011439Y013092D01*
X009811Y013092D01*
X009653Y013250D01*
X009653Y013334D01*
X009720Y013267D01*
X009895Y013092D01*
X011439Y013092D01*
X011375Y012412D02*
X007331Y012412D01*
X007253Y012314D02*
X011417Y012314D01*
X010864Y013492D02*
X010842Y013492D01*
X010853Y013503D01*
X010864Y013492D01*
X010860Y013496D02*
X010846Y013496D01*
X010112Y013496D02*
X010057Y013496D01*
X010073Y013594D02*
X010003Y013594D01*
X010003Y013693D02*
X010073Y013693D01*
X010073Y013791D02*
X010003Y013791D01*
X009689Y013299D02*
X009653Y013299D01*
X009703Y013200D02*
X009787Y013200D01*
X009801Y013102D02*
X009886Y013102D01*
X009302Y012511D02*
X007429Y012511D01*
X007378Y012742D02*
X007053Y012417D01*
X007053Y010742D01*
X007178Y010617D01*
X007483Y010738D02*
X008737Y010738D01*
X008700Y010836D02*
X007423Y010836D01*
X007269Y010935D02*
X008700Y010935D01*
X008592Y011033D02*
X007253Y011033D01*
X007253Y011132D02*
X008450Y011132D01*
X008394Y011230D02*
X007253Y011230D01*
X006853Y011230D02*
X006678Y011230D01*
X006678Y011200D02*
X006853Y011025D01*
X006853Y012499D01*
X006768Y012464D01*
X006638Y012464D01*
X006517Y012514D01*
X006445Y012586D01*
X006445Y012526D01*
X006377Y012361D01*
X006322Y012306D01*
X006561Y012067D01*
X006678Y011950D01*
X006678Y011200D01*
X006746Y011132D02*
X006853Y011132D01*
X006845Y011033D02*
X006853Y011033D01*
X006853Y011329D02*
X006678Y011329D01*
X006678Y011427D02*
X006853Y011427D01*
X006853Y011526D02*
X006678Y011526D01*
X006678Y011624D02*
X006853Y011624D01*
X006853Y011723D02*
X006678Y011723D01*
X006678Y011821D02*
X006853Y011821D01*
X006853Y011920D02*
X006678Y011920D01*
X006610Y012018D02*
X006853Y012018D01*
X006853Y012117D02*
X006511Y012117D01*
X006413Y012215D02*
X006853Y012215D01*
X006853Y012314D02*
X006330Y012314D01*
X006398Y012412D02*
X006853Y012412D01*
X006997Y012644D02*
X007031Y012727D01*
X007031Y012858D01*
X006981Y012978D01*
X006889Y013070D01*
X006768Y013120D01*
X006638Y013120D01*
X006517Y013070D01*
X006488Y013041D01*
X006272Y013256D01*
X006377Y013361D01*
X006445Y013526D01*
X006445Y013705D01*
X006377Y013871D01*
X006250Y013997D01*
X006085Y014066D01*
X005906Y014066D01*
X005740Y013997D01*
X005614Y013871D01*
X005545Y013705D01*
X005545Y013526D01*
X005614Y013361D01*
X005657Y013317D01*
X005577Y013317D01*
X005423Y013471D01*
X005445Y013526D01*
X005445Y013705D01*
X005377Y013871D01*
X005250Y013997D01*
X005085Y014066D01*
X004906Y014066D01*
X004803Y014023D01*
X004803Y014208D01*
X004906Y014166D01*
X005085Y014166D01*
X005250Y014234D01*
X005377Y014361D01*
X005445Y014526D01*
X005445Y014589D01*
X005545Y014589D01*
X005545Y014526D01*
X005614Y014361D01*
X005740Y014234D01*
X005906Y014166D01*
X006085Y014166D01*
X006250Y014234D01*
X006377Y014361D01*
X006445Y014526D01*
X006445Y014542D01*
X006850Y014138D01*
X006850Y014027D01*
X006900Y013906D01*
X006992Y013814D01*
X007113Y013764D01*
X007243Y013764D01*
X007364Y013814D01*
X007456Y013906D01*
X007506Y014027D01*
X007506Y014138D01*
X007554Y014185D01*
X008378Y014185D01*
X008378Y014087D02*
X007506Y014087D01*
X007490Y013988D02*
X008378Y013988D01*
X008378Y013890D02*
X007440Y013890D01*
X007309Y013791D02*
X008378Y013791D01*
X008378Y013693D02*
X006445Y013693D01*
X006445Y013594D02*
X008378Y013594D01*
X008378Y013575D02*
X007745Y012942D01*
X007295Y012942D01*
X006997Y012644D01*
X007023Y012708D02*
X007061Y012708D01*
X007031Y012806D02*
X007159Y012806D01*
X007258Y012905D02*
X007012Y012905D01*
X006956Y013003D02*
X007806Y013003D01*
X007905Y013102D02*
X006813Y013102D01*
X006593Y013102D02*
X006426Y013102D01*
X006328Y013200D02*
X008003Y013200D01*
X008102Y013299D02*
X006315Y013299D01*
X006392Y013397D02*
X008200Y013397D01*
X008299Y013496D02*
X006433Y013496D01*
X006128Y013117D02*
X006453Y012792D01*
X006703Y012792D01*
X006525Y012511D02*
X006439Y012511D01*
X006128Y013117D02*
X005494Y013117D01*
X004995Y013616D01*
X004823Y013200D02*
X004803Y013200D01*
X005433Y013496D02*
X005558Y013496D01*
X005545Y013594D02*
X005445Y013594D01*
X005445Y013693D02*
X005545Y013693D01*
X005581Y013791D02*
X005410Y013791D01*
X005358Y013890D02*
X005633Y013890D01*
X005731Y013988D02*
X005259Y013988D01*
X005132Y014185D02*
X005859Y014185D01*
X005691Y014284D02*
X005300Y014284D01*
X005386Y014382D02*
X005605Y014382D01*
X005564Y014481D02*
X005426Y014481D01*
X005445Y014579D02*
X005545Y014579D01*
X005503Y014917D02*
X005423Y014997D01*
X005423Y019792D01*
X005753Y020142D01*
X011503Y020142D01*
X011753Y019892D01*
X011425Y019898D02*
X010381Y019898D01*
X010381Y019908D02*
X010367Y019942D01*
X011420Y019942D01*
X011425Y019938D01*
X011425Y019827D01*
X011475Y019706D01*
X011567Y019614D01*
X011688Y019564D01*
X011818Y019564D01*
X011939Y019614D01*
X012031Y019706D01*
X012081Y019827D01*
X012081Y019958D01*
X012031Y020078D01*
X011939Y020170D01*
X011818Y020220D01*
X011708Y020220D01*
X011586Y020342D01*
X006358Y020342D01*
X006377Y020361D01*
X006445Y020526D01*
X006445Y020705D01*
X006377Y020871D01*
X006250Y020997D01*
X006085Y021066D01*
X005906Y021066D01*
X005740Y020997D01*
X005614Y020871D01*
X005545Y020705D01*
X005545Y020526D01*
X005614Y020361D01*
X005650Y020325D01*
X005610Y020282D01*
X005553Y020225D01*
X005553Y020222D01*
X005297Y019950D01*
X005288Y019959D01*
X005231Y020001D01*
X005168Y020033D01*
X005101Y020055D01*
X005045Y020064D01*
X005045Y019666D01*
X004945Y019666D01*
X004945Y020064D01*
X004890Y020055D01*
X004823Y020033D01*
X004803Y020023D01*
X004803Y020208D01*
X004906Y020166D01*
X005085Y020166D01*
X005250Y020234D01*
X005377Y020361D01*
X005445Y020526D01*
X005445Y020705D01*
X005377Y020871D01*
X005250Y020997D01*
X005085Y021066D01*
X004906Y021066D01*
X004803Y021023D01*
X004803Y021166D01*
X005357Y021166D01*
X005445Y021254D01*
X005445Y021667D01*
X005545Y021667D01*
X005545Y021526D01*
X005614Y021361D01*
X005740Y021234D01*
X005906Y021166D01*
X006085Y021166D01*
X006250Y021234D01*
X006377Y021361D01*
X006399Y021416D01*
X013872Y021416D01*
X014525Y020763D01*
X014525Y020652D01*
X014575Y020531D01*
X014667Y020439D01*
X014788Y020389D01*
X014918Y020389D01*
X015039Y020439D01*
X015131Y020531D01*
X015181Y020652D01*
X015181Y020783D01*
X015152Y020853D01*
X015273Y020853D01*
X015452Y020927D01*
X015590Y021065D01*
X015665Y021245D01*
X015665Y021440D01*
X015590Y021620D01*
X015543Y021667D01*
X017564Y021667D01*
X017516Y021620D01*
X017442Y021440D01*
X017442Y021245D01*
X017516Y021065D01*
X017654Y020927D01*
X017834Y020853D01*
X018028Y020853D01*
X018208Y020927D01*
X018346Y021065D01*
X018421Y021245D01*
X018421Y021440D01*
X018346Y021620D01*
X018298Y021667D01*
X018545Y021667D01*
X018545Y021254D01*
X018633Y021166D01*
X019303Y021166D01*
X019303Y020944D01*
X019250Y020997D01*
X019085Y021066D01*
X018906Y021066D01*
X018740Y020997D01*
X018614Y020871D01*
X018545Y020705D01*
X018545Y020526D01*
X018614Y020361D01*
X018740Y020234D01*
X018906Y020166D01*
X019085Y020166D01*
X019250Y020234D01*
X019303Y020287D01*
X019303Y019944D01*
X019250Y019997D01*
X019085Y020066D01*
X018906Y020066D01*
X018740Y019997D01*
X017792Y019997D01*
X017765Y019969D02*
X017877Y020082D01*
X017938Y020229D01*
X017938Y020389D01*
X017877Y020536D01*
X017765Y020649D01*
X017617Y020710D01*
X017458Y020710D01*
X017310Y020649D01*
X017197Y020536D01*
X017136Y020389D01*
X017136Y020229D01*
X017197Y020082D01*
X017310Y019969D01*
X017458Y019908D01*
X017617Y019908D01*
X017765Y019969D01*
X017883Y020095D02*
X019303Y020095D01*
X019303Y019997D02*
X019251Y019997D01*
X019303Y020194D02*
X019152Y020194D01*
X018838Y020194D02*
X017924Y020194D01*
X017938Y020292D02*
X018682Y020292D01*
X018601Y020391D02*
X017937Y020391D01*
X017897Y020489D02*
X018561Y020489D01*
X018545Y020588D02*
X017825Y020588D01*
X017674Y020686D02*
X018545Y020686D01*
X018578Y020785D02*
X015180Y020785D01*
X015181Y020686D02*
X015432Y020686D01*
X015489Y020710D02*
X015342Y020649D01*
X015229Y020536D01*
X015168Y020389D01*
X015168Y020229D01*
X015229Y020082D01*
X015342Y019969D01*
X015489Y019908D01*
X015649Y019908D01*
X015796Y019969D01*
X015909Y020082D01*
X015970Y020229D01*
X015970Y020389D01*
X015909Y020536D01*
X015796Y020649D01*
X015649Y020710D01*
X015489Y020710D01*
X015705Y020686D02*
X017401Y020686D01*
X017249Y020588D02*
X015857Y020588D01*
X015928Y020489D02*
X017178Y020489D01*
X017137Y020391D02*
X015969Y020391D01*
X015970Y020292D02*
X017136Y020292D01*
X017151Y020194D02*
X015955Y020194D01*
X015914Y020095D02*
X017192Y020095D01*
X017282Y019997D02*
X015824Y019997D01*
X015314Y019997D02*
X014578Y019997D01*
X014578Y020012D02*
X014525Y020141D01*
X014426Y020239D01*
X014298Y020292D01*
X013009Y020292D01*
X012880Y020239D01*
X012847Y020206D01*
X012806Y020303D01*
X012714Y020395D01*
X012593Y020445D01*
X012463Y020445D01*
X012342Y020395D01*
X012250Y020303D01*
X012200Y020183D01*
X012200Y020052D01*
X012250Y019931D01*
X012328Y019853D01*
X012328Y019400D01*
X012320Y019392D01*
X008270Y019392D01*
X008070Y019192D01*
X007953Y019075D01*
X007953Y018538D01*
X007784Y018538D01*
X007728Y018482D01*
X007672Y018538D01*
X007103Y018538D01*
X007103Y019328D01*
X007181Y019406D01*
X012328Y019406D01*
X012328Y019504D02*
X007222Y019504D01*
X007231Y019527D02*
X007231Y019642D01*
X009789Y019642D01*
X009867Y019564D01*
X009988Y019514D01*
X010118Y019514D01*
X010239Y019564D01*
X010331Y019656D01*
X010381Y019777D01*
X010381Y019908D01*
X010381Y019800D02*
X011436Y019800D01*
X011480Y019701D02*
X010350Y019701D01*
X010278Y019603D02*
X011595Y019603D01*
X011912Y019603D02*
X012328Y019603D01*
X012328Y019701D02*
X012026Y019701D01*
X012070Y019800D02*
X012328Y019800D01*
X012283Y019898D02*
X012081Y019898D01*
X012065Y019997D02*
X012223Y019997D01*
X012228Y020092D02*
X011803Y020517D01*
X014453Y020517D01*
X015078Y019892D01*
X018203Y019892D01*
X018453Y020142D01*
X018641Y019898D02*
X014578Y019898D01*
X014578Y019873D02*
X014578Y020012D01*
X014544Y020095D02*
X015223Y020095D01*
X015182Y020194D02*
X014472Y020194D01*
X014617Y020489D02*
X006430Y020489D01*
X006445Y020588D02*
X014552Y020588D01*
X014525Y020686D02*
X006445Y020686D01*
X006412Y020785D02*
X014503Y020785D01*
X014404Y020883D02*
X006364Y020883D01*
X006266Y020982D02*
X014306Y020982D01*
X014207Y021080D02*
X004803Y021080D01*
X005266Y020982D02*
X005725Y020982D01*
X005626Y020883D02*
X005364Y020883D01*
X005412Y020785D02*
X005578Y020785D01*
X005545Y020686D02*
X005445Y020686D01*
X005445Y020588D02*
X005545Y020588D01*
X005561Y020489D02*
X005430Y020489D01*
X005389Y020391D02*
X005601Y020391D01*
X005620Y020292D02*
X005308Y020292D01*
X005152Y020194D02*
X005527Y020194D01*
X005434Y020095D02*
X004803Y020095D01*
X004803Y020194D02*
X004838Y020194D01*
X004945Y019997D02*
X005045Y019997D01*
X005045Y019898D02*
X004945Y019898D01*
X004945Y019800D02*
X005045Y019800D01*
X004995Y019809D02*
X005503Y020342D01*
X005341Y019997D02*
X005237Y019997D01*
X004995Y019809D02*
X004995Y019616D01*
X004945Y019566D02*
X005045Y019566D01*
X005045Y019168D01*
X005101Y019177D01*
X005168Y019199D01*
X005223Y019227D01*
X005223Y019009D01*
X005085Y019066D01*
X004906Y019066D01*
X004803Y019023D01*
X004803Y019209D01*
X004823Y019199D01*
X004890Y019177D01*
X004945Y019168D01*
X004945Y019566D01*
X004945Y019504D02*
X005045Y019504D01*
X005045Y019406D02*
X004945Y019406D01*
X004945Y019307D02*
X005045Y019307D01*
X005045Y019209D02*
X004945Y019209D01*
X004803Y019110D02*
X005223Y019110D01*
X005215Y019012D02*
X005223Y019012D01*
X005223Y019209D02*
X005188Y019209D01*
X005623Y019209D02*
X005802Y019209D01*
X005740Y019234D02*
X005623Y019352D01*
X005623Y018880D01*
X005740Y018997D01*
X005906Y019066D01*
X006085Y019066D01*
X006250Y018997D01*
X006253Y018994D01*
X006253Y019237D01*
X006250Y019234D01*
X006085Y019166D01*
X005906Y019166D01*
X005740Y019234D01*
X005667Y019307D02*
X005623Y019307D01*
X005623Y019110D02*
X006253Y019110D01*
X006253Y019012D02*
X006215Y019012D01*
X006188Y019209D02*
X006253Y019209D01*
X006653Y019209D02*
X006703Y019209D01*
X006703Y019307D02*
X006653Y019307D01*
X006703Y019328D02*
X006703Y015775D01*
X006692Y015770D01*
X006653Y015731D01*
X006653Y019378D01*
X006703Y019328D01*
X006703Y019110D02*
X006653Y019110D01*
X006653Y019012D02*
X006703Y019012D01*
X006703Y018913D02*
X006653Y018913D01*
X006653Y018815D02*
X006703Y018815D01*
X006703Y018716D02*
X006653Y018716D01*
X006653Y018618D02*
X006703Y018618D01*
X006703Y018519D02*
X006653Y018519D01*
X006653Y018421D02*
X006703Y018421D01*
X006703Y018322D02*
X006653Y018322D01*
X006653Y018224D02*
X006703Y018224D01*
X006703Y018125D02*
X006653Y018125D01*
X006653Y018027D02*
X006703Y018027D01*
X006703Y017928D02*
X006653Y017928D01*
X006653Y017830D02*
X006703Y017830D01*
X006703Y017731D02*
X006653Y017731D01*
X006653Y017633D02*
X006703Y017633D01*
X006703Y017534D02*
X006653Y017534D01*
X006653Y017436D02*
X006703Y017436D01*
X006703Y017337D02*
X006653Y017337D01*
X006653Y017239D02*
X006703Y017239D01*
X006703Y017140D02*
X006653Y017140D01*
X006653Y017042D02*
X006703Y017042D01*
X006703Y016943D02*
X006653Y016943D01*
X006653Y016845D02*
X006703Y016845D01*
X006703Y016746D02*
X006653Y016746D01*
X006653Y016648D02*
X006703Y016648D01*
X006703Y016549D02*
X006653Y016549D01*
X006653Y016451D02*
X006703Y016451D01*
X006703Y016352D02*
X006653Y016352D01*
X006653Y016254D02*
X006703Y016254D01*
X006703Y016155D02*
X006653Y016155D01*
X006653Y016057D02*
X006703Y016057D01*
X006703Y015958D02*
X006653Y015958D01*
X006653Y015860D02*
X006703Y015860D01*
X006683Y015761D02*
X006653Y015761D01*
X006903Y015517D02*
X006878Y015492D01*
X006903Y015517D02*
X006903Y019592D01*
X007231Y019603D02*
X009829Y019603D01*
X010053Y019842D02*
X007303Y019842D01*
X007203Y019942D01*
X006578Y019942D01*
X006453Y019817D01*
X006453Y015292D01*
X006568Y014985D02*
X006639Y015014D01*
X006731Y015106D01*
X006764Y015185D01*
X006813Y015164D01*
X006943Y015164D01*
X007064Y015214D01*
X007154Y015304D01*
X007154Y014420D01*
X007133Y014420D01*
X006568Y014985D01*
X006580Y014973D02*
X007154Y014973D01*
X007154Y014875D02*
X006678Y014875D01*
X006777Y014776D02*
X007154Y014776D01*
X007154Y014678D02*
X006875Y014678D01*
X006974Y014579D02*
X007154Y014579D01*
X007154Y014481D02*
X007072Y014481D01*
X007354Y014268D02*
X007178Y014092D01*
X006178Y015092D01*
X005803Y015092D01*
X005583Y015317D01*
X005583Y016204D01*
X005995Y016616D01*
X005686Y016943D02*
X005623Y016943D01*
X005623Y016880D02*
X005623Y017352D01*
X005740Y017234D01*
X005906Y017166D01*
X006085Y017166D01*
X006250Y017234D01*
X006253Y017237D01*
X006253Y016994D01*
X006250Y016997D01*
X006085Y017066D01*
X005906Y017066D01*
X005740Y016997D01*
X005623Y016880D01*
X005623Y017042D02*
X005848Y017042D01*
X005736Y017239D02*
X005623Y017239D01*
X005623Y017337D02*
X005637Y017337D01*
X005623Y017140D02*
X006253Y017140D01*
X006253Y017042D02*
X006143Y017042D01*
X005623Y017880D02*
X005623Y018352D01*
X005740Y018234D01*
X005906Y018166D01*
X006085Y018166D01*
X006250Y018234D01*
X006253Y018237D01*
X006253Y017994D01*
X006250Y017997D01*
X006085Y018066D01*
X005906Y018066D01*
X005740Y017997D01*
X005623Y017880D01*
X005623Y017928D02*
X005671Y017928D01*
X005623Y018027D02*
X005811Y018027D01*
X005766Y018224D02*
X005623Y018224D01*
X005623Y018322D02*
X005652Y018322D01*
X005623Y018125D02*
X006253Y018125D01*
X006253Y018027D02*
X006179Y018027D01*
X006225Y018224D02*
X006253Y018224D01*
X005656Y018913D02*
X005623Y018913D01*
X005623Y019012D02*
X005775Y019012D01*
X005223Y018223D02*
X005085Y018166D01*
X004906Y018166D01*
X004803Y018208D01*
X004803Y018023D01*
X004906Y018066D01*
X005085Y018066D01*
X005223Y018009D01*
X005223Y018223D01*
X005223Y018125D02*
X004803Y018125D01*
X004803Y018027D02*
X004811Y018027D01*
X005179Y018027D02*
X005223Y018027D01*
X005223Y017223D02*
X005223Y017009D01*
X005085Y017066D01*
X004906Y017066D01*
X004803Y017023D01*
X004803Y017208D01*
X004906Y017166D01*
X005085Y017166D01*
X005223Y017223D01*
X005223Y017140D02*
X004803Y017140D01*
X004803Y017042D02*
X004848Y017042D01*
X005143Y017042D02*
X005223Y017042D01*
X005223Y016223D02*
X005085Y016166D01*
X004906Y016166D01*
X004803Y016208D01*
X004803Y016023D01*
X004906Y016066D01*
X005085Y016066D01*
X005223Y016009D01*
X005223Y016223D01*
X005223Y016155D02*
X004803Y016155D01*
X004803Y016057D02*
X004884Y016057D01*
X005107Y016057D02*
X005223Y016057D01*
X005783Y016057D02*
X005884Y016057D01*
X005906Y016066D02*
X005783Y016015D01*
X005783Y016121D01*
X005851Y016189D01*
X005906Y016166D01*
X006085Y016166D01*
X006250Y016234D01*
X006253Y016237D01*
X006253Y015994D01*
X006250Y015997D01*
X006085Y016066D01*
X005906Y016066D01*
X005818Y016155D02*
X006253Y016155D01*
X006253Y016057D02*
X006107Y016057D01*
X007103Y016057D02*
X007154Y016057D01*
X007154Y016155D02*
X007103Y016155D01*
X007103Y016254D02*
X007154Y016254D01*
X007154Y016352D02*
X007103Y016352D01*
X007103Y016451D02*
X007154Y016451D01*
X007154Y016549D02*
X007103Y016549D01*
X007103Y016648D02*
X007154Y016648D01*
X007154Y016746D02*
X007103Y016746D01*
X007103Y016845D02*
X007154Y016845D01*
X007154Y016943D02*
X007103Y016943D01*
X007103Y017042D02*
X007154Y017042D01*
X007154Y017140D02*
X007103Y017140D01*
X007103Y017239D02*
X007154Y017239D01*
X007154Y017337D02*
X007103Y017337D01*
X007103Y017436D02*
X007154Y017436D01*
X007154Y017534D02*
X007103Y017534D01*
X007103Y017633D02*
X007154Y017633D01*
X007154Y017647D02*
X007103Y017647D01*
X007103Y015731D01*
X007154Y015680D01*
X007154Y017647D01*
X007554Y017647D02*
X007672Y017647D01*
X007728Y017703D01*
X007784Y017647D01*
X008420Y017647D01*
X008508Y017735D01*
X008508Y017766D01*
X008513Y017764D01*
X008623Y017764D01*
X008628Y017759D01*
X008628Y017670D01*
X008513Y017670D01*
X008392Y017620D01*
X008300Y017528D01*
X008250Y017408D01*
X008250Y017277D01*
X008300Y017156D01*
X008378Y017078D01*
X008378Y013575D01*
X008578Y013492D02*
X007828Y012742D01*
X007378Y012742D01*
X007253Y012215D02*
X007993Y012215D01*
X007895Y012117D02*
X007253Y012117D01*
X007978Y012609D02*
X009203Y012609D01*
X009105Y012708D02*
X008076Y012708D01*
X008175Y012806D02*
X009006Y012806D01*
X009003Y012905D02*
X008273Y012905D01*
X008372Y013003D02*
X009003Y013003D01*
X009003Y013102D02*
X008470Y013102D01*
X008569Y013200D02*
X009003Y013200D01*
X009003Y013299D02*
X008667Y013299D01*
X008578Y013492D02*
X008578Y017342D01*
X008828Y017492D02*
X008878Y017442D01*
X008878Y013667D01*
X008378Y014284D02*
X007554Y014284D01*
X007554Y014382D02*
X008378Y014382D01*
X008378Y014481D02*
X007554Y014481D01*
X007554Y014579D02*
X008378Y014579D01*
X008378Y014678D02*
X007554Y014678D01*
X007554Y014776D02*
X008378Y014776D01*
X008378Y014875D02*
X007554Y014875D01*
X007554Y014973D02*
X008378Y014973D01*
X008378Y015072D02*
X007554Y015072D01*
X007554Y015170D02*
X008378Y015170D01*
X008378Y015269D02*
X007554Y015269D01*
X007554Y015367D02*
X008378Y015367D01*
X008378Y015466D02*
X007554Y015466D01*
X007554Y015564D02*
X008378Y015564D01*
X008378Y015663D02*
X007554Y015663D01*
X007554Y015761D02*
X008378Y015761D01*
X008378Y015860D02*
X007554Y015860D01*
X007554Y015958D02*
X008378Y015958D01*
X008378Y016057D02*
X007554Y016057D01*
X007554Y016155D02*
X008378Y016155D01*
X008378Y016254D02*
X007554Y016254D01*
X007554Y016352D02*
X008378Y016352D01*
X008378Y016451D02*
X007554Y016451D01*
X007554Y016549D02*
X008378Y016549D01*
X008378Y016648D02*
X007554Y016648D01*
X007554Y016746D02*
X008378Y016746D01*
X008378Y016845D02*
X007554Y016845D01*
X007554Y016943D02*
X008378Y016943D01*
X008378Y017042D02*
X007554Y017042D01*
X007554Y017140D02*
X008316Y017140D01*
X008266Y017239D02*
X007554Y017239D01*
X007554Y017337D02*
X008250Y017337D01*
X008262Y017436D02*
X007554Y017436D01*
X007554Y017534D02*
X008306Y017534D01*
X008422Y017633D02*
X007554Y017633D01*
X007554Y017647D02*
X007554Y014185D01*
X007354Y014268D02*
X007354Y018092D01*
X007690Y018519D02*
X007766Y018519D01*
X007953Y018618D02*
X007103Y018618D01*
X007103Y018716D02*
X007953Y018716D01*
X007953Y018815D02*
X007103Y018815D01*
X007103Y018913D02*
X007953Y018913D01*
X007953Y019012D02*
X007103Y019012D01*
X007103Y019110D02*
X007988Y019110D01*
X008087Y019209D02*
X007103Y019209D01*
X007103Y019307D02*
X008185Y019307D01*
X008353Y019192D02*
X008153Y018992D01*
X008153Y018143D01*
X008102Y018092D01*
X008578Y018092D01*
X008828Y017842D01*
X008828Y017492D01*
X008628Y017731D02*
X008504Y017731D01*
X008508Y018421D02*
X010972Y018421D01*
X010812Y018519D02*
X008438Y018519D01*
X008353Y018618D02*
X010750Y018618D01*
X010725Y018716D02*
X008353Y018716D01*
X008353Y018815D02*
X010728Y018815D01*
X010769Y018913D02*
X008357Y018913D01*
X008353Y019192D02*
X012403Y019192D01*
X012528Y019317D01*
X012528Y020117D01*
X012228Y020092D02*
X012228Y019692D01*
X012028Y019492D01*
X007728Y019492D01*
X007703Y019467D01*
X007231Y019527D02*
X007181Y019406D01*
X006389Y020391D02*
X012338Y020391D01*
X012245Y020292D02*
X011636Y020292D01*
X011883Y020194D02*
X012205Y020194D01*
X012200Y020095D02*
X012014Y020095D01*
X011803Y020517D02*
X010153Y020517D01*
X010078Y020592D01*
X010078Y020967D01*
X009928Y021117D01*
X006528Y021117D01*
X006728Y021177D01*
X006528Y021117D02*
X005778Y021117D01*
X005503Y020867D01*
X005370Y021179D02*
X005875Y021179D01*
X005697Y021277D02*
X005445Y021277D01*
X005445Y021376D02*
X005608Y021376D01*
X005567Y021474D02*
X005445Y021474D01*
X005445Y021573D02*
X005545Y021573D01*
X005995Y021616D02*
X013954Y021616D01*
X014853Y020717D01*
X015089Y020489D02*
X015210Y020489D01*
X015169Y020391D02*
X014922Y020391D01*
X014784Y020391D02*
X012719Y020391D01*
X012811Y020292D02*
X015168Y020292D01*
X015155Y020588D02*
X015281Y020588D01*
X015346Y020883D02*
X017760Y020883D01*
X017599Y020982D02*
X015507Y020982D01*
X015597Y021080D02*
X017510Y021080D01*
X017469Y021179D02*
X015637Y021179D01*
X015665Y021277D02*
X017442Y021277D01*
X017442Y021376D02*
X015665Y021376D01*
X015650Y021474D02*
X017456Y021474D01*
X017497Y021573D02*
X015610Y021573D01*
X014808Y021667D02*
X014186Y021667D01*
X014740Y021113D01*
X014686Y021245D01*
X014686Y021440D01*
X014760Y021620D01*
X014808Y021667D01*
X014741Y021573D02*
X014280Y021573D01*
X014379Y021474D02*
X014700Y021474D01*
X014686Y021376D02*
X014477Y021376D01*
X014576Y021277D02*
X014686Y021277D01*
X014674Y021179D02*
X014713Y021179D01*
X014109Y021179D02*
X006116Y021179D01*
X006293Y021277D02*
X014010Y021277D01*
X013912Y021376D02*
X006383Y021376D01*
X005045Y019701D02*
X004945Y019701D01*
X007103Y015958D02*
X007154Y015958D01*
X007154Y015860D02*
X007103Y015860D01*
X007103Y015761D02*
X007154Y015761D01*
X007154Y015269D02*
X007119Y015269D01*
X007154Y015170D02*
X006958Y015170D01*
X006798Y015170D02*
X006758Y015170D01*
X006697Y015072D02*
X007154Y015072D01*
X006507Y014481D02*
X006426Y014481D01*
X006386Y014382D02*
X006605Y014382D01*
X006704Y014284D02*
X006300Y014284D01*
X006132Y014185D02*
X006802Y014185D01*
X006850Y014087D02*
X004803Y014087D01*
X004803Y014185D02*
X004859Y014185D01*
X005497Y013397D02*
X005599Y013397D01*
X006259Y013988D02*
X006866Y013988D01*
X006917Y013890D02*
X006358Y013890D01*
X006410Y013791D02*
X007047Y013791D01*
X005191Y015022D02*
X005085Y015066D01*
X004906Y015066D01*
X004803Y015023D01*
X004803Y015208D01*
X004906Y015166D01*
X005085Y015166D01*
X005223Y015223D01*
X005223Y015099D01*
X005191Y015022D01*
X005212Y015072D02*
X004803Y015072D01*
X004803Y015170D02*
X004895Y015170D01*
X005095Y015170D02*
X005223Y015170D01*
X005182Y012206D02*
X005085Y012166D01*
X004906Y012166D01*
X004803Y012208D01*
X005182Y012206D02*
X005353Y012034D01*
X005470Y011917D01*
X005660Y011917D01*
X005614Y011871D01*
X005545Y011705D01*
X005552Y011723D02*
X005438Y011723D01*
X005397Y011821D02*
X005593Y011821D01*
X005468Y011920D02*
X005328Y011920D01*
X005369Y012018D02*
X005200Y012018D01*
X004995Y011616D02*
X005494Y011117D01*
X005295Y011033D02*
X005163Y011033D01*
X005196Y011132D02*
X004803Y011132D01*
X004803Y011033D02*
X004827Y011033D01*
X004803Y010208D02*
X004906Y010166D01*
X005085Y010166D01*
X005140Y010189D01*
X005294Y010034D01*
X005411Y009917D01*
X005660Y009917D01*
X005614Y009871D01*
X005545Y009705D01*
X005545Y009526D01*
X005614Y009361D01*
X005682Y009292D01*
X005602Y009292D01*
X005423Y009471D01*
X005445Y009526D01*
X005445Y009705D01*
X005377Y009871D01*
X005250Y009997D01*
X005085Y010066D01*
X004906Y010066D01*
X004803Y010023D01*
X004803Y010208D01*
X004803Y010147D02*
X005182Y010147D01*
X005127Y010048D02*
X005280Y010048D01*
X005298Y009950D02*
X005379Y009950D01*
X005385Y009851D02*
X005606Y009851D01*
X005565Y009753D02*
X005426Y009753D01*
X005445Y009654D02*
X005545Y009654D01*
X005545Y009556D02*
X005445Y009556D01*
X005437Y009457D02*
X005574Y009457D01*
X005535Y009359D02*
X005616Y009359D01*
X005519Y009092D02*
X006178Y009092D01*
X007028Y008242D01*
X016153Y008242D01*
X016503Y008592D01*
X016503Y013592D01*
X016203Y013892D01*
X016603Y014092D02*
X016703Y013992D01*
X016703Y008392D01*
X016378Y008067D01*
X006553Y008067D01*
X006004Y008616D01*
X005995Y008616D01*
X005635Y008892D02*
X005614Y008871D01*
X005545Y008705D01*
X005545Y008526D01*
X005611Y008367D01*
X005527Y008367D01*
X005423Y008471D01*
X005445Y008526D01*
X005445Y008705D01*
X005377Y008871D01*
X005250Y008997D01*
X005085Y009066D01*
X004906Y009066D01*
X004803Y009023D01*
X004803Y009208D01*
X004906Y009166D01*
X005085Y009166D01*
X005140Y009189D01*
X005319Y009009D01*
X005436Y008892D01*
X005635Y008892D01*
X005612Y008866D02*
X005379Y008866D01*
X005364Y008965D02*
X005283Y008965D01*
X005265Y009063D02*
X005091Y009063D01*
X005167Y009162D02*
X004803Y009162D01*
X004803Y009063D02*
X004899Y009063D01*
X004995Y008616D02*
X005444Y008167D01*
X006103Y008167D01*
X006378Y007892D01*
X016603Y007892D01*
X016903Y008192D01*
X016903Y014292D01*
X016803Y014392D01*
X016203Y014392D01*
X015803Y014692D02*
X016753Y014692D01*
X017103Y014342D01*
X017103Y008042D01*
X016778Y007717D01*
X008903Y007717D01*
X008303Y007117D01*
X005497Y007117D01*
X004995Y006616D01*
X004807Y006207D02*
X004803Y006207D01*
X004803Y006208D02*
X004906Y006166D01*
X005085Y006166D01*
X005250Y006234D01*
X005377Y006361D01*
X005445Y006526D01*
X005445Y006705D01*
X005423Y006760D01*
X005579Y006917D01*
X005660Y006917D01*
X005614Y006871D01*
X005545Y006705D01*
X005545Y006526D01*
X005614Y006361D01*
X005632Y006342D01*
X005439Y006342D01*
X005322Y006225D01*
X005140Y006043D01*
X005085Y006066D01*
X004906Y006066D01*
X004803Y006023D01*
X004803Y006208D01*
X004803Y006108D02*
X005205Y006108D01*
X005183Y006207D02*
X005303Y006207D01*
X005321Y006305D02*
X005402Y006305D01*
X005394Y006404D02*
X005596Y006404D01*
X005555Y006502D02*
X005435Y006502D01*
X005445Y006601D02*
X005545Y006601D01*
X005545Y006699D02*
X005445Y006699D01*
X005460Y006798D02*
X005584Y006798D01*
X005558Y006896D02*
X005639Y006896D01*
X005657Y007317D02*
X005414Y007317D01*
X005297Y007200D01*
X005140Y007043D01*
X005085Y007066D01*
X004906Y007066D01*
X004803Y007023D01*
X004803Y007208D01*
X004906Y007166D01*
X005085Y007166D01*
X005250Y007234D01*
X005377Y007361D01*
X005445Y007526D01*
X005445Y007705D01*
X005377Y007871D01*
X005250Y007997D01*
X005085Y008066D01*
X004906Y008066D01*
X004803Y008023D01*
X004803Y008208D01*
X004906Y008166D01*
X005085Y008166D01*
X005140Y008189D01*
X005244Y008084D01*
X005361Y007967D01*
X005710Y007967D01*
X005614Y007871D01*
X005545Y007705D01*
X005545Y007526D01*
X005614Y007361D01*
X005657Y007317D01*
X005602Y007389D02*
X005388Y007389D01*
X005387Y007290D02*
X005306Y007290D01*
X005288Y007192D02*
X005147Y007192D01*
X005190Y007093D02*
X004803Y007093D01*
X004803Y007192D02*
X004843Y007192D01*
X005429Y007487D02*
X005561Y007487D01*
X005545Y007586D02*
X005445Y007586D01*
X005445Y007684D02*
X005545Y007684D01*
X005577Y007783D02*
X005413Y007783D01*
X005366Y007881D02*
X005624Y007881D01*
X005349Y007980D02*
X005268Y007980D01*
X005250Y008078D02*
X004803Y008078D01*
X004803Y008177D02*
X004879Y008177D01*
X005111Y008177D02*
X005152Y008177D01*
X005423Y008472D02*
X005568Y008472D01*
X005545Y008571D02*
X005445Y008571D01*
X005445Y008669D02*
X005545Y008669D01*
X005571Y008768D02*
X005419Y008768D01*
X005519Y009092D02*
X004995Y009616D01*
X004863Y010048D02*
X004803Y010048D01*
X005995Y009616D02*
X007194Y008417D01*
X015928Y008417D01*
X016303Y008792D01*
X016303Y012792D01*
X016203Y012892D01*
X015154Y013718D02*
X015503Y014067D01*
X015197Y014185D02*
X014997Y014185D01*
X014998Y014284D02*
X015256Y014284D01*
X015406Y014382D02*
X014998Y014382D01*
X014998Y014579D02*
X015495Y014579D01*
X015475Y014678D02*
X014998Y014678D01*
X014989Y014776D02*
X015483Y014776D01*
X015524Y014875D02*
X014475Y014875D01*
X014503Y014776D02*
X014603Y014776D01*
X014603Y014678D02*
X014503Y014678D01*
X014563Y014973D02*
X015624Y014973D01*
X015700Y015072D02*
X014604Y015072D01*
X014606Y015170D02*
X015705Y015170D01*
X016028Y015092D02*
X016703Y015092D01*
X017303Y014492D01*
X017303Y007842D01*
X016978Y007517D01*
X009003Y007517D01*
X008102Y006616D01*
X005995Y006616D01*
X006330Y006917D02*
X008120Y006917D01*
X008019Y006816D01*
X006399Y006816D01*
X006377Y006871D01*
X006330Y006917D01*
X006351Y006896D02*
X008099Y006896D01*
X008220Y007317D02*
X008595Y007692D01*
X006445Y007692D01*
X006445Y007526D01*
X006377Y007361D01*
X006333Y007317D01*
X008220Y007317D01*
X008292Y007389D02*
X006388Y007389D01*
X006429Y007487D02*
X008390Y007487D01*
X008489Y007586D02*
X006445Y007586D01*
X006445Y007684D02*
X008587Y007684D01*
X009328Y006717D02*
X017753Y006717D01*
X018103Y007067D01*
X018103Y015592D01*
X017453Y016242D01*
X014903Y016242D01*
X015159Y016451D02*
X018103Y016451D01*
X018103Y016549D02*
X015019Y016549D01*
X015167Y016042D02*
X015167Y016042D01*
X017370Y016042D01*
X017370Y016042D01*
X015167Y016042D01*
X014082Y014875D02*
X013777Y014875D01*
X013777Y014776D02*
X013677Y014776D01*
X013677Y014678D02*
X013777Y014678D01*
X013777Y014579D02*
X013677Y014579D01*
X013677Y014481D02*
X013777Y014481D01*
X014553Y013718D02*
X014197Y013362D01*
X013707Y013362D01*
X013707Y013516D01*
X014427Y013592D02*
X014553Y013718D01*
X015154Y013718D01*
X015141Y013988D02*
X014998Y013988D01*
X014948Y014087D02*
X015175Y014087D01*
X016292Y014892D02*
X016292Y014892D01*
X016620Y014892D01*
X016620Y014892D01*
X016292Y014892D01*
X016886Y015192D02*
X017270Y015192D01*
X017303Y015159D01*
X017303Y014775D01*
X016903Y015175D01*
X016886Y015192D01*
X016908Y015170D02*
X017292Y015170D01*
X017303Y015072D02*
X017006Y015072D01*
X017105Y014973D02*
X017303Y014973D01*
X017303Y014875D02*
X017203Y014875D01*
X017302Y014776D02*
X017303Y014776D01*
X018020Y015958D02*
X018103Y015958D01*
X018103Y016057D02*
X017921Y016057D01*
X017823Y016155D02*
X018103Y016155D01*
X018103Y016254D02*
X017724Y016254D01*
X017653Y016325D02*
X017653Y016325D01*
X017626Y016352D02*
X018103Y016352D01*
X018703Y016272D02*
X018703Y015960D01*
X018740Y015997D01*
X018906Y016066D01*
X019085Y016066D01*
X019250Y015997D01*
X019303Y015944D01*
X019303Y016287D01*
X019250Y016234D01*
X019085Y016166D01*
X018906Y016166D01*
X018740Y016234D01*
X018703Y016272D01*
X018703Y016254D02*
X018721Y016254D01*
X018703Y016155D02*
X019303Y016155D01*
X019303Y016057D02*
X019107Y016057D01*
X019289Y015958D02*
X019303Y015958D01*
X019303Y016254D02*
X019270Y016254D01*
X019703Y016254D02*
X019721Y016254D01*
X019703Y016272D02*
X019740Y016234D01*
X019906Y016166D01*
X020085Y016166D01*
X020250Y016234D01*
X020303Y016287D01*
X020303Y015944D01*
X020250Y015997D01*
X020085Y016066D01*
X019906Y016066D01*
X019740Y015997D01*
X019703Y015960D01*
X019703Y016272D01*
X019703Y016155D02*
X020303Y016155D01*
X020303Y016057D02*
X020107Y016057D01*
X020289Y015958D02*
X020303Y015958D01*
X020303Y016254D02*
X020270Y016254D01*
X019884Y016057D02*
X019703Y016057D01*
X019703Y016960D02*
X019703Y017272D01*
X019740Y017234D01*
X019906Y017166D01*
X020085Y017166D01*
X020250Y017234D01*
X020303Y017287D01*
X020303Y016944D01*
X020250Y016997D01*
X020085Y017066D01*
X019906Y017066D01*
X019740Y016997D01*
X019703Y016960D01*
X019703Y017042D02*
X019848Y017042D01*
X019703Y017140D02*
X020303Y017140D01*
X020303Y017042D02*
X020143Y017042D01*
X020255Y017239D02*
X020303Y017239D01*
X019736Y017239D02*
X019703Y017239D01*
X019303Y017239D02*
X019255Y017239D01*
X019250Y017234D02*
X019303Y017287D01*
X019303Y016944D01*
X019250Y016997D01*
X019085Y017066D01*
X018906Y017066D01*
X018740Y016997D01*
X018703Y016960D01*
X018703Y017272D01*
X018740Y017234D01*
X018906Y017166D01*
X019085Y017166D01*
X019250Y017234D01*
X019303Y017140D02*
X018703Y017140D01*
X018703Y017042D02*
X018848Y017042D01*
X018736Y017239D02*
X018703Y017239D01*
X018545Y017617D02*
X018038Y018040D01*
X017986Y018092D01*
X017976Y018092D01*
X017968Y018099D01*
X017918Y018094D01*
X017928Y018118D01*
X017938Y018114D01*
X018068Y018114D01*
X018189Y018164D01*
X018281Y018256D01*
X018331Y018377D01*
X018331Y018508D01*
X018281Y018628D01*
X018189Y018720D01*
X018068Y018770D01*
X017938Y018770D01*
X017831Y018726D01*
X017831Y018727D01*
X017831Y018858D01*
X017781Y018978D01*
X017689Y019070D01*
X017568Y019120D01*
X017438Y019120D01*
X017317Y019070D01*
X017239Y018992D01*
X012867Y018992D01*
X012789Y019070D01*
X012668Y019120D01*
X012614Y019120D01*
X012728Y019234D01*
X012728Y019853D01*
X012734Y019859D01*
X012781Y019744D01*
X012880Y019646D01*
X013009Y019592D01*
X014298Y019592D01*
X014426Y019646D01*
X014525Y019744D01*
X014578Y019873D01*
X014548Y019800D02*
X018584Y019800D01*
X018614Y019871D02*
X018545Y019705D01*
X018545Y019526D01*
X018614Y019361D01*
X018740Y019234D01*
X018906Y019166D01*
X019085Y019166D01*
X019250Y019234D01*
X019303Y019287D01*
X019303Y018944D01*
X019250Y018997D01*
X019085Y019066D01*
X018906Y019066D01*
X018740Y018997D01*
X018614Y018871D01*
X018545Y018705D01*
X018545Y018526D01*
X018614Y018361D01*
X018740Y018234D01*
X018906Y018166D01*
X019085Y018166D01*
X019250Y018234D01*
X019303Y018287D01*
X019303Y017944D01*
X019250Y017997D01*
X019085Y018066D01*
X018906Y018066D01*
X018740Y017997D01*
X018614Y017871D01*
X018545Y017705D01*
X018545Y017617D01*
X018545Y017633D02*
X018527Y017633D01*
X018556Y017731D02*
X018409Y017731D01*
X018290Y017830D02*
X018597Y017830D01*
X018671Y017928D02*
X018172Y017928D01*
X018054Y018027D02*
X018811Y018027D01*
X018766Y018224D02*
X018249Y018224D01*
X018309Y018322D02*
X018652Y018322D01*
X018589Y018421D02*
X018331Y018421D01*
X018326Y018519D02*
X018548Y018519D01*
X018545Y018618D02*
X018286Y018618D01*
X018193Y018716D02*
X018550Y018716D01*
X018591Y018815D02*
X017831Y018815D01*
X017808Y018913D02*
X018656Y018913D01*
X018775Y019012D02*
X017748Y019012D01*
X017593Y019110D02*
X019303Y019110D01*
X019303Y019012D02*
X019215Y019012D01*
X019188Y019209D02*
X019303Y019209D01*
X019703Y019209D02*
X019802Y019209D01*
X019740Y019234D02*
X019703Y019272D01*
X019703Y018960D01*
X019740Y018997D01*
X019906Y019066D01*
X020085Y019066D01*
X020250Y018997D01*
X020303Y018944D01*
X020303Y019287D01*
X020250Y019234D01*
X020085Y019166D01*
X019906Y019166D01*
X019740Y019234D01*
X019703Y019110D02*
X020303Y019110D01*
X020303Y019012D02*
X020215Y019012D01*
X020188Y019209D02*
X020303Y019209D01*
X019775Y019012D02*
X019703Y019012D01*
X019703Y018272D02*
X019740Y018234D01*
X019906Y018166D01*
X020085Y018166D01*
X020250Y018234D01*
X020303Y018287D01*
X020303Y017944D01*
X020250Y017997D01*
X020085Y018066D01*
X019906Y018066D01*
X019740Y017997D01*
X019703Y017960D01*
X019703Y018272D01*
X019703Y018224D02*
X019766Y018224D01*
X019703Y018125D02*
X020303Y018125D01*
X020303Y018027D02*
X020179Y018027D01*
X020225Y018224D02*
X020303Y018224D01*
X019811Y018027D02*
X019703Y018027D01*
X019303Y018027D02*
X019179Y018027D01*
X019303Y018125D02*
X018095Y018125D01*
X018003Y018442D02*
X017953Y018492D01*
X011303Y018492D01*
X011053Y018742D01*
X011381Y018716D02*
X012279Y018716D01*
X012275Y018727D02*
X012289Y018692D01*
X011386Y018692D01*
X011381Y018697D01*
X011381Y018808D01*
X011331Y018928D01*
X011267Y018992D01*
X012339Y018992D01*
X012325Y018978D01*
X012275Y018858D01*
X012275Y018727D01*
X012275Y018815D02*
X011378Y018815D01*
X011337Y018913D02*
X012298Y018913D01*
X012603Y018792D02*
X017503Y018792D01*
X017259Y019012D02*
X012848Y019012D01*
X012693Y019110D02*
X017414Y019110D01*
X017603Y018192D02*
X012278Y018192D01*
X011950Y018224D02*
X010761Y018224D01*
X010624Y018322D02*
X011190Y018322D01*
X011303Y018125D02*
X011951Y018125D01*
X011061Y017436D02*
X017848Y017436D01*
X019143Y017042D02*
X019303Y017042D01*
X018884Y016057D02*
X018703Y016057D01*
X018703Y015272D02*
X018740Y015234D01*
X018906Y015166D01*
X019085Y015166D01*
X019250Y015234D01*
X019303Y015287D01*
X019303Y014944D01*
X019250Y014997D01*
X019085Y015066D01*
X018906Y015066D01*
X018740Y014997D01*
X018703Y014960D01*
X018703Y015272D01*
X018703Y015269D02*
X018706Y015269D01*
X018703Y015170D02*
X018895Y015170D01*
X019095Y015170D02*
X019303Y015170D01*
X019303Y015072D02*
X018703Y015072D01*
X018703Y014973D02*
X018716Y014973D01*
X019274Y014973D02*
X019303Y014973D01*
X019285Y015269D02*
X019303Y015269D01*
X019703Y015269D02*
X019706Y015269D01*
X019703Y015272D02*
X019740Y015234D01*
X019906Y015166D01*
X020085Y015166D01*
X020250Y015234D01*
X020303Y015287D01*
X020303Y014944D01*
X020250Y014997D01*
X020085Y015066D01*
X019906Y015066D01*
X019740Y014997D01*
X019703Y014960D01*
X019703Y015272D01*
X019703Y015170D02*
X019895Y015170D01*
X020095Y015170D02*
X020303Y015170D01*
X020303Y015072D02*
X019703Y015072D01*
X019703Y014973D02*
X019716Y014973D01*
X020274Y014973D02*
X020303Y014973D01*
X020285Y015269D02*
X020303Y015269D01*
X020303Y014287D02*
X020303Y013944D01*
X020250Y013997D01*
X020085Y014066D01*
X019906Y014066D01*
X019740Y013997D01*
X019703Y013960D01*
X019703Y014272D01*
X019740Y014234D01*
X019906Y014166D01*
X020085Y014166D01*
X020250Y014234D01*
X020303Y014287D01*
X020303Y014284D02*
X020300Y014284D01*
X020303Y014185D02*
X020132Y014185D01*
X020303Y014087D02*
X019703Y014087D01*
X019703Y014185D02*
X019859Y014185D01*
X019731Y013988D02*
X019703Y013988D01*
X019303Y013988D02*
X019259Y013988D01*
X019250Y013997D02*
X019303Y013944D01*
X019303Y014287D01*
X019250Y014234D01*
X019085Y014166D01*
X018906Y014166D01*
X018740Y014234D01*
X018703Y014272D01*
X018703Y013960D01*
X018740Y013997D01*
X018906Y014066D01*
X019085Y014066D01*
X019250Y013997D01*
X019303Y014087D02*
X018703Y014087D01*
X018703Y014185D02*
X018859Y014185D01*
X018731Y013988D02*
X018703Y013988D01*
X019132Y014185D02*
X019303Y014185D01*
X019300Y014284D02*
X019303Y014284D01*
X020259Y013988D02*
X020303Y013988D01*
X020303Y013287D02*
X020303Y012944D01*
X020250Y012997D01*
X020085Y013066D01*
X019906Y013066D01*
X019740Y012997D01*
X019703Y012960D01*
X019703Y013272D01*
X019740Y013234D01*
X019906Y013166D01*
X020085Y013166D01*
X020250Y013234D01*
X020303Y013287D01*
X020303Y013200D02*
X020168Y013200D01*
X020303Y013102D02*
X019703Y013102D01*
X019703Y013200D02*
X019823Y013200D01*
X019755Y013003D02*
X019703Y013003D01*
X019303Y013003D02*
X019236Y013003D01*
X019250Y012997D02*
X019303Y012944D01*
X019303Y013287D01*
X019250Y013234D01*
X019085Y013166D01*
X018906Y013166D01*
X018740Y013234D01*
X018703Y013272D01*
X018703Y012960D01*
X018740Y012997D01*
X018906Y013066D01*
X019085Y013066D01*
X019250Y012997D01*
X019303Y013102D02*
X018703Y013102D01*
X018703Y013200D02*
X018823Y013200D01*
X018755Y013003D02*
X018703Y013003D01*
X019168Y013200D02*
X019303Y013200D01*
X019303Y012287D02*
X019303Y011944D01*
X019250Y011997D01*
X019085Y012066D01*
X018906Y012066D01*
X018740Y011997D01*
X018703Y011960D01*
X018703Y012272D01*
X018740Y012234D01*
X018906Y012166D01*
X019085Y012166D01*
X019250Y012234D01*
X019303Y012287D01*
X019303Y012215D02*
X019204Y012215D01*
X019303Y012117D02*
X018703Y012117D01*
X018703Y012215D02*
X018786Y012215D01*
X018791Y012018D02*
X018703Y012018D01*
X019200Y012018D02*
X019303Y012018D01*
X019703Y012018D02*
X019791Y012018D01*
X019740Y011997D02*
X019703Y011960D01*
X019703Y012272D01*
X019740Y012234D01*
X019906Y012166D01*
X020085Y012166D01*
X020250Y012234D01*
X020303Y012287D01*
X020303Y011944D01*
X020250Y011997D01*
X020085Y012066D01*
X019906Y012066D01*
X019740Y011997D01*
X019703Y012117D02*
X020303Y012117D01*
X020303Y012215D02*
X020204Y012215D01*
X020200Y012018D02*
X020303Y012018D01*
X019995Y011616D02*
X019995Y011384D01*
X019528Y010917D01*
X019528Y002741D01*
X019403Y002616D01*
X018995Y002616D01*
X019328Y002919D02*
X019250Y002997D01*
X019085Y003066D01*
X018927Y003066D01*
X018771Y003221D01*
X018906Y003166D01*
X019085Y003166D01*
X019250Y003234D01*
X019328Y003312D01*
X019328Y002919D01*
X019328Y002956D02*
X019291Y002956D01*
X019328Y003055D02*
X019112Y003055D01*
X019328Y003153D02*
X018840Y003153D01*
X018677Y003297D02*
X018609Y003326D01*
X015877Y003326D01*
X015877Y003439D01*
X015862Y003475D01*
X015862Y004982D01*
X015877Y005019D01*
X015877Y005786D01*
X015810Y005949D01*
X015685Y006074D01*
X015581Y006117D01*
X018261Y006117D01*
X018582Y006438D01*
X018614Y006361D01*
X018740Y006234D01*
X018906Y006166D01*
X019085Y006166D01*
X019250Y006234D01*
X019328Y006312D01*
X019328Y005919D01*
X019250Y005997D01*
X019085Y006066D01*
X018906Y006066D01*
X018740Y005997D01*
X018614Y005871D01*
X018545Y005705D01*
X018545Y005526D01*
X018614Y005361D01*
X018740Y005234D01*
X018906Y005166D01*
X019085Y005166D01*
X019250Y005234D01*
X019328Y005312D01*
X019328Y004919D01*
X019250Y004997D01*
X019085Y005066D01*
X018906Y005066D01*
X018740Y004997D01*
X018614Y004871D01*
X018545Y004705D01*
X018545Y004526D01*
X018614Y004361D01*
X018740Y004234D01*
X018906Y004166D01*
X019085Y004166D01*
X019250Y004234D01*
X019328Y004312D01*
X019328Y003919D01*
X019250Y003997D01*
X019085Y004066D01*
X018906Y004066D01*
X018740Y003997D01*
X018614Y003871D01*
X018545Y003705D01*
X018545Y003526D01*
X018614Y003361D01*
X018677Y003297D01*
X018624Y003350D02*
X015877Y003350D01*
X015873Y003449D02*
X018577Y003449D01*
X018545Y003547D02*
X015862Y003547D01*
X015862Y003646D02*
X018545Y003646D01*
X018561Y003744D02*
X015862Y003744D01*
X015862Y003843D02*
X018602Y003843D01*
X018684Y003941D02*
X015862Y003941D01*
X015862Y004040D02*
X018843Y004040D01*
X018738Y004237D02*
X015862Y004237D01*
X015862Y004335D02*
X018639Y004335D01*
X018584Y004434D02*
X015862Y004434D01*
X015862Y004532D02*
X018545Y004532D01*
X018545Y004631D02*
X015862Y004631D01*
X015862Y004729D02*
X018555Y004729D01*
X018596Y004828D02*
X015862Y004828D01*
X015862Y004926D02*
X018669Y004926D01*
X018806Y005025D02*
X015877Y005025D01*
X015877Y005123D02*
X019328Y005123D01*
X019328Y005025D02*
X019184Y005025D01*
X019321Y004926D02*
X019328Y004926D01*
X019328Y005222D02*
X019220Y005222D01*
X018771Y005222D02*
X015877Y005222D01*
X015877Y005320D02*
X018654Y005320D01*
X018590Y005419D02*
X015877Y005419D01*
X015877Y005517D02*
X018549Y005517D01*
X018545Y005616D02*
X015877Y005616D01*
X015877Y005714D02*
X018549Y005714D01*
X018590Y005813D02*
X015866Y005813D01*
X015825Y005911D02*
X018654Y005911D01*
X018770Y006010D02*
X015749Y006010D01*
X015603Y006108D02*
X019328Y006108D01*
X019328Y006010D02*
X019220Y006010D01*
X019183Y006207D02*
X019328Y006207D01*
X019321Y006305D02*
X019328Y006305D01*
X019728Y006247D02*
X019728Y005985D01*
X019740Y005997D01*
X019906Y006066D01*
X020085Y006066D01*
X020250Y005997D01*
X020303Y005944D01*
X020303Y006287D01*
X020250Y006234D01*
X020085Y006166D01*
X019906Y006166D01*
X019740Y006234D01*
X019728Y006247D01*
X019728Y006207D02*
X019807Y006207D01*
X019728Y006108D02*
X020303Y006108D01*
X020303Y006010D02*
X020220Y006010D01*
X020183Y006207D02*
X020303Y006207D01*
X019770Y006010D02*
X019728Y006010D01*
X020303Y005287D02*
X020303Y004944D01*
X020250Y004997D01*
X020085Y005066D01*
X019906Y005066D01*
X019740Y004997D01*
X019728Y004985D01*
X019728Y005247D01*
X019740Y005234D01*
X019906Y005166D01*
X020085Y005166D01*
X020250Y005234D01*
X020303Y005287D01*
X020303Y005222D02*
X020220Y005222D01*
X020303Y005123D02*
X019728Y005123D01*
X019728Y005025D02*
X019806Y005025D01*
X019771Y005222D02*
X019728Y005222D01*
X020184Y005025D02*
X020303Y005025D01*
X020303Y004287D02*
X020303Y003944D01*
X020250Y003997D01*
X020085Y004066D01*
X019906Y004066D01*
X019740Y003997D01*
X019728Y003985D01*
X019728Y004247D01*
X019740Y004234D01*
X019906Y004166D01*
X020085Y004166D01*
X020250Y004234D01*
X020303Y004287D01*
X020303Y004237D02*
X020253Y004237D01*
X020303Y004138D02*
X019728Y004138D01*
X019728Y004040D02*
X019843Y004040D01*
X019738Y004237D02*
X019728Y004237D01*
X020148Y004040D02*
X020303Y004040D01*
X020303Y003287D02*
X020303Y002944D01*
X020250Y002997D01*
X020085Y003066D01*
X019906Y003066D01*
X019740Y002997D01*
X019728Y002985D01*
X019728Y003247D01*
X019740Y003234D01*
X019906Y003166D01*
X020085Y003166D01*
X020250Y003234D01*
X020303Y003287D01*
X020303Y003252D02*
X020268Y003252D01*
X020303Y003153D02*
X019728Y003153D01*
X019728Y003055D02*
X019879Y003055D01*
X020112Y003055D02*
X020303Y003055D01*
X020291Y002956D02*
X020303Y002956D01*
X019328Y003252D02*
X019268Y003252D01*
X019306Y003941D02*
X019328Y003941D01*
X019328Y004040D02*
X019148Y004040D01*
X019328Y004138D02*
X015862Y004138D01*
X015877Y002786D02*
X018444Y002786D01*
X018545Y002684D01*
X018545Y002592D01*
X015844Y002592D01*
X015877Y002672D01*
X015877Y002786D01*
X015877Y002759D02*
X018470Y002759D01*
X018545Y002661D02*
X015873Y002661D01*
X015021Y002592D02*
X010136Y002592D01*
X010169Y002672D01*
X010169Y002746D01*
X014987Y002746D01*
X014987Y002672D01*
X015021Y002592D01*
X014992Y002661D02*
X010164Y002661D01*
X009312Y002592D02*
X006445Y002592D01*
X006445Y002705D01*
X006377Y002871D01*
X006355Y002892D01*
X009279Y002892D01*
X009279Y002672D01*
X009312Y002592D01*
X009283Y002661D02*
X006445Y002661D01*
X006423Y002759D02*
X009279Y002759D01*
X009279Y002858D02*
X006382Y002858D01*
X006308Y003292D02*
X006377Y003361D01*
X006399Y003416D01*
X006885Y003416D01*
X009296Y005827D01*
X009279Y005786D01*
X009279Y005503D01*
X009257Y005451D01*
X009257Y003292D01*
X006308Y003292D01*
X006366Y003350D02*
X009257Y003350D01*
X009257Y003449D02*
X006917Y003449D01*
X007016Y003547D02*
X009257Y003547D01*
X009257Y003646D02*
X007114Y003646D01*
X007213Y003744D02*
X009257Y003744D01*
X009257Y003843D02*
X007311Y003843D01*
X007410Y003941D02*
X009257Y003941D01*
X009257Y004040D02*
X007508Y004040D01*
X007607Y004138D02*
X009257Y004138D01*
X009257Y004237D02*
X007705Y004237D01*
X007804Y004335D02*
X009257Y004335D01*
X009257Y004434D02*
X007902Y004434D01*
X008001Y004532D02*
X009257Y004532D01*
X009257Y004631D02*
X008099Y004631D01*
X008198Y004729D02*
X009257Y004729D01*
X009257Y004828D02*
X008296Y004828D01*
X008395Y004926D02*
X009257Y004926D01*
X009257Y005025D02*
X008493Y005025D01*
X008592Y005123D02*
X009257Y005123D01*
X009257Y005222D02*
X008690Y005222D01*
X008789Y005320D02*
X009257Y005320D01*
X009257Y005419D02*
X008887Y005419D01*
X008986Y005517D02*
X009279Y005517D01*
X009279Y005616D02*
X009084Y005616D01*
X009183Y005714D02*
X009279Y005714D01*
X009281Y005813D02*
X009290Y005813D01*
X009503Y006317D02*
X006802Y003616D01*
X005995Y003616D01*
X006330Y003917D02*
X006820Y003917D01*
X006719Y003816D01*
X006399Y003816D01*
X006377Y003871D01*
X006330Y003917D01*
X006388Y003843D02*
X006746Y003843D01*
X006920Y004317D02*
X006333Y004317D01*
X006377Y004361D01*
X006399Y004416D01*
X007019Y004416D01*
X006920Y004317D01*
X006938Y004335D02*
X006351Y004335D01*
X005995Y004616D02*
X007227Y004616D01*
X009328Y006717D01*
X009724Y005402D02*
X009687Y005365D01*
X007894Y006416D02*
X007820Y006342D01*
X006358Y006342D01*
X006377Y006361D01*
X006399Y006416D01*
X007894Y006416D01*
X007882Y006404D02*
X006394Y006404D01*
X006305Y005942D02*
X007720Y005942D01*
X007594Y005816D01*
X006399Y005816D01*
X006377Y005871D01*
X006305Y005942D01*
X006336Y005911D02*
X007689Y005911D01*
X007469Y005416D02*
X007370Y005317D01*
X006333Y005317D01*
X006377Y005361D01*
X006399Y005416D01*
X007469Y005416D01*
X007373Y005320D02*
X006336Y005320D01*
X006330Y004917D02*
X007245Y004917D01*
X007144Y004816D01*
X006399Y004816D01*
X006377Y004871D01*
X006330Y004917D01*
X006395Y004828D02*
X007156Y004828D01*
X005635Y002892D02*
X005355Y002892D01*
X005377Y002871D01*
X005445Y002705D01*
X005445Y002592D01*
X005545Y002592D01*
X005545Y002705D01*
X005614Y002871D01*
X005635Y002892D01*
X005608Y002858D02*
X005382Y002858D01*
X005423Y002759D02*
X005568Y002759D01*
X005545Y002661D02*
X005445Y002661D01*
X005031Y003153D02*
X004803Y003153D01*
X004803Y003208D02*
X004906Y003166D01*
X005044Y003166D01*
X004944Y003066D01*
X004906Y003066D01*
X004803Y003023D01*
X004803Y003208D01*
X004803Y003055D02*
X004879Y003055D01*
X005520Y008374D02*
X005608Y008374D01*
X006425Y008478D02*
X006445Y008526D01*
X006445Y008542D01*
X006720Y008267D01*
X006636Y008267D01*
X006425Y008478D01*
X006431Y008472D02*
X006515Y008472D01*
X006529Y008374D02*
X006614Y008374D01*
X006628Y008275D02*
X006712Y008275D01*
X007126Y008768D02*
X007270Y008768D01*
X007225Y008669D02*
X007368Y008669D01*
X007420Y008617D02*
X007277Y008617D01*
X006423Y009471D01*
X006445Y009526D01*
X006445Y009592D01*
X007420Y008617D01*
X007171Y008866D02*
X007028Y008866D01*
X007073Y008965D02*
X006929Y008965D01*
X006974Y009063D02*
X006831Y009063D01*
X006876Y009162D02*
X006732Y009162D01*
X006777Y009260D02*
X006634Y009260D01*
X006679Y009359D02*
X006535Y009359D01*
X006580Y009457D02*
X006437Y009457D01*
X006445Y009556D02*
X006482Y009556D01*
X007381Y010147D02*
X010498Y010147D01*
X010498Y010048D02*
X007480Y010048D01*
X007578Y009950D02*
X010498Y009950D01*
X010507Y009851D02*
X009350Y009851D01*
X009006Y009851D02*
X007677Y009851D01*
X007775Y009753D02*
X008900Y009753D01*
X008859Y009654D02*
X007874Y009654D01*
X007972Y009556D02*
X008850Y009556D01*
X008869Y009457D02*
X008071Y009457D01*
X008169Y009359D02*
X008923Y009359D01*
X008817Y010639D02*
X007506Y010639D01*
X009028Y010892D02*
X009253Y011117D01*
X009120Y011267D02*
X009027Y011267D01*
X009008Y011220D01*
X009073Y011220D01*
X009120Y011267D01*
X009083Y011230D02*
X009012Y011230D01*
X010821Y010893D02*
X010821Y010893D01*
X012497Y013791D02*
X012625Y013791D01*
X012703Y013890D02*
X012398Y013890D01*
X011952Y014004D02*
X011952Y014397D01*
X011834Y014397D01*
X011778Y014453D01*
X011723Y014398D01*
X011789Y014370D01*
X011881Y014278D01*
X011931Y014158D01*
X011931Y014027D01*
X011921Y014002D01*
X011950Y014002D01*
X011952Y014004D01*
X011952Y014087D02*
X011931Y014087D01*
X011920Y014185D02*
X011952Y014185D01*
X011952Y014284D02*
X011876Y014284D01*
X011952Y014382D02*
X011760Y014382D01*
X010855Y014284D02*
X010851Y014284D01*
X011103Y016592D02*
X011353Y016842D01*
X013403Y016417D02*
X013403Y016142D01*
X012703Y019209D02*
X018802Y019209D01*
X018667Y019307D02*
X012728Y019307D01*
X012728Y019406D02*
X018595Y019406D01*
X018554Y019504D02*
X012728Y019504D01*
X012728Y019603D02*
X012983Y019603D01*
X012824Y019701D02*
X012728Y019701D01*
X012728Y019800D02*
X012758Y019800D01*
X014323Y019603D02*
X018545Y019603D01*
X018545Y019701D02*
X014482Y019701D01*
X018102Y020883D02*
X018626Y020883D01*
X018725Y020982D02*
X018263Y020982D01*
X018352Y021080D02*
X019303Y021080D01*
X019303Y020982D02*
X019266Y020982D01*
X019503Y021124D02*
X019503Y011367D01*
X019253Y011117D01*
X019203Y011117D01*
X018875Y011132D02*
X018703Y011132D01*
X018703Y011230D02*
X018750Y011230D01*
X018740Y011234D02*
X018875Y011179D01*
X018875Y011053D01*
X018740Y010997D01*
X018703Y010960D01*
X018703Y011272D01*
X018740Y011234D01*
X018703Y011033D02*
X018827Y011033D01*
X018703Y010272D02*
X018740Y010234D01*
X018906Y010166D01*
X019085Y010166D01*
X019250Y010234D01*
X019328Y010312D01*
X019328Y009919D01*
X019250Y009997D01*
X019085Y010066D01*
X018906Y010066D01*
X018740Y009997D01*
X018703Y009960D01*
X018703Y010272D01*
X018703Y010245D02*
X018729Y010245D01*
X018703Y010147D02*
X019328Y010147D01*
X019328Y010245D02*
X019261Y010245D01*
X019328Y010048D02*
X019127Y010048D01*
X019298Y009950D02*
X019328Y009950D01*
X019728Y009985D02*
X019728Y010247D01*
X019740Y010234D01*
X019906Y010166D01*
X020085Y010166D01*
X020250Y010234D01*
X020303Y010287D01*
X020303Y009944D01*
X020250Y009997D01*
X020085Y010066D01*
X019906Y010066D01*
X019740Y009997D01*
X019728Y009985D01*
X019728Y010048D02*
X019863Y010048D01*
X019728Y010147D02*
X020303Y010147D01*
X020303Y010245D02*
X020261Y010245D01*
X020303Y010048D02*
X020127Y010048D01*
X020298Y009950D02*
X020303Y009950D01*
X019729Y010245D02*
X019728Y010245D01*
X020085Y011066D02*
X020250Y010997D01*
X020303Y010944D01*
X020303Y011287D01*
X020250Y011234D01*
X020085Y011166D01*
X020060Y011166D01*
X019960Y011066D01*
X020085Y011066D01*
X020163Y011033D02*
X020303Y011033D01*
X020303Y011132D02*
X020025Y011132D01*
X020240Y011230D02*
X020303Y011230D01*
X019786Y012215D02*
X019703Y012215D01*
X020236Y013003D02*
X020303Y013003D01*
X018863Y010048D02*
X018703Y010048D01*
X018703Y009272D02*
X018740Y009234D01*
X018906Y009166D01*
X019085Y009166D01*
X019250Y009234D01*
X019328Y009312D01*
X019328Y008919D01*
X019250Y008997D01*
X019085Y009066D01*
X018906Y009066D01*
X018740Y008997D01*
X018703Y008960D01*
X018703Y009272D01*
X018703Y009260D02*
X018714Y009260D01*
X018703Y009162D02*
X019328Y009162D01*
X019328Y009260D02*
X019276Y009260D01*
X019328Y009063D02*
X019091Y009063D01*
X018899Y009063D02*
X018703Y009063D01*
X018703Y008965D02*
X018708Y008965D01*
X019283Y008965D02*
X019328Y008965D01*
X019728Y008985D02*
X019728Y009247D01*
X019740Y009234D01*
X019906Y009166D01*
X020085Y009166D01*
X020250Y009234D01*
X020303Y009287D01*
X020303Y008944D01*
X020250Y008997D01*
X020085Y009066D01*
X019906Y009066D01*
X019740Y008997D01*
X019728Y008985D01*
X019728Y009063D02*
X019899Y009063D01*
X020091Y009063D02*
X020303Y009063D01*
X020303Y008965D02*
X020283Y008965D01*
X020303Y009162D02*
X019728Y009162D01*
X020276Y009260D02*
X020303Y009260D01*
X020303Y008287D02*
X020303Y007944D01*
X020250Y007997D01*
X020085Y008066D01*
X019906Y008066D01*
X019740Y007997D01*
X019728Y007985D01*
X019728Y008247D01*
X019740Y008234D01*
X019906Y008166D01*
X020085Y008166D01*
X020250Y008234D01*
X020303Y008287D01*
X020303Y008275D02*
X020291Y008275D01*
X020303Y008177D02*
X020111Y008177D01*
X020303Y008078D02*
X019728Y008078D01*
X019728Y008177D02*
X019879Y008177D01*
X020268Y007980D02*
X020303Y007980D01*
X020303Y007287D02*
X020303Y006944D01*
X020250Y006997D01*
X020085Y007066D01*
X019906Y007066D01*
X019740Y006997D01*
X019728Y006985D01*
X019728Y007247D01*
X019740Y007234D01*
X019906Y007166D01*
X020085Y007166D01*
X020250Y007234D01*
X020303Y007287D01*
X020303Y007192D02*
X020147Y007192D01*
X020303Y007093D02*
X019728Y007093D01*
X019728Y006995D02*
X019738Y006995D01*
X019728Y007192D02*
X019843Y007192D01*
X020253Y006995D02*
X020303Y006995D01*
X019328Y006995D02*
X019253Y006995D01*
X019250Y006997D02*
X019085Y007066D01*
X018906Y007066D01*
X018740Y006997D01*
X018703Y006960D01*
X018703Y007272D01*
X018740Y007234D01*
X018906Y007166D01*
X019085Y007166D01*
X019250Y007234D01*
X019328Y007312D01*
X019328Y006919D01*
X019250Y006997D01*
X019328Y007093D02*
X018703Y007093D01*
X018703Y006995D02*
X018738Y006995D01*
X018703Y007192D02*
X018843Y007192D01*
X019147Y007192D02*
X019328Y007192D01*
X019328Y007290D02*
X019306Y007290D01*
X019328Y007919D02*
X019250Y007997D01*
X019085Y008066D01*
X018906Y008066D01*
X018740Y007997D01*
X018703Y007960D01*
X018703Y008272D01*
X018740Y008234D01*
X018906Y008166D01*
X019085Y008166D01*
X019250Y008234D01*
X019328Y008312D01*
X019328Y007919D01*
X019328Y007980D02*
X019268Y007980D01*
X019328Y008078D02*
X018703Y008078D01*
X018703Y007980D02*
X018723Y007980D01*
X018703Y008177D02*
X018879Y008177D01*
X019111Y008177D02*
X019328Y008177D01*
X019328Y008275D02*
X019291Y008275D01*
X018596Y006404D02*
X018547Y006404D01*
X018449Y006305D02*
X018669Y006305D01*
X018807Y006207D02*
X018350Y006207D01*
X019253Y004237D02*
X019328Y004237D01*
X015903Y011856D02*
X015903Y011909D01*
X015864Y011870D01*
X015868Y011870D01*
X015903Y011856D01*
X019225Y018224D02*
X019303Y018224D01*
X018614Y019871D02*
X018740Y019997D01*
X019703Y019997D02*
X019740Y019997D01*
X019703Y019960D01*
X019703Y020272D01*
X019740Y020234D01*
X019906Y020166D01*
X020085Y020166D01*
X020250Y020234D01*
X020303Y020287D01*
X020303Y019944D01*
X020250Y019997D01*
X020085Y020066D01*
X019906Y020066D01*
X019740Y019997D01*
X019703Y020095D02*
X020303Y020095D01*
X020303Y019997D02*
X020251Y019997D01*
X020303Y020194D02*
X020152Y020194D01*
X019838Y020194D02*
X019703Y020194D01*
X019703Y020960D02*
X019703Y021041D01*
X019851Y021189D01*
X019906Y021166D01*
X020085Y021166D01*
X020250Y021234D01*
X020303Y021287D01*
X020303Y020944D01*
X020250Y020997D01*
X020085Y021066D01*
X019906Y021066D01*
X019740Y020997D01*
X019703Y020960D01*
X019703Y020982D02*
X019725Y020982D01*
X019743Y021080D02*
X020303Y021080D01*
X020303Y020982D02*
X020266Y020982D01*
X020303Y021179D02*
X020116Y021179D01*
X020293Y021277D02*
X020303Y021277D01*
X019875Y021179D02*
X019841Y021179D01*
X019503Y021124D02*
X019995Y021616D01*
X019568Y021471D02*
X019445Y021349D01*
X019445Y021667D01*
X019545Y021667D01*
X019545Y021526D01*
X019568Y021471D01*
X019567Y021474D02*
X019445Y021474D01*
X019445Y021376D02*
X019472Y021376D01*
X019445Y021573D02*
X019545Y021573D01*
X018545Y021573D02*
X018365Y021573D01*
X018406Y021474D02*
X018545Y021474D01*
X018545Y021376D02*
X018421Y021376D01*
X018421Y021277D02*
X018545Y021277D01*
X018620Y021179D02*
X018393Y021179D01*
X010158Y021317D02*
X009928Y021117D01*
D11*
X005995Y021616D03*
X005995Y020616D03*
X004995Y020616D03*
X004995Y019616D03*
X004995Y018616D03*
X005995Y018616D03*
X005995Y019616D03*
X005995Y017616D03*
X004995Y017616D03*
X004995Y016616D03*
X004995Y015616D03*
X005995Y015616D03*
X005995Y016616D03*
X005995Y014616D03*
X004995Y014616D03*
X004995Y013616D03*
X004995Y012616D03*
X005995Y012616D03*
X005995Y013616D03*
X005995Y011616D03*
X004995Y011616D03*
X004995Y010616D03*
X005995Y010616D03*
X005995Y009616D03*
X004995Y009616D03*
X004995Y008616D03*
X004995Y007616D03*
X005995Y007616D03*
X005995Y008616D03*
X005995Y006616D03*
X004995Y006616D03*
X004995Y005616D03*
X004995Y004616D03*
X005995Y004616D03*
X005995Y005616D03*
X005995Y003616D03*
X004995Y003616D03*
X004995Y002616D03*
X005995Y002616D03*
X018995Y002616D03*
X018995Y003616D03*
X019995Y003616D03*
X019995Y002616D03*
X019995Y004616D03*
X018995Y004616D03*
X018995Y005616D03*
X018995Y006616D03*
X019995Y006616D03*
X019995Y005616D03*
X019995Y007616D03*
X018995Y007616D03*
X018995Y008616D03*
X018995Y009616D03*
X019995Y009616D03*
X019995Y008616D03*
X019995Y010616D03*
X018995Y010616D03*
X018995Y011616D03*
X019995Y011616D03*
X019995Y012616D03*
X018995Y012616D03*
X018995Y013616D03*
X018995Y014616D03*
X019995Y014616D03*
X019995Y013616D03*
X019995Y015616D03*
X018995Y015616D03*
X018995Y016616D03*
X018995Y017616D03*
X019995Y017616D03*
X019995Y016616D03*
X019995Y018616D03*
X018995Y018616D03*
X018995Y019616D03*
X018995Y020616D03*
X019995Y020616D03*
X019995Y019616D03*
X019995Y021616D03*
D12*
X018995Y021616D03*
X004995Y021616D03*
D13*
X009724Y005697D02*
X009724Y005107D01*
X009724Y003351D02*
X009724Y002761D01*
X015432Y002761D02*
X015432Y003351D01*
X015432Y005107D02*
X015432Y005697D01*
D14*
X015255Y005697D02*
X015257Y005723D01*
X015263Y005749D01*
X015273Y005774D01*
X015286Y005797D01*
X015302Y005817D01*
X015322Y005835D01*
X015344Y005850D01*
X015367Y005862D01*
X015393Y005870D01*
X015419Y005874D01*
X015445Y005874D01*
X015471Y005870D01*
X015497Y005862D01*
X015521Y005850D01*
X015542Y005835D01*
X015562Y005817D01*
X015578Y005797D01*
X015591Y005774D01*
X015601Y005749D01*
X015607Y005723D01*
X015609Y005697D01*
X015607Y005671D01*
X015601Y005645D01*
X015591Y005620D01*
X015578Y005597D01*
X015562Y005577D01*
X015542Y005559D01*
X015520Y005544D01*
X015497Y005532D01*
X015471Y005524D01*
X015445Y005520D01*
X015419Y005520D01*
X015393Y005524D01*
X015367Y005532D01*
X015343Y005544D01*
X015322Y005559D01*
X015302Y005577D01*
X015286Y005597D01*
X015273Y005620D01*
X015263Y005645D01*
X015257Y005671D01*
X015255Y005697D01*
X015255Y005520D02*
X015257Y005546D01*
X015263Y005572D01*
X015273Y005597D01*
X015286Y005620D01*
X015302Y005640D01*
X015322Y005658D01*
X015344Y005673D01*
X015367Y005685D01*
X015393Y005693D01*
X015419Y005697D01*
X015445Y005697D01*
X015471Y005693D01*
X015497Y005685D01*
X015521Y005673D01*
X015542Y005658D01*
X015562Y005640D01*
X015578Y005620D01*
X015591Y005597D01*
X015601Y005572D01*
X015607Y005546D01*
X015609Y005520D01*
X015607Y005494D01*
X015601Y005468D01*
X015591Y005443D01*
X015578Y005420D01*
X015562Y005400D01*
X015542Y005382D01*
X015520Y005367D01*
X015497Y005355D01*
X015471Y005347D01*
X015445Y005343D01*
X015419Y005343D01*
X015393Y005347D01*
X015367Y005355D01*
X015343Y005367D01*
X015322Y005382D01*
X015302Y005400D01*
X015286Y005420D01*
X015273Y005443D01*
X015263Y005468D01*
X015257Y005494D01*
X015255Y005520D01*
X015255Y005284D02*
X015257Y005310D01*
X015263Y005336D01*
X015273Y005361D01*
X015286Y005384D01*
X015302Y005404D01*
X015322Y005422D01*
X015344Y005437D01*
X015367Y005449D01*
X015393Y005457D01*
X015419Y005461D01*
X015445Y005461D01*
X015471Y005457D01*
X015497Y005449D01*
X015521Y005437D01*
X015542Y005422D01*
X015562Y005404D01*
X015578Y005384D01*
X015591Y005361D01*
X015601Y005336D01*
X015607Y005310D01*
X015609Y005284D01*
X015607Y005258D01*
X015601Y005232D01*
X015591Y005207D01*
X015578Y005184D01*
X015562Y005164D01*
X015542Y005146D01*
X015520Y005131D01*
X015497Y005119D01*
X015471Y005111D01*
X015445Y005107D01*
X015419Y005107D01*
X015393Y005111D01*
X015367Y005119D01*
X015343Y005131D01*
X015322Y005146D01*
X015302Y005164D01*
X015286Y005184D01*
X015273Y005207D01*
X015263Y005232D01*
X015257Y005258D01*
X015255Y005284D01*
X015255Y005107D02*
X015257Y005133D01*
X015263Y005159D01*
X015273Y005184D01*
X015286Y005207D01*
X015302Y005227D01*
X015322Y005245D01*
X015344Y005260D01*
X015367Y005272D01*
X015393Y005280D01*
X015419Y005284D01*
X015445Y005284D01*
X015471Y005280D01*
X015497Y005272D01*
X015521Y005260D01*
X015542Y005245D01*
X015562Y005227D01*
X015578Y005207D01*
X015591Y005184D01*
X015601Y005159D01*
X015607Y005133D01*
X015609Y005107D01*
X015607Y005081D01*
X015601Y005055D01*
X015591Y005030D01*
X015578Y005007D01*
X015562Y004987D01*
X015542Y004969D01*
X015520Y004954D01*
X015497Y004942D01*
X015471Y004934D01*
X015445Y004930D01*
X015419Y004930D01*
X015393Y004934D01*
X015367Y004942D01*
X015343Y004954D01*
X015322Y004969D01*
X015302Y004987D01*
X015286Y005007D01*
X015273Y005030D01*
X015263Y005055D01*
X015257Y005081D01*
X015255Y005107D01*
X015255Y003355D02*
X015257Y003381D01*
X015263Y003407D01*
X015273Y003432D01*
X015286Y003455D01*
X015302Y003475D01*
X015322Y003493D01*
X015344Y003508D01*
X015367Y003520D01*
X015393Y003528D01*
X015419Y003532D01*
X015445Y003532D01*
X015471Y003528D01*
X015497Y003520D01*
X015521Y003508D01*
X015542Y003493D01*
X015562Y003475D01*
X015578Y003455D01*
X015591Y003432D01*
X015601Y003407D01*
X015607Y003381D01*
X015609Y003355D01*
X015607Y003329D01*
X015601Y003303D01*
X015591Y003278D01*
X015578Y003255D01*
X015562Y003235D01*
X015542Y003217D01*
X015520Y003202D01*
X015497Y003190D01*
X015471Y003182D01*
X015445Y003178D01*
X015419Y003178D01*
X015393Y003182D01*
X015367Y003190D01*
X015343Y003202D01*
X015322Y003217D01*
X015302Y003235D01*
X015286Y003255D01*
X015273Y003278D01*
X015263Y003303D01*
X015257Y003329D01*
X015255Y003355D01*
X015255Y003178D02*
X015257Y003204D01*
X015263Y003230D01*
X015273Y003255D01*
X015286Y003278D01*
X015302Y003298D01*
X015322Y003316D01*
X015344Y003331D01*
X015367Y003343D01*
X015393Y003351D01*
X015419Y003355D01*
X015445Y003355D01*
X015471Y003351D01*
X015497Y003343D01*
X015521Y003331D01*
X015542Y003316D01*
X015562Y003298D01*
X015578Y003278D01*
X015591Y003255D01*
X015601Y003230D01*
X015607Y003204D01*
X015609Y003178D01*
X015607Y003152D01*
X015601Y003126D01*
X015591Y003101D01*
X015578Y003078D01*
X015562Y003058D01*
X015542Y003040D01*
X015520Y003025D01*
X015497Y003013D01*
X015471Y003005D01*
X015445Y003001D01*
X015419Y003001D01*
X015393Y003005D01*
X015367Y003013D01*
X015343Y003025D01*
X015322Y003040D01*
X015302Y003058D01*
X015286Y003078D01*
X015273Y003101D01*
X015263Y003126D01*
X015257Y003152D01*
X015255Y003178D01*
X015255Y002941D02*
X015257Y002967D01*
X015263Y002993D01*
X015273Y003018D01*
X015286Y003041D01*
X015302Y003061D01*
X015322Y003079D01*
X015344Y003094D01*
X015367Y003106D01*
X015393Y003114D01*
X015419Y003118D01*
X015445Y003118D01*
X015471Y003114D01*
X015497Y003106D01*
X015521Y003094D01*
X015542Y003079D01*
X015562Y003061D01*
X015578Y003041D01*
X015591Y003018D01*
X015601Y002993D01*
X015607Y002967D01*
X015609Y002941D01*
X015607Y002915D01*
X015601Y002889D01*
X015591Y002864D01*
X015578Y002841D01*
X015562Y002821D01*
X015542Y002803D01*
X015520Y002788D01*
X015497Y002776D01*
X015471Y002768D01*
X015445Y002764D01*
X015419Y002764D01*
X015393Y002768D01*
X015367Y002776D01*
X015343Y002788D01*
X015322Y002803D01*
X015302Y002821D01*
X015286Y002841D01*
X015273Y002864D01*
X015263Y002889D01*
X015257Y002915D01*
X015255Y002941D01*
X015255Y002764D02*
X015257Y002790D01*
X015263Y002816D01*
X015273Y002841D01*
X015286Y002864D01*
X015302Y002884D01*
X015322Y002902D01*
X015344Y002917D01*
X015367Y002929D01*
X015393Y002937D01*
X015419Y002941D01*
X015445Y002941D01*
X015471Y002937D01*
X015497Y002929D01*
X015521Y002917D01*
X015542Y002902D01*
X015562Y002884D01*
X015578Y002864D01*
X015591Y002841D01*
X015601Y002816D01*
X015607Y002790D01*
X015609Y002764D01*
X015607Y002738D01*
X015601Y002712D01*
X015591Y002687D01*
X015578Y002664D01*
X015562Y002644D01*
X015542Y002626D01*
X015520Y002611D01*
X015497Y002599D01*
X015471Y002591D01*
X015445Y002587D01*
X015419Y002587D01*
X015393Y002591D01*
X015367Y002599D01*
X015343Y002611D01*
X015322Y002626D01*
X015302Y002644D01*
X015286Y002664D01*
X015273Y002687D01*
X015263Y002712D01*
X015257Y002738D01*
X015255Y002764D01*
X009547Y002764D02*
X009549Y002790D01*
X009555Y002816D01*
X009565Y002841D01*
X009578Y002864D01*
X009594Y002884D01*
X009614Y002902D01*
X009636Y002917D01*
X009659Y002929D01*
X009685Y002937D01*
X009711Y002941D01*
X009737Y002941D01*
X009763Y002937D01*
X009789Y002929D01*
X009813Y002917D01*
X009834Y002902D01*
X009854Y002884D01*
X009870Y002864D01*
X009883Y002841D01*
X009893Y002816D01*
X009899Y002790D01*
X009901Y002764D01*
X009899Y002738D01*
X009893Y002712D01*
X009883Y002687D01*
X009870Y002664D01*
X009854Y002644D01*
X009834Y002626D01*
X009812Y002611D01*
X009789Y002599D01*
X009763Y002591D01*
X009737Y002587D01*
X009711Y002587D01*
X009685Y002591D01*
X009659Y002599D01*
X009635Y002611D01*
X009614Y002626D01*
X009594Y002644D01*
X009578Y002664D01*
X009565Y002687D01*
X009555Y002712D01*
X009549Y002738D01*
X009547Y002764D01*
X009547Y002941D02*
X009549Y002967D01*
X009555Y002993D01*
X009565Y003018D01*
X009578Y003041D01*
X009594Y003061D01*
X009614Y003079D01*
X009636Y003094D01*
X009659Y003106D01*
X009685Y003114D01*
X009711Y003118D01*
X009737Y003118D01*
X009763Y003114D01*
X009789Y003106D01*
X009813Y003094D01*
X009834Y003079D01*
X009854Y003061D01*
X009870Y003041D01*
X009883Y003018D01*
X009893Y002993D01*
X009899Y002967D01*
X009901Y002941D01*
X009899Y002915D01*
X009893Y002889D01*
X009883Y002864D01*
X009870Y002841D01*
X009854Y002821D01*
X009834Y002803D01*
X009812Y002788D01*
X009789Y002776D01*
X009763Y002768D01*
X009737Y002764D01*
X009711Y002764D01*
X009685Y002768D01*
X009659Y002776D01*
X009635Y002788D01*
X009614Y002803D01*
X009594Y002821D01*
X009578Y002841D01*
X009565Y002864D01*
X009555Y002889D01*
X009549Y002915D01*
X009547Y002941D01*
X009547Y003178D02*
X009549Y003204D01*
X009555Y003230D01*
X009565Y003255D01*
X009578Y003278D01*
X009594Y003298D01*
X009614Y003316D01*
X009636Y003331D01*
X009659Y003343D01*
X009685Y003351D01*
X009711Y003355D01*
X009737Y003355D01*
X009763Y003351D01*
X009789Y003343D01*
X009813Y003331D01*
X009834Y003316D01*
X009854Y003298D01*
X009870Y003278D01*
X009883Y003255D01*
X009893Y003230D01*
X009899Y003204D01*
X009901Y003178D01*
X009899Y003152D01*
X009893Y003126D01*
X009883Y003101D01*
X009870Y003078D01*
X009854Y003058D01*
X009834Y003040D01*
X009812Y003025D01*
X009789Y003013D01*
X009763Y003005D01*
X009737Y003001D01*
X009711Y003001D01*
X009685Y003005D01*
X009659Y003013D01*
X009635Y003025D01*
X009614Y003040D01*
X009594Y003058D01*
X009578Y003078D01*
X009565Y003101D01*
X009555Y003126D01*
X009549Y003152D01*
X009547Y003178D01*
X009547Y003355D02*
X009549Y003381D01*
X009555Y003407D01*
X009565Y003432D01*
X009578Y003455D01*
X009594Y003475D01*
X009614Y003493D01*
X009636Y003508D01*
X009659Y003520D01*
X009685Y003528D01*
X009711Y003532D01*
X009737Y003532D01*
X009763Y003528D01*
X009789Y003520D01*
X009813Y003508D01*
X009834Y003493D01*
X009854Y003475D01*
X009870Y003455D01*
X009883Y003432D01*
X009893Y003407D01*
X009899Y003381D01*
X009901Y003355D01*
X009899Y003329D01*
X009893Y003303D01*
X009883Y003278D01*
X009870Y003255D01*
X009854Y003235D01*
X009834Y003217D01*
X009812Y003202D01*
X009789Y003190D01*
X009763Y003182D01*
X009737Y003178D01*
X009711Y003178D01*
X009685Y003182D01*
X009659Y003190D01*
X009635Y003202D01*
X009614Y003217D01*
X009594Y003235D01*
X009578Y003255D01*
X009565Y003278D01*
X009555Y003303D01*
X009549Y003329D01*
X009547Y003355D01*
X009547Y005107D02*
X009549Y005133D01*
X009555Y005159D01*
X009565Y005184D01*
X009578Y005207D01*
X009594Y005227D01*
X009614Y005245D01*
X009636Y005260D01*
X009659Y005272D01*
X009685Y005280D01*
X009711Y005284D01*
X009737Y005284D01*
X009763Y005280D01*
X009789Y005272D01*
X009813Y005260D01*
X009834Y005245D01*
X009854Y005227D01*
X009870Y005207D01*
X009883Y005184D01*
X009893Y005159D01*
X009899Y005133D01*
X009901Y005107D01*
X009899Y005081D01*
X009893Y005055D01*
X009883Y005030D01*
X009870Y005007D01*
X009854Y004987D01*
X009834Y004969D01*
X009812Y004954D01*
X009789Y004942D01*
X009763Y004934D01*
X009737Y004930D01*
X009711Y004930D01*
X009685Y004934D01*
X009659Y004942D01*
X009635Y004954D01*
X009614Y004969D01*
X009594Y004987D01*
X009578Y005007D01*
X009565Y005030D01*
X009555Y005055D01*
X009549Y005081D01*
X009547Y005107D01*
X009547Y005284D02*
X009549Y005310D01*
X009555Y005336D01*
X009565Y005361D01*
X009578Y005384D01*
X009594Y005404D01*
X009614Y005422D01*
X009636Y005437D01*
X009659Y005449D01*
X009685Y005457D01*
X009711Y005461D01*
X009737Y005461D01*
X009763Y005457D01*
X009789Y005449D01*
X009813Y005437D01*
X009834Y005422D01*
X009854Y005404D01*
X009870Y005384D01*
X009883Y005361D01*
X009893Y005336D01*
X009899Y005310D01*
X009901Y005284D01*
X009899Y005258D01*
X009893Y005232D01*
X009883Y005207D01*
X009870Y005184D01*
X009854Y005164D01*
X009834Y005146D01*
X009812Y005131D01*
X009789Y005119D01*
X009763Y005111D01*
X009737Y005107D01*
X009711Y005107D01*
X009685Y005111D01*
X009659Y005119D01*
X009635Y005131D01*
X009614Y005146D01*
X009594Y005164D01*
X009578Y005184D01*
X009565Y005207D01*
X009555Y005232D01*
X009549Y005258D01*
X009547Y005284D01*
X009547Y005520D02*
X009549Y005546D01*
X009555Y005572D01*
X009565Y005597D01*
X009578Y005620D01*
X009594Y005640D01*
X009614Y005658D01*
X009636Y005673D01*
X009659Y005685D01*
X009685Y005693D01*
X009711Y005697D01*
X009737Y005697D01*
X009763Y005693D01*
X009789Y005685D01*
X009813Y005673D01*
X009834Y005658D01*
X009854Y005640D01*
X009870Y005620D01*
X009883Y005597D01*
X009893Y005572D01*
X009899Y005546D01*
X009901Y005520D01*
X009899Y005494D01*
X009893Y005468D01*
X009883Y005443D01*
X009870Y005420D01*
X009854Y005400D01*
X009834Y005382D01*
X009812Y005367D01*
X009789Y005355D01*
X009763Y005347D01*
X009737Y005343D01*
X009711Y005343D01*
X009685Y005347D01*
X009659Y005355D01*
X009635Y005367D01*
X009614Y005382D01*
X009594Y005400D01*
X009578Y005420D01*
X009565Y005443D01*
X009555Y005468D01*
X009549Y005494D01*
X009547Y005520D01*
X009547Y005697D02*
X009549Y005723D01*
X009555Y005749D01*
X009565Y005774D01*
X009578Y005797D01*
X009594Y005817D01*
X009614Y005835D01*
X009636Y005850D01*
X009659Y005862D01*
X009685Y005870D01*
X009711Y005874D01*
X009737Y005874D01*
X009763Y005870D01*
X009789Y005862D01*
X009813Y005850D01*
X009834Y005835D01*
X009854Y005817D01*
X009870Y005797D01*
X009883Y005774D01*
X009893Y005749D01*
X009899Y005723D01*
X009901Y005697D01*
X009899Y005671D01*
X009893Y005645D01*
X009883Y005620D01*
X009870Y005597D01*
X009854Y005577D01*
X009834Y005559D01*
X009812Y005544D01*
X009789Y005532D01*
X009763Y005524D01*
X009737Y005520D01*
X009711Y005520D01*
X009685Y005524D01*
X009659Y005532D01*
X009635Y005544D01*
X009614Y005559D01*
X009594Y005577D01*
X009578Y005597D01*
X009565Y005620D01*
X009555Y005645D01*
X009549Y005671D01*
X009547Y005697D01*
D15*
X010904Y010217D03*
X011652Y010217D03*
X012959Y013362D03*
X013707Y013362D03*
X013727Y014842D03*
X012979Y014842D03*
X012152Y014842D03*
X011404Y014842D03*
X011227Y013892D03*
X010479Y013892D03*
X008102Y018092D03*
X007354Y018092D03*
D16*
X014553Y014466D03*
X014553Y013718D03*
D17*
X015175Y021342D03*
X017931Y021342D03*
D18*
X017537Y020309D03*
X015569Y020309D03*
D19*
X015432Y003056D02*
X009724Y003056D01*
D20*
X015432Y003056D02*
X018555Y003056D01*
X018995Y002616D01*
X005503Y020342D02*
X005503Y020867D01*
D21*
X009687Y005365D02*
X009687Y003092D01*
X015432Y003056D02*
X015432Y005402D01*
D22*
X012303Y009492D03*
X011229Y010767D03*
X011678Y011117D03*
X011178Y011467D03*
X011678Y011792D03*
X011228Y012317D03*
X011703Y012892D03*
X012128Y013292D03*
X012228Y012692D03*
X012428Y011992D03*
X013293Y013992D03*
X012903Y014222D03*
X014278Y015142D03*
X014903Y016242D03*
X016028Y015092D03*
X015803Y014692D03*
X016203Y014392D03*
X016203Y013892D03*
X016603Y014092D03*
X016203Y013392D03*
X016203Y012892D03*
X015453Y012642D03*
X015228Y013167D03*
X015503Y014067D03*
X015353Y012142D03*
X015803Y011542D03*
X019203Y011117D03*
X013403Y016142D03*
X012578Y016242D03*
X012528Y016692D03*
X011953Y016117D03*
X011103Y016592D03*
X010503Y016817D03*
X010503Y017217D03*
X010853Y017692D03*
X010503Y018017D03*
X011053Y018742D03*
X012278Y018192D03*
X012603Y018792D03*
X013078Y019942D03*
X012528Y020117D03*
X011753Y019892D03*
X010053Y019842D03*
X010158Y021317D03*
X007703Y019467D03*
X006903Y019592D03*
X006728Y021177D03*
X008578Y018092D03*
X009153Y017617D03*
X009203Y017042D03*
X008578Y017342D03*
X010453Y016242D03*
X010728Y015817D03*
X009803Y015267D03*
X008878Y013667D03*
X007653Y012242D03*
X007778Y011717D03*
X008303Y011567D03*
X008703Y011342D03*
X009028Y010892D03*
X009178Y009567D03*
X007178Y010617D03*
X006703Y012792D03*
X007178Y014092D03*
X006453Y015292D03*
X006878Y015492D03*
X005503Y014917D03*
X011603Y014092D03*
X016853Y019142D03*
X017503Y018792D03*
X017603Y018192D03*
X018003Y018442D03*
X017303Y017192D03*
X018453Y020142D03*
X014853Y020717D03*
X014228Y019942D03*
D23*
X013078Y019942D01*
X013253Y017217D02*
X017278Y017217D01*
X017303Y017192D01*
X016853Y019142D02*
X016853Y019767D01*
X016703Y019917D01*
X013403Y017067D02*
X013403Y016417D01*
X013403Y017067D02*
X013253Y017217D01*
X010045Y017217D01*
X009628Y017634D01*
X009170Y017634D01*
X009153Y017617D01*
X010503Y017217D02*
X010503Y016817D01*
X010503Y016292D01*
X010453Y016242D01*
M02*
