%
M48
M72
T01C0.0236
T02C0.0335
T03C0.0354
T04C0.0400
T05C0.0453
%
T01
X9178Y9567
X9028Y10892
X8703Y11342
X8303Y11567
X7778Y11717
X7653Y12242
X6703Y12792
X7178Y14092
X6453Y15292
X6878Y15492
X5503Y14917
X8578Y17342
X9153Y17617
X9203Y17042
X8578Y18092
X7703Y19467
X6903Y19592
X6728Y21177
X10158Y21317
X10053Y19842
X11053Y18742
X10503Y18017
X10853Y17692
X10503Y17217
X10503Y16817
X11103Y16592
X10453Y16242
X10728Y15817
X9803Y15267
X8878Y13667
X11228Y12317
X11678Y11792
X11178Y11467
X11678Y11117
X11229Y10767
X12303Y9492
X12428Y11992
X12228Y12692
X11703Y12892
X12128Y13292
X11603Y14092
X12903Y14222
X13293Y13992
X14278Y15142
X14903Y16242
X16028Y15092
X15803Y14692
X16203Y14392
X16203Y13892
X16603Y14092
X16203Y13392
X16203Y12892
X15453Y12642
X15228Y13167
X15503Y14067
X15353Y12142
X15803Y11542
X19203Y11117
X13403Y16142
X12578Y16242
X12528Y16692
X11953Y16117
X12278Y18192
X12603Y18792
X13078Y19942
X12528Y20117
X11753Y19892
X14228Y19942
X14853Y20717
X16853Y19142
X17503Y18792
X17603Y18192
X18003Y18442
X17303Y17192
X18453Y20142
X7178Y10617
T02
X15569Y20309
X17537Y20309
T03
X15432Y5697
X15432Y5520
X15432Y5402
X15432Y5284
X15432Y5107
X15432Y3355
X15432Y3178
X15432Y3056
X15432Y2941
X15432Y2764
X9724Y2764
X9724Y2941
X9724Y3056
X9724Y3178
X9724Y3355
X9724Y5107
X9724Y5284
X9724Y5402
X9724Y5520
X9724Y5697
T04
X4995Y2616
X4995Y3616
X5995Y3616
X5995Y2616
X5995Y4616
X4995Y4616
X4995Y5616
X4995Y6616
X5995Y6616
X5995Y5616
X5995Y7616
X4995Y7616
X4995Y8616
X4995Y9616
X5995Y9616
X5995Y8616
X5995Y10616
X4995Y10616
X4995Y11616
X5995Y11616
X5995Y12616
X4995Y12616
X4995Y13616
X4995Y14616
X5995Y14616
X5995Y13616
X5995Y15616
X4995Y15616
X4995Y16616
X4995Y17616
X5995Y17616
X5995Y16616
X5995Y18616
X4995Y18616
X4995Y19616
X4995Y20616
X5995Y20616
X5995Y19616
X5995Y21616
X4995Y21616
X18995Y21616
X19995Y21616
X19995Y20616
X18995Y20616
X18995Y19616
X18995Y18616
X19995Y18616
X19995Y19616
X19995Y17616
X18995Y17616
X18995Y16616
X18995Y15616
X19995Y15616
X19995Y16616
X19995Y14616
X18995Y14616
X18995Y13616
X18995Y12616
X19995Y12616
X19995Y13616
X19995Y11616
X18995Y11616
X18995Y10616
X19995Y10616
X19995Y9616
X18995Y9616
X18995Y8616
X18995Y7616
X19995Y7616
X19995Y8616
X19995Y6616
X18995Y6616
X18995Y5616
X18995Y4616
X19995Y4616
X19995Y5616
X19995Y3616
X18995Y3616
X18995Y2616
X19995Y2616
T05
X17931Y21342
X15175Y21342
M30
