G75*
%MOIN*%
%OFA0B0*%
%FSLAX24Y24*%
%IPPOS*%
%LPD*%
%AMOC8*
5,1,8,0,0,1.08239X$1,22.5*
%
%ADD10C,0.0100*%
%ADD11C,0.0000*%
D10*
X004503Y002292D02*
X004503Y021967D01*
X020603Y021967D01*
X020603Y002292D01*
X004503Y002292D01*
D11*
X009547Y002764D02*
X009549Y002790D01*
X009555Y002816D01*
X009565Y002841D01*
X009578Y002864D01*
X009594Y002884D01*
X009614Y002902D01*
X009636Y002917D01*
X009659Y002929D01*
X009685Y002937D01*
X009711Y002941D01*
X009737Y002941D01*
X009763Y002937D01*
X009789Y002929D01*
X009813Y002917D01*
X009834Y002902D01*
X009854Y002884D01*
X009870Y002864D01*
X009883Y002841D01*
X009893Y002816D01*
X009899Y002790D01*
X009901Y002764D01*
X009899Y002738D01*
X009893Y002712D01*
X009883Y002687D01*
X009870Y002664D01*
X009854Y002644D01*
X009834Y002626D01*
X009812Y002611D01*
X009789Y002599D01*
X009763Y002591D01*
X009737Y002587D01*
X009711Y002587D01*
X009685Y002591D01*
X009659Y002599D01*
X009635Y002611D01*
X009614Y002626D01*
X009594Y002644D01*
X009578Y002664D01*
X009565Y002687D01*
X009555Y002712D01*
X009549Y002738D01*
X009547Y002764D01*
X009547Y002941D02*
X009549Y002967D01*
X009555Y002993D01*
X009565Y003018D01*
X009578Y003041D01*
X009594Y003061D01*
X009614Y003079D01*
X009636Y003094D01*
X009659Y003106D01*
X009685Y003114D01*
X009711Y003118D01*
X009737Y003118D01*
X009763Y003114D01*
X009789Y003106D01*
X009813Y003094D01*
X009834Y003079D01*
X009854Y003061D01*
X009870Y003041D01*
X009883Y003018D01*
X009893Y002993D01*
X009899Y002967D01*
X009901Y002941D01*
X009899Y002915D01*
X009893Y002889D01*
X009883Y002864D01*
X009870Y002841D01*
X009854Y002821D01*
X009834Y002803D01*
X009812Y002788D01*
X009789Y002776D01*
X009763Y002768D01*
X009737Y002764D01*
X009711Y002764D01*
X009685Y002768D01*
X009659Y002776D01*
X009635Y002788D01*
X009614Y002803D01*
X009594Y002821D01*
X009578Y002841D01*
X009565Y002864D01*
X009555Y002889D01*
X009549Y002915D01*
X009547Y002941D01*
X009547Y003178D02*
X009549Y003204D01*
X009555Y003230D01*
X009565Y003255D01*
X009578Y003278D01*
X009594Y003298D01*
X009614Y003316D01*
X009636Y003331D01*
X009659Y003343D01*
X009685Y003351D01*
X009711Y003355D01*
X009737Y003355D01*
X009763Y003351D01*
X009789Y003343D01*
X009813Y003331D01*
X009834Y003316D01*
X009854Y003298D01*
X009870Y003278D01*
X009883Y003255D01*
X009893Y003230D01*
X009899Y003204D01*
X009901Y003178D01*
X009899Y003152D01*
X009893Y003126D01*
X009883Y003101D01*
X009870Y003078D01*
X009854Y003058D01*
X009834Y003040D01*
X009812Y003025D01*
X009789Y003013D01*
X009763Y003005D01*
X009737Y003001D01*
X009711Y003001D01*
X009685Y003005D01*
X009659Y003013D01*
X009635Y003025D01*
X009614Y003040D01*
X009594Y003058D01*
X009578Y003078D01*
X009565Y003101D01*
X009555Y003126D01*
X009549Y003152D01*
X009547Y003178D01*
X009547Y003355D02*
X009549Y003381D01*
X009555Y003407D01*
X009565Y003432D01*
X009578Y003455D01*
X009594Y003475D01*
X009614Y003493D01*
X009636Y003508D01*
X009659Y003520D01*
X009685Y003528D01*
X009711Y003532D01*
X009737Y003532D01*
X009763Y003528D01*
X009789Y003520D01*
X009813Y003508D01*
X009834Y003493D01*
X009854Y003475D01*
X009870Y003455D01*
X009883Y003432D01*
X009893Y003407D01*
X009899Y003381D01*
X009901Y003355D01*
X009899Y003329D01*
X009893Y003303D01*
X009883Y003278D01*
X009870Y003255D01*
X009854Y003235D01*
X009834Y003217D01*
X009812Y003202D01*
X009789Y003190D01*
X009763Y003182D01*
X009737Y003178D01*
X009711Y003178D01*
X009685Y003182D01*
X009659Y003190D01*
X009635Y003202D01*
X009614Y003217D01*
X009594Y003235D01*
X009578Y003255D01*
X009565Y003278D01*
X009555Y003303D01*
X009549Y003329D01*
X009547Y003355D01*
X009547Y005107D02*
X009549Y005133D01*
X009555Y005159D01*
X009565Y005184D01*
X009578Y005207D01*
X009594Y005227D01*
X009614Y005245D01*
X009636Y005260D01*
X009659Y005272D01*
X009685Y005280D01*
X009711Y005284D01*
X009737Y005284D01*
X009763Y005280D01*
X009789Y005272D01*
X009813Y005260D01*
X009834Y005245D01*
X009854Y005227D01*
X009870Y005207D01*
X009883Y005184D01*
X009893Y005159D01*
X009899Y005133D01*
X009901Y005107D01*
X009899Y005081D01*
X009893Y005055D01*
X009883Y005030D01*
X009870Y005007D01*
X009854Y004987D01*
X009834Y004969D01*
X009812Y004954D01*
X009789Y004942D01*
X009763Y004934D01*
X009737Y004930D01*
X009711Y004930D01*
X009685Y004934D01*
X009659Y004942D01*
X009635Y004954D01*
X009614Y004969D01*
X009594Y004987D01*
X009578Y005007D01*
X009565Y005030D01*
X009555Y005055D01*
X009549Y005081D01*
X009547Y005107D01*
X009547Y005284D02*
X009549Y005310D01*
X009555Y005336D01*
X009565Y005361D01*
X009578Y005384D01*
X009594Y005404D01*
X009614Y005422D01*
X009636Y005437D01*
X009659Y005449D01*
X009685Y005457D01*
X009711Y005461D01*
X009737Y005461D01*
X009763Y005457D01*
X009789Y005449D01*
X009813Y005437D01*
X009834Y005422D01*
X009854Y005404D01*
X009870Y005384D01*
X009883Y005361D01*
X009893Y005336D01*
X009899Y005310D01*
X009901Y005284D01*
X009899Y005258D01*
X009893Y005232D01*
X009883Y005207D01*
X009870Y005184D01*
X009854Y005164D01*
X009834Y005146D01*
X009812Y005131D01*
X009789Y005119D01*
X009763Y005111D01*
X009737Y005107D01*
X009711Y005107D01*
X009685Y005111D01*
X009659Y005119D01*
X009635Y005131D01*
X009614Y005146D01*
X009594Y005164D01*
X009578Y005184D01*
X009565Y005207D01*
X009555Y005232D01*
X009549Y005258D01*
X009547Y005284D01*
X009547Y005520D02*
X009549Y005546D01*
X009555Y005572D01*
X009565Y005597D01*
X009578Y005620D01*
X009594Y005640D01*
X009614Y005658D01*
X009636Y005673D01*
X009659Y005685D01*
X009685Y005693D01*
X009711Y005697D01*
X009737Y005697D01*
X009763Y005693D01*
X009789Y005685D01*
X009813Y005673D01*
X009834Y005658D01*
X009854Y005640D01*
X009870Y005620D01*
X009883Y005597D01*
X009893Y005572D01*
X009899Y005546D01*
X009901Y005520D01*
X009899Y005494D01*
X009893Y005468D01*
X009883Y005443D01*
X009870Y005420D01*
X009854Y005400D01*
X009834Y005382D01*
X009812Y005367D01*
X009789Y005355D01*
X009763Y005347D01*
X009737Y005343D01*
X009711Y005343D01*
X009685Y005347D01*
X009659Y005355D01*
X009635Y005367D01*
X009614Y005382D01*
X009594Y005400D01*
X009578Y005420D01*
X009565Y005443D01*
X009555Y005468D01*
X009549Y005494D01*
X009547Y005520D01*
X009547Y005697D02*
X009549Y005723D01*
X009555Y005749D01*
X009565Y005774D01*
X009578Y005797D01*
X009594Y005817D01*
X009614Y005835D01*
X009636Y005850D01*
X009659Y005862D01*
X009685Y005870D01*
X009711Y005874D01*
X009737Y005874D01*
X009763Y005870D01*
X009789Y005862D01*
X009813Y005850D01*
X009834Y005835D01*
X009854Y005817D01*
X009870Y005797D01*
X009883Y005774D01*
X009893Y005749D01*
X009899Y005723D01*
X009901Y005697D01*
X009899Y005671D01*
X009893Y005645D01*
X009883Y005620D01*
X009870Y005597D01*
X009854Y005577D01*
X009834Y005559D01*
X009812Y005544D01*
X009789Y005532D01*
X009763Y005524D01*
X009737Y005520D01*
X009711Y005520D01*
X009685Y005524D01*
X009659Y005532D01*
X009635Y005544D01*
X009614Y005559D01*
X009594Y005577D01*
X009578Y005597D01*
X009565Y005620D01*
X009555Y005645D01*
X009549Y005671D01*
X009547Y005697D01*
X015255Y005697D02*
X015257Y005723D01*
X015263Y005749D01*
X015273Y005774D01*
X015286Y005797D01*
X015302Y005817D01*
X015322Y005835D01*
X015344Y005850D01*
X015367Y005862D01*
X015393Y005870D01*
X015419Y005874D01*
X015445Y005874D01*
X015471Y005870D01*
X015497Y005862D01*
X015521Y005850D01*
X015542Y005835D01*
X015562Y005817D01*
X015578Y005797D01*
X015591Y005774D01*
X015601Y005749D01*
X015607Y005723D01*
X015609Y005697D01*
X015607Y005671D01*
X015601Y005645D01*
X015591Y005620D01*
X015578Y005597D01*
X015562Y005577D01*
X015542Y005559D01*
X015520Y005544D01*
X015497Y005532D01*
X015471Y005524D01*
X015445Y005520D01*
X015419Y005520D01*
X015393Y005524D01*
X015367Y005532D01*
X015343Y005544D01*
X015322Y005559D01*
X015302Y005577D01*
X015286Y005597D01*
X015273Y005620D01*
X015263Y005645D01*
X015257Y005671D01*
X015255Y005697D01*
X015255Y005520D02*
X015257Y005546D01*
X015263Y005572D01*
X015273Y005597D01*
X015286Y005620D01*
X015302Y005640D01*
X015322Y005658D01*
X015344Y005673D01*
X015367Y005685D01*
X015393Y005693D01*
X015419Y005697D01*
X015445Y005697D01*
X015471Y005693D01*
X015497Y005685D01*
X015521Y005673D01*
X015542Y005658D01*
X015562Y005640D01*
X015578Y005620D01*
X015591Y005597D01*
X015601Y005572D01*
X015607Y005546D01*
X015609Y005520D01*
X015607Y005494D01*
X015601Y005468D01*
X015591Y005443D01*
X015578Y005420D01*
X015562Y005400D01*
X015542Y005382D01*
X015520Y005367D01*
X015497Y005355D01*
X015471Y005347D01*
X015445Y005343D01*
X015419Y005343D01*
X015393Y005347D01*
X015367Y005355D01*
X015343Y005367D01*
X015322Y005382D01*
X015302Y005400D01*
X015286Y005420D01*
X015273Y005443D01*
X015263Y005468D01*
X015257Y005494D01*
X015255Y005520D01*
X015255Y005284D02*
X015257Y005310D01*
X015263Y005336D01*
X015273Y005361D01*
X015286Y005384D01*
X015302Y005404D01*
X015322Y005422D01*
X015344Y005437D01*
X015367Y005449D01*
X015393Y005457D01*
X015419Y005461D01*
X015445Y005461D01*
X015471Y005457D01*
X015497Y005449D01*
X015521Y005437D01*
X015542Y005422D01*
X015562Y005404D01*
X015578Y005384D01*
X015591Y005361D01*
X015601Y005336D01*
X015607Y005310D01*
X015609Y005284D01*
X015607Y005258D01*
X015601Y005232D01*
X015591Y005207D01*
X015578Y005184D01*
X015562Y005164D01*
X015542Y005146D01*
X015520Y005131D01*
X015497Y005119D01*
X015471Y005111D01*
X015445Y005107D01*
X015419Y005107D01*
X015393Y005111D01*
X015367Y005119D01*
X015343Y005131D01*
X015322Y005146D01*
X015302Y005164D01*
X015286Y005184D01*
X015273Y005207D01*
X015263Y005232D01*
X015257Y005258D01*
X015255Y005284D01*
X015255Y005107D02*
X015257Y005133D01*
X015263Y005159D01*
X015273Y005184D01*
X015286Y005207D01*
X015302Y005227D01*
X015322Y005245D01*
X015344Y005260D01*
X015367Y005272D01*
X015393Y005280D01*
X015419Y005284D01*
X015445Y005284D01*
X015471Y005280D01*
X015497Y005272D01*
X015521Y005260D01*
X015542Y005245D01*
X015562Y005227D01*
X015578Y005207D01*
X015591Y005184D01*
X015601Y005159D01*
X015607Y005133D01*
X015609Y005107D01*
X015607Y005081D01*
X015601Y005055D01*
X015591Y005030D01*
X015578Y005007D01*
X015562Y004987D01*
X015542Y004969D01*
X015520Y004954D01*
X015497Y004942D01*
X015471Y004934D01*
X015445Y004930D01*
X015419Y004930D01*
X015393Y004934D01*
X015367Y004942D01*
X015343Y004954D01*
X015322Y004969D01*
X015302Y004987D01*
X015286Y005007D01*
X015273Y005030D01*
X015263Y005055D01*
X015257Y005081D01*
X015255Y005107D01*
X015255Y003355D02*
X015257Y003381D01*
X015263Y003407D01*
X015273Y003432D01*
X015286Y003455D01*
X015302Y003475D01*
X015322Y003493D01*
X015344Y003508D01*
X015367Y003520D01*
X015393Y003528D01*
X015419Y003532D01*
X015445Y003532D01*
X015471Y003528D01*
X015497Y003520D01*
X015521Y003508D01*
X015542Y003493D01*
X015562Y003475D01*
X015578Y003455D01*
X015591Y003432D01*
X015601Y003407D01*
X015607Y003381D01*
X015609Y003355D01*
X015607Y003329D01*
X015601Y003303D01*
X015591Y003278D01*
X015578Y003255D01*
X015562Y003235D01*
X015542Y003217D01*
X015520Y003202D01*
X015497Y003190D01*
X015471Y003182D01*
X015445Y003178D01*
X015419Y003178D01*
X015393Y003182D01*
X015367Y003190D01*
X015343Y003202D01*
X015322Y003217D01*
X015302Y003235D01*
X015286Y003255D01*
X015273Y003278D01*
X015263Y003303D01*
X015257Y003329D01*
X015255Y003355D01*
X015255Y003178D02*
X015257Y003204D01*
X015263Y003230D01*
X015273Y003255D01*
X015286Y003278D01*
X015302Y003298D01*
X015322Y003316D01*
X015344Y003331D01*
X015367Y003343D01*
X015393Y003351D01*
X015419Y003355D01*
X015445Y003355D01*
X015471Y003351D01*
X015497Y003343D01*
X015521Y003331D01*
X015542Y003316D01*
X015562Y003298D01*
X015578Y003278D01*
X015591Y003255D01*
X015601Y003230D01*
X015607Y003204D01*
X015609Y003178D01*
X015607Y003152D01*
X015601Y003126D01*
X015591Y003101D01*
X015578Y003078D01*
X015562Y003058D01*
X015542Y003040D01*
X015520Y003025D01*
X015497Y003013D01*
X015471Y003005D01*
X015445Y003001D01*
X015419Y003001D01*
X015393Y003005D01*
X015367Y003013D01*
X015343Y003025D01*
X015322Y003040D01*
X015302Y003058D01*
X015286Y003078D01*
X015273Y003101D01*
X015263Y003126D01*
X015257Y003152D01*
X015255Y003178D01*
X015255Y002941D02*
X015257Y002967D01*
X015263Y002993D01*
X015273Y003018D01*
X015286Y003041D01*
X015302Y003061D01*
X015322Y003079D01*
X015344Y003094D01*
X015367Y003106D01*
X015393Y003114D01*
X015419Y003118D01*
X015445Y003118D01*
X015471Y003114D01*
X015497Y003106D01*
X015521Y003094D01*
X015542Y003079D01*
X015562Y003061D01*
X015578Y003041D01*
X015591Y003018D01*
X015601Y002993D01*
X015607Y002967D01*
X015609Y002941D01*
X015607Y002915D01*
X015601Y002889D01*
X015591Y002864D01*
X015578Y002841D01*
X015562Y002821D01*
X015542Y002803D01*
X015520Y002788D01*
X015497Y002776D01*
X015471Y002768D01*
X015445Y002764D01*
X015419Y002764D01*
X015393Y002768D01*
X015367Y002776D01*
X015343Y002788D01*
X015322Y002803D01*
X015302Y002821D01*
X015286Y002841D01*
X015273Y002864D01*
X015263Y002889D01*
X015257Y002915D01*
X015255Y002941D01*
X015255Y002764D02*
X015257Y002790D01*
X015263Y002816D01*
X015273Y002841D01*
X015286Y002864D01*
X015302Y002884D01*
X015322Y002902D01*
X015344Y002917D01*
X015367Y002929D01*
X015393Y002937D01*
X015419Y002941D01*
X015445Y002941D01*
X015471Y002937D01*
X015497Y002929D01*
X015521Y002917D01*
X015542Y002902D01*
X015562Y002884D01*
X015578Y002864D01*
X015591Y002841D01*
X015601Y002816D01*
X015607Y002790D01*
X015609Y002764D01*
X015607Y002738D01*
X015601Y002712D01*
X015591Y002687D01*
X015578Y002664D01*
X015562Y002644D01*
X015542Y002626D01*
X015520Y002611D01*
X015497Y002599D01*
X015471Y002591D01*
X015445Y002587D01*
X015419Y002587D01*
X015393Y002591D01*
X015367Y002599D01*
X015343Y002611D01*
X015322Y002626D01*
X015302Y002644D01*
X015286Y002664D01*
X015273Y002687D01*
X015263Y002712D01*
X015257Y002738D01*
X015255Y002764D01*
M02*
