G75*
%MOIN*%
%OFA0B0*%
%FSLAX25Y25*%
%IPPOS*%
%LPD*%
%AMOC8*
5,1,8,0,0,1.08239X$1,22.5*
%
%ADD10C,0.01000*%
%ADD11C,0.00500*%
%ADD12C,0.00400*%
%ADD13C,0.00600*%
%ADD14C,0.00100*%
%ADD15C,0.00000*%
%ADD16R,0.00328X0.36403*%
%ADD17R,0.00328X0.39355*%
%ADD18R,0.00328X0.41650*%
%ADD19R,0.00328X0.43290*%
%ADD20R,0.00328X0.44929*%
%ADD21R,0.00328X0.46241*%
%ADD22R,0.00328X0.47225*%
%ADD23R,0.00328X0.48209*%
%ADD24R,0.00328X0.49193*%
%ADD25R,0.00328X0.50177*%
%ADD26R,0.00328X0.51160*%
%ADD27R,0.00328X0.51817*%
%ADD28R,0.00328X0.52472*%
%ADD29R,0.00328X0.53457*%
%ADD30R,0.00328X0.53785*%
%ADD31R,0.00328X0.54440*%
%ADD32R,0.00328X0.55096*%
%ADD33R,0.00328X0.55752*%
%ADD34R,0.00328X0.56080*%
%ADD35R,0.00328X0.56736*%
%ADD36R,0.00328X0.57064*%
%ADD37R,0.00328X0.57720*%
%ADD38R,0.00328X0.58048*%
%ADD39R,0.00328X0.58376*%
%ADD40R,0.00328X0.59031*%
%ADD41R,0.00328X0.59359*%
%ADD42R,0.00328X0.59687*%
%ADD43R,0.00328X0.60015*%
%ADD44R,0.00328X0.60343*%
%ADD45R,0.00328X0.61000*%
%ADD46R,0.00328X0.61327*%
%ADD47R,0.00328X0.61655*%
%ADD48R,0.00328X0.61983*%
%ADD49R,0.00328X0.62311*%
%ADD50R,0.00328X0.62639*%
%ADD51R,0.00328X0.62967*%
%ADD52R,0.00328X0.63295*%
%ADD53R,0.00328X0.63622*%
%ADD54R,0.00328X0.63951*%
%ADD55R,0.00328X0.64279*%
%ADD56R,0.00328X0.64607*%
%ADD57R,0.00328X0.64935*%
%ADD58R,0.00328X0.65263*%
%ADD59R,0.00328X0.65591*%
%ADD60R,0.00328X0.65919*%
%ADD61R,0.00328X0.66247*%
%ADD62R,0.00328X0.66574*%
%ADD63R,0.00328X0.66902*%
%ADD64R,0.00328X0.67230*%
%ADD65R,0.00328X0.67558*%
%ADD66R,0.00328X0.67886*%
%ADD67R,0.00328X0.68215*%
%ADD68R,0.00328X0.68542*%
%ADD69R,0.00328X0.68870*%
%ADD70R,0.00328X0.69198*%
%ADD71R,0.00328X0.69526*%
%ADD72R,0.00328X0.69854*%
%ADD73R,0.00328X0.70182*%
%ADD74R,0.00328X0.77069*%
%ADD75R,0.00328X0.78709*%
%ADD76R,0.00328X0.79693*%
%ADD77R,0.00328X0.80677*%
%ADD78R,0.00328X0.81332*%
%ADD79R,0.00328X0.81660*%
%ADD80R,0.00328X0.81988*%
%ADD81R,0.00328X0.81004*%
%ADD82R,0.00328X0.80020*%
%ADD83R,0.00328X0.79037*%
%ADD84R,0.00328X0.77725*%
%ADD85R,0.00328X0.66246*%
%ADD86R,0.00328X0.19349*%
%ADD87R,0.00328X0.19022*%
%ADD88R,0.00328X0.45586*%
%ADD89R,0.00328X0.18694*%
%ADD90R,0.00328X0.18365*%
%ADD91R,0.00328X0.44602*%
%ADD92R,0.00328X0.18693*%
%ADD93R,0.00328X0.44274*%
%ADD94R,0.00328X0.43946*%
%ADD95R,0.00328X0.18693*%
%ADD96R,0.00328X0.43289*%
%ADD97R,0.00328X0.18366*%
%ADD98R,0.00328X0.42634*%
%ADD99R,0.00328X0.41978*%
%ADD100R,0.00328X0.40994*%
%ADD101R,0.00328X0.40338*%
%ADD102R,0.00328X0.39682*%
%ADD103R,0.00328X0.39026*%
%ADD104R,0.00328X0.37715*%
%ADD105R,0.00328X0.19021*%
%ADD106R,0.00328X0.30828*%
%ADD107R,0.00328X0.04591*%
%ADD108R,0.00328X0.19349*%
%ADD109R,0.00328X0.29844*%
%ADD110R,0.00328X0.19350*%
%ADD111R,0.00328X0.29516*%
%ADD112R,0.00328X0.28532*%
%ADD113R,0.00328X0.27548*%
%ADD114R,0.00328X0.26892*%
%ADD115R,0.00328X0.25908*%
%ADD116R,0.00328X0.25580*%
%ADD117R,0.00328X0.25253*%
%ADD118R,0.00328X0.06231*%
%ADD119R,0.00328X0.11150*%
%ADD120R,0.00328X0.37386*%
%ADD121R,0.00328X0.37058*%
%ADD122R,0.00328X0.36731*%
%ADD123R,0.00328X0.36075*%
%ADD124R,0.00328X0.30172*%
%ADD125R,0.00328X0.04919*%
%ADD126R,0.00328X0.29516*%
%ADD127R,0.00328X0.02952*%
%ADD128R,0.00328X0.01312*%
%ADD129R,0.00328X0.28860*%
%ADD130R,0.00328X0.28532*%
%ADD131R,0.00328X0.05247*%
%ADD132R,0.00328X0.15413*%
%ADD133R,0.00328X0.05247*%
%ADD134R,0.00328X0.03607*%
%ADD135R,0.00328X0.14102*%
%ADD136R,0.00328X0.00656*%
%ADD137R,0.00328X0.12462*%
%ADD138R,0.00328X0.04263*%
%ADD139R,0.00328X0.10495*%
%ADD140R,0.00328X0.03607*%
%ADD141R,0.00328X0.08527*%
%ADD142R,0.00328X0.02624*%
%ADD143R,0.00328X0.01640*%
%ADD144R,0.00328X0.00984*%
%ADD145R,0.00328X0.00328*%
%ADD146R,0.00328X0.01639*%
%ADD147R,0.00328X0.02296*%
%ADD148R,0.00328X0.02952*%
%ADD149R,0.00328X0.04920*%
%ADD150R,0.00328X0.05575*%
%ADD151R,0.00328X0.06231*%
%ADD152R,0.00328X0.06887*%
%ADD153R,0.00328X0.07543*%
%ADD154R,0.00328X0.08199*%
%ADD155R,0.00328X0.08855*%
%ADD156R,0.00328X0.09183*%
%ADD157R,0.00328X0.09511*%
%ADD158R,0.00328X0.10167*%
%ADD159R,0.00328X0.10822*%
%ADD160R,0.00328X0.11478*%
%ADD161R,0.00328X0.12134*%
%ADD162R,0.00328X0.12790*%
%ADD163R,0.00328X0.13446*%
%ADD164R,0.00328X0.14758*%
%ADD165R,0.00328X0.16070*%
%ADD166R,0.00328X0.16726*%
%ADD167R,0.00328X0.17381*%
%ADD168R,0.00328X0.18037*%
%ADD169R,0.00328X0.20005*%
%ADD170R,0.00328X0.20333*%
%ADD171R,0.00328X0.20661*%
%ADD172R,0.00328X0.21317*%
%ADD173R,0.00328X0.21972*%
%ADD174R,0.00328X0.22301*%
%ADD175R,0.00328X0.22629*%
%ADD176R,0.00328X0.23285*%
%ADD177R,0.00328X0.23941*%
%ADD178R,0.00328X0.24269*%
%ADD179R,0.00328X0.24596*%
%ADD180R,0.00328X0.13774*%
%ADD181R,0.00328X0.13119*%
%ADD182R,0.00328X0.10494*%
%ADD183R,0.00328X0.13774*%
%ADD184R,0.00328X0.10822*%
%ADD185R,0.00328X0.14102*%
%ADD186R,0.00328X0.11806*%
%ADD187R,0.00328X0.12135*%
%ADD188R,0.00328X0.15742*%
%ADD189R,0.00328X0.13118*%
%ADD190R,0.00328X0.30500*%
%ADD191R,0.00328X0.31155*%
%ADD192R,0.00328X0.31483*%
%ADD193R,0.00328X0.31812*%
%ADD194R,0.00328X0.32467*%
%ADD195R,0.00328X0.33123*%
%ADD196R,0.00328X0.33452*%
%ADD197R,0.00328X0.33780*%
%ADD198R,0.00328X0.34435*%
%ADD199R,0.00328X0.35091*%
%ADD200R,0.00328X0.35419*%
%ADD201R,0.00328X0.35746*%
%ADD202R,0.00328X0.38371*%
%ADD203R,0.00328X0.38699*%
%ADD204R,0.00328X0.39354*%
%ADD205R,0.00328X0.40338*%
%ADD206R,0.00328X0.40666*%
%ADD207R,0.00328X0.41322*%
%ADD208R,0.00328X0.42306*%
%ADD209R,0.00328X0.43290*%
%ADD210R,0.00328X0.43618*%
%ADD211R,0.00328X0.45257*%
%ADD212R,0.00328X0.46569*%
%ADD213R,0.00328X0.47554*%
%ADD214R,0.00328X0.48537*%
%ADD215R,0.00328X0.34107*%
%ADD216R,0.00328X0.13774*%
%ADD217R,0.00328X0.33779*%
%ADD218R,0.00328X0.13446*%
%ADD219R,0.00328X0.34107*%
%ADD220R,0.00328X0.34435*%
%ADD221R,0.00328X0.14430*%
%ADD222R,0.00328X0.35419*%
%ADD223R,0.00328X0.15086*%
%ADD224R,0.00328X0.52472*%
%ADD225R,0.00328X0.52800*%
%ADD226R,0.00328X0.53784*%
%ADD227R,0.00328X0.54441*%
%ADD228R,0.00328X0.54769*%
%ADD229R,0.00328X0.55424*%
%ADD230R,0.00328X0.55752*%
%ADD231R,0.00328X0.56408*%
%ADD232R,0.00328X0.57392*%
%ADD233R,0.00328X0.58376*%
%ADD234R,0.00328X0.20333*%
%ADD235R,0.00328X0.37715*%
%ADD236R,0.00328X0.20005*%
%ADD237R,0.00328X0.37714*%
%ADD238R,0.00328X0.20333*%
%ADD239R,0.00328X0.38042*%
%ADD240R,0.00328X0.20989*%
%ADD241R,0.00328X0.60671*%
%ADD242R,0.00328X0.07871*%
%ADD243R,0.00328X0.51816*%
%ADD244R,0.00328X0.07871*%
%ADD245R,0.00328X0.51817*%
%ADD246R,0.00328X0.08199*%
%ADD247R,0.00328X0.52144*%
%ADD248R,0.00328X0.52473*%
%ADD249R,0.00328X0.39026*%
%ADD250R,0.00328X0.21317*%
%ADD251R,0.00328X0.38370*%
%ADD252R,0.00328X0.37387*%
%ADD253R,0.00328X0.19677*%
%ADD254R,0.00328X0.54112*%
%ADD255R,0.00328X0.53129*%
%ADD256R,0.00328X0.50505*%
%ADD257R,0.00328X0.48865*%
%ADD258R,0.00328X0.42962*%
%ADD259R,0.00328X0.40010*%
%ADD260R,0.00328X0.27876*%
D10*
X0045031Y0019923D02*
X0045031Y0216673D01*
X0206031Y0216673D01*
X0206031Y0019923D01*
X0045031Y0019923D01*
X0074631Y0166473D02*
X0088831Y0166473D01*
X0088831Y0181073D02*
X0074631Y0181073D01*
D11*
X0064952Y0018159D02*
X0044952Y0018159D01*
X0044952Y0218159D01*
X0064952Y0218159D01*
X0064952Y0018159D01*
X0184952Y0018159D02*
X0204952Y0018159D01*
X0204952Y0218159D01*
X0184952Y0218159D01*
X0184952Y0018159D01*
X0074832Y0183461D02*
X0074081Y0184211D01*
X0074081Y0184962D01*
X0074832Y0185713D01*
X0078585Y0185713D01*
X0078585Y0186463D02*
X0078585Y0184962D01*
X0078585Y0188065D02*
X0078585Y0190317D01*
X0077834Y0191067D01*
X0076333Y0191067D01*
X0075582Y0190317D01*
X0075582Y0188065D01*
X0074081Y0188065D02*
X0078585Y0188065D01*
X0077084Y0192669D02*
X0078585Y0194170D01*
X0074081Y0194170D01*
X0074081Y0192669D02*
X0074081Y0195671D01*
D12*
X0058125Y0218359D02*
X0057191Y0218359D01*
X0056724Y0218826D01*
X0056724Y0221161D01*
X0055645Y0220227D02*
X0054711Y0221161D01*
X0054711Y0218359D01*
X0055645Y0218359D02*
X0053777Y0218359D01*
X0052699Y0218826D02*
X0052232Y0218359D01*
X0051298Y0218359D01*
X0050831Y0218826D01*
X0050831Y0219293D01*
X0051298Y0219760D01*
X0051765Y0219760D01*
X0051298Y0219760D02*
X0050831Y0220227D01*
X0050831Y0220694D01*
X0051298Y0221161D01*
X0052232Y0221161D01*
X0052699Y0220694D01*
X0058125Y0218359D02*
X0058592Y0218826D01*
X0058592Y0221161D01*
X0076183Y0155126D02*
X0077718Y0155126D01*
X0078485Y0154359D01*
X0078485Y0153592D01*
X0077718Y0152825D01*
X0075416Y0152825D01*
X0075416Y0154359D02*
X0075416Y0151290D01*
X0076183Y0150523D01*
X0077718Y0150523D01*
X0078485Y0151290D01*
X0080020Y0150523D02*
X0083089Y0150523D01*
X0081554Y0150523D02*
X0081554Y0155126D01*
X0083089Y0153592D01*
X0084624Y0154359D02*
X0084624Y0152825D01*
X0085391Y0152057D01*
X0087693Y0152057D01*
X0087693Y0150523D02*
X0087693Y0155126D01*
X0085391Y0155126D01*
X0084624Y0154359D01*
X0086158Y0152057D02*
X0084624Y0150523D01*
X0076183Y0155126D02*
X0075416Y0154359D01*
X0141231Y0168911D02*
X0145835Y0168911D01*
X0145835Y0171213D01*
X0145068Y0171980D01*
X0143533Y0171980D01*
X0142766Y0171213D01*
X0142766Y0168911D01*
X0142766Y0170445D02*
X0141231Y0171980D01*
X0141231Y0173515D02*
X0144300Y0176584D01*
X0145068Y0176584D01*
X0145835Y0175817D01*
X0145835Y0174282D01*
X0145068Y0173515D01*
X0141231Y0173515D02*
X0141231Y0176584D01*
X0141231Y0178119D02*
X0144300Y0181188D01*
X0145068Y0181188D01*
X0145835Y0180421D01*
X0145835Y0178886D01*
X0145068Y0178119D01*
X0141231Y0178119D02*
X0141231Y0181188D01*
X0160231Y0179321D02*
X0160231Y0177786D01*
X0160999Y0177019D01*
X0162533Y0178553D02*
X0162533Y0179321D01*
X0161766Y0180088D01*
X0160999Y0180088D01*
X0160231Y0179321D01*
X0162533Y0179321D02*
X0163300Y0180088D01*
X0164068Y0180088D01*
X0164835Y0179321D01*
X0164835Y0177786D01*
X0164068Y0177019D01*
X0162533Y0175484D02*
X0162533Y0172415D01*
X0164835Y0174717D01*
X0160231Y0174717D01*
X0160999Y0170880D02*
X0160231Y0170113D01*
X0160231Y0168578D01*
X0160999Y0167811D01*
X0164068Y0167811D01*
X0164835Y0168578D01*
X0164835Y0170113D01*
X0164068Y0170880D01*
X0162233Y0157700D02*
X0162233Y0154630D01*
X0164535Y0156932D01*
X0159931Y0156932D01*
X0162233Y0153096D02*
X0162233Y0150026D01*
X0164535Y0152328D01*
X0159931Y0152328D01*
X0160699Y0148492D02*
X0159931Y0147725D01*
X0159931Y0146190D01*
X0160699Y0145423D01*
X0163768Y0145423D01*
X0164535Y0146190D01*
X0164535Y0147725D01*
X0163768Y0148492D01*
X0147568Y0087900D02*
X0144499Y0087900D01*
X0143731Y0087132D01*
X0143731Y0085598D01*
X0144499Y0084830D01*
X0147568Y0087900D01*
X0148335Y0087132D01*
X0148335Y0085598D01*
X0147568Y0084830D01*
X0144499Y0084830D01*
X0144499Y0083296D02*
X0143731Y0082528D01*
X0143731Y0080994D01*
X0144499Y0080226D01*
X0144499Y0078692D02*
X0143731Y0077925D01*
X0143731Y0076390D01*
X0144499Y0075623D01*
X0147568Y0075623D01*
X0148335Y0076390D01*
X0148335Y0077925D01*
X0147568Y0078692D01*
X0147568Y0080226D02*
X0148335Y0080994D01*
X0148335Y0082528D01*
X0147568Y0083296D01*
X0146800Y0083296D01*
X0146033Y0082528D01*
X0145266Y0083296D01*
X0144499Y0083296D01*
X0146033Y0082528D02*
X0146033Y0081761D01*
X0138435Y0081394D02*
X0137668Y0080626D01*
X0138435Y0081394D02*
X0138435Y0082928D01*
X0137668Y0083696D01*
X0136900Y0083696D01*
X0133831Y0080626D01*
X0133831Y0083696D01*
X0134599Y0085230D02*
X0133831Y0085998D01*
X0133831Y0087532D01*
X0134599Y0088300D01*
X0137668Y0088300D01*
X0138435Y0087532D01*
X0138435Y0085998D01*
X0137668Y0085230D01*
X0136900Y0085230D01*
X0136133Y0085998D01*
X0136133Y0088300D01*
X0129635Y0083696D02*
X0128868Y0082161D01*
X0127333Y0080626D01*
X0127333Y0082928D01*
X0126566Y0083696D01*
X0125799Y0083696D01*
X0125031Y0082928D01*
X0125031Y0081394D01*
X0125799Y0080626D01*
X0127333Y0080626D01*
X0127333Y0079092D02*
X0126566Y0078325D01*
X0126566Y0076023D01*
X0126566Y0077557D02*
X0125031Y0079092D01*
X0127333Y0079092D02*
X0128868Y0079092D01*
X0129635Y0078325D01*
X0129635Y0076023D01*
X0125031Y0076023D01*
X0133831Y0076790D02*
X0133831Y0078325D01*
X0134599Y0079092D01*
X0133831Y0076790D02*
X0134599Y0076023D01*
X0137668Y0076023D01*
X0138435Y0076790D01*
X0138435Y0078325D01*
X0137668Y0079092D01*
X0115735Y0057888D02*
X0114968Y0057888D01*
X0111899Y0054819D01*
X0111131Y0054819D01*
X0111131Y0053284D02*
X0112666Y0051749D01*
X0112666Y0052517D02*
X0112666Y0050215D01*
X0111131Y0050215D02*
X0115735Y0050215D01*
X0115735Y0052517D01*
X0114968Y0053284D01*
X0113433Y0053284D01*
X0112666Y0052517D01*
X0115735Y0054819D02*
X0115735Y0057888D01*
X0127331Y0055432D02*
X0127331Y0053898D01*
X0128099Y0053130D01*
X0129633Y0053130D01*
X0129633Y0055432D01*
X0128866Y0056200D01*
X0128099Y0056200D01*
X0127331Y0055432D01*
X0129633Y0053130D02*
X0131168Y0054665D01*
X0131935Y0056200D01*
X0131168Y0051596D02*
X0131935Y0050828D01*
X0131935Y0049294D01*
X0131168Y0048526D01*
X0131168Y0046992D02*
X0131935Y0046225D01*
X0131935Y0044690D01*
X0131168Y0043923D01*
X0128099Y0043923D01*
X0127331Y0044690D01*
X0127331Y0046225D01*
X0128099Y0046992D01*
X0127331Y0048526D02*
X0130400Y0051596D01*
X0131168Y0051596D01*
X0133331Y0050196D02*
X0133331Y0047126D01*
X0133331Y0048661D02*
X0137935Y0048661D01*
X0136400Y0047126D01*
X0137168Y0045592D02*
X0137935Y0044825D01*
X0137935Y0042523D01*
X0133331Y0042523D01*
X0133331Y0044825D01*
X0134099Y0045592D01*
X0137168Y0045592D01*
X0142831Y0043684D02*
X0142831Y0040615D01*
X0147435Y0040615D01*
X0145133Y0045219D02*
X0145133Y0048288D01*
X0142831Y0047521D02*
X0147435Y0047521D01*
X0145133Y0045219D01*
X0127331Y0048526D02*
X0127331Y0051596D01*
X0110135Y0045500D02*
X0110135Y0042430D01*
X0107833Y0042430D01*
X0108600Y0043965D01*
X0108600Y0044732D01*
X0107833Y0045500D01*
X0106299Y0045500D01*
X0105531Y0044732D01*
X0105531Y0043198D01*
X0106299Y0042430D01*
X0105531Y0040896D02*
X0105531Y0037826D01*
X0108600Y0040896D01*
X0109368Y0040896D01*
X0110135Y0040128D01*
X0110135Y0038594D01*
X0109368Y0037826D01*
X0109368Y0036292D02*
X0110135Y0035525D01*
X0110135Y0033990D01*
X0109368Y0033223D01*
X0106299Y0033223D01*
X0105531Y0033990D01*
X0105531Y0035525D01*
X0106299Y0036292D01*
X0191298Y0218359D02*
X0191298Y0221161D01*
X0192699Y0219760D01*
X0190831Y0219760D01*
X0193777Y0218359D02*
X0195645Y0218359D01*
X0194711Y0218359D02*
X0194711Y0221161D01*
X0195645Y0220227D01*
X0196724Y0221161D02*
X0196724Y0218826D01*
X0197191Y0218359D01*
X0198125Y0218359D01*
X0198592Y0218826D01*
X0198592Y0221161D01*
D13*
X0137311Y0170567D02*
X0137311Y0150882D01*
X0096366Y0150882D01*
X0096366Y0170567D01*
X0137311Y0170567D01*
X0131663Y0154720D02*
X0131665Y0154805D01*
X0131671Y0154889D01*
X0131681Y0154974D01*
X0131695Y0155057D01*
X0131712Y0155140D01*
X0131734Y0155222D01*
X0131760Y0155303D01*
X0131789Y0155383D01*
X0131822Y0155461D01*
X0131858Y0155537D01*
X0131898Y0155612D01*
X0131942Y0155685D01*
X0131989Y0155756D01*
X0132039Y0155824D01*
X0132092Y0155890D01*
X0132149Y0155953D01*
X0132208Y0156014D01*
X0132270Y0156072D01*
X0132335Y0156127D01*
X0132402Y0156179D01*
X0132471Y0156227D01*
X0132543Y0156272D01*
X0132617Y0156314D01*
X0132693Y0156352D01*
X0132770Y0156387D01*
X0132849Y0156418D01*
X0132929Y0156446D01*
X0133011Y0156469D01*
X0133093Y0156489D01*
X0133176Y0156505D01*
X0133260Y0156517D01*
X0133345Y0156525D01*
X0133430Y0156529D01*
X0133514Y0156529D01*
X0133599Y0156525D01*
X0133684Y0156517D01*
X0133768Y0156505D01*
X0133851Y0156489D01*
X0133933Y0156469D01*
X0134015Y0156446D01*
X0134095Y0156418D01*
X0134174Y0156387D01*
X0134251Y0156352D01*
X0134327Y0156314D01*
X0134401Y0156272D01*
X0134473Y0156227D01*
X0134542Y0156179D01*
X0134609Y0156127D01*
X0134674Y0156072D01*
X0134736Y0156014D01*
X0134795Y0155953D01*
X0134852Y0155890D01*
X0134905Y0155824D01*
X0134955Y0155756D01*
X0135002Y0155685D01*
X0135046Y0155612D01*
X0135086Y0155537D01*
X0135122Y0155461D01*
X0135155Y0155383D01*
X0135184Y0155303D01*
X0135210Y0155222D01*
X0135232Y0155140D01*
X0135249Y0155057D01*
X0135263Y0154974D01*
X0135273Y0154889D01*
X0135279Y0154805D01*
X0135281Y0154720D01*
X0135279Y0154635D01*
X0135273Y0154551D01*
X0135263Y0154466D01*
X0135249Y0154383D01*
X0135232Y0154300D01*
X0135210Y0154218D01*
X0135184Y0154137D01*
X0135155Y0154057D01*
X0135122Y0153979D01*
X0135086Y0153903D01*
X0135046Y0153828D01*
X0135002Y0153755D01*
X0134955Y0153684D01*
X0134905Y0153616D01*
X0134852Y0153550D01*
X0134795Y0153487D01*
X0134736Y0153426D01*
X0134674Y0153368D01*
X0134609Y0153313D01*
X0134542Y0153261D01*
X0134473Y0153213D01*
X0134401Y0153168D01*
X0134327Y0153126D01*
X0134251Y0153088D01*
X0134174Y0153053D01*
X0134095Y0153022D01*
X0134015Y0152994D01*
X0133933Y0152971D01*
X0133851Y0152951D01*
X0133768Y0152935D01*
X0133684Y0152923D01*
X0133599Y0152915D01*
X0133514Y0152911D01*
X0133430Y0152911D01*
X0133345Y0152915D01*
X0133260Y0152923D01*
X0133176Y0152935D01*
X0133093Y0152951D01*
X0133011Y0152971D01*
X0132929Y0152994D01*
X0132849Y0153022D01*
X0132770Y0153053D01*
X0132693Y0153088D01*
X0132617Y0153126D01*
X0132543Y0153168D01*
X0132471Y0153213D01*
X0132402Y0153261D01*
X0132335Y0153313D01*
X0132270Y0153368D01*
X0132208Y0153426D01*
X0132149Y0153487D01*
X0132092Y0153550D01*
X0132039Y0153616D01*
X0131989Y0153684D01*
X0131942Y0153755D01*
X0131898Y0153828D01*
X0131858Y0153903D01*
X0131822Y0153979D01*
X0131789Y0154057D01*
X0131760Y0154137D01*
X0131734Y0154218D01*
X0131712Y0154300D01*
X0131695Y0154383D01*
X0131681Y0154466D01*
X0131671Y0154551D01*
X0131665Y0154635D01*
X0131663Y0154720D01*
X0071731Y0164273D02*
X0071733Y0164336D01*
X0071739Y0164398D01*
X0071749Y0164460D01*
X0071762Y0164522D01*
X0071780Y0164582D01*
X0071801Y0164641D01*
X0071826Y0164699D01*
X0071855Y0164755D01*
X0071887Y0164809D01*
X0071922Y0164861D01*
X0071960Y0164910D01*
X0072002Y0164958D01*
X0072046Y0165002D01*
X0072094Y0165044D01*
X0072143Y0165082D01*
X0072195Y0165117D01*
X0072249Y0165149D01*
X0072305Y0165178D01*
X0072363Y0165203D01*
X0072422Y0165224D01*
X0072482Y0165242D01*
X0072544Y0165255D01*
X0072606Y0165265D01*
X0072668Y0165271D01*
X0072731Y0165273D01*
X0072794Y0165271D01*
X0072856Y0165265D01*
X0072918Y0165255D01*
X0072980Y0165242D01*
X0073040Y0165224D01*
X0073099Y0165203D01*
X0073157Y0165178D01*
X0073213Y0165149D01*
X0073267Y0165117D01*
X0073319Y0165082D01*
X0073368Y0165044D01*
X0073416Y0165002D01*
X0073460Y0164958D01*
X0073502Y0164910D01*
X0073540Y0164861D01*
X0073575Y0164809D01*
X0073607Y0164755D01*
X0073636Y0164699D01*
X0073661Y0164641D01*
X0073682Y0164582D01*
X0073700Y0164522D01*
X0073713Y0164460D01*
X0073723Y0164398D01*
X0073729Y0164336D01*
X0073731Y0164273D01*
X0073729Y0164210D01*
X0073723Y0164148D01*
X0073713Y0164086D01*
X0073700Y0164024D01*
X0073682Y0163964D01*
X0073661Y0163905D01*
X0073636Y0163847D01*
X0073607Y0163791D01*
X0073575Y0163737D01*
X0073540Y0163685D01*
X0073502Y0163636D01*
X0073460Y0163588D01*
X0073416Y0163544D01*
X0073368Y0163502D01*
X0073319Y0163464D01*
X0073267Y0163429D01*
X0073213Y0163397D01*
X0073157Y0163368D01*
X0073099Y0163343D01*
X0073040Y0163322D01*
X0072980Y0163304D01*
X0072918Y0163291D01*
X0072856Y0163281D01*
X0072794Y0163275D01*
X0072731Y0163273D01*
X0072668Y0163275D01*
X0072606Y0163281D01*
X0072544Y0163291D01*
X0072482Y0163304D01*
X0072422Y0163322D01*
X0072363Y0163343D01*
X0072305Y0163368D01*
X0072249Y0163397D01*
X0072195Y0163429D01*
X0072143Y0163464D01*
X0072094Y0163502D01*
X0072046Y0163544D01*
X0072002Y0163588D01*
X0071960Y0163636D01*
X0071922Y0163685D01*
X0071887Y0163737D01*
X0071855Y0163791D01*
X0071826Y0163847D01*
X0071801Y0163905D01*
X0071780Y0163964D01*
X0071762Y0164024D01*
X0071749Y0164086D01*
X0071739Y0164148D01*
X0071733Y0164210D01*
X0071731Y0164273D01*
X0071431Y0181423D02*
X0065431Y0181423D01*
X0065371Y0181425D01*
X0065310Y0181430D01*
X0065251Y0181439D01*
X0065192Y0181452D01*
X0065133Y0181468D01*
X0065076Y0181488D01*
X0065021Y0181511D01*
X0064966Y0181538D01*
X0064914Y0181567D01*
X0064863Y0181600D01*
X0064814Y0181636D01*
X0064768Y0181674D01*
X0064724Y0181716D01*
X0064682Y0181760D01*
X0064644Y0181806D01*
X0064608Y0181855D01*
X0064575Y0181906D01*
X0064546Y0181958D01*
X0064519Y0182013D01*
X0064496Y0182068D01*
X0064476Y0182125D01*
X0064460Y0182184D01*
X0064447Y0182243D01*
X0064438Y0182302D01*
X0064433Y0182363D01*
X0064431Y0182423D01*
X0064431Y0199423D01*
X0064433Y0199483D01*
X0064438Y0199544D01*
X0064447Y0199603D01*
X0064460Y0199662D01*
X0064476Y0199721D01*
X0064496Y0199778D01*
X0064519Y0199833D01*
X0064546Y0199888D01*
X0064575Y0199940D01*
X0064608Y0199991D01*
X0064644Y0200040D01*
X0064682Y0200086D01*
X0064724Y0200130D01*
X0064768Y0200172D01*
X0064814Y0200210D01*
X0064863Y0200246D01*
X0064914Y0200279D01*
X0064966Y0200308D01*
X0065021Y0200335D01*
X0065076Y0200358D01*
X0065133Y0200378D01*
X0065192Y0200394D01*
X0065251Y0200407D01*
X0065310Y0200416D01*
X0065371Y0200421D01*
X0065431Y0200423D01*
X0071431Y0200423D01*
X0071491Y0200421D01*
X0071552Y0200416D01*
X0071611Y0200407D01*
X0071670Y0200394D01*
X0071729Y0200378D01*
X0071786Y0200358D01*
X0071841Y0200335D01*
X0071896Y0200308D01*
X0071948Y0200279D01*
X0071999Y0200246D01*
X0072048Y0200210D01*
X0072094Y0200172D01*
X0072138Y0200130D01*
X0072180Y0200086D01*
X0072218Y0200040D01*
X0072254Y0199991D01*
X0072287Y0199940D01*
X0072316Y0199888D01*
X0072343Y0199833D01*
X0072366Y0199778D01*
X0072386Y0199721D01*
X0072402Y0199662D01*
X0072415Y0199603D01*
X0072424Y0199544D01*
X0072429Y0199483D01*
X0072431Y0199423D01*
X0072431Y0182423D01*
X0072429Y0182363D01*
X0072424Y0182302D01*
X0072415Y0182243D01*
X0072402Y0182184D01*
X0072386Y0182125D01*
X0072366Y0182068D01*
X0072343Y0182013D01*
X0072316Y0181958D01*
X0072287Y0181906D01*
X0072254Y0181855D01*
X0072218Y0181806D01*
X0072180Y0181760D01*
X0072138Y0181716D01*
X0072094Y0181674D01*
X0072048Y0181636D01*
X0071999Y0181600D01*
X0071948Y0181567D01*
X0071896Y0181538D01*
X0071841Y0181511D01*
X0071786Y0181488D01*
X0071729Y0181468D01*
X0071670Y0181452D01*
X0071611Y0181439D01*
X0071552Y0181430D01*
X0071491Y0181425D01*
X0071431Y0181423D01*
X0128731Y0035223D02*
X0128731Y0032023D01*
X0130931Y0032023D01*
X0137731Y0032023D02*
X0139931Y0032023D01*
X0139931Y0035223D01*
D14*
X0129815Y0166016D02*
X0129815Y0168018D01*
X0130065Y0167768D02*
X0129564Y0167768D01*
X0129314Y0167517D01*
X0128842Y0167768D02*
X0128842Y0167017D01*
X0128341Y0167267D01*
X0128091Y0167267D01*
X0127841Y0167017D01*
X0127841Y0166516D01*
X0128091Y0166266D01*
X0128592Y0166266D01*
X0128842Y0166516D01*
X0129314Y0166516D02*
X0129314Y0166767D01*
X0129564Y0167017D01*
X0130065Y0167017D01*
X0130315Y0167267D01*
X0130315Y0167517D01*
X0130065Y0167768D01*
X0130787Y0167768D02*
X0130787Y0166516D01*
X0131038Y0166266D01*
X0131538Y0166266D01*
X0131788Y0166516D01*
X0131788Y0167768D01*
X0130315Y0166516D02*
X0130065Y0166266D01*
X0129564Y0166266D01*
X0129314Y0166516D01*
X0128842Y0167768D02*
X0127841Y0167768D01*
D15*
X0099416Y0056974D02*
X0099418Y0057058D01*
X0099424Y0057141D01*
X0099434Y0057224D01*
X0099448Y0057307D01*
X0099465Y0057389D01*
X0099487Y0057470D01*
X0099512Y0057549D01*
X0099541Y0057628D01*
X0099574Y0057705D01*
X0099610Y0057780D01*
X0099650Y0057854D01*
X0099693Y0057926D01*
X0099740Y0057995D01*
X0099790Y0058062D01*
X0099843Y0058127D01*
X0099899Y0058189D01*
X0099957Y0058249D01*
X0100019Y0058306D01*
X0100083Y0058359D01*
X0100150Y0058410D01*
X0100219Y0058457D01*
X0100290Y0058502D01*
X0100363Y0058542D01*
X0100438Y0058579D01*
X0100515Y0058613D01*
X0100593Y0058643D01*
X0100672Y0058669D01*
X0100753Y0058692D01*
X0100835Y0058710D01*
X0100917Y0058725D01*
X0101000Y0058736D01*
X0101083Y0058743D01*
X0101167Y0058746D01*
X0101251Y0058745D01*
X0101334Y0058740D01*
X0101418Y0058731D01*
X0101500Y0058718D01*
X0101582Y0058702D01*
X0101663Y0058681D01*
X0101744Y0058657D01*
X0101822Y0058629D01*
X0101900Y0058597D01*
X0101976Y0058561D01*
X0102050Y0058522D01*
X0102122Y0058480D01*
X0102192Y0058434D01*
X0102260Y0058385D01*
X0102325Y0058333D01*
X0102388Y0058278D01*
X0102448Y0058220D01*
X0102506Y0058159D01*
X0102560Y0058095D01*
X0102612Y0058029D01*
X0102660Y0057961D01*
X0102705Y0057890D01*
X0102746Y0057817D01*
X0102785Y0057743D01*
X0102819Y0057667D01*
X0102850Y0057589D01*
X0102877Y0057510D01*
X0102901Y0057429D01*
X0102920Y0057348D01*
X0102936Y0057266D01*
X0102948Y0057183D01*
X0102956Y0057099D01*
X0102960Y0057016D01*
X0102960Y0056932D01*
X0102956Y0056849D01*
X0102948Y0056765D01*
X0102936Y0056682D01*
X0102920Y0056600D01*
X0102901Y0056519D01*
X0102877Y0056438D01*
X0102850Y0056359D01*
X0102819Y0056281D01*
X0102785Y0056205D01*
X0102746Y0056131D01*
X0102705Y0056058D01*
X0102660Y0055987D01*
X0102612Y0055919D01*
X0102560Y0055853D01*
X0102506Y0055789D01*
X0102448Y0055728D01*
X0102388Y0055670D01*
X0102325Y0055615D01*
X0102260Y0055563D01*
X0102192Y0055514D01*
X0102122Y0055468D01*
X0102050Y0055426D01*
X0101976Y0055387D01*
X0101900Y0055351D01*
X0101822Y0055319D01*
X0101744Y0055291D01*
X0101663Y0055267D01*
X0101582Y0055246D01*
X0101500Y0055230D01*
X0101418Y0055217D01*
X0101334Y0055208D01*
X0101251Y0055203D01*
X0101167Y0055202D01*
X0101083Y0055205D01*
X0101000Y0055212D01*
X0100917Y0055223D01*
X0100835Y0055238D01*
X0100753Y0055256D01*
X0100672Y0055279D01*
X0100593Y0055305D01*
X0100515Y0055335D01*
X0100438Y0055369D01*
X0100363Y0055406D01*
X0100290Y0055446D01*
X0100219Y0055491D01*
X0100150Y0055538D01*
X0100083Y0055589D01*
X0100019Y0055642D01*
X0099957Y0055699D01*
X0099899Y0055759D01*
X0099843Y0055821D01*
X0099790Y0055886D01*
X0099740Y0055953D01*
X0099693Y0056022D01*
X0099650Y0056094D01*
X0099610Y0056168D01*
X0099574Y0056243D01*
X0099541Y0056320D01*
X0099512Y0056399D01*
X0099487Y0056478D01*
X0099465Y0056559D01*
X0099448Y0056641D01*
X0099434Y0056724D01*
X0099424Y0056807D01*
X0099418Y0056890D01*
X0099416Y0056974D01*
X0099416Y0055202D02*
X0099418Y0055286D01*
X0099424Y0055369D01*
X0099434Y0055452D01*
X0099448Y0055535D01*
X0099465Y0055617D01*
X0099487Y0055698D01*
X0099512Y0055777D01*
X0099541Y0055856D01*
X0099574Y0055933D01*
X0099610Y0056008D01*
X0099650Y0056082D01*
X0099693Y0056154D01*
X0099740Y0056223D01*
X0099790Y0056290D01*
X0099843Y0056355D01*
X0099899Y0056417D01*
X0099957Y0056477D01*
X0100019Y0056534D01*
X0100083Y0056587D01*
X0100150Y0056638D01*
X0100219Y0056685D01*
X0100290Y0056730D01*
X0100363Y0056770D01*
X0100438Y0056807D01*
X0100515Y0056841D01*
X0100593Y0056871D01*
X0100672Y0056897D01*
X0100753Y0056920D01*
X0100835Y0056938D01*
X0100917Y0056953D01*
X0101000Y0056964D01*
X0101083Y0056971D01*
X0101167Y0056974D01*
X0101251Y0056973D01*
X0101334Y0056968D01*
X0101418Y0056959D01*
X0101500Y0056946D01*
X0101582Y0056930D01*
X0101663Y0056909D01*
X0101744Y0056885D01*
X0101822Y0056857D01*
X0101900Y0056825D01*
X0101976Y0056789D01*
X0102050Y0056750D01*
X0102122Y0056708D01*
X0102192Y0056662D01*
X0102260Y0056613D01*
X0102325Y0056561D01*
X0102388Y0056506D01*
X0102448Y0056448D01*
X0102506Y0056387D01*
X0102560Y0056323D01*
X0102612Y0056257D01*
X0102660Y0056189D01*
X0102705Y0056118D01*
X0102746Y0056045D01*
X0102785Y0055971D01*
X0102819Y0055895D01*
X0102850Y0055817D01*
X0102877Y0055738D01*
X0102901Y0055657D01*
X0102920Y0055576D01*
X0102936Y0055494D01*
X0102948Y0055411D01*
X0102956Y0055327D01*
X0102960Y0055244D01*
X0102960Y0055160D01*
X0102956Y0055077D01*
X0102948Y0054993D01*
X0102936Y0054910D01*
X0102920Y0054828D01*
X0102901Y0054747D01*
X0102877Y0054666D01*
X0102850Y0054587D01*
X0102819Y0054509D01*
X0102785Y0054433D01*
X0102746Y0054359D01*
X0102705Y0054286D01*
X0102660Y0054215D01*
X0102612Y0054147D01*
X0102560Y0054081D01*
X0102506Y0054017D01*
X0102448Y0053956D01*
X0102388Y0053898D01*
X0102325Y0053843D01*
X0102260Y0053791D01*
X0102192Y0053742D01*
X0102122Y0053696D01*
X0102050Y0053654D01*
X0101976Y0053615D01*
X0101900Y0053579D01*
X0101822Y0053547D01*
X0101744Y0053519D01*
X0101663Y0053495D01*
X0101582Y0053474D01*
X0101500Y0053458D01*
X0101418Y0053445D01*
X0101334Y0053436D01*
X0101251Y0053431D01*
X0101167Y0053430D01*
X0101083Y0053433D01*
X0101000Y0053440D01*
X0100917Y0053451D01*
X0100835Y0053466D01*
X0100753Y0053484D01*
X0100672Y0053507D01*
X0100593Y0053533D01*
X0100515Y0053563D01*
X0100438Y0053597D01*
X0100363Y0053634D01*
X0100290Y0053674D01*
X0100219Y0053719D01*
X0100150Y0053766D01*
X0100083Y0053817D01*
X0100019Y0053870D01*
X0099957Y0053927D01*
X0099899Y0053987D01*
X0099843Y0054049D01*
X0099790Y0054114D01*
X0099740Y0054181D01*
X0099693Y0054250D01*
X0099650Y0054322D01*
X0099610Y0054396D01*
X0099574Y0054471D01*
X0099541Y0054548D01*
X0099512Y0054627D01*
X0099487Y0054706D01*
X0099465Y0054787D01*
X0099448Y0054869D01*
X0099434Y0054952D01*
X0099424Y0055035D01*
X0099418Y0055118D01*
X0099416Y0055202D01*
X0099416Y0052840D02*
X0099418Y0052924D01*
X0099424Y0053007D01*
X0099434Y0053090D01*
X0099448Y0053173D01*
X0099465Y0053255D01*
X0099487Y0053336D01*
X0099512Y0053415D01*
X0099541Y0053494D01*
X0099574Y0053571D01*
X0099610Y0053646D01*
X0099650Y0053720D01*
X0099693Y0053792D01*
X0099740Y0053861D01*
X0099790Y0053928D01*
X0099843Y0053993D01*
X0099899Y0054055D01*
X0099957Y0054115D01*
X0100019Y0054172D01*
X0100083Y0054225D01*
X0100150Y0054276D01*
X0100219Y0054323D01*
X0100290Y0054368D01*
X0100363Y0054408D01*
X0100438Y0054445D01*
X0100515Y0054479D01*
X0100593Y0054509D01*
X0100672Y0054535D01*
X0100753Y0054558D01*
X0100835Y0054576D01*
X0100917Y0054591D01*
X0101000Y0054602D01*
X0101083Y0054609D01*
X0101167Y0054612D01*
X0101251Y0054611D01*
X0101334Y0054606D01*
X0101418Y0054597D01*
X0101500Y0054584D01*
X0101582Y0054568D01*
X0101663Y0054547D01*
X0101744Y0054523D01*
X0101822Y0054495D01*
X0101900Y0054463D01*
X0101976Y0054427D01*
X0102050Y0054388D01*
X0102122Y0054346D01*
X0102192Y0054300D01*
X0102260Y0054251D01*
X0102325Y0054199D01*
X0102388Y0054144D01*
X0102448Y0054086D01*
X0102506Y0054025D01*
X0102560Y0053961D01*
X0102612Y0053895D01*
X0102660Y0053827D01*
X0102705Y0053756D01*
X0102746Y0053683D01*
X0102785Y0053609D01*
X0102819Y0053533D01*
X0102850Y0053455D01*
X0102877Y0053376D01*
X0102901Y0053295D01*
X0102920Y0053214D01*
X0102936Y0053132D01*
X0102948Y0053049D01*
X0102956Y0052965D01*
X0102960Y0052882D01*
X0102960Y0052798D01*
X0102956Y0052715D01*
X0102948Y0052631D01*
X0102936Y0052548D01*
X0102920Y0052466D01*
X0102901Y0052385D01*
X0102877Y0052304D01*
X0102850Y0052225D01*
X0102819Y0052147D01*
X0102785Y0052071D01*
X0102746Y0051997D01*
X0102705Y0051924D01*
X0102660Y0051853D01*
X0102612Y0051785D01*
X0102560Y0051719D01*
X0102506Y0051655D01*
X0102448Y0051594D01*
X0102388Y0051536D01*
X0102325Y0051481D01*
X0102260Y0051429D01*
X0102192Y0051380D01*
X0102122Y0051334D01*
X0102050Y0051292D01*
X0101976Y0051253D01*
X0101900Y0051217D01*
X0101822Y0051185D01*
X0101744Y0051157D01*
X0101663Y0051133D01*
X0101582Y0051112D01*
X0101500Y0051096D01*
X0101418Y0051083D01*
X0101334Y0051074D01*
X0101251Y0051069D01*
X0101167Y0051068D01*
X0101083Y0051071D01*
X0101000Y0051078D01*
X0100917Y0051089D01*
X0100835Y0051104D01*
X0100753Y0051122D01*
X0100672Y0051145D01*
X0100593Y0051171D01*
X0100515Y0051201D01*
X0100438Y0051235D01*
X0100363Y0051272D01*
X0100290Y0051312D01*
X0100219Y0051357D01*
X0100150Y0051404D01*
X0100083Y0051455D01*
X0100019Y0051508D01*
X0099957Y0051565D01*
X0099899Y0051625D01*
X0099843Y0051687D01*
X0099790Y0051752D01*
X0099740Y0051819D01*
X0099693Y0051888D01*
X0099650Y0051960D01*
X0099610Y0052034D01*
X0099574Y0052109D01*
X0099541Y0052186D01*
X0099512Y0052265D01*
X0099487Y0052344D01*
X0099465Y0052425D01*
X0099448Y0052507D01*
X0099434Y0052590D01*
X0099424Y0052673D01*
X0099418Y0052756D01*
X0099416Y0052840D01*
X0099416Y0051068D02*
X0099418Y0051152D01*
X0099424Y0051235D01*
X0099434Y0051318D01*
X0099448Y0051401D01*
X0099465Y0051483D01*
X0099487Y0051564D01*
X0099512Y0051643D01*
X0099541Y0051722D01*
X0099574Y0051799D01*
X0099610Y0051874D01*
X0099650Y0051948D01*
X0099693Y0052020D01*
X0099740Y0052089D01*
X0099790Y0052156D01*
X0099843Y0052221D01*
X0099899Y0052283D01*
X0099957Y0052343D01*
X0100019Y0052400D01*
X0100083Y0052453D01*
X0100150Y0052504D01*
X0100219Y0052551D01*
X0100290Y0052596D01*
X0100363Y0052636D01*
X0100438Y0052673D01*
X0100515Y0052707D01*
X0100593Y0052737D01*
X0100672Y0052763D01*
X0100753Y0052786D01*
X0100835Y0052804D01*
X0100917Y0052819D01*
X0101000Y0052830D01*
X0101083Y0052837D01*
X0101167Y0052840D01*
X0101251Y0052839D01*
X0101334Y0052834D01*
X0101418Y0052825D01*
X0101500Y0052812D01*
X0101582Y0052796D01*
X0101663Y0052775D01*
X0101744Y0052751D01*
X0101822Y0052723D01*
X0101900Y0052691D01*
X0101976Y0052655D01*
X0102050Y0052616D01*
X0102122Y0052574D01*
X0102192Y0052528D01*
X0102260Y0052479D01*
X0102325Y0052427D01*
X0102388Y0052372D01*
X0102448Y0052314D01*
X0102506Y0052253D01*
X0102560Y0052189D01*
X0102612Y0052123D01*
X0102660Y0052055D01*
X0102705Y0051984D01*
X0102746Y0051911D01*
X0102785Y0051837D01*
X0102819Y0051761D01*
X0102850Y0051683D01*
X0102877Y0051604D01*
X0102901Y0051523D01*
X0102920Y0051442D01*
X0102936Y0051360D01*
X0102948Y0051277D01*
X0102956Y0051193D01*
X0102960Y0051110D01*
X0102960Y0051026D01*
X0102956Y0050943D01*
X0102948Y0050859D01*
X0102936Y0050776D01*
X0102920Y0050694D01*
X0102901Y0050613D01*
X0102877Y0050532D01*
X0102850Y0050453D01*
X0102819Y0050375D01*
X0102785Y0050299D01*
X0102746Y0050225D01*
X0102705Y0050152D01*
X0102660Y0050081D01*
X0102612Y0050013D01*
X0102560Y0049947D01*
X0102506Y0049883D01*
X0102448Y0049822D01*
X0102388Y0049764D01*
X0102325Y0049709D01*
X0102260Y0049657D01*
X0102192Y0049608D01*
X0102122Y0049562D01*
X0102050Y0049520D01*
X0101976Y0049481D01*
X0101900Y0049445D01*
X0101822Y0049413D01*
X0101744Y0049385D01*
X0101663Y0049361D01*
X0101582Y0049340D01*
X0101500Y0049324D01*
X0101418Y0049311D01*
X0101334Y0049302D01*
X0101251Y0049297D01*
X0101167Y0049296D01*
X0101083Y0049299D01*
X0101000Y0049306D01*
X0100917Y0049317D01*
X0100835Y0049332D01*
X0100753Y0049350D01*
X0100672Y0049373D01*
X0100593Y0049399D01*
X0100515Y0049429D01*
X0100438Y0049463D01*
X0100363Y0049500D01*
X0100290Y0049540D01*
X0100219Y0049585D01*
X0100150Y0049632D01*
X0100083Y0049683D01*
X0100019Y0049736D01*
X0099957Y0049793D01*
X0099899Y0049853D01*
X0099843Y0049915D01*
X0099790Y0049980D01*
X0099740Y0050047D01*
X0099693Y0050116D01*
X0099650Y0050188D01*
X0099610Y0050262D01*
X0099574Y0050337D01*
X0099541Y0050414D01*
X0099512Y0050493D01*
X0099487Y0050572D01*
X0099465Y0050653D01*
X0099448Y0050735D01*
X0099434Y0050818D01*
X0099424Y0050901D01*
X0099418Y0050984D01*
X0099416Y0051068D01*
X0099416Y0033549D02*
X0099418Y0033633D01*
X0099424Y0033716D01*
X0099434Y0033799D01*
X0099448Y0033882D01*
X0099465Y0033964D01*
X0099487Y0034045D01*
X0099512Y0034124D01*
X0099541Y0034203D01*
X0099574Y0034280D01*
X0099610Y0034355D01*
X0099650Y0034429D01*
X0099693Y0034501D01*
X0099740Y0034570D01*
X0099790Y0034637D01*
X0099843Y0034702D01*
X0099899Y0034764D01*
X0099957Y0034824D01*
X0100019Y0034881D01*
X0100083Y0034934D01*
X0100150Y0034985D01*
X0100219Y0035032D01*
X0100290Y0035077D01*
X0100363Y0035117D01*
X0100438Y0035154D01*
X0100515Y0035188D01*
X0100593Y0035218D01*
X0100672Y0035244D01*
X0100753Y0035267D01*
X0100835Y0035285D01*
X0100917Y0035300D01*
X0101000Y0035311D01*
X0101083Y0035318D01*
X0101167Y0035321D01*
X0101251Y0035320D01*
X0101334Y0035315D01*
X0101418Y0035306D01*
X0101500Y0035293D01*
X0101582Y0035277D01*
X0101663Y0035256D01*
X0101744Y0035232D01*
X0101822Y0035204D01*
X0101900Y0035172D01*
X0101976Y0035136D01*
X0102050Y0035097D01*
X0102122Y0035055D01*
X0102192Y0035009D01*
X0102260Y0034960D01*
X0102325Y0034908D01*
X0102388Y0034853D01*
X0102448Y0034795D01*
X0102506Y0034734D01*
X0102560Y0034670D01*
X0102612Y0034604D01*
X0102660Y0034536D01*
X0102705Y0034465D01*
X0102746Y0034392D01*
X0102785Y0034318D01*
X0102819Y0034242D01*
X0102850Y0034164D01*
X0102877Y0034085D01*
X0102901Y0034004D01*
X0102920Y0033923D01*
X0102936Y0033841D01*
X0102948Y0033758D01*
X0102956Y0033674D01*
X0102960Y0033591D01*
X0102960Y0033507D01*
X0102956Y0033424D01*
X0102948Y0033340D01*
X0102936Y0033257D01*
X0102920Y0033175D01*
X0102901Y0033094D01*
X0102877Y0033013D01*
X0102850Y0032934D01*
X0102819Y0032856D01*
X0102785Y0032780D01*
X0102746Y0032706D01*
X0102705Y0032633D01*
X0102660Y0032562D01*
X0102612Y0032494D01*
X0102560Y0032428D01*
X0102506Y0032364D01*
X0102448Y0032303D01*
X0102388Y0032245D01*
X0102325Y0032190D01*
X0102260Y0032138D01*
X0102192Y0032089D01*
X0102122Y0032043D01*
X0102050Y0032001D01*
X0101976Y0031962D01*
X0101900Y0031926D01*
X0101822Y0031894D01*
X0101744Y0031866D01*
X0101663Y0031842D01*
X0101582Y0031821D01*
X0101500Y0031805D01*
X0101418Y0031792D01*
X0101334Y0031783D01*
X0101251Y0031778D01*
X0101167Y0031777D01*
X0101083Y0031780D01*
X0101000Y0031787D01*
X0100917Y0031798D01*
X0100835Y0031813D01*
X0100753Y0031831D01*
X0100672Y0031854D01*
X0100593Y0031880D01*
X0100515Y0031910D01*
X0100438Y0031944D01*
X0100363Y0031981D01*
X0100290Y0032021D01*
X0100219Y0032066D01*
X0100150Y0032113D01*
X0100083Y0032164D01*
X0100019Y0032217D01*
X0099957Y0032274D01*
X0099899Y0032334D01*
X0099843Y0032396D01*
X0099790Y0032461D01*
X0099740Y0032528D01*
X0099693Y0032597D01*
X0099650Y0032669D01*
X0099610Y0032743D01*
X0099574Y0032818D01*
X0099541Y0032895D01*
X0099512Y0032974D01*
X0099487Y0033053D01*
X0099465Y0033134D01*
X0099448Y0033216D01*
X0099434Y0033299D01*
X0099424Y0033382D01*
X0099418Y0033465D01*
X0099416Y0033549D01*
X0099416Y0031777D02*
X0099418Y0031861D01*
X0099424Y0031944D01*
X0099434Y0032027D01*
X0099448Y0032110D01*
X0099465Y0032192D01*
X0099487Y0032273D01*
X0099512Y0032352D01*
X0099541Y0032431D01*
X0099574Y0032508D01*
X0099610Y0032583D01*
X0099650Y0032657D01*
X0099693Y0032729D01*
X0099740Y0032798D01*
X0099790Y0032865D01*
X0099843Y0032930D01*
X0099899Y0032992D01*
X0099957Y0033052D01*
X0100019Y0033109D01*
X0100083Y0033162D01*
X0100150Y0033213D01*
X0100219Y0033260D01*
X0100290Y0033305D01*
X0100363Y0033345D01*
X0100438Y0033382D01*
X0100515Y0033416D01*
X0100593Y0033446D01*
X0100672Y0033472D01*
X0100753Y0033495D01*
X0100835Y0033513D01*
X0100917Y0033528D01*
X0101000Y0033539D01*
X0101083Y0033546D01*
X0101167Y0033549D01*
X0101251Y0033548D01*
X0101334Y0033543D01*
X0101418Y0033534D01*
X0101500Y0033521D01*
X0101582Y0033505D01*
X0101663Y0033484D01*
X0101744Y0033460D01*
X0101822Y0033432D01*
X0101900Y0033400D01*
X0101976Y0033364D01*
X0102050Y0033325D01*
X0102122Y0033283D01*
X0102192Y0033237D01*
X0102260Y0033188D01*
X0102325Y0033136D01*
X0102388Y0033081D01*
X0102448Y0033023D01*
X0102506Y0032962D01*
X0102560Y0032898D01*
X0102612Y0032832D01*
X0102660Y0032764D01*
X0102705Y0032693D01*
X0102746Y0032620D01*
X0102785Y0032546D01*
X0102819Y0032470D01*
X0102850Y0032392D01*
X0102877Y0032313D01*
X0102901Y0032232D01*
X0102920Y0032151D01*
X0102936Y0032069D01*
X0102948Y0031986D01*
X0102956Y0031902D01*
X0102960Y0031819D01*
X0102960Y0031735D01*
X0102956Y0031652D01*
X0102948Y0031568D01*
X0102936Y0031485D01*
X0102920Y0031403D01*
X0102901Y0031322D01*
X0102877Y0031241D01*
X0102850Y0031162D01*
X0102819Y0031084D01*
X0102785Y0031008D01*
X0102746Y0030934D01*
X0102705Y0030861D01*
X0102660Y0030790D01*
X0102612Y0030722D01*
X0102560Y0030656D01*
X0102506Y0030592D01*
X0102448Y0030531D01*
X0102388Y0030473D01*
X0102325Y0030418D01*
X0102260Y0030366D01*
X0102192Y0030317D01*
X0102122Y0030271D01*
X0102050Y0030229D01*
X0101976Y0030190D01*
X0101900Y0030154D01*
X0101822Y0030122D01*
X0101744Y0030094D01*
X0101663Y0030070D01*
X0101582Y0030049D01*
X0101500Y0030033D01*
X0101418Y0030020D01*
X0101334Y0030011D01*
X0101251Y0030006D01*
X0101167Y0030005D01*
X0101083Y0030008D01*
X0101000Y0030015D01*
X0100917Y0030026D01*
X0100835Y0030041D01*
X0100753Y0030059D01*
X0100672Y0030082D01*
X0100593Y0030108D01*
X0100515Y0030138D01*
X0100438Y0030172D01*
X0100363Y0030209D01*
X0100290Y0030249D01*
X0100219Y0030294D01*
X0100150Y0030341D01*
X0100083Y0030392D01*
X0100019Y0030445D01*
X0099957Y0030502D01*
X0099899Y0030562D01*
X0099843Y0030624D01*
X0099790Y0030689D01*
X0099740Y0030756D01*
X0099693Y0030825D01*
X0099650Y0030897D01*
X0099610Y0030971D01*
X0099574Y0031046D01*
X0099541Y0031123D01*
X0099512Y0031202D01*
X0099487Y0031281D01*
X0099465Y0031362D01*
X0099448Y0031444D01*
X0099434Y0031527D01*
X0099424Y0031610D01*
X0099418Y0031693D01*
X0099416Y0031777D01*
X0099416Y0029415D02*
X0099418Y0029499D01*
X0099424Y0029582D01*
X0099434Y0029665D01*
X0099448Y0029748D01*
X0099465Y0029830D01*
X0099487Y0029911D01*
X0099512Y0029990D01*
X0099541Y0030069D01*
X0099574Y0030146D01*
X0099610Y0030221D01*
X0099650Y0030295D01*
X0099693Y0030367D01*
X0099740Y0030436D01*
X0099790Y0030503D01*
X0099843Y0030568D01*
X0099899Y0030630D01*
X0099957Y0030690D01*
X0100019Y0030747D01*
X0100083Y0030800D01*
X0100150Y0030851D01*
X0100219Y0030898D01*
X0100290Y0030943D01*
X0100363Y0030983D01*
X0100438Y0031020D01*
X0100515Y0031054D01*
X0100593Y0031084D01*
X0100672Y0031110D01*
X0100753Y0031133D01*
X0100835Y0031151D01*
X0100917Y0031166D01*
X0101000Y0031177D01*
X0101083Y0031184D01*
X0101167Y0031187D01*
X0101251Y0031186D01*
X0101334Y0031181D01*
X0101418Y0031172D01*
X0101500Y0031159D01*
X0101582Y0031143D01*
X0101663Y0031122D01*
X0101744Y0031098D01*
X0101822Y0031070D01*
X0101900Y0031038D01*
X0101976Y0031002D01*
X0102050Y0030963D01*
X0102122Y0030921D01*
X0102192Y0030875D01*
X0102260Y0030826D01*
X0102325Y0030774D01*
X0102388Y0030719D01*
X0102448Y0030661D01*
X0102506Y0030600D01*
X0102560Y0030536D01*
X0102612Y0030470D01*
X0102660Y0030402D01*
X0102705Y0030331D01*
X0102746Y0030258D01*
X0102785Y0030184D01*
X0102819Y0030108D01*
X0102850Y0030030D01*
X0102877Y0029951D01*
X0102901Y0029870D01*
X0102920Y0029789D01*
X0102936Y0029707D01*
X0102948Y0029624D01*
X0102956Y0029540D01*
X0102960Y0029457D01*
X0102960Y0029373D01*
X0102956Y0029290D01*
X0102948Y0029206D01*
X0102936Y0029123D01*
X0102920Y0029041D01*
X0102901Y0028960D01*
X0102877Y0028879D01*
X0102850Y0028800D01*
X0102819Y0028722D01*
X0102785Y0028646D01*
X0102746Y0028572D01*
X0102705Y0028499D01*
X0102660Y0028428D01*
X0102612Y0028360D01*
X0102560Y0028294D01*
X0102506Y0028230D01*
X0102448Y0028169D01*
X0102388Y0028111D01*
X0102325Y0028056D01*
X0102260Y0028004D01*
X0102192Y0027955D01*
X0102122Y0027909D01*
X0102050Y0027867D01*
X0101976Y0027828D01*
X0101900Y0027792D01*
X0101822Y0027760D01*
X0101744Y0027732D01*
X0101663Y0027708D01*
X0101582Y0027687D01*
X0101500Y0027671D01*
X0101418Y0027658D01*
X0101334Y0027649D01*
X0101251Y0027644D01*
X0101167Y0027643D01*
X0101083Y0027646D01*
X0101000Y0027653D01*
X0100917Y0027664D01*
X0100835Y0027679D01*
X0100753Y0027697D01*
X0100672Y0027720D01*
X0100593Y0027746D01*
X0100515Y0027776D01*
X0100438Y0027810D01*
X0100363Y0027847D01*
X0100290Y0027887D01*
X0100219Y0027932D01*
X0100150Y0027979D01*
X0100083Y0028030D01*
X0100019Y0028083D01*
X0099957Y0028140D01*
X0099899Y0028200D01*
X0099843Y0028262D01*
X0099790Y0028327D01*
X0099740Y0028394D01*
X0099693Y0028463D01*
X0099650Y0028535D01*
X0099610Y0028609D01*
X0099574Y0028684D01*
X0099541Y0028761D01*
X0099512Y0028840D01*
X0099487Y0028919D01*
X0099465Y0029000D01*
X0099448Y0029082D01*
X0099434Y0029165D01*
X0099424Y0029248D01*
X0099418Y0029331D01*
X0099416Y0029415D01*
X0099416Y0027643D02*
X0099418Y0027727D01*
X0099424Y0027810D01*
X0099434Y0027893D01*
X0099448Y0027976D01*
X0099465Y0028058D01*
X0099487Y0028139D01*
X0099512Y0028218D01*
X0099541Y0028297D01*
X0099574Y0028374D01*
X0099610Y0028449D01*
X0099650Y0028523D01*
X0099693Y0028595D01*
X0099740Y0028664D01*
X0099790Y0028731D01*
X0099843Y0028796D01*
X0099899Y0028858D01*
X0099957Y0028918D01*
X0100019Y0028975D01*
X0100083Y0029028D01*
X0100150Y0029079D01*
X0100219Y0029126D01*
X0100290Y0029171D01*
X0100363Y0029211D01*
X0100438Y0029248D01*
X0100515Y0029282D01*
X0100593Y0029312D01*
X0100672Y0029338D01*
X0100753Y0029361D01*
X0100835Y0029379D01*
X0100917Y0029394D01*
X0101000Y0029405D01*
X0101083Y0029412D01*
X0101167Y0029415D01*
X0101251Y0029414D01*
X0101334Y0029409D01*
X0101418Y0029400D01*
X0101500Y0029387D01*
X0101582Y0029371D01*
X0101663Y0029350D01*
X0101744Y0029326D01*
X0101822Y0029298D01*
X0101900Y0029266D01*
X0101976Y0029230D01*
X0102050Y0029191D01*
X0102122Y0029149D01*
X0102192Y0029103D01*
X0102260Y0029054D01*
X0102325Y0029002D01*
X0102388Y0028947D01*
X0102448Y0028889D01*
X0102506Y0028828D01*
X0102560Y0028764D01*
X0102612Y0028698D01*
X0102660Y0028630D01*
X0102705Y0028559D01*
X0102746Y0028486D01*
X0102785Y0028412D01*
X0102819Y0028336D01*
X0102850Y0028258D01*
X0102877Y0028179D01*
X0102901Y0028098D01*
X0102920Y0028017D01*
X0102936Y0027935D01*
X0102948Y0027852D01*
X0102956Y0027768D01*
X0102960Y0027685D01*
X0102960Y0027601D01*
X0102956Y0027518D01*
X0102948Y0027434D01*
X0102936Y0027351D01*
X0102920Y0027269D01*
X0102901Y0027188D01*
X0102877Y0027107D01*
X0102850Y0027028D01*
X0102819Y0026950D01*
X0102785Y0026874D01*
X0102746Y0026800D01*
X0102705Y0026727D01*
X0102660Y0026656D01*
X0102612Y0026588D01*
X0102560Y0026522D01*
X0102506Y0026458D01*
X0102448Y0026397D01*
X0102388Y0026339D01*
X0102325Y0026284D01*
X0102260Y0026232D01*
X0102192Y0026183D01*
X0102122Y0026137D01*
X0102050Y0026095D01*
X0101976Y0026056D01*
X0101900Y0026020D01*
X0101822Y0025988D01*
X0101744Y0025960D01*
X0101663Y0025936D01*
X0101582Y0025915D01*
X0101500Y0025899D01*
X0101418Y0025886D01*
X0101334Y0025877D01*
X0101251Y0025872D01*
X0101167Y0025871D01*
X0101083Y0025874D01*
X0101000Y0025881D01*
X0100917Y0025892D01*
X0100835Y0025907D01*
X0100753Y0025925D01*
X0100672Y0025948D01*
X0100593Y0025974D01*
X0100515Y0026004D01*
X0100438Y0026038D01*
X0100363Y0026075D01*
X0100290Y0026115D01*
X0100219Y0026160D01*
X0100150Y0026207D01*
X0100083Y0026258D01*
X0100019Y0026311D01*
X0099957Y0026368D01*
X0099899Y0026428D01*
X0099843Y0026490D01*
X0099790Y0026555D01*
X0099740Y0026622D01*
X0099693Y0026691D01*
X0099650Y0026763D01*
X0099610Y0026837D01*
X0099574Y0026912D01*
X0099541Y0026989D01*
X0099512Y0027068D01*
X0099487Y0027147D01*
X0099465Y0027228D01*
X0099448Y0027310D01*
X0099434Y0027393D01*
X0099424Y0027476D01*
X0099418Y0027559D01*
X0099416Y0027643D01*
X0156503Y0027643D02*
X0156505Y0027727D01*
X0156511Y0027810D01*
X0156521Y0027893D01*
X0156535Y0027976D01*
X0156552Y0028058D01*
X0156574Y0028139D01*
X0156599Y0028218D01*
X0156628Y0028297D01*
X0156661Y0028374D01*
X0156697Y0028449D01*
X0156737Y0028523D01*
X0156780Y0028595D01*
X0156827Y0028664D01*
X0156877Y0028731D01*
X0156930Y0028796D01*
X0156986Y0028858D01*
X0157044Y0028918D01*
X0157106Y0028975D01*
X0157170Y0029028D01*
X0157237Y0029079D01*
X0157306Y0029126D01*
X0157377Y0029171D01*
X0157450Y0029211D01*
X0157525Y0029248D01*
X0157602Y0029282D01*
X0157680Y0029312D01*
X0157759Y0029338D01*
X0157840Y0029361D01*
X0157922Y0029379D01*
X0158004Y0029394D01*
X0158087Y0029405D01*
X0158170Y0029412D01*
X0158254Y0029415D01*
X0158338Y0029414D01*
X0158421Y0029409D01*
X0158505Y0029400D01*
X0158587Y0029387D01*
X0158669Y0029371D01*
X0158750Y0029350D01*
X0158831Y0029326D01*
X0158909Y0029298D01*
X0158987Y0029266D01*
X0159063Y0029230D01*
X0159137Y0029191D01*
X0159209Y0029149D01*
X0159279Y0029103D01*
X0159347Y0029054D01*
X0159412Y0029002D01*
X0159475Y0028947D01*
X0159535Y0028889D01*
X0159593Y0028828D01*
X0159647Y0028764D01*
X0159699Y0028698D01*
X0159747Y0028630D01*
X0159792Y0028559D01*
X0159833Y0028486D01*
X0159872Y0028412D01*
X0159906Y0028336D01*
X0159937Y0028258D01*
X0159964Y0028179D01*
X0159988Y0028098D01*
X0160007Y0028017D01*
X0160023Y0027935D01*
X0160035Y0027852D01*
X0160043Y0027768D01*
X0160047Y0027685D01*
X0160047Y0027601D01*
X0160043Y0027518D01*
X0160035Y0027434D01*
X0160023Y0027351D01*
X0160007Y0027269D01*
X0159988Y0027188D01*
X0159964Y0027107D01*
X0159937Y0027028D01*
X0159906Y0026950D01*
X0159872Y0026874D01*
X0159833Y0026800D01*
X0159792Y0026727D01*
X0159747Y0026656D01*
X0159699Y0026588D01*
X0159647Y0026522D01*
X0159593Y0026458D01*
X0159535Y0026397D01*
X0159475Y0026339D01*
X0159412Y0026284D01*
X0159347Y0026232D01*
X0159279Y0026183D01*
X0159209Y0026137D01*
X0159137Y0026095D01*
X0159063Y0026056D01*
X0158987Y0026020D01*
X0158909Y0025988D01*
X0158831Y0025960D01*
X0158750Y0025936D01*
X0158669Y0025915D01*
X0158587Y0025899D01*
X0158505Y0025886D01*
X0158421Y0025877D01*
X0158338Y0025872D01*
X0158254Y0025871D01*
X0158170Y0025874D01*
X0158087Y0025881D01*
X0158004Y0025892D01*
X0157922Y0025907D01*
X0157840Y0025925D01*
X0157759Y0025948D01*
X0157680Y0025974D01*
X0157602Y0026004D01*
X0157525Y0026038D01*
X0157450Y0026075D01*
X0157377Y0026115D01*
X0157306Y0026160D01*
X0157237Y0026207D01*
X0157170Y0026258D01*
X0157106Y0026311D01*
X0157044Y0026368D01*
X0156986Y0026428D01*
X0156930Y0026490D01*
X0156877Y0026555D01*
X0156827Y0026622D01*
X0156780Y0026691D01*
X0156737Y0026763D01*
X0156697Y0026837D01*
X0156661Y0026912D01*
X0156628Y0026989D01*
X0156599Y0027068D01*
X0156574Y0027147D01*
X0156552Y0027228D01*
X0156535Y0027310D01*
X0156521Y0027393D01*
X0156511Y0027476D01*
X0156505Y0027559D01*
X0156503Y0027643D01*
X0156503Y0029415D02*
X0156505Y0029499D01*
X0156511Y0029582D01*
X0156521Y0029665D01*
X0156535Y0029748D01*
X0156552Y0029830D01*
X0156574Y0029911D01*
X0156599Y0029990D01*
X0156628Y0030069D01*
X0156661Y0030146D01*
X0156697Y0030221D01*
X0156737Y0030295D01*
X0156780Y0030367D01*
X0156827Y0030436D01*
X0156877Y0030503D01*
X0156930Y0030568D01*
X0156986Y0030630D01*
X0157044Y0030690D01*
X0157106Y0030747D01*
X0157170Y0030800D01*
X0157237Y0030851D01*
X0157306Y0030898D01*
X0157377Y0030943D01*
X0157450Y0030983D01*
X0157525Y0031020D01*
X0157602Y0031054D01*
X0157680Y0031084D01*
X0157759Y0031110D01*
X0157840Y0031133D01*
X0157922Y0031151D01*
X0158004Y0031166D01*
X0158087Y0031177D01*
X0158170Y0031184D01*
X0158254Y0031187D01*
X0158338Y0031186D01*
X0158421Y0031181D01*
X0158505Y0031172D01*
X0158587Y0031159D01*
X0158669Y0031143D01*
X0158750Y0031122D01*
X0158831Y0031098D01*
X0158909Y0031070D01*
X0158987Y0031038D01*
X0159063Y0031002D01*
X0159137Y0030963D01*
X0159209Y0030921D01*
X0159279Y0030875D01*
X0159347Y0030826D01*
X0159412Y0030774D01*
X0159475Y0030719D01*
X0159535Y0030661D01*
X0159593Y0030600D01*
X0159647Y0030536D01*
X0159699Y0030470D01*
X0159747Y0030402D01*
X0159792Y0030331D01*
X0159833Y0030258D01*
X0159872Y0030184D01*
X0159906Y0030108D01*
X0159937Y0030030D01*
X0159964Y0029951D01*
X0159988Y0029870D01*
X0160007Y0029789D01*
X0160023Y0029707D01*
X0160035Y0029624D01*
X0160043Y0029540D01*
X0160047Y0029457D01*
X0160047Y0029373D01*
X0160043Y0029290D01*
X0160035Y0029206D01*
X0160023Y0029123D01*
X0160007Y0029041D01*
X0159988Y0028960D01*
X0159964Y0028879D01*
X0159937Y0028800D01*
X0159906Y0028722D01*
X0159872Y0028646D01*
X0159833Y0028572D01*
X0159792Y0028499D01*
X0159747Y0028428D01*
X0159699Y0028360D01*
X0159647Y0028294D01*
X0159593Y0028230D01*
X0159535Y0028169D01*
X0159475Y0028111D01*
X0159412Y0028056D01*
X0159347Y0028004D01*
X0159279Y0027955D01*
X0159209Y0027909D01*
X0159137Y0027867D01*
X0159063Y0027828D01*
X0158987Y0027792D01*
X0158909Y0027760D01*
X0158831Y0027732D01*
X0158750Y0027708D01*
X0158669Y0027687D01*
X0158587Y0027671D01*
X0158505Y0027658D01*
X0158421Y0027649D01*
X0158338Y0027644D01*
X0158254Y0027643D01*
X0158170Y0027646D01*
X0158087Y0027653D01*
X0158004Y0027664D01*
X0157922Y0027679D01*
X0157840Y0027697D01*
X0157759Y0027720D01*
X0157680Y0027746D01*
X0157602Y0027776D01*
X0157525Y0027810D01*
X0157450Y0027847D01*
X0157377Y0027887D01*
X0157306Y0027932D01*
X0157237Y0027979D01*
X0157170Y0028030D01*
X0157106Y0028083D01*
X0157044Y0028140D01*
X0156986Y0028200D01*
X0156930Y0028262D01*
X0156877Y0028327D01*
X0156827Y0028394D01*
X0156780Y0028463D01*
X0156737Y0028535D01*
X0156697Y0028609D01*
X0156661Y0028684D01*
X0156628Y0028761D01*
X0156599Y0028840D01*
X0156574Y0028919D01*
X0156552Y0029000D01*
X0156535Y0029082D01*
X0156521Y0029165D01*
X0156511Y0029248D01*
X0156505Y0029331D01*
X0156503Y0029415D01*
X0156503Y0031777D02*
X0156505Y0031861D01*
X0156511Y0031944D01*
X0156521Y0032027D01*
X0156535Y0032110D01*
X0156552Y0032192D01*
X0156574Y0032273D01*
X0156599Y0032352D01*
X0156628Y0032431D01*
X0156661Y0032508D01*
X0156697Y0032583D01*
X0156737Y0032657D01*
X0156780Y0032729D01*
X0156827Y0032798D01*
X0156877Y0032865D01*
X0156930Y0032930D01*
X0156986Y0032992D01*
X0157044Y0033052D01*
X0157106Y0033109D01*
X0157170Y0033162D01*
X0157237Y0033213D01*
X0157306Y0033260D01*
X0157377Y0033305D01*
X0157450Y0033345D01*
X0157525Y0033382D01*
X0157602Y0033416D01*
X0157680Y0033446D01*
X0157759Y0033472D01*
X0157840Y0033495D01*
X0157922Y0033513D01*
X0158004Y0033528D01*
X0158087Y0033539D01*
X0158170Y0033546D01*
X0158254Y0033549D01*
X0158338Y0033548D01*
X0158421Y0033543D01*
X0158505Y0033534D01*
X0158587Y0033521D01*
X0158669Y0033505D01*
X0158750Y0033484D01*
X0158831Y0033460D01*
X0158909Y0033432D01*
X0158987Y0033400D01*
X0159063Y0033364D01*
X0159137Y0033325D01*
X0159209Y0033283D01*
X0159279Y0033237D01*
X0159347Y0033188D01*
X0159412Y0033136D01*
X0159475Y0033081D01*
X0159535Y0033023D01*
X0159593Y0032962D01*
X0159647Y0032898D01*
X0159699Y0032832D01*
X0159747Y0032764D01*
X0159792Y0032693D01*
X0159833Y0032620D01*
X0159872Y0032546D01*
X0159906Y0032470D01*
X0159937Y0032392D01*
X0159964Y0032313D01*
X0159988Y0032232D01*
X0160007Y0032151D01*
X0160023Y0032069D01*
X0160035Y0031986D01*
X0160043Y0031902D01*
X0160047Y0031819D01*
X0160047Y0031735D01*
X0160043Y0031652D01*
X0160035Y0031568D01*
X0160023Y0031485D01*
X0160007Y0031403D01*
X0159988Y0031322D01*
X0159964Y0031241D01*
X0159937Y0031162D01*
X0159906Y0031084D01*
X0159872Y0031008D01*
X0159833Y0030934D01*
X0159792Y0030861D01*
X0159747Y0030790D01*
X0159699Y0030722D01*
X0159647Y0030656D01*
X0159593Y0030592D01*
X0159535Y0030531D01*
X0159475Y0030473D01*
X0159412Y0030418D01*
X0159347Y0030366D01*
X0159279Y0030317D01*
X0159209Y0030271D01*
X0159137Y0030229D01*
X0159063Y0030190D01*
X0158987Y0030154D01*
X0158909Y0030122D01*
X0158831Y0030094D01*
X0158750Y0030070D01*
X0158669Y0030049D01*
X0158587Y0030033D01*
X0158505Y0030020D01*
X0158421Y0030011D01*
X0158338Y0030006D01*
X0158254Y0030005D01*
X0158170Y0030008D01*
X0158087Y0030015D01*
X0158004Y0030026D01*
X0157922Y0030041D01*
X0157840Y0030059D01*
X0157759Y0030082D01*
X0157680Y0030108D01*
X0157602Y0030138D01*
X0157525Y0030172D01*
X0157450Y0030209D01*
X0157377Y0030249D01*
X0157306Y0030294D01*
X0157237Y0030341D01*
X0157170Y0030392D01*
X0157106Y0030445D01*
X0157044Y0030502D01*
X0156986Y0030562D01*
X0156930Y0030624D01*
X0156877Y0030689D01*
X0156827Y0030756D01*
X0156780Y0030825D01*
X0156737Y0030897D01*
X0156697Y0030971D01*
X0156661Y0031046D01*
X0156628Y0031123D01*
X0156599Y0031202D01*
X0156574Y0031281D01*
X0156552Y0031362D01*
X0156535Y0031444D01*
X0156521Y0031527D01*
X0156511Y0031610D01*
X0156505Y0031693D01*
X0156503Y0031777D01*
X0156503Y0033549D02*
X0156505Y0033633D01*
X0156511Y0033716D01*
X0156521Y0033799D01*
X0156535Y0033882D01*
X0156552Y0033964D01*
X0156574Y0034045D01*
X0156599Y0034124D01*
X0156628Y0034203D01*
X0156661Y0034280D01*
X0156697Y0034355D01*
X0156737Y0034429D01*
X0156780Y0034501D01*
X0156827Y0034570D01*
X0156877Y0034637D01*
X0156930Y0034702D01*
X0156986Y0034764D01*
X0157044Y0034824D01*
X0157106Y0034881D01*
X0157170Y0034934D01*
X0157237Y0034985D01*
X0157306Y0035032D01*
X0157377Y0035077D01*
X0157450Y0035117D01*
X0157525Y0035154D01*
X0157602Y0035188D01*
X0157680Y0035218D01*
X0157759Y0035244D01*
X0157840Y0035267D01*
X0157922Y0035285D01*
X0158004Y0035300D01*
X0158087Y0035311D01*
X0158170Y0035318D01*
X0158254Y0035321D01*
X0158338Y0035320D01*
X0158421Y0035315D01*
X0158505Y0035306D01*
X0158587Y0035293D01*
X0158669Y0035277D01*
X0158750Y0035256D01*
X0158831Y0035232D01*
X0158909Y0035204D01*
X0158987Y0035172D01*
X0159063Y0035136D01*
X0159137Y0035097D01*
X0159209Y0035055D01*
X0159279Y0035009D01*
X0159347Y0034960D01*
X0159412Y0034908D01*
X0159475Y0034853D01*
X0159535Y0034795D01*
X0159593Y0034734D01*
X0159647Y0034670D01*
X0159699Y0034604D01*
X0159747Y0034536D01*
X0159792Y0034465D01*
X0159833Y0034392D01*
X0159872Y0034318D01*
X0159906Y0034242D01*
X0159937Y0034164D01*
X0159964Y0034085D01*
X0159988Y0034004D01*
X0160007Y0033923D01*
X0160023Y0033841D01*
X0160035Y0033758D01*
X0160043Y0033674D01*
X0160047Y0033591D01*
X0160047Y0033507D01*
X0160043Y0033424D01*
X0160035Y0033340D01*
X0160023Y0033257D01*
X0160007Y0033175D01*
X0159988Y0033094D01*
X0159964Y0033013D01*
X0159937Y0032934D01*
X0159906Y0032856D01*
X0159872Y0032780D01*
X0159833Y0032706D01*
X0159792Y0032633D01*
X0159747Y0032562D01*
X0159699Y0032494D01*
X0159647Y0032428D01*
X0159593Y0032364D01*
X0159535Y0032303D01*
X0159475Y0032245D01*
X0159412Y0032190D01*
X0159347Y0032138D01*
X0159279Y0032089D01*
X0159209Y0032043D01*
X0159137Y0032001D01*
X0159063Y0031962D01*
X0158987Y0031926D01*
X0158909Y0031894D01*
X0158831Y0031866D01*
X0158750Y0031842D01*
X0158669Y0031821D01*
X0158587Y0031805D01*
X0158505Y0031792D01*
X0158421Y0031783D01*
X0158338Y0031778D01*
X0158254Y0031777D01*
X0158170Y0031780D01*
X0158087Y0031787D01*
X0158004Y0031798D01*
X0157922Y0031813D01*
X0157840Y0031831D01*
X0157759Y0031854D01*
X0157680Y0031880D01*
X0157602Y0031910D01*
X0157525Y0031944D01*
X0157450Y0031981D01*
X0157377Y0032021D01*
X0157306Y0032066D01*
X0157237Y0032113D01*
X0157170Y0032164D01*
X0157106Y0032217D01*
X0157044Y0032274D01*
X0156986Y0032334D01*
X0156930Y0032396D01*
X0156877Y0032461D01*
X0156827Y0032528D01*
X0156780Y0032597D01*
X0156737Y0032669D01*
X0156697Y0032743D01*
X0156661Y0032818D01*
X0156628Y0032895D01*
X0156599Y0032974D01*
X0156574Y0033053D01*
X0156552Y0033134D01*
X0156535Y0033216D01*
X0156521Y0033299D01*
X0156511Y0033382D01*
X0156505Y0033465D01*
X0156503Y0033549D01*
X0156503Y0051068D02*
X0156505Y0051152D01*
X0156511Y0051235D01*
X0156521Y0051318D01*
X0156535Y0051401D01*
X0156552Y0051483D01*
X0156574Y0051564D01*
X0156599Y0051643D01*
X0156628Y0051722D01*
X0156661Y0051799D01*
X0156697Y0051874D01*
X0156737Y0051948D01*
X0156780Y0052020D01*
X0156827Y0052089D01*
X0156877Y0052156D01*
X0156930Y0052221D01*
X0156986Y0052283D01*
X0157044Y0052343D01*
X0157106Y0052400D01*
X0157170Y0052453D01*
X0157237Y0052504D01*
X0157306Y0052551D01*
X0157377Y0052596D01*
X0157450Y0052636D01*
X0157525Y0052673D01*
X0157602Y0052707D01*
X0157680Y0052737D01*
X0157759Y0052763D01*
X0157840Y0052786D01*
X0157922Y0052804D01*
X0158004Y0052819D01*
X0158087Y0052830D01*
X0158170Y0052837D01*
X0158254Y0052840D01*
X0158338Y0052839D01*
X0158421Y0052834D01*
X0158505Y0052825D01*
X0158587Y0052812D01*
X0158669Y0052796D01*
X0158750Y0052775D01*
X0158831Y0052751D01*
X0158909Y0052723D01*
X0158987Y0052691D01*
X0159063Y0052655D01*
X0159137Y0052616D01*
X0159209Y0052574D01*
X0159279Y0052528D01*
X0159347Y0052479D01*
X0159412Y0052427D01*
X0159475Y0052372D01*
X0159535Y0052314D01*
X0159593Y0052253D01*
X0159647Y0052189D01*
X0159699Y0052123D01*
X0159747Y0052055D01*
X0159792Y0051984D01*
X0159833Y0051911D01*
X0159872Y0051837D01*
X0159906Y0051761D01*
X0159937Y0051683D01*
X0159964Y0051604D01*
X0159988Y0051523D01*
X0160007Y0051442D01*
X0160023Y0051360D01*
X0160035Y0051277D01*
X0160043Y0051193D01*
X0160047Y0051110D01*
X0160047Y0051026D01*
X0160043Y0050943D01*
X0160035Y0050859D01*
X0160023Y0050776D01*
X0160007Y0050694D01*
X0159988Y0050613D01*
X0159964Y0050532D01*
X0159937Y0050453D01*
X0159906Y0050375D01*
X0159872Y0050299D01*
X0159833Y0050225D01*
X0159792Y0050152D01*
X0159747Y0050081D01*
X0159699Y0050013D01*
X0159647Y0049947D01*
X0159593Y0049883D01*
X0159535Y0049822D01*
X0159475Y0049764D01*
X0159412Y0049709D01*
X0159347Y0049657D01*
X0159279Y0049608D01*
X0159209Y0049562D01*
X0159137Y0049520D01*
X0159063Y0049481D01*
X0158987Y0049445D01*
X0158909Y0049413D01*
X0158831Y0049385D01*
X0158750Y0049361D01*
X0158669Y0049340D01*
X0158587Y0049324D01*
X0158505Y0049311D01*
X0158421Y0049302D01*
X0158338Y0049297D01*
X0158254Y0049296D01*
X0158170Y0049299D01*
X0158087Y0049306D01*
X0158004Y0049317D01*
X0157922Y0049332D01*
X0157840Y0049350D01*
X0157759Y0049373D01*
X0157680Y0049399D01*
X0157602Y0049429D01*
X0157525Y0049463D01*
X0157450Y0049500D01*
X0157377Y0049540D01*
X0157306Y0049585D01*
X0157237Y0049632D01*
X0157170Y0049683D01*
X0157106Y0049736D01*
X0157044Y0049793D01*
X0156986Y0049853D01*
X0156930Y0049915D01*
X0156877Y0049980D01*
X0156827Y0050047D01*
X0156780Y0050116D01*
X0156737Y0050188D01*
X0156697Y0050262D01*
X0156661Y0050337D01*
X0156628Y0050414D01*
X0156599Y0050493D01*
X0156574Y0050572D01*
X0156552Y0050653D01*
X0156535Y0050735D01*
X0156521Y0050818D01*
X0156511Y0050901D01*
X0156505Y0050984D01*
X0156503Y0051068D01*
X0156503Y0052840D02*
X0156505Y0052924D01*
X0156511Y0053007D01*
X0156521Y0053090D01*
X0156535Y0053173D01*
X0156552Y0053255D01*
X0156574Y0053336D01*
X0156599Y0053415D01*
X0156628Y0053494D01*
X0156661Y0053571D01*
X0156697Y0053646D01*
X0156737Y0053720D01*
X0156780Y0053792D01*
X0156827Y0053861D01*
X0156877Y0053928D01*
X0156930Y0053993D01*
X0156986Y0054055D01*
X0157044Y0054115D01*
X0157106Y0054172D01*
X0157170Y0054225D01*
X0157237Y0054276D01*
X0157306Y0054323D01*
X0157377Y0054368D01*
X0157450Y0054408D01*
X0157525Y0054445D01*
X0157602Y0054479D01*
X0157680Y0054509D01*
X0157759Y0054535D01*
X0157840Y0054558D01*
X0157922Y0054576D01*
X0158004Y0054591D01*
X0158087Y0054602D01*
X0158170Y0054609D01*
X0158254Y0054612D01*
X0158338Y0054611D01*
X0158421Y0054606D01*
X0158505Y0054597D01*
X0158587Y0054584D01*
X0158669Y0054568D01*
X0158750Y0054547D01*
X0158831Y0054523D01*
X0158909Y0054495D01*
X0158987Y0054463D01*
X0159063Y0054427D01*
X0159137Y0054388D01*
X0159209Y0054346D01*
X0159279Y0054300D01*
X0159347Y0054251D01*
X0159412Y0054199D01*
X0159475Y0054144D01*
X0159535Y0054086D01*
X0159593Y0054025D01*
X0159647Y0053961D01*
X0159699Y0053895D01*
X0159747Y0053827D01*
X0159792Y0053756D01*
X0159833Y0053683D01*
X0159872Y0053609D01*
X0159906Y0053533D01*
X0159937Y0053455D01*
X0159964Y0053376D01*
X0159988Y0053295D01*
X0160007Y0053214D01*
X0160023Y0053132D01*
X0160035Y0053049D01*
X0160043Y0052965D01*
X0160047Y0052882D01*
X0160047Y0052798D01*
X0160043Y0052715D01*
X0160035Y0052631D01*
X0160023Y0052548D01*
X0160007Y0052466D01*
X0159988Y0052385D01*
X0159964Y0052304D01*
X0159937Y0052225D01*
X0159906Y0052147D01*
X0159872Y0052071D01*
X0159833Y0051997D01*
X0159792Y0051924D01*
X0159747Y0051853D01*
X0159699Y0051785D01*
X0159647Y0051719D01*
X0159593Y0051655D01*
X0159535Y0051594D01*
X0159475Y0051536D01*
X0159412Y0051481D01*
X0159347Y0051429D01*
X0159279Y0051380D01*
X0159209Y0051334D01*
X0159137Y0051292D01*
X0159063Y0051253D01*
X0158987Y0051217D01*
X0158909Y0051185D01*
X0158831Y0051157D01*
X0158750Y0051133D01*
X0158669Y0051112D01*
X0158587Y0051096D01*
X0158505Y0051083D01*
X0158421Y0051074D01*
X0158338Y0051069D01*
X0158254Y0051068D01*
X0158170Y0051071D01*
X0158087Y0051078D01*
X0158004Y0051089D01*
X0157922Y0051104D01*
X0157840Y0051122D01*
X0157759Y0051145D01*
X0157680Y0051171D01*
X0157602Y0051201D01*
X0157525Y0051235D01*
X0157450Y0051272D01*
X0157377Y0051312D01*
X0157306Y0051357D01*
X0157237Y0051404D01*
X0157170Y0051455D01*
X0157106Y0051508D01*
X0157044Y0051565D01*
X0156986Y0051625D01*
X0156930Y0051687D01*
X0156877Y0051752D01*
X0156827Y0051819D01*
X0156780Y0051888D01*
X0156737Y0051960D01*
X0156697Y0052034D01*
X0156661Y0052109D01*
X0156628Y0052186D01*
X0156599Y0052265D01*
X0156574Y0052344D01*
X0156552Y0052425D01*
X0156535Y0052507D01*
X0156521Y0052590D01*
X0156511Y0052673D01*
X0156505Y0052756D01*
X0156503Y0052840D01*
X0156503Y0055202D02*
X0156505Y0055286D01*
X0156511Y0055369D01*
X0156521Y0055452D01*
X0156535Y0055535D01*
X0156552Y0055617D01*
X0156574Y0055698D01*
X0156599Y0055777D01*
X0156628Y0055856D01*
X0156661Y0055933D01*
X0156697Y0056008D01*
X0156737Y0056082D01*
X0156780Y0056154D01*
X0156827Y0056223D01*
X0156877Y0056290D01*
X0156930Y0056355D01*
X0156986Y0056417D01*
X0157044Y0056477D01*
X0157106Y0056534D01*
X0157170Y0056587D01*
X0157237Y0056638D01*
X0157306Y0056685D01*
X0157377Y0056730D01*
X0157450Y0056770D01*
X0157525Y0056807D01*
X0157602Y0056841D01*
X0157680Y0056871D01*
X0157759Y0056897D01*
X0157840Y0056920D01*
X0157922Y0056938D01*
X0158004Y0056953D01*
X0158087Y0056964D01*
X0158170Y0056971D01*
X0158254Y0056974D01*
X0158338Y0056973D01*
X0158421Y0056968D01*
X0158505Y0056959D01*
X0158587Y0056946D01*
X0158669Y0056930D01*
X0158750Y0056909D01*
X0158831Y0056885D01*
X0158909Y0056857D01*
X0158987Y0056825D01*
X0159063Y0056789D01*
X0159137Y0056750D01*
X0159209Y0056708D01*
X0159279Y0056662D01*
X0159347Y0056613D01*
X0159412Y0056561D01*
X0159475Y0056506D01*
X0159535Y0056448D01*
X0159593Y0056387D01*
X0159647Y0056323D01*
X0159699Y0056257D01*
X0159747Y0056189D01*
X0159792Y0056118D01*
X0159833Y0056045D01*
X0159872Y0055971D01*
X0159906Y0055895D01*
X0159937Y0055817D01*
X0159964Y0055738D01*
X0159988Y0055657D01*
X0160007Y0055576D01*
X0160023Y0055494D01*
X0160035Y0055411D01*
X0160043Y0055327D01*
X0160047Y0055244D01*
X0160047Y0055160D01*
X0160043Y0055077D01*
X0160035Y0054993D01*
X0160023Y0054910D01*
X0160007Y0054828D01*
X0159988Y0054747D01*
X0159964Y0054666D01*
X0159937Y0054587D01*
X0159906Y0054509D01*
X0159872Y0054433D01*
X0159833Y0054359D01*
X0159792Y0054286D01*
X0159747Y0054215D01*
X0159699Y0054147D01*
X0159647Y0054081D01*
X0159593Y0054017D01*
X0159535Y0053956D01*
X0159475Y0053898D01*
X0159412Y0053843D01*
X0159347Y0053791D01*
X0159279Y0053742D01*
X0159209Y0053696D01*
X0159137Y0053654D01*
X0159063Y0053615D01*
X0158987Y0053579D01*
X0158909Y0053547D01*
X0158831Y0053519D01*
X0158750Y0053495D01*
X0158669Y0053474D01*
X0158587Y0053458D01*
X0158505Y0053445D01*
X0158421Y0053436D01*
X0158338Y0053431D01*
X0158254Y0053430D01*
X0158170Y0053433D01*
X0158087Y0053440D01*
X0158004Y0053451D01*
X0157922Y0053466D01*
X0157840Y0053484D01*
X0157759Y0053507D01*
X0157680Y0053533D01*
X0157602Y0053563D01*
X0157525Y0053597D01*
X0157450Y0053634D01*
X0157377Y0053674D01*
X0157306Y0053719D01*
X0157237Y0053766D01*
X0157170Y0053817D01*
X0157106Y0053870D01*
X0157044Y0053927D01*
X0156986Y0053987D01*
X0156930Y0054049D01*
X0156877Y0054114D01*
X0156827Y0054181D01*
X0156780Y0054250D01*
X0156737Y0054322D01*
X0156697Y0054396D01*
X0156661Y0054471D01*
X0156628Y0054548D01*
X0156599Y0054627D01*
X0156574Y0054706D01*
X0156552Y0054787D01*
X0156535Y0054869D01*
X0156521Y0054952D01*
X0156511Y0055035D01*
X0156505Y0055118D01*
X0156503Y0055202D01*
X0156503Y0056974D02*
X0156505Y0057058D01*
X0156511Y0057141D01*
X0156521Y0057224D01*
X0156535Y0057307D01*
X0156552Y0057389D01*
X0156574Y0057470D01*
X0156599Y0057549D01*
X0156628Y0057628D01*
X0156661Y0057705D01*
X0156697Y0057780D01*
X0156737Y0057854D01*
X0156780Y0057926D01*
X0156827Y0057995D01*
X0156877Y0058062D01*
X0156930Y0058127D01*
X0156986Y0058189D01*
X0157044Y0058249D01*
X0157106Y0058306D01*
X0157170Y0058359D01*
X0157237Y0058410D01*
X0157306Y0058457D01*
X0157377Y0058502D01*
X0157450Y0058542D01*
X0157525Y0058579D01*
X0157602Y0058613D01*
X0157680Y0058643D01*
X0157759Y0058669D01*
X0157840Y0058692D01*
X0157922Y0058710D01*
X0158004Y0058725D01*
X0158087Y0058736D01*
X0158170Y0058743D01*
X0158254Y0058746D01*
X0158338Y0058745D01*
X0158421Y0058740D01*
X0158505Y0058731D01*
X0158587Y0058718D01*
X0158669Y0058702D01*
X0158750Y0058681D01*
X0158831Y0058657D01*
X0158909Y0058629D01*
X0158987Y0058597D01*
X0159063Y0058561D01*
X0159137Y0058522D01*
X0159209Y0058480D01*
X0159279Y0058434D01*
X0159347Y0058385D01*
X0159412Y0058333D01*
X0159475Y0058278D01*
X0159535Y0058220D01*
X0159593Y0058159D01*
X0159647Y0058095D01*
X0159699Y0058029D01*
X0159747Y0057961D01*
X0159792Y0057890D01*
X0159833Y0057817D01*
X0159872Y0057743D01*
X0159906Y0057667D01*
X0159937Y0057589D01*
X0159964Y0057510D01*
X0159988Y0057429D01*
X0160007Y0057348D01*
X0160023Y0057266D01*
X0160035Y0057183D01*
X0160043Y0057099D01*
X0160047Y0057016D01*
X0160047Y0056932D01*
X0160043Y0056849D01*
X0160035Y0056765D01*
X0160023Y0056682D01*
X0160007Y0056600D01*
X0159988Y0056519D01*
X0159964Y0056438D01*
X0159937Y0056359D01*
X0159906Y0056281D01*
X0159872Y0056205D01*
X0159833Y0056131D01*
X0159792Y0056058D01*
X0159747Y0055987D01*
X0159699Y0055919D01*
X0159647Y0055853D01*
X0159593Y0055789D01*
X0159535Y0055728D01*
X0159475Y0055670D01*
X0159412Y0055615D01*
X0159347Y0055563D01*
X0159279Y0055514D01*
X0159209Y0055468D01*
X0159137Y0055426D01*
X0159063Y0055387D01*
X0158987Y0055351D01*
X0158909Y0055319D01*
X0158831Y0055291D01*
X0158750Y0055267D01*
X0158669Y0055246D01*
X0158587Y0055230D01*
X0158505Y0055217D01*
X0158421Y0055208D01*
X0158338Y0055203D01*
X0158254Y0055202D01*
X0158170Y0055205D01*
X0158087Y0055212D01*
X0158004Y0055223D01*
X0157922Y0055238D01*
X0157840Y0055256D01*
X0157759Y0055279D01*
X0157680Y0055305D01*
X0157602Y0055335D01*
X0157525Y0055369D01*
X0157450Y0055406D01*
X0157377Y0055446D01*
X0157306Y0055491D01*
X0157237Y0055538D01*
X0157170Y0055589D01*
X0157106Y0055642D01*
X0157044Y0055699D01*
X0156986Y0055759D01*
X0156930Y0055821D01*
X0156877Y0055886D01*
X0156827Y0055953D01*
X0156780Y0056022D01*
X0156737Y0056094D01*
X0156697Y0056168D01*
X0156661Y0056243D01*
X0156628Y0056320D01*
X0156599Y0056399D01*
X0156574Y0056478D01*
X0156552Y0056559D01*
X0156535Y0056641D01*
X0156521Y0056724D01*
X0156511Y0056807D01*
X0156505Y0056890D01*
X0156503Y0056974D01*
D16*
X0147147Y0108317D03*
X0172400Y0108317D03*
X0065159Y0108317D03*
D17*
X0065487Y0108153D03*
D18*
X0065815Y0108317D03*
X0150755Y0108317D03*
X0171416Y0108317D03*
D19*
X0066143Y0108153D03*
D20*
X0066471Y0108317D03*
X0104841Y0118483D03*
X0170760Y0108317D03*
D21*
X0170432Y0108317D03*
X0153706Y0108317D03*
X0103858Y0118155D03*
X0066799Y0108317D03*
D22*
X0067127Y0108152D03*
X0154362Y0108481D03*
D23*
X0155018Y0108317D03*
X0067455Y0108317D03*
D24*
X0067783Y0108153D03*
D25*
X0068111Y0108316D03*
D26*
X0068439Y0108153D03*
D27*
X0068767Y0108153D03*
X0163873Y0113072D03*
D28*
X0069095Y0108152D03*
D29*
X0069423Y0108317D03*
X0158626Y0108317D03*
D30*
X0069750Y0108153D03*
D31*
X0070078Y0108152D03*
D32*
X0070406Y0108153D03*
D33*
X0070734Y0108153D03*
D34*
X0071062Y0108317D03*
D35*
X0071390Y0108317D03*
X0160921Y0108317D03*
X0167808Y0108317D03*
D36*
X0071718Y0108153D03*
D37*
X0072046Y0108152D03*
X0161577Y0108480D03*
D38*
X0072374Y0108316D03*
D39*
X0072702Y0108152D03*
D40*
X0073030Y0108153D03*
D41*
X0073358Y0108317D03*
D42*
X0073686Y0108153D03*
D43*
X0074014Y0108317D03*
D44*
X0074342Y0108153D03*
D45*
X0074670Y0108153D03*
D46*
X0074998Y0108316D03*
D47*
X0075326Y0108152D03*
D48*
X0075654Y0108316D03*
D49*
X0075982Y0108152D03*
D50*
X0076310Y0108317D03*
D51*
X0076638Y0108153D03*
X0076965Y0108153D03*
D52*
X0077293Y0108316D03*
D53*
X0077621Y0108153D03*
D54*
X0077949Y0108317D03*
D55*
X0078277Y0108153D03*
X0078605Y0108153D03*
D56*
X0078933Y0108317D03*
D57*
X0079261Y0108153D03*
D58*
X0079589Y0108316D03*
X0079917Y0108316D03*
D59*
X0080245Y0108152D03*
D60*
X0080573Y0108317D03*
X0080901Y0108317D03*
D61*
X0081229Y0108153D03*
X0081557Y0108153D03*
D62*
X0081885Y0108316D03*
X0102874Y0108316D03*
X0103202Y0108316D03*
D63*
X0102546Y0108480D03*
X0102218Y0108480D03*
X0082541Y0108152D03*
X0082213Y0108152D03*
D64*
X0082869Y0108316D03*
X0100906Y0108316D03*
X0101234Y0108316D03*
X0101562Y0108316D03*
X0101890Y0108316D03*
D65*
X0083525Y0108153D03*
X0083197Y0108153D03*
D66*
X0083852Y0108317D03*
X0084180Y0108317D03*
D67*
X0084508Y0108153D03*
X0084836Y0108153D03*
D68*
X0085164Y0108316D03*
X0085492Y0108316D03*
D69*
X0085820Y0108152D03*
X0086148Y0108152D03*
X0086476Y0108152D03*
D70*
X0086804Y0108316D03*
X0087132Y0108316D03*
D71*
X0087460Y0108153D03*
X0087788Y0108153D03*
D72*
X0088116Y0108317D03*
X0088444Y0108317D03*
D73*
X0088772Y0108153D03*
D74*
X0089100Y0108317D03*
D75*
X0089428Y0108481D03*
D76*
X0089756Y0108316D03*
D77*
X0090084Y0108481D03*
X0090412Y0108481D03*
X0097299Y0108481D03*
D78*
X0096643Y0108481D03*
X0090739Y0108481D03*
D79*
X0091067Y0108316D03*
X0096315Y0108316D03*
D80*
X0095987Y0108480D03*
X0095659Y0108480D03*
X0095331Y0108480D03*
X0095003Y0108480D03*
X0094675Y0108480D03*
X0094347Y0108480D03*
X0094019Y0108480D03*
X0093691Y0108480D03*
X0093363Y0108480D03*
X0093035Y0108480D03*
X0092707Y0108480D03*
X0092379Y0108480D03*
X0092051Y0108480D03*
X0091723Y0108480D03*
X0091395Y0108480D03*
D81*
X0096971Y0108317D03*
D82*
X0097626Y0108480D03*
D83*
X0097954Y0108317D03*
D84*
X0098282Y0108316D03*
D85*
X0103530Y0108480D03*
D86*
X0110089Y0089295D03*
X0109761Y0088967D03*
X0103858Y0085032D03*
X0135669Y0108316D03*
D87*
X0104186Y0084868D03*
D88*
X0104186Y0118483D03*
X0104513Y0118483D03*
X0153378Y0108317D03*
D89*
X0135341Y0108317D03*
X0107793Y0086672D03*
X0104841Y0085032D03*
X0104513Y0085032D03*
D90*
X0105169Y0085196D03*
X0135013Y0108481D03*
D91*
X0152723Y0108480D03*
X0105169Y0118319D03*
D92*
X0105497Y0085360D03*
X0105825Y0085360D03*
D93*
X0105497Y0118483D03*
X0152395Y0108317D03*
D94*
X0105825Y0118319D03*
D95*
X0108449Y0087328D03*
X0108121Y0087000D03*
X0107465Y0086344D03*
X0107137Y0086344D03*
X0106809Y0086016D03*
X0106153Y0085688D03*
D96*
X0106153Y0118319D03*
D97*
X0106481Y0085852D03*
D98*
X0106481Y0118319D03*
X0151411Y0108481D03*
D99*
X0106809Y0118647D03*
D100*
X0107137Y0118811D03*
D101*
X0107465Y0118483D03*
D102*
X0107793Y0118483D03*
X0149443Y0108316D03*
D103*
X0108121Y0118483D03*
D104*
X0108449Y0118483D03*
X0148131Y0108316D03*
X0167152Y0097822D03*
D105*
X0111400Y0091755D03*
X0108777Y0087492D03*
D106*
X0108777Y0115367D03*
D107*
X0108777Y0134061D03*
D108*
X0110745Y0090279D03*
X0110417Y0089951D03*
X0109105Y0087984D03*
D109*
X0109105Y0115532D03*
D110*
X0111073Y0090935D03*
X0109433Y0088639D03*
D111*
X0109433Y0115696D03*
D112*
X0109761Y0115860D03*
D113*
X0110089Y0116024D03*
D114*
X0110417Y0116352D03*
D115*
X0110745Y0116515D03*
X0111728Y0115860D03*
X0174039Y0108316D03*
D116*
X0111073Y0116351D03*
D117*
X0111400Y0116188D03*
X0139604Y0108317D03*
D118*
X0111728Y0086672D03*
D119*
X0111728Y0096346D03*
X0141572Y0117007D03*
X0141900Y0117007D03*
D120*
X0147803Y0108481D03*
X0112056Y0109792D03*
D121*
X0112384Y0109628D03*
X0147475Y0108317D03*
D122*
X0112712Y0109465D03*
D123*
X0113040Y0109464D03*
D124*
X0113368Y0106513D03*
D125*
X0115664Y0118155D03*
X0113368Y0124714D03*
D126*
X0113696Y0106513D03*
X0114024Y0106513D03*
X0114352Y0106513D03*
D127*
X0116648Y0118483D03*
X0113696Y0125042D03*
D128*
X0114024Y0125206D03*
D129*
X0114680Y0106513D03*
D130*
X0115008Y0106677D03*
D131*
X0116976Y0107825D03*
X0115336Y0095034D03*
D132*
X0115336Y0107005D03*
X0133045Y0108317D03*
D133*
X0115336Y0117991D03*
D134*
X0115664Y0094543D03*
D135*
X0115664Y0107005D03*
X0132062Y0108317D03*
D136*
X0115992Y0094051D03*
D137*
X0115992Y0107169D03*
D138*
X0125502Y0108317D03*
X0115992Y0118155D03*
D139*
X0116320Y0107497D03*
X0140916Y0116679D03*
D140*
X0125175Y0108316D03*
X0124847Y0108316D03*
X0116320Y0118483D03*
D141*
X0116648Y0107497D03*
X0165513Y0080933D03*
X0166169Y0081589D03*
D142*
X0116976Y0118647D03*
D143*
X0117304Y0118811D03*
D144*
X0117632Y0118811D03*
X0123207Y0108316D03*
D145*
X0122879Y0108317D03*
D146*
X0123535Y0108317D03*
X0123863Y0108317D03*
D147*
X0124191Y0108317D03*
D148*
X0124519Y0108316D03*
D149*
X0125830Y0108317D03*
D150*
X0126158Y0108316D03*
X0126486Y0108316D03*
D151*
X0126814Y0108317D03*
D152*
X0127142Y0108317D03*
D153*
X0127470Y0108316D03*
X0127798Y0108316D03*
D154*
X0128126Y0108316D03*
D155*
X0128454Y0108317D03*
X0165841Y0081096D03*
D156*
X0128782Y0108481D03*
D157*
X0129110Y0108317D03*
D158*
X0129438Y0108316D03*
D159*
X0129766Y0108317D03*
X0130094Y0108317D03*
X0139932Y0115860D03*
X0175351Y0108317D03*
D160*
X0130422Y0108317D03*
D161*
X0130750Y0108316D03*
D162*
X0131078Y0108316D03*
X0131406Y0108316D03*
D163*
X0131734Y0108317D03*
X0140588Y0101758D03*
X0140916Y0101429D03*
X0156002Y0126354D03*
D164*
X0132717Y0108316D03*
X0132389Y0108316D03*
X0142228Y0101102D03*
X0142556Y0101102D03*
D165*
X0133373Y0108317D03*
X0175023Y0108317D03*
D166*
X0134029Y0108316D03*
X0133701Y0108316D03*
D167*
X0134357Y0108316D03*
D168*
X0134685Y0108317D03*
D169*
X0135997Y0108317D03*
D170*
X0136325Y0108481D03*
X0166825Y0128158D03*
D171*
X0136653Y0108317D03*
D172*
X0136981Y0108316D03*
D173*
X0137309Y0108317D03*
D174*
X0137637Y0108481D03*
D175*
X0137965Y0108317D03*
X0174367Y0108317D03*
D176*
X0138293Y0108317D03*
D177*
X0138621Y0108316D03*
D178*
X0138949Y0108480D03*
D179*
X0139276Y0108317D03*
D180*
X0139932Y0102249D03*
D181*
X0140260Y0101922D03*
D182*
X0140260Y0116351D03*
X0140588Y0116351D03*
D183*
X0141244Y0101266D03*
X0141572Y0101266D03*
X0156658Y0126846D03*
D184*
X0141244Y0116843D03*
D185*
X0156986Y0127010D03*
X0141900Y0101102D03*
D186*
X0142228Y0117007D03*
D187*
X0142556Y0117171D03*
D188*
X0142884Y0101265D03*
D189*
X0142884Y0117007D03*
D190*
X0143212Y0108316D03*
X0173384Y0108316D03*
D191*
X0143540Y0108317D03*
D192*
X0143868Y0108481D03*
D193*
X0144196Y0108317D03*
D194*
X0144524Y0108317D03*
X0173056Y0108317D03*
D195*
X0144852Y0108316D03*
D196*
X0145180Y0108481D03*
D197*
X0145508Y0108317D03*
D198*
X0145836Y0108317D03*
X0172728Y0108317D03*
D199*
X0157314Y0100118D03*
X0146163Y0108316D03*
D200*
X0146491Y0108480D03*
D201*
X0146819Y0108317D03*
D202*
X0148459Y0108317D03*
X0172072Y0108317D03*
D203*
X0163217Y0119303D03*
X0148787Y0108481D03*
D204*
X0149115Y0108481D03*
D205*
X0149771Y0108317D03*
D206*
X0150099Y0108481D03*
D207*
X0150427Y0108480D03*
D208*
X0151083Y0108316D03*
D209*
X0151739Y0108481D03*
D210*
X0152067Y0108317D03*
D211*
X0153050Y0108481D03*
D212*
X0154034Y0108481D03*
D213*
X0154690Y0108317D03*
X0170104Y0108317D03*
D214*
X0155346Y0108481D03*
D215*
X0155674Y0100938D03*
X0156002Y0100610D03*
D216*
X0155674Y0126190D03*
D217*
X0156330Y0100446D03*
D218*
X0156330Y0126682D03*
D219*
X0156658Y0100282D03*
D220*
X0156986Y0100118D03*
D221*
X0157314Y0126846D03*
D222*
X0157642Y0100282D03*
D223*
X0157642Y0126846D03*
D224*
X0165841Y0113728D03*
X0157970Y0108481D03*
D225*
X0158298Y0108316D03*
D226*
X0158954Y0108480D03*
D227*
X0159282Y0108481D03*
D228*
X0159610Y0108317D03*
D229*
X0159938Y0108317D03*
X0168136Y0108317D03*
D230*
X0160265Y0108481D03*
D231*
X0160593Y0108481D03*
D232*
X0161249Y0108316D03*
D233*
X0161905Y0108481D03*
D234*
X0162233Y0089131D03*
D235*
X0162233Y0118811D03*
D236*
X0167152Y0127994D03*
X0162561Y0088967D03*
D237*
X0162561Y0119139D03*
D238*
X0162889Y0088803D03*
D239*
X0162889Y0119303D03*
D240*
X0163217Y0088804D03*
D241*
X0163545Y0108317D03*
D242*
X0163873Y0081917D03*
X0164201Y0081588D03*
D243*
X0169120Y0108481D03*
X0164201Y0113400D03*
D244*
X0164529Y0081261D03*
D245*
X0164529Y0113728D03*
X0164857Y0113728D03*
D246*
X0164857Y0081097D03*
X0165185Y0081097D03*
D247*
X0165185Y0113892D03*
D248*
X0165513Y0114056D03*
X0166169Y0113400D03*
D249*
X0166497Y0097494D03*
D250*
X0166497Y0128322D03*
D251*
X0166825Y0097494D03*
D252*
X0167480Y0098314D03*
D253*
X0174695Y0108153D03*
X0167480Y0127502D03*
D254*
X0168464Y0108316D03*
D255*
X0168792Y0108481D03*
D256*
X0169448Y0108480D03*
D257*
X0169776Y0108316D03*
D258*
X0171088Y0108317D03*
D259*
X0171744Y0108480D03*
D260*
X0173712Y0108317D03*
M02*
