%
M48
M72
T01C0.01200
T02C0.03150
T03C0.03346
T04C0.03543
T05C0.04000
T06C0.04528
T07C0.05200
%
T01
X54831Y37323
X71931Y40492
X71831Y45492
X72031Y50492
X72131Y55592
X71831Y60692
X71031Y65592
X80562Y66223
X84431Y73992
X77231Y75692
X70531Y80723
X70731Y90323
X80531Y100692
X82531Y105792
X82731Y110692
X91431Y103423
X97731Y109223
X100931Y112992
X108031Y122123
X116630Y118823
X121831Y119492
X127531Y119923
X133231Y119492
X139731Y121623
X140831Y118592
X147231Y120592
X150531Y115523
X146831Y112923
X154131Y108623
X153031Y96623
X149031Y94023
X143531Y92423
X154931Y87923
X155731Y93823
X167231Y91892
X173331Y89623
X178531Y85423
X175531Y82723
X178431Y77892
X166931Y79892
X180531Y89992
X172331Y101823
X174831Y104323
X169731Y107623
X167231Y109892
X172531Y110523
X172831Y114623
X170931Y118323
X167031Y120692
X148031Y133223
X138531Y137323
X136931Y131923
X130331Y132823
X122531Y134323
X120131Y137623
X123431Y140523
X112231Y141192
X121531Y152723
X131131Y160923
X123131Y161723
X117631Y161123
X112531Y162523
X114131Y167323
X107331Y159723
X94531Y165192
X82031Y152523
X83231Y144592
X68931Y135623
X65331Y125692
X65331Y120692
X92431Y125792
X67431Y156923
X69731Y178723
X80431Y190623
X83331Y193592
X106131Y181292
X108431Y192623
X107031Y197192
X130231Y192723
X155831Y183823
X160731Y171192
X160731Y154492
X171131Y143823
X178331Y156423
X182931Y156823
X156331Y142323
X137431Y146892
X102531Y91992
X98731Y89023
X112731Y69223
X121631Y66723
X121931Y80623
X125831Y80292
X130431Y79723
X136331Y79592
X142231Y79623
X150031Y79992
X151131Y67492
X151331Y63992
X152231Y54392
X145331Y48592
X139531Y48592
X133531Y48592
X127731Y48592
X121931Y44823
X116231Y48492
X113931Y44923
X108731Y48623
X106931Y54492
X107531Y60323
X122931Y85123
X152631Y38923
X152631Y29792
X171531Y57823
X178431Y59123
X194731Y38223
X107131Y28992
X86931Y31192
X80531Y30723
X194431Y198423
T02
X168731Y187523
X168731Y135523
X95731Y135523
X95731Y187523
T03
X95174Y200462
X114689Y200462
X134374Y200462
X75489Y200462
T04
X101188Y56974
X101188Y55202
X101188Y54021
X101188Y52840
X101188Y51068
X101188Y33549
X101188Y31777
X101188Y30556
X101188Y29415
X101188Y27643
X158275Y27643
X158275Y29415
X158275Y30556
X158275Y31777
X158275Y33549
X158275Y51068
X158275Y52840
X158275Y54021
X158275Y55202
X158275Y56974
T05
X49952Y23159
X49952Y33159
X59952Y33159
X59952Y23159
X59952Y43159
X49952Y43159
X49952Y53159
X49952Y63159
X59952Y63159
X59952Y53159
X59952Y73159
X49952Y73159
X49952Y83159
X59952Y83159
X59952Y93159
X49952Y93159
X49952Y103159
X49952Y113159
X59952Y113159
X59952Y103159
X59952Y123159
X49952Y123159
X49952Y133159
X59952Y133159
X59952Y143159
X49952Y143159
X49952Y153159
X49952Y163159
X59952Y163159
X59952Y153159
X59952Y173159
X49952Y173159
X49952Y183159
X59952Y183159
X59952Y193159
X49952Y193159
X49952Y203159
X59952Y203159
X59952Y213159
X49952Y213159
X189952Y213159
X199952Y213159
X199952Y203159
X189952Y203159
X189952Y193159
X199952Y193159
X199952Y183159
X189952Y183159
X189952Y173159
X199952Y173159
X199952Y163159
X189952Y163159
X189952Y153159
X189952Y143159
X199952Y143159
X199952Y153159
X199952Y133159
X189952Y133159
X189952Y123159
X199952Y123159
X199952Y113159
X189952Y113159
X189952Y103159
X189952Y93159
X199952Y93159
X199952Y103159
X199952Y83159
X189952Y83159
X189952Y73159
X199952Y73159
X199952Y63159
X189952Y63159
X189952Y53159
X189952Y43159
X199952Y43159
X199952Y53159
X199952Y33159
X189952Y33159
X189952Y23159
X199952Y23159
T06
X138311Y210797
X110752Y210797
X99111Y210797
X71552Y210797
T07
X153575Y206923
X173260Y206923
M30
