G75*
%MOIN*%
%OFA0B0*%
%FSLAX25Y25*%
%IPPOS*%
%LPD*%
%AMOC8*
5,1,8,0,0,1.08239X$1,22.5*
%
%ADD10C,0.01000*%
%ADD11C,0.06000*%
%ADD12C,0.06791*%
%ADD13C,0.05020*%
%ADD14C,0.04724*%
%ADD15C,0.07800*%
%ADD16C,0.05315*%
%ADD17C,0.00000*%
%ADD18C,0.02400*%
D10*
X0019033Y0019923D02*
X0019033Y0216673D01*
X0180033Y0216673D01*
X0180033Y0019923D01*
X0019033Y0019923D01*
X0023455Y0023659D02*
X0023455Y0027636D01*
X0022901Y0027548D01*
X0022227Y0027329D01*
X0022033Y0027230D01*
X0022033Y0029084D01*
X0023059Y0028659D01*
X0024850Y0028659D01*
X0026504Y0029344D01*
X0027770Y0030610D01*
X0028455Y0032264D01*
X0028455Y0034054D01*
X0028203Y0034661D01*
X0028296Y0034623D01*
X0029370Y0034623D01*
X0029756Y0034782D01*
X0029455Y0034054D01*
X0029455Y0032264D01*
X0030140Y0030610D01*
X0031406Y0029344D01*
X0033059Y0028659D01*
X0034850Y0028659D01*
X0036504Y0029344D01*
X0037770Y0030610D01*
X0038455Y0032264D01*
X0038455Y0034054D01*
X0037770Y0035708D01*
X0036504Y0036974D01*
X0034850Y0037659D01*
X0033059Y0037659D01*
X0031533Y0037027D01*
X0031533Y0037860D01*
X0031122Y0038852D01*
X0030363Y0039612D01*
X0029370Y0040023D01*
X0028296Y0040023D01*
X0027304Y0039612D01*
X0026544Y0038852D01*
X0026133Y0037860D01*
X0026133Y0037127D01*
X0024850Y0037659D01*
X0023059Y0037659D01*
X0022033Y0037234D01*
X0022033Y0039084D01*
X0023059Y0038659D01*
X0024850Y0038659D01*
X0026504Y0039344D01*
X0027770Y0040610D01*
X0028455Y0042264D01*
X0028455Y0044054D01*
X0027770Y0045708D01*
X0026504Y0046974D01*
X0024850Y0047659D01*
X0023059Y0047659D01*
X0022033Y0047234D01*
X0022033Y0049084D01*
X0023059Y0048659D01*
X0024850Y0048659D01*
X0026504Y0049344D01*
X0027770Y0050610D01*
X0028455Y0052264D01*
X0028455Y0054054D01*
X0027770Y0055708D01*
X0026504Y0056974D01*
X0024850Y0057659D01*
X0023059Y0057659D01*
X0022033Y0057234D01*
X0022033Y0059084D01*
X0023059Y0058659D01*
X0024850Y0058659D01*
X0026504Y0059344D01*
X0027770Y0060610D01*
X0028455Y0062264D01*
X0028455Y0064054D01*
X0027770Y0065708D01*
X0026504Y0066974D01*
X0024850Y0067659D01*
X0023059Y0067659D01*
X0022033Y0067234D01*
X0022033Y0069084D01*
X0023059Y0068659D01*
X0024850Y0068659D01*
X0026504Y0069344D01*
X0027770Y0070610D01*
X0028455Y0072264D01*
X0028455Y0074054D01*
X0027770Y0075708D01*
X0026504Y0076974D01*
X0024850Y0077659D01*
X0023059Y0077659D01*
X0022033Y0077234D01*
X0022033Y0079084D01*
X0023059Y0078659D01*
X0024850Y0078659D01*
X0026504Y0079344D01*
X0027770Y0080610D01*
X0028455Y0082264D01*
X0028455Y0084054D01*
X0027770Y0085708D01*
X0026504Y0086974D01*
X0024850Y0087659D01*
X0023059Y0087659D01*
X0022033Y0087234D01*
X0022033Y0089084D01*
X0023059Y0088659D01*
X0024850Y0088659D01*
X0026504Y0089344D01*
X0027770Y0090610D01*
X0028455Y0092264D01*
X0028455Y0094054D01*
X0027770Y0095708D01*
X0026504Y0096974D01*
X0024850Y0097659D01*
X0023059Y0097659D01*
X0022033Y0097234D01*
X0022033Y0099084D01*
X0023059Y0098659D01*
X0024850Y0098659D01*
X0026504Y0099344D01*
X0027770Y0100610D01*
X0028455Y0102264D01*
X0028455Y0104054D01*
X0027770Y0105708D01*
X0026504Y0106974D01*
X0024850Y0107659D01*
X0023059Y0107659D01*
X0022033Y0107234D01*
X0022033Y0109084D01*
X0023059Y0108659D01*
X0024850Y0108659D01*
X0026504Y0109344D01*
X0027770Y0110610D01*
X0028455Y0112264D01*
X0028455Y0114054D01*
X0027770Y0115708D01*
X0026504Y0116974D01*
X0024850Y0117659D01*
X0023059Y0117659D01*
X0022033Y0117234D01*
X0022033Y0119084D01*
X0023059Y0118659D01*
X0024850Y0118659D01*
X0026504Y0119344D01*
X0027770Y0120610D01*
X0028455Y0122264D01*
X0028455Y0124054D01*
X0027770Y0125708D01*
X0026504Y0126974D01*
X0024850Y0127659D01*
X0023059Y0127659D01*
X0022033Y0127234D01*
X0022033Y0129084D01*
X0023059Y0128659D01*
X0024850Y0128659D01*
X0026504Y0129344D01*
X0027770Y0130610D01*
X0028455Y0132264D01*
X0028455Y0134054D01*
X0027770Y0135708D01*
X0026504Y0136974D01*
X0024850Y0137659D01*
X0023059Y0137659D01*
X0022033Y0137234D01*
X0022033Y0139084D01*
X0023059Y0138659D01*
X0024850Y0138659D01*
X0026504Y0139344D01*
X0027770Y0140610D01*
X0028455Y0142264D01*
X0028455Y0144054D01*
X0027770Y0145708D01*
X0026504Y0146974D01*
X0024850Y0147659D01*
X0023059Y0147659D01*
X0022033Y0147234D01*
X0022033Y0149084D01*
X0023059Y0148659D01*
X0024850Y0148659D01*
X0026504Y0149344D01*
X0027770Y0150610D01*
X0028455Y0152264D01*
X0028455Y0154054D01*
X0027770Y0155708D01*
X0026504Y0156974D01*
X0024850Y0157659D01*
X0023059Y0157659D01*
X0022033Y0157234D01*
X0022033Y0159084D01*
X0023059Y0158659D01*
X0024850Y0158659D01*
X0026504Y0159344D01*
X0027770Y0160610D01*
X0028455Y0162264D01*
X0028455Y0164054D01*
X0027770Y0165708D01*
X0026504Y0166974D01*
X0024850Y0167659D01*
X0023059Y0167659D01*
X0022033Y0167234D01*
X0022033Y0169084D01*
X0023059Y0168659D01*
X0024850Y0168659D01*
X0026504Y0169344D01*
X0027770Y0170610D01*
X0028455Y0172264D01*
X0028455Y0174054D01*
X0027770Y0175708D01*
X0026504Y0176974D01*
X0024850Y0177659D01*
X0023059Y0177659D01*
X0022033Y0177234D01*
X0022033Y0179084D01*
X0023059Y0178659D01*
X0024850Y0178659D01*
X0026504Y0179344D01*
X0027770Y0180610D01*
X0028455Y0182264D01*
X0028455Y0184054D01*
X0027770Y0185708D01*
X0026504Y0186974D01*
X0024850Y0187659D01*
X0023059Y0187659D01*
X0022033Y0187234D01*
X0022033Y0189084D01*
X0023059Y0188659D01*
X0024850Y0188659D01*
X0026504Y0189344D01*
X0027770Y0190610D01*
X0028455Y0192264D01*
X0028455Y0194054D01*
X0027770Y0195708D01*
X0026504Y0196974D01*
X0024850Y0197659D01*
X0023059Y0197659D01*
X0022033Y0197234D01*
X0022033Y0199084D01*
X0023059Y0198659D01*
X0024850Y0198659D01*
X0026504Y0199344D01*
X0027770Y0200610D01*
X0028455Y0202264D01*
X0028455Y0204054D01*
X0027770Y0205708D01*
X0026504Y0206974D01*
X0024850Y0207659D01*
X0023059Y0207659D01*
X0022033Y0207234D01*
X0022033Y0209087D01*
X0022227Y0208988D01*
X0022901Y0208770D01*
X0023455Y0208682D01*
X0023455Y0212659D01*
X0024455Y0212659D01*
X0024455Y0213659D01*
X0028431Y0213659D01*
X0028429Y0213673D01*
X0029455Y0213673D01*
X0029455Y0212264D01*
X0030140Y0210610D01*
X0031406Y0209344D01*
X0033059Y0208659D01*
X0034850Y0208659D01*
X0036504Y0209344D01*
X0037770Y0210610D01*
X0038455Y0212264D01*
X0038455Y0213673D01*
X0041592Y0213673D01*
X0041367Y0213362D01*
X0041017Y0212676D01*
X0040779Y0211943D01*
X0040676Y0211297D01*
X0045054Y0211297D01*
X0045054Y0210297D01*
X0040676Y0210297D01*
X0040779Y0209650D01*
X0041017Y0208917D01*
X0041367Y0208231D01*
X0041820Y0207607D01*
X0042364Y0207062D01*
X0042988Y0206609D01*
X0043675Y0206260D01*
X0044407Y0206021D01*
X0045054Y0205919D01*
X0045054Y0210297D01*
X0046054Y0210297D01*
X0046054Y0211297D01*
X0050431Y0211297D01*
X0050329Y0211943D01*
X0050091Y0212676D01*
X0049741Y0213362D01*
X0049516Y0213673D01*
X0069151Y0213673D01*
X0068926Y0213362D01*
X0068576Y0212676D01*
X0068338Y0211943D01*
X0068235Y0211297D01*
X0072613Y0211297D01*
X0072613Y0210297D01*
X0068235Y0210297D01*
X0068338Y0209650D01*
X0068576Y0208917D01*
X0068926Y0208231D01*
X0069379Y0207607D01*
X0069924Y0207062D01*
X0070547Y0206609D01*
X0071234Y0206260D01*
X0071966Y0206021D01*
X0072613Y0205919D01*
X0072613Y0210297D01*
X0073613Y0210297D01*
X0073613Y0211297D01*
X0077990Y0211297D01*
X0077888Y0211943D01*
X0077650Y0212676D01*
X0077300Y0213362D01*
X0077075Y0213673D01*
X0080792Y0213673D01*
X0080567Y0213362D01*
X0080217Y0212676D01*
X0079979Y0211943D01*
X0079876Y0211297D01*
X0084254Y0211297D01*
X0084254Y0210297D01*
X0079876Y0210297D01*
X0079979Y0209650D01*
X0080217Y0208917D01*
X0080567Y0208231D01*
X0081020Y0207607D01*
X0081564Y0207062D01*
X0082188Y0206609D01*
X0082875Y0206260D01*
X0083607Y0206021D01*
X0084254Y0205919D01*
X0084254Y0210297D01*
X0085254Y0210297D01*
X0085254Y0211297D01*
X0089631Y0211297D01*
X0089529Y0211943D01*
X0089291Y0212676D01*
X0088941Y0213362D01*
X0088716Y0213673D01*
X0108351Y0213673D01*
X0108126Y0213362D01*
X0107776Y0212676D01*
X0107538Y0211943D01*
X0107435Y0211297D01*
X0111813Y0211297D01*
X0111813Y0210297D01*
X0107435Y0210297D01*
X0107538Y0209650D01*
X0107776Y0208917D01*
X0108126Y0208231D01*
X0108579Y0207607D01*
X0109124Y0207062D01*
X0109747Y0206609D01*
X0110434Y0206260D01*
X0111166Y0206021D01*
X0111813Y0205919D01*
X0111813Y0210297D01*
X0112813Y0210297D01*
X0112813Y0211297D01*
X0117190Y0211297D01*
X0117088Y0211943D01*
X0116850Y0212676D01*
X0116500Y0213362D01*
X0116275Y0213673D01*
X0159480Y0213673D01*
X0159478Y0213659D01*
X0163455Y0213659D01*
X0163455Y0212659D01*
X0164455Y0212659D01*
X0164455Y0213659D01*
X0168431Y0213659D01*
X0168429Y0213673D01*
X0169455Y0213673D01*
X0169455Y0212264D01*
X0170140Y0210610D01*
X0171406Y0209344D01*
X0173059Y0208659D01*
X0174850Y0208659D01*
X0176504Y0209344D01*
X0177033Y0209874D01*
X0177033Y0206444D01*
X0176504Y0206974D01*
X0174850Y0207659D01*
X0173059Y0207659D01*
X0171406Y0206974D01*
X0170140Y0205708D01*
X0169455Y0204054D01*
X0169455Y0202264D01*
X0170140Y0200610D01*
X0171406Y0199344D01*
X0173059Y0198659D01*
X0174850Y0198659D01*
X0176504Y0199344D01*
X0177033Y0199874D01*
X0177033Y0196444D01*
X0176504Y0196974D01*
X0174850Y0197659D01*
X0173059Y0197659D01*
X0171406Y0196974D01*
X0170140Y0195708D01*
X0169455Y0194054D01*
X0169455Y0192264D01*
X0170140Y0190610D01*
X0171406Y0189344D01*
X0173059Y0188659D01*
X0174850Y0188659D01*
X0176504Y0189344D01*
X0177033Y0189874D01*
X0177033Y0186444D01*
X0176504Y0186974D01*
X0174850Y0187659D01*
X0173059Y0187659D01*
X0171406Y0186974D01*
X0170140Y0185708D01*
X0169455Y0184054D01*
X0169455Y0182264D01*
X0170140Y0180610D01*
X0171406Y0179344D01*
X0173059Y0178659D01*
X0174850Y0178659D01*
X0176504Y0179344D01*
X0177033Y0179874D01*
X0177033Y0176444D01*
X0176504Y0176974D01*
X0174850Y0177659D01*
X0173059Y0177659D01*
X0171406Y0176974D01*
X0170140Y0175708D01*
X0169455Y0174054D01*
X0169455Y0172264D01*
X0170140Y0170610D01*
X0171406Y0169344D01*
X0173059Y0168659D01*
X0174850Y0168659D01*
X0176504Y0169344D01*
X0177033Y0169874D01*
X0177033Y0166444D01*
X0176504Y0166974D01*
X0174850Y0167659D01*
X0173059Y0167659D01*
X0171406Y0166974D01*
X0170140Y0165708D01*
X0169455Y0164054D01*
X0169455Y0162264D01*
X0170140Y0160610D01*
X0171406Y0159344D01*
X0173059Y0158659D01*
X0174850Y0158659D01*
X0176504Y0159344D01*
X0177033Y0159874D01*
X0177033Y0156444D01*
X0176504Y0156974D01*
X0174850Y0157659D01*
X0173059Y0157659D01*
X0171406Y0156974D01*
X0170140Y0155708D01*
X0169455Y0154054D01*
X0169455Y0152264D01*
X0170140Y0150610D01*
X0171406Y0149344D01*
X0173059Y0148659D01*
X0174850Y0148659D01*
X0176504Y0149344D01*
X0177033Y0149874D01*
X0177033Y0146444D01*
X0176504Y0146974D01*
X0174850Y0147659D01*
X0173059Y0147659D01*
X0171406Y0146974D01*
X0170140Y0145708D01*
X0169455Y0144054D01*
X0169455Y0142264D01*
X0170140Y0140610D01*
X0171406Y0139344D01*
X0173059Y0138659D01*
X0174850Y0138659D01*
X0176504Y0139344D01*
X0177033Y0139874D01*
X0177033Y0136444D01*
X0176504Y0136974D01*
X0174850Y0137659D01*
X0173059Y0137659D01*
X0171406Y0136974D01*
X0170140Y0135708D01*
X0169455Y0134054D01*
X0169455Y0132264D01*
X0170140Y0130610D01*
X0171406Y0129344D01*
X0173059Y0128659D01*
X0174850Y0128659D01*
X0176504Y0129344D01*
X0177033Y0129874D01*
X0177033Y0126444D01*
X0176504Y0126974D01*
X0174850Y0127659D01*
X0173059Y0127659D01*
X0171406Y0126974D01*
X0170140Y0125708D01*
X0169455Y0124054D01*
X0169455Y0122264D01*
X0170140Y0120610D01*
X0171406Y0119344D01*
X0173059Y0118659D01*
X0174850Y0118659D01*
X0176504Y0119344D01*
X0177033Y0119874D01*
X0177033Y0116444D01*
X0176886Y0116591D01*
X0176313Y0117008D01*
X0175682Y0117329D01*
X0175008Y0117548D01*
X0174455Y0117636D01*
X0174455Y0113659D01*
X0173455Y0113659D01*
X0173455Y0117636D01*
X0172901Y0117548D01*
X0172227Y0117329D01*
X0171596Y0117008D01*
X0171023Y0116591D01*
X0170522Y0116090D01*
X0170106Y0115517D01*
X0169784Y0114886D01*
X0169565Y0114213D01*
X0169478Y0113659D01*
X0173455Y0113659D01*
X0173455Y0112659D01*
X0174455Y0112659D01*
X0174455Y0108682D01*
X0175008Y0108770D01*
X0175682Y0108988D01*
X0176313Y0109310D01*
X0176886Y0109726D01*
X0177033Y0109874D01*
X0177033Y0106444D01*
X0176504Y0106974D01*
X0174850Y0107659D01*
X0173059Y0107659D01*
X0171406Y0106974D01*
X0170140Y0105708D01*
X0169455Y0104054D01*
X0169455Y0102264D01*
X0170140Y0100610D01*
X0171406Y0099344D01*
X0173059Y0098659D01*
X0174850Y0098659D01*
X0176504Y0099344D01*
X0177033Y0099874D01*
X0177033Y0096444D01*
X0176504Y0096974D01*
X0174850Y0097659D01*
X0173059Y0097659D01*
X0171406Y0096974D01*
X0170140Y0095708D01*
X0169455Y0094054D01*
X0169455Y0092264D01*
X0170140Y0090610D01*
X0171406Y0089344D01*
X0173059Y0088659D01*
X0174850Y0088659D01*
X0176504Y0089344D01*
X0177033Y0089874D01*
X0177033Y0086444D01*
X0176504Y0086974D01*
X0174850Y0087659D01*
X0173059Y0087659D01*
X0171406Y0086974D01*
X0170140Y0085708D01*
X0169455Y0084054D01*
X0169455Y0082264D01*
X0170140Y0080610D01*
X0171406Y0079344D01*
X0173059Y0078659D01*
X0174850Y0078659D01*
X0176504Y0079344D01*
X0177033Y0079874D01*
X0177033Y0076444D01*
X0176504Y0076974D01*
X0174850Y0077659D01*
X0173059Y0077659D01*
X0171406Y0076974D01*
X0170140Y0075708D01*
X0169455Y0074054D01*
X0169455Y0072264D01*
X0170140Y0070610D01*
X0171406Y0069344D01*
X0173059Y0068659D01*
X0174850Y0068659D01*
X0176504Y0069344D01*
X0177033Y0069874D01*
X0177033Y0066444D01*
X0176504Y0066974D01*
X0174850Y0067659D01*
X0173059Y0067659D01*
X0171406Y0066974D01*
X0170140Y0065708D01*
X0169455Y0064054D01*
X0169455Y0062264D01*
X0170140Y0060610D01*
X0171406Y0059344D01*
X0173059Y0058659D01*
X0174850Y0058659D01*
X0176504Y0059344D01*
X0177033Y0059874D01*
X0177033Y0056444D01*
X0176504Y0056974D01*
X0174850Y0057659D01*
X0173059Y0057659D01*
X0171406Y0056974D01*
X0170140Y0055708D01*
X0169455Y0054054D01*
X0169455Y0052264D01*
X0170140Y0050610D01*
X0171406Y0049344D01*
X0173059Y0048659D01*
X0174850Y0048659D01*
X0176504Y0049344D01*
X0177033Y0049874D01*
X0177033Y0046444D01*
X0176504Y0046974D01*
X0174850Y0047659D01*
X0173059Y0047659D01*
X0171406Y0046974D01*
X0170140Y0045708D01*
X0169455Y0044054D01*
X0169455Y0042264D01*
X0170140Y0040610D01*
X0170220Y0040529D01*
X0169270Y0040923D01*
X0168196Y0040923D01*
X0167838Y0040774D01*
X0168455Y0042264D01*
X0168455Y0044054D01*
X0167770Y0045708D01*
X0166504Y0046974D01*
X0164850Y0047659D01*
X0163059Y0047659D01*
X0161406Y0046974D01*
X0160140Y0045708D01*
X0159455Y0044054D01*
X0159455Y0042264D01*
X0160140Y0040610D01*
X0161406Y0039344D01*
X0163059Y0038659D01*
X0164850Y0038659D01*
X0166228Y0039230D01*
X0166033Y0038760D01*
X0166033Y0037685D01*
X0166292Y0037061D01*
X0164850Y0037659D01*
X0163059Y0037659D01*
X0161406Y0036974D01*
X0160140Y0035708D01*
X0159455Y0034054D01*
X0159455Y0032264D01*
X0160140Y0030610D01*
X0161406Y0029344D01*
X0163059Y0028659D01*
X0164850Y0028659D01*
X0166504Y0029344D01*
X0167770Y0030610D01*
X0168455Y0032264D01*
X0168455Y0034054D01*
X0167774Y0035698D01*
X0168196Y0035523D01*
X0169270Y0035523D01*
X0170263Y0035934D01*
X0171022Y0036693D01*
X0171433Y0037685D01*
X0171433Y0038760D01*
X0171040Y0039710D01*
X0171406Y0039344D01*
X0173059Y0038659D01*
X0174850Y0038659D01*
X0176504Y0039344D01*
X0177033Y0039874D01*
X0177033Y0036444D01*
X0176504Y0036974D01*
X0174850Y0037659D01*
X0173059Y0037659D01*
X0171406Y0036974D01*
X0170140Y0035708D01*
X0169455Y0034054D01*
X0169455Y0032264D01*
X0170140Y0030610D01*
X0171406Y0029344D01*
X0173059Y0028659D01*
X0174850Y0028659D01*
X0176504Y0029344D01*
X0177033Y0029874D01*
X0177033Y0026444D01*
X0176886Y0026591D01*
X0176313Y0027008D01*
X0175682Y0027329D01*
X0175008Y0027548D01*
X0174455Y0027636D01*
X0174455Y0023659D01*
X0173455Y0023659D01*
X0173455Y0027636D01*
X0172901Y0027548D01*
X0172227Y0027329D01*
X0171596Y0027008D01*
X0171023Y0026591D01*
X0170522Y0026090D01*
X0170106Y0025517D01*
X0169784Y0024886D01*
X0169565Y0024213D01*
X0169478Y0023659D01*
X0173455Y0023659D01*
X0173455Y0022923D01*
X0164455Y0022923D01*
X0164455Y0023659D01*
X0168431Y0023659D01*
X0168344Y0024213D01*
X0168125Y0024886D01*
X0167803Y0025517D01*
X0167387Y0026090D01*
X0166886Y0026591D01*
X0166313Y0027008D01*
X0165682Y0027329D01*
X0165008Y0027548D01*
X0164455Y0027636D01*
X0164455Y0023659D01*
X0163455Y0023659D01*
X0163455Y0027636D01*
X0162901Y0027548D01*
X0162227Y0027329D01*
X0161596Y0027008D01*
X0161023Y0026591D01*
X0160522Y0026090D01*
X0160106Y0025517D01*
X0159784Y0024886D01*
X0159565Y0024213D01*
X0159478Y0023659D01*
X0163455Y0023659D01*
X0163455Y0022923D01*
X0038455Y0022923D01*
X0038455Y0024054D01*
X0037770Y0025708D01*
X0036504Y0026974D01*
X0034850Y0027659D01*
X0033059Y0027659D01*
X0031406Y0026974D01*
X0030140Y0025708D01*
X0029455Y0024054D01*
X0029455Y0022923D01*
X0024455Y0022923D01*
X0024455Y0023659D01*
X0028431Y0023659D01*
X0028344Y0024213D01*
X0028125Y0024886D01*
X0027803Y0025517D01*
X0027387Y0026090D01*
X0026886Y0026591D01*
X0026313Y0027008D01*
X0025682Y0027329D01*
X0025008Y0027548D01*
X0024455Y0027636D01*
X0024455Y0023659D01*
X0023455Y0023659D01*
X0023455Y0023917D02*
X0024455Y0023917D01*
X0024455Y0024915D02*
X0023455Y0024915D01*
X0023455Y0025914D02*
X0024455Y0025914D01*
X0024455Y0026912D02*
X0023455Y0026912D01*
X0022033Y0027911D02*
X0070918Y0027911D01*
X0070918Y0028493D02*
X0070918Y0026793D01*
X0071569Y0025223D01*
X0072770Y0024022D01*
X0074340Y0023371D01*
X0076040Y0023371D01*
X0077610Y0024022D01*
X0078811Y0025223D01*
X0079462Y0026793D01*
X0079462Y0028493D01*
X0079447Y0028529D01*
X0079462Y0028565D01*
X0079462Y0030264D01*
X0079324Y0030596D01*
X0079462Y0030927D01*
X0079462Y0032627D01*
X0079447Y0032663D01*
X0079462Y0032699D01*
X0079462Y0034398D01*
X0078811Y0035968D01*
X0077610Y0037170D01*
X0076040Y0037820D01*
X0074340Y0037820D01*
X0072770Y0037170D01*
X0071569Y0035968D01*
X0070918Y0034398D01*
X0070918Y0032699D01*
X0070933Y0032663D01*
X0070918Y0032627D01*
X0070918Y0030927D01*
X0071056Y0030596D01*
X0070918Y0030264D01*
X0070918Y0028565D01*
X0070933Y0028529D01*
X0070918Y0028493D01*
X0070918Y0028909D02*
X0056538Y0028909D01*
X0056822Y0029193D02*
X0057233Y0030185D01*
X0057233Y0031260D01*
X0056822Y0032252D01*
X0056063Y0033012D01*
X0055070Y0033423D01*
X0053996Y0033423D01*
X0053004Y0033012D01*
X0052244Y0032252D01*
X0051833Y0031260D01*
X0051833Y0030185D01*
X0052244Y0029193D01*
X0053004Y0028434D01*
X0053996Y0028023D01*
X0055070Y0028023D01*
X0056063Y0028434D01*
X0056822Y0029193D01*
X0057118Y0029908D02*
X0070918Y0029908D01*
X0070927Y0030906D02*
X0057233Y0030906D01*
X0056966Y0031905D02*
X0070918Y0031905D01*
X0070918Y0032903D02*
X0056171Y0032903D01*
X0052896Y0032903D02*
X0038455Y0032903D01*
X0038455Y0033902D02*
X0070918Y0033902D01*
X0071126Y0034900D02*
X0038104Y0034900D01*
X0037579Y0035899D02*
X0071540Y0035899D01*
X0072498Y0036897D02*
X0036580Y0036897D01*
X0035418Y0038894D02*
X0123933Y0038894D01*
X0123933Y0038385D02*
X0123933Y0039460D01*
X0124344Y0040452D01*
X0125104Y0041212D01*
X0126096Y0041623D01*
X0127170Y0041623D01*
X0128163Y0041212D01*
X0128922Y0040452D01*
X0129333Y0039460D01*
X0129333Y0038385D01*
X0128922Y0037393D01*
X0128163Y0036634D01*
X0127170Y0036223D01*
X0126096Y0036223D01*
X0125104Y0036634D01*
X0124344Y0037393D01*
X0123933Y0038385D01*
X0124136Y0037896D02*
X0031518Y0037896D01*
X0031080Y0038894D02*
X0032491Y0038894D01*
X0033059Y0038659D02*
X0031406Y0039344D01*
X0030140Y0040610D01*
X0029455Y0042264D01*
X0029455Y0044054D01*
X0030140Y0045708D01*
X0031406Y0046974D01*
X0033059Y0047659D01*
X0034850Y0047659D01*
X0036504Y0046974D01*
X0037770Y0045708D01*
X0038455Y0044054D01*
X0038455Y0042264D01*
X0037770Y0040610D01*
X0036504Y0039344D01*
X0034850Y0038659D01*
X0033059Y0038659D01*
X0030857Y0039893D02*
X0029684Y0039893D01*
X0030023Y0040891D02*
X0027886Y0040891D01*
X0027983Y0039893D02*
X0027053Y0039893D01*
X0026587Y0038894D02*
X0025418Y0038894D01*
X0026148Y0037896D02*
X0022033Y0037896D01*
X0022033Y0038894D02*
X0022491Y0038894D01*
X0028300Y0041890D02*
X0029609Y0041890D01*
X0029455Y0042888D02*
X0028455Y0042888D01*
X0028455Y0043887D02*
X0029455Y0043887D01*
X0029799Y0044885D02*
X0028110Y0044885D01*
X0027593Y0045884D02*
X0030316Y0045884D01*
X0031314Y0046882D02*
X0026595Y0046882D01*
X0025382Y0048879D02*
X0032527Y0048879D01*
X0033059Y0048659D02*
X0031406Y0049344D01*
X0030140Y0050610D01*
X0029455Y0052264D01*
X0029455Y0054054D01*
X0030140Y0055708D01*
X0031406Y0056974D01*
X0033059Y0057659D01*
X0034850Y0057659D01*
X0036504Y0056974D01*
X0037770Y0055708D01*
X0038455Y0054054D01*
X0038455Y0052264D01*
X0037770Y0050610D01*
X0036504Y0049344D01*
X0034850Y0048659D01*
X0033059Y0048659D01*
X0035382Y0048879D02*
X0071473Y0048879D01*
X0071569Y0048649D02*
X0072770Y0047447D01*
X0074340Y0046797D01*
X0076040Y0046797D01*
X0077610Y0047447D01*
X0078811Y0048649D01*
X0079462Y0050219D01*
X0079462Y0051918D01*
X0079447Y0051954D01*
X0079462Y0051990D01*
X0079462Y0053690D01*
X0079324Y0054021D01*
X0079462Y0054352D01*
X0079462Y0056052D01*
X0079447Y0056088D01*
X0079462Y0056124D01*
X0079462Y0057823D01*
X0078811Y0059393D01*
X0077610Y0060595D01*
X0076040Y0061245D01*
X0074340Y0061245D01*
X0072770Y0060595D01*
X0071682Y0059507D01*
X0071622Y0059652D01*
X0070863Y0060412D01*
X0069870Y0060823D01*
X0068796Y0060823D01*
X0067804Y0060412D01*
X0067044Y0059652D01*
X0066633Y0058660D01*
X0066633Y0057585D01*
X0067044Y0056593D01*
X0067804Y0055834D01*
X0068796Y0055423D01*
X0069870Y0055423D01*
X0070863Y0055834D01*
X0070918Y0055889D01*
X0070918Y0054352D01*
X0071056Y0054021D01*
X0070918Y0053690D01*
X0070918Y0051990D01*
X0070933Y0051954D01*
X0070918Y0051918D01*
X0070918Y0050219D01*
X0071569Y0048649D01*
X0071354Y0047881D02*
X0072336Y0047881D01*
X0071763Y0047712D02*
X0070770Y0048123D01*
X0069696Y0048123D01*
X0068704Y0047712D01*
X0067944Y0046952D01*
X0067533Y0045960D01*
X0067533Y0044885D01*
X0038110Y0044885D01*
X0038455Y0043887D02*
X0067951Y0043887D01*
X0067944Y0043893D02*
X0067965Y0043873D01*
X0067644Y0043552D01*
X0067233Y0042560D01*
X0067233Y0041485D01*
X0067644Y0040493D01*
X0068404Y0039734D01*
X0069396Y0039323D01*
X0070470Y0039323D01*
X0071463Y0039734D01*
X0072222Y0040493D01*
X0072633Y0041485D01*
X0072633Y0042560D01*
X0072222Y0043552D01*
X0072202Y0043573D01*
X0072522Y0043893D01*
X0072933Y0044885D01*
X0139033Y0044885D01*
X0139033Y0044385D02*
X0139444Y0043393D01*
X0140204Y0042634D01*
X0141196Y0042223D01*
X0142270Y0042223D01*
X0143263Y0042634D01*
X0144022Y0043393D01*
X0144433Y0044385D01*
X0144433Y0045460D01*
X0144022Y0046452D01*
X0143263Y0047212D01*
X0142270Y0047623D01*
X0141196Y0047623D01*
X0140204Y0047212D01*
X0139444Y0046452D01*
X0139033Y0045460D01*
X0139033Y0044385D01*
X0139240Y0043887D02*
X0072516Y0043887D01*
X0072497Y0042888D02*
X0139949Y0042888D01*
X0143517Y0042888D02*
X0159455Y0042888D01*
X0159455Y0043887D02*
X0144227Y0043887D01*
X0144433Y0044885D02*
X0159799Y0044885D01*
X0160316Y0045884D02*
X0144258Y0045884D01*
X0143592Y0046882D02*
X0161314Y0046882D01*
X0162527Y0048879D02*
X0135994Y0048879D01*
X0135898Y0048649D02*
X0136548Y0050219D01*
X0136548Y0051918D01*
X0136533Y0051954D01*
X0136548Y0051990D01*
X0136548Y0053690D01*
X0136411Y0054021D01*
X0136548Y0054352D01*
X0136548Y0056052D01*
X0136533Y0056088D01*
X0136548Y0056124D01*
X0136548Y0057823D01*
X0135898Y0059393D01*
X0134696Y0060595D01*
X0133126Y0061245D01*
X0131427Y0061245D01*
X0129857Y0060595D01*
X0128655Y0059393D01*
X0128005Y0057823D01*
X0128005Y0056124D01*
X0128020Y0056088D01*
X0128005Y0056052D01*
X0128005Y0054352D01*
X0128142Y0054021D01*
X0128005Y0053690D01*
X0128005Y0051990D01*
X0128020Y0051954D01*
X0128005Y0051918D01*
X0128005Y0050219D01*
X0128655Y0048649D01*
X0129857Y0047447D01*
X0131427Y0046797D01*
X0133126Y0046797D01*
X0134696Y0047447D01*
X0135898Y0048649D01*
X0135130Y0047881D02*
X0177033Y0047881D01*
X0177033Y0048879D02*
X0175382Y0048879D01*
X0176595Y0046882D02*
X0177033Y0046882D01*
X0172527Y0048879D02*
X0165382Y0048879D01*
X0164850Y0048659D02*
X0166504Y0049344D01*
X0167770Y0050610D01*
X0168455Y0052264D01*
X0168455Y0054054D01*
X0167770Y0055708D01*
X0166504Y0056974D01*
X0164850Y0057659D01*
X0163059Y0057659D01*
X0161406Y0056974D01*
X0160140Y0055708D01*
X0159455Y0054054D01*
X0159455Y0052264D01*
X0160140Y0050610D01*
X0161406Y0049344D01*
X0163059Y0048659D01*
X0164850Y0048659D01*
X0166595Y0046882D02*
X0171314Y0046882D01*
X0170316Y0045884D02*
X0167593Y0045884D01*
X0168110Y0044885D02*
X0169799Y0044885D01*
X0169455Y0043887D02*
X0168455Y0043887D01*
X0168455Y0042888D02*
X0169455Y0042888D01*
X0169609Y0041890D02*
X0168300Y0041890D01*
X0168121Y0040891D02*
X0167886Y0040891D01*
X0169346Y0040891D02*
X0170023Y0040891D01*
X0171378Y0038894D02*
X0172491Y0038894D01*
X0171433Y0037896D02*
X0177033Y0037896D01*
X0177033Y0038894D02*
X0175418Y0038894D01*
X0176580Y0036897D02*
X0177033Y0036897D01*
X0171329Y0036897D02*
X0171107Y0036897D01*
X0170331Y0035899D02*
X0170179Y0035899D01*
X0169805Y0034900D02*
X0168104Y0034900D01*
X0168455Y0033902D02*
X0169455Y0033902D01*
X0169455Y0032903D02*
X0168455Y0032903D01*
X0168306Y0031905D02*
X0169603Y0031905D01*
X0170017Y0030906D02*
X0167892Y0030906D01*
X0167067Y0029908D02*
X0170842Y0029908D01*
X0172455Y0028909D02*
X0165454Y0028909D01*
X0166444Y0026912D02*
X0171465Y0026912D01*
X0170394Y0025914D02*
X0167515Y0025914D01*
X0168110Y0024915D02*
X0169799Y0024915D01*
X0169519Y0023917D02*
X0168391Y0023917D01*
X0164455Y0023917D02*
X0163455Y0023917D01*
X0163455Y0024915D02*
X0164455Y0024915D01*
X0164455Y0025914D02*
X0163455Y0025914D01*
X0163455Y0026912D02*
X0164455Y0026912D01*
X0162455Y0028909D02*
X0136548Y0028909D01*
X0136548Y0028565D02*
X0136548Y0030264D01*
X0136411Y0030596D01*
X0136548Y0030927D01*
X0136548Y0032627D01*
X0136533Y0032663D01*
X0136548Y0032699D01*
X0136548Y0034398D01*
X0135898Y0035968D01*
X0134696Y0037170D01*
X0133126Y0037820D01*
X0131427Y0037820D01*
X0129857Y0037170D01*
X0128655Y0035968D01*
X0128005Y0034398D01*
X0128005Y0032699D01*
X0128020Y0032663D01*
X0128005Y0032627D01*
X0128005Y0030927D01*
X0128142Y0030596D01*
X0128005Y0030264D01*
X0128005Y0028565D01*
X0128020Y0028529D01*
X0128005Y0028493D01*
X0128005Y0026793D01*
X0128655Y0025223D01*
X0129857Y0024022D01*
X0131427Y0023371D01*
X0133126Y0023371D01*
X0134696Y0024022D01*
X0135898Y0025223D01*
X0136548Y0026793D01*
X0136548Y0028493D01*
X0136533Y0028529D01*
X0136548Y0028565D01*
X0136548Y0027911D02*
X0177033Y0027911D01*
X0177033Y0028909D02*
X0175454Y0028909D01*
X0176444Y0026912D02*
X0177033Y0026912D01*
X0174455Y0026912D02*
X0173455Y0026912D01*
X0173455Y0025914D02*
X0174455Y0025914D01*
X0174455Y0024915D02*
X0173455Y0024915D01*
X0173455Y0023917D02*
X0174455Y0023917D01*
X0166033Y0037896D02*
X0129130Y0037896D01*
X0129333Y0038894D02*
X0162491Y0038894D01*
X0160857Y0039893D02*
X0129154Y0039893D01*
X0128483Y0040891D02*
X0160023Y0040891D01*
X0159609Y0041890D02*
X0072633Y0041890D01*
X0072387Y0040891D02*
X0124784Y0040891D01*
X0124113Y0039893D02*
X0071622Y0039893D01*
X0068245Y0039893D02*
X0037053Y0039893D01*
X0037886Y0040891D02*
X0067479Y0040891D01*
X0067233Y0041890D02*
X0038300Y0041890D01*
X0038455Y0042888D02*
X0067369Y0042888D01*
X0067944Y0043893D02*
X0067533Y0044885D01*
X0067533Y0045884D02*
X0037593Y0045884D01*
X0036595Y0046882D02*
X0067916Y0046882D01*
X0069113Y0047881D02*
X0022033Y0047881D01*
X0022033Y0048879D02*
X0022527Y0048879D01*
X0027038Y0049878D02*
X0030871Y0049878D01*
X0030029Y0050876D02*
X0027880Y0050876D01*
X0028294Y0051875D02*
X0029616Y0051875D01*
X0029455Y0052873D02*
X0028455Y0052873D01*
X0028455Y0053872D02*
X0029455Y0053872D01*
X0029793Y0054870D02*
X0028116Y0054870D01*
X0027608Y0055869D02*
X0030301Y0055869D01*
X0031299Y0056867D02*
X0026610Y0056867D01*
X0025346Y0058865D02*
X0032563Y0058865D01*
X0033059Y0058659D02*
X0031406Y0059344D01*
X0030140Y0060610D01*
X0029455Y0062264D01*
X0029455Y0064054D01*
X0030140Y0065708D01*
X0031406Y0066974D01*
X0033059Y0067659D01*
X0034850Y0067659D01*
X0036504Y0066974D01*
X0037770Y0065708D01*
X0038455Y0064054D01*
X0038455Y0062264D01*
X0037770Y0060610D01*
X0036504Y0059344D01*
X0034850Y0058659D01*
X0033059Y0058659D01*
X0035346Y0058865D02*
X0066718Y0058865D01*
X0066633Y0057866D02*
X0022033Y0057866D01*
X0022033Y0058865D02*
X0022563Y0058865D01*
X0027023Y0059863D02*
X0030886Y0059863D01*
X0030035Y0060862D02*
X0027874Y0060862D01*
X0028287Y0061860D02*
X0029622Y0061860D01*
X0029455Y0062859D02*
X0028455Y0062859D01*
X0028455Y0063857D02*
X0029455Y0063857D01*
X0029787Y0064856D02*
X0028123Y0064856D01*
X0027623Y0065854D02*
X0030286Y0065854D01*
X0031284Y0066853D02*
X0026625Y0066853D01*
X0025310Y0068850D02*
X0032599Y0068850D01*
X0033059Y0068659D02*
X0031406Y0069344D01*
X0030140Y0070610D01*
X0029455Y0072264D01*
X0029455Y0074054D01*
X0030140Y0075708D01*
X0031406Y0076974D01*
X0033059Y0077659D01*
X0034850Y0077659D01*
X0036504Y0076974D01*
X0037770Y0075708D01*
X0038455Y0074054D01*
X0038455Y0072264D01*
X0037770Y0070610D01*
X0036504Y0069344D01*
X0034850Y0068659D01*
X0033059Y0068659D01*
X0035310Y0068850D02*
X0077833Y0068850D01*
X0077833Y0068960D02*
X0077833Y0067885D01*
X0078244Y0066893D01*
X0079004Y0066134D01*
X0079996Y0065723D01*
X0081070Y0065723D01*
X0082063Y0066134D01*
X0082822Y0066893D01*
X0083233Y0067885D01*
X0083233Y0068960D01*
X0082822Y0069952D01*
X0082063Y0070712D01*
X0081070Y0071123D01*
X0079996Y0071123D01*
X0079004Y0070712D01*
X0078244Y0069952D01*
X0077833Y0068960D01*
X0078201Y0069848D02*
X0037008Y0069848D01*
X0037868Y0070847D02*
X0079330Y0070847D01*
X0081737Y0070847D02*
X0160042Y0070847D01*
X0160140Y0070610D02*
X0161406Y0069344D01*
X0163059Y0068659D01*
X0164850Y0068659D01*
X0166504Y0069344D01*
X0167770Y0070610D01*
X0168455Y0072264D01*
X0168455Y0074054D01*
X0167770Y0075708D01*
X0166504Y0076974D01*
X0164850Y0077659D01*
X0163059Y0077659D01*
X0161406Y0076974D01*
X0160140Y0075708D01*
X0159455Y0074054D01*
X0159455Y0072264D01*
X0160140Y0070610D01*
X0160901Y0069848D02*
X0082865Y0069848D01*
X0083233Y0068850D02*
X0093942Y0068850D01*
X0094104Y0069012D02*
X0093344Y0068252D01*
X0092933Y0067260D01*
X0092933Y0066185D01*
X0093344Y0065193D01*
X0094104Y0064434D01*
X0095096Y0064023D01*
X0096170Y0064023D01*
X0097163Y0064434D01*
X0097922Y0065193D01*
X0098333Y0066185D01*
X0098333Y0067260D01*
X0097922Y0068252D01*
X0097163Y0069012D01*
X0096170Y0069423D01*
X0095096Y0069423D01*
X0094104Y0069012D01*
X0093178Y0067851D02*
X0083219Y0067851D01*
X0082782Y0066853D02*
X0092933Y0066853D01*
X0093071Y0065854D02*
X0081388Y0065854D01*
X0079679Y0065854D02*
X0037623Y0065854D01*
X0038123Y0064856D02*
X0093682Y0064856D01*
X0097585Y0064856D02*
X0159787Y0064856D01*
X0159455Y0064054D02*
X0159455Y0062264D01*
X0160140Y0060610D01*
X0161406Y0059344D01*
X0163059Y0058659D01*
X0164850Y0058659D01*
X0166504Y0059344D01*
X0167770Y0060610D01*
X0168455Y0062264D01*
X0168455Y0064054D01*
X0167770Y0065708D01*
X0166504Y0066974D01*
X0164850Y0067659D01*
X0163059Y0067659D01*
X0161406Y0066974D01*
X0160140Y0065708D01*
X0159455Y0064054D01*
X0159455Y0063857D02*
X0038455Y0063857D01*
X0038455Y0062859D02*
X0159455Y0062859D01*
X0159622Y0061860D02*
X0038287Y0061860D01*
X0037874Y0060862D02*
X0073414Y0060862D01*
X0072038Y0059863D02*
X0071411Y0059863D01*
X0070918Y0055869D02*
X0070898Y0055869D01*
X0070918Y0054870D02*
X0038116Y0054870D01*
X0038455Y0053872D02*
X0070994Y0053872D01*
X0070918Y0052873D02*
X0038455Y0052873D01*
X0038294Y0051875D02*
X0070918Y0051875D01*
X0070918Y0050876D02*
X0037880Y0050876D01*
X0037038Y0049878D02*
X0071059Y0049878D01*
X0071763Y0047712D02*
X0072522Y0046952D01*
X0072933Y0045960D01*
X0072933Y0044885D01*
X0072933Y0045884D02*
X0139209Y0045884D01*
X0139875Y0046882D02*
X0133333Y0046882D01*
X0131220Y0046882D02*
X0076247Y0046882D01*
X0078044Y0047881D02*
X0129423Y0047881D01*
X0128560Y0048879D02*
X0078907Y0048879D01*
X0079321Y0049878D02*
X0128146Y0049878D01*
X0128005Y0050876D02*
X0079462Y0050876D01*
X0079462Y0051875D02*
X0128005Y0051875D01*
X0128005Y0052873D02*
X0079462Y0052873D01*
X0079386Y0053872D02*
X0128081Y0053872D01*
X0128005Y0054870D02*
X0079462Y0054870D01*
X0079462Y0055869D02*
X0128005Y0055869D01*
X0128005Y0056867D02*
X0079462Y0056867D01*
X0079444Y0057866D02*
X0128023Y0057866D01*
X0128436Y0058865D02*
X0079030Y0058865D01*
X0078342Y0059863D02*
X0129125Y0059863D01*
X0130500Y0060862D02*
X0076966Y0060862D01*
X0078285Y0066853D02*
X0036625Y0066853D01*
X0038281Y0071845D02*
X0159628Y0071845D01*
X0159455Y0072844D02*
X0038455Y0072844D01*
X0038455Y0073842D02*
X0159455Y0073842D01*
X0159780Y0074841D02*
X0038129Y0074841D01*
X0037638Y0075839D02*
X0160271Y0075839D01*
X0161270Y0076838D02*
X0036640Y0076838D01*
X0035274Y0078835D02*
X0043323Y0078835D01*
X0042965Y0079193D02*
X0043724Y0078434D01*
X0044717Y0078023D01*
X0045791Y0078023D01*
X0046783Y0078434D01*
X0047543Y0079193D01*
X0047954Y0080185D01*
X0047954Y0081260D01*
X0047543Y0082252D01*
X0046783Y0083012D01*
X0045791Y0083423D01*
X0044717Y0083423D01*
X0043724Y0083012D01*
X0042965Y0082252D01*
X0042554Y0081260D01*
X0042554Y0080185D01*
X0042965Y0079193D01*
X0042700Y0079833D02*
X0036993Y0079833D01*
X0036504Y0079344D02*
X0037770Y0080610D01*
X0038455Y0082264D01*
X0038455Y0084054D01*
X0037770Y0085708D01*
X0036504Y0086974D01*
X0034850Y0087659D01*
X0033059Y0087659D01*
X0031406Y0086974D01*
X0030140Y0085708D01*
X0029455Y0084054D01*
X0029455Y0082264D01*
X0030140Y0080610D01*
X0031406Y0079344D01*
X0033059Y0078659D01*
X0034850Y0078659D01*
X0036504Y0079344D01*
X0037861Y0080832D02*
X0042554Y0080832D01*
X0042790Y0081830D02*
X0038275Y0081830D01*
X0038455Y0082829D02*
X0043542Y0082829D01*
X0046966Y0082829D02*
X0094321Y0082829D01*
X0094404Y0082912D02*
X0093644Y0082152D01*
X0093233Y0081160D01*
X0093233Y0080085D01*
X0093644Y0079093D01*
X0094404Y0078334D01*
X0095396Y0077923D01*
X0096470Y0077923D01*
X0097463Y0078334D01*
X0098222Y0079093D01*
X0098633Y0080085D01*
X0098633Y0081160D01*
X0098222Y0082152D01*
X0097811Y0082564D01*
X0098463Y0082834D01*
X0099222Y0083593D01*
X0099633Y0084585D01*
X0099633Y0085660D01*
X0099222Y0086652D01*
X0098463Y0087412D01*
X0097470Y0087823D01*
X0096396Y0087823D01*
X0095404Y0087412D01*
X0094644Y0086652D01*
X0094233Y0085660D01*
X0094233Y0084585D01*
X0094644Y0083593D01*
X0095056Y0083182D01*
X0094404Y0082912D01*
X0094547Y0083827D02*
X0038455Y0083827D01*
X0038135Y0084826D02*
X0094233Y0084826D01*
X0094302Y0085824D02*
X0037653Y0085824D01*
X0036655Y0086823D02*
X0071115Y0086823D01*
X0071204Y0086734D02*
X0072196Y0086323D01*
X0073270Y0086323D01*
X0074263Y0086734D01*
X0075022Y0087493D01*
X0075433Y0088485D01*
X0075433Y0089560D01*
X0075022Y0090552D01*
X0074263Y0091312D01*
X0073270Y0091723D01*
X0072196Y0091723D01*
X0071204Y0091312D01*
X0070444Y0090552D01*
X0070033Y0089560D01*
X0070033Y0088485D01*
X0070444Y0087493D01*
X0071204Y0086734D01*
X0070308Y0087821D02*
X0046271Y0087821D01*
X0045791Y0087623D02*
X0046783Y0088034D01*
X0047543Y0088793D01*
X0047954Y0089785D01*
X0047954Y0090860D01*
X0047543Y0091852D01*
X0046783Y0092612D01*
X0045791Y0093023D01*
X0044717Y0093023D01*
X0043724Y0092612D01*
X0042965Y0091852D01*
X0042554Y0090860D01*
X0042554Y0089785D01*
X0042965Y0088793D01*
X0043724Y0088034D01*
X0044717Y0087623D01*
X0045791Y0087623D01*
X0044237Y0087821D02*
X0022033Y0087821D01*
X0022033Y0088820D02*
X0022671Y0088820D01*
X0025239Y0088820D02*
X0032671Y0088820D01*
X0033059Y0088659D02*
X0031406Y0089344D01*
X0030140Y0090610D01*
X0029455Y0092264D01*
X0029455Y0094054D01*
X0030140Y0095708D01*
X0031406Y0096974D01*
X0033059Y0097659D01*
X0034850Y0097659D01*
X0036504Y0096974D01*
X0037770Y0095708D01*
X0038455Y0094054D01*
X0038455Y0092264D01*
X0037770Y0090610D01*
X0036504Y0089344D01*
X0034850Y0088659D01*
X0033059Y0088659D01*
X0035239Y0088820D02*
X0042954Y0088820D01*
X0042554Y0089818D02*
X0036978Y0089818D01*
X0037855Y0090817D02*
X0042554Y0090817D01*
X0042950Y0091815D02*
X0038269Y0091815D01*
X0038455Y0092814D02*
X0044213Y0092814D01*
X0046295Y0092814D02*
X0104121Y0092814D01*
X0103933Y0092360D02*
X0103933Y0091285D01*
X0104344Y0090293D01*
X0105104Y0089534D01*
X0106096Y0089123D01*
X0107170Y0089123D01*
X0108163Y0089534D01*
X0108922Y0090293D01*
X0109333Y0091285D01*
X0109333Y0092360D01*
X0108922Y0093352D01*
X0108163Y0094112D01*
X0107170Y0094523D01*
X0106096Y0094523D01*
X0105104Y0094112D01*
X0104344Y0093352D01*
X0103933Y0092360D01*
X0103933Y0091815D02*
X0047558Y0091815D01*
X0047954Y0090817D02*
X0070709Y0090817D01*
X0070141Y0089818D02*
X0047954Y0089818D01*
X0047554Y0088820D02*
X0070033Y0088820D01*
X0074352Y0086823D02*
X0094815Y0086823D01*
X0096393Y0087821D02*
X0075158Y0087821D01*
X0075433Y0088820D02*
X0121118Y0088820D01*
X0120944Y0088993D02*
X0121704Y0088234D01*
X0122696Y0087823D01*
X0123770Y0087823D01*
X0124763Y0088234D01*
X0125522Y0088993D01*
X0125933Y0089985D01*
X0125933Y0091060D01*
X0125522Y0092052D01*
X0124763Y0092812D01*
X0123770Y0093223D01*
X0122696Y0093223D01*
X0121704Y0092812D01*
X0120944Y0092052D01*
X0120533Y0091060D01*
X0120533Y0089985D01*
X0120944Y0088993D01*
X0120603Y0089818D02*
X0108447Y0089818D01*
X0109139Y0090817D02*
X0120533Y0090817D01*
X0120846Y0091815D02*
X0109333Y0091815D01*
X0109145Y0092814D02*
X0121710Y0092814D01*
X0124757Y0092814D02*
X0127229Y0092814D01*
X0127033Y0093285D02*
X0127444Y0092293D01*
X0128204Y0091534D01*
X0129196Y0091123D01*
X0130270Y0091123D01*
X0131263Y0091534D01*
X0132022Y0092293D01*
X0132433Y0093285D01*
X0132433Y0094360D01*
X0132022Y0095352D01*
X0131263Y0096112D01*
X0130270Y0096523D01*
X0129196Y0096523D01*
X0128204Y0096112D01*
X0127444Y0095352D01*
X0127033Y0094360D01*
X0127033Y0093285D01*
X0127033Y0093812D02*
X0108462Y0093812D01*
X0104805Y0093812D02*
X0038455Y0093812D01*
X0038141Y0094811D02*
X0127220Y0094811D01*
X0127902Y0095809D02*
X0037668Y0095809D01*
X0036669Y0096808D02*
X0140733Y0096808D01*
X0140733Y0097260D02*
X0140733Y0096185D01*
X0141144Y0095193D01*
X0141904Y0094434D01*
X0142896Y0094023D01*
X0143970Y0094023D01*
X0144963Y0094434D01*
X0145722Y0095193D01*
X0146133Y0096185D01*
X0146133Y0097260D01*
X0145722Y0098252D01*
X0144963Y0099012D01*
X0143970Y0099423D01*
X0143853Y0099423D01*
X0144363Y0099634D01*
X0145122Y0100393D01*
X0145533Y0101385D01*
X0145533Y0102460D01*
X0145122Y0103452D01*
X0144363Y0104212D01*
X0143370Y0104623D01*
X0142296Y0104623D01*
X0141304Y0104212D01*
X0140544Y0103452D01*
X0140133Y0102460D01*
X0140133Y0101385D01*
X0140544Y0100393D01*
X0141304Y0099634D01*
X0142296Y0099223D01*
X0142413Y0099223D01*
X0141904Y0099012D01*
X0141144Y0098252D01*
X0140733Y0097260D01*
X0140960Y0097806D02*
X0022033Y0097806D01*
X0022033Y0098805D02*
X0022707Y0098805D01*
X0025203Y0098805D02*
X0032707Y0098805D01*
X0033059Y0098659D02*
X0034850Y0098659D01*
X0036504Y0099344D01*
X0037770Y0100610D01*
X0038455Y0102264D01*
X0038455Y0104054D01*
X0037770Y0105708D01*
X0036504Y0106974D01*
X0034850Y0107659D01*
X0033059Y0107659D01*
X0031406Y0106974D01*
X0030140Y0105708D01*
X0029455Y0104054D01*
X0029455Y0102264D01*
X0030140Y0100610D01*
X0031406Y0099344D01*
X0033059Y0098659D01*
X0035203Y0098805D02*
X0141697Y0098805D01*
X0141134Y0099803D02*
X0036963Y0099803D01*
X0037849Y0100802D02*
X0064705Y0100802D01*
X0064896Y0100723D02*
X0065970Y0100723D01*
X0066963Y0101134D01*
X0067722Y0101893D01*
X0068133Y0102885D01*
X0068133Y0103960D01*
X0067722Y0104952D01*
X0066963Y0105712D01*
X0065970Y0106123D01*
X0064896Y0106123D01*
X0063904Y0105712D01*
X0063144Y0104952D01*
X0062733Y0103960D01*
X0062733Y0102885D01*
X0063144Y0101893D01*
X0063904Y0101134D01*
X0064896Y0100723D01*
X0066162Y0100802D02*
X0140375Y0100802D01*
X0140133Y0101800D02*
X0067630Y0101800D01*
X0068097Y0102799D02*
X0140274Y0102799D01*
X0140890Y0103798D02*
X0068133Y0103798D01*
X0067787Y0104796D02*
X0146133Y0104796D01*
X0146133Y0104860D02*
X0146133Y0103785D01*
X0146544Y0102793D01*
X0147304Y0102034D01*
X0148296Y0101623D01*
X0149370Y0101623D01*
X0150363Y0102034D01*
X0151122Y0102793D01*
X0151533Y0103785D01*
X0151533Y0104860D01*
X0151122Y0105852D01*
X0150363Y0106612D01*
X0149370Y0107023D01*
X0148296Y0107023D01*
X0147304Y0106612D01*
X0146544Y0105852D01*
X0146133Y0104860D01*
X0145263Y0105334D02*
X0146022Y0106093D01*
X0146433Y0107085D01*
X0146433Y0107823D01*
X0147070Y0107823D01*
X0148063Y0108234D01*
X0148822Y0108993D01*
X0149233Y0109985D01*
X0149233Y0111060D01*
X0148822Y0112052D01*
X0148152Y0112723D01*
X0148522Y0113093D01*
X0148933Y0114085D01*
X0148933Y0115160D01*
X0148522Y0116152D01*
X0147763Y0116912D01*
X0146770Y0117323D01*
X0145696Y0117323D01*
X0144704Y0116912D01*
X0143944Y0116152D01*
X0143533Y0115160D01*
X0143533Y0114085D01*
X0143944Y0113093D01*
X0144615Y0112423D01*
X0144244Y0112052D01*
X0143833Y0111060D01*
X0143833Y0110323D01*
X0143196Y0110323D01*
X0142204Y0109912D01*
X0141444Y0109152D01*
X0141033Y0108160D01*
X0141033Y0107085D01*
X0141444Y0106093D01*
X0142204Y0105334D01*
X0143196Y0104923D01*
X0144270Y0104923D01*
X0145263Y0105334D01*
X0145724Y0105795D02*
X0146521Y0105795D01*
X0146312Y0106793D02*
X0147742Y0106793D01*
X0146433Y0107792D02*
X0177033Y0107792D01*
X0177033Y0108790D02*
X0175071Y0108790D01*
X0174455Y0108790D02*
X0173455Y0108790D01*
X0173455Y0108682D02*
X0173455Y0112659D01*
X0169478Y0112659D01*
X0169565Y0112105D01*
X0169784Y0111431D01*
X0170106Y0110800D01*
X0170522Y0110227D01*
X0171023Y0109726D01*
X0171596Y0109310D01*
X0172227Y0108988D01*
X0172901Y0108770D01*
X0173455Y0108682D01*
X0172838Y0108790D02*
X0165071Y0108790D01*
X0165008Y0108770D02*
X0165682Y0108988D01*
X0166313Y0109310D01*
X0166886Y0109726D01*
X0167387Y0110227D01*
X0167803Y0110800D01*
X0168125Y0111431D01*
X0168344Y0112105D01*
X0168431Y0112659D01*
X0164455Y0112659D01*
X0164455Y0113659D01*
X0168431Y0113659D01*
X0168344Y0114213D01*
X0168125Y0114886D01*
X0167803Y0115517D01*
X0167387Y0116090D01*
X0166886Y0116591D01*
X0166313Y0117008D01*
X0165682Y0117329D01*
X0165008Y0117548D01*
X0164455Y0117636D01*
X0164455Y0113659D01*
X0163455Y0113659D01*
X0163455Y0117636D01*
X0162901Y0117548D01*
X0162227Y0117329D01*
X0161596Y0117008D01*
X0161023Y0116591D01*
X0160522Y0116090D01*
X0160106Y0115517D01*
X0159784Y0114886D01*
X0159565Y0114213D01*
X0159478Y0113659D01*
X0163455Y0113659D01*
X0163455Y0112659D01*
X0164455Y0112659D01*
X0164455Y0108682D01*
X0165008Y0108770D01*
X0164455Y0108790D02*
X0163455Y0108790D01*
X0163455Y0108682D02*
X0163455Y0112659D01*
X0159478Y0112659D01*
X0159565Y0112105D01*
X0159784Y0111431D01*
X0160106Y0110800D01*
X0160522Y0110227D01*
X0161023Y0109726D01*
X0161596Y0109310D01*
X0162227Y0108988D01*
X0162901Y0108770D01*
X0163455Y0108682D01*
X0162838Y0108790D02*
X0148619Y0108790D01*
X0149152Y0109789D02*
X0160961Y0109789D01*
X0160115Y0110787D02*
X0149233Y0110787D01*
X0148933Y0111786D02*
X0159669Y0111786D01*
X0159497Y0113783D02*
X0148808Y0113783D01*
X0148933Y0114781D02*
X0159750Y0114781D01*
X0160296Y0115780D02*
X0148677Y0115780D01*
X0147896Y0116778D02*
X0161280Y0116778D01*
X0163455Y0116778D02*
X0164455Y0116778D01*
X0164455Y0115780D02*
X0163455Y0115780D01*
X0163455Y0114781D02*
X0164455Y0114781D01*
X0164455Y0113783D02*
X0163455Y0113783D01*
X0163455Y0112784D02*
X0148213Y0112784D01*
X0144253Y0112784D02*
X0123533Y0112784D01*
X0123533Y0113014D02*
X0123996Y0112823D01*
X0125070Y0112823D01*
X0126063Y0113234D01*
X0126822Y0113993D01*
X0127233Y0114985D01*
X0127233Y0116060D01*
X0126822Y0117052D01*
X0126063Y0117812D01*
X0125070Y0118223D01*
X0123996Y0118223D01*
X0123004Y0117812D01*
X0122244Y0117052D01*
X0121833Y0116060D01*
X0121833Y0115431D01*
X0121370Y0115623D01*
X0120296Y0115623D01*
X0119304Y0115212D01*
X0118544Y0114452D01*
X0118133Y0113460D01*
X0118133Y0112385D01*
X0118544Y0111393D01*
X0119304Y0110634D01*
X0120296Y0110223D01*
X0121370Y0110223D01*
X0122363Y0110634D01*
X0123122Y0111393D01*
X0123533Y0112385D01*
X0123533Y0113014D01*
X0123285Y0111786D02*
X0144134Y0111786D01*
X0143833Y0110787D02*
X0129787Y0110787D01*
X0129663Y0110912D02*
X0128670Y0111323D01*
X0127596Y0111323D01*
X0126604Y0110912D01*
X0125844Y0110152D01*
X0125433Y0109160D01*
X0125433Y0108085D01*
X0125844Y0107093D01*
X0126604Y0106334D01*
X0127596Y0105923D01*
X0128670Y0105923D01*
X0129663Y0106334D01*
X0130422Y0107093D01*
X0130833Y0108085D01*
X0130833Y0109160D01*
X0130422Y0110152D01*
X0129663Y0110912D01*
X0130573Y0109789D02*
X0142081Y0109789D01*
X0141294Y0108790D02*
X0130833Y0108790D01*
X0130712Y0107792D02*
X0141033Y0107792D01*
X0141154Y0106793D02*
X0130122Y0106793D01*
X0126144Y0106793D02*
X0072923Y0106793D01*
X0073263Y0106934D02*
X0074022Y0107693D01*
X0074433Y0108685D01*
X0074433Y0109760D01*
X0074022Y0110752D01*
X0073263Y0111512D01*
X0072270Y0111923D01*
X0071196Y0111923D01*
X0070204Y0111512D01*
X0069444Y0110752D01*
X0069033Y0109760D01*
X0069033Y0108685D01*
X0069444Y0107693D01*
X0070204Y0106934D01*
X0071196Y0106523D01*
X0072270Y0106523D01*
X0073263Y0106934D01*
X0074063Y0107792D02*
X0125555Y0107792D01*
X0125433Y0108790D02*
X0074433Y0108790D01*
X0074421Y0109789D02*
X0125694Y0109789D01*
X0126479Y0110787D02*
X0122516Y0110787D01*
X0119150Y0110787D02*
X0073987Y0110787D01*
X0072601Y0111786D02*
X0118382Y0111786D01*
X0118133Y0112784D02*
X0038455Y0112784D01*
X0038455Y0112264D02*
X0037770Y0110610D01*
X0036504Y0109344D01*
X0034850Y0108659D01*
X0033059Y0108659D01*
X0031406Y0109344D01*
X0030140Y0110610D01*
X0029455Y0112264D01*
X0029455Y0114054D01*
X0030140Y0115708D01*
X0031406Y0116974D01*
X0033059Y0117659D01*
X0034850Y0117659D01*
X0036504Y0116974D01*
X0037770Y0115708D01*
X0038455Y0114054D01*
X0038455Y0112264D01*
X0038257Y0111786D02*
X0070866Y0111786D01*
X0069479Y0110787D02*
X0037843Y0110787D01*
X0036948Y0109789D02*
X0069045Y0109789D01*
X0069033Y0108790D02*
X0035167Y0108790D01*
X0032743Y0108790D02*
X0025167Y0108790D01*
X0026948Y0109789D02*
X0030961Y0109789D01*
X0030066Y0110787D02*
X0027843Y0110787D01*
X0028257Y0111786D02*
X0029653Y0111786D01*
X0029455Y0112784D02*
X0028455Y0112784D01*
X0028455Y0113783D02*
X0029455Y0113783D01*
X0029756Y0114781D02*
X0028153Y0114781D01*
X0027698Y0115780D02*
X0030211Y0115780D01*
X0031210Y0116778D02*
X0026699Y0116778D01*
X0025131Y0118775D02*
X0032778Y0118775D01*
X0033059Y0118659D02*
X0034850Y0118659D01*
X0036504Y0119344D01*
X0037770Y0120610D01*
X0038455Y0122264D01*
X0038455Y0124054D01*
X0037770Y0125708D01*
X0036504Y0126974D01*
X0034850Y0127659D01*
X0033059Y0127659D01*
X0031406Y0126974D01*
X0030140Y0125708D01*
X0029455Y0124054D01*
X0029455Y0122264D01*
X0030140Y0120610D01*
X0031406Y0119344D01*
X0033059Y0118659D01*
X0035131Y0118775D02*
X0087933Y0118775D01*
X0087933Y0118285D02*
X0088344Y0117293D01*
X0089103Y0116534D01*
X0090095Y0116123D01*
X0091170Y0116123D01*
X0092162Y0116534D01*
X0092921Y0117293D01*
X0093333Y0118285D01*
X0093333Y0119360D01*
X0092921Y0120352D01*
X0092162Y0121112D01*
X0091170Y0121523D01*
X0090095Y0121523D01*
X0089103Y0121112D01*
X0088344Y0120352D01*
X0087933Y0119360D01*
X0087933Y0118285D01*
X0088143Y0117777D02*
X0022033Y0117777D01*
X0022033Y0118775D02*
X0022778Y0118775D01*
X0026933Y0119774D02*
X0030976Y0119774D01*
X0030072Y0120772D02*
X0027837Y0120772D01*
X0028250Y0121771D02*
X0029659Y0121771D01*
X0029455Y0122769D02*
X0028455Y0122769D01*
X0028455Y0123768D02*
X0029455Y0123768D01*
X0029750Y0124766D02*
X0028160Y0124766D01*
X0027713Y0125765D02*
X0030197Y0125765D01*
X0031195Y0126763D02*
X0026714Y0126763D01*
X0025095Y0128760D02*
X0032814Y0128760D01*
X0033059Y0128659D02*
X0034850Y0128659D01*
X0036504Y0129344D01*
X0037770Y0130610D01*
X0038455Y0132264D01*
X0038455Y0134054D01*
X0037770Y0135708D01*
X0036504Y0136974D01*
X0034850Y0137659D01*
X0033059Y0137659D01*
X0031406Y0136974D01*
X0030140Y0135708D01*
X0029455Y0134054D01*
X0029455Y0132264D01*
X0030140Y0130610D01*
X0031406Y0129344D01*
X0033059Y0128659D01*
X0035095Y0128760D02*
X0162814Y0128760D01*
X0163059Y0128659D02*
X0164850Y0128659D01*
X0166504Y0129344D01*
X0167770Y0130610D01*
X0168455Y0132264D01*
X0168455Y0134054D01*
X0167770Y0135708D01*
X0166504Y0136974D01*
X0164850Y0137659D01*
X0163059Y0137659D01*
X0161406Y0136974D01*
X0160140Y0135708D01*
X0159455Y0134054D01*
X0159455Y0132264D01*
X0160140Y0130610D01*
X0161406Y0129344D01*
X0163059Y0128659D01*
X0163059Y0127659D02*
X0161406Y0126974D01*
X0160140Y0125708D01*
X0159455Y0124054D01*
X0159455Y0122264D01*
X0160140Y0120610D01*
X0161406Y0119344D01*
X0163059Y0118659D01*
X0164850Y0118659D01*
X0166504Y0119344D01*
X0167770Y0120610D01*
X0168455Y0122264D01*
X0168455Y0124054D01*
X0167770Y0125708D01*
X0166504Y0126974D01*
X0164850Y0127659D01*
X0163059Y0127659D01*
X0161195Y0126763D02*
X0036714Y0126763D01*
X0037713Y0125765D02*
X0160197Y0125765D01*
X0159750Y0124766D02*
X0147108Y0124766D01*
X0146763Y0125112D02*
X0145770Y0125523D01*
X0144696Y0125523D01*
X0143704Y0125112D01*
X0142944Y0124352D01*
X0142533Y0123360D01*
X0142533Y0122285D01*
X0142944Y0121293D01*
X0143704Y0120534D01*
X0144696Y0120123D01*
X0145770Y0120123D01*
X0146763Y0120534D01*
X0147522Y0121293D01*
X0147933Y0122285D01*
X0147933Y0123360D01*
X0147522Y0124352D01*
X0146763Y0125112D01*
X0147764Y0123768D02*
X0159455Y0123768D01*
X0159455Y0122769D02*
X0147933Y0122769D01*
X0147720Y0121771D02*
X0159659Y0121771D01*
X0160072Y0120772D02*
X0147001Y0120772D01*
X0143465Y0120772D02*
X0116304Y0120772D01*
X0116433Y0121085D02*
X0116022Y0120093D01*
X0115263Y0119334D01*
X0114270Y0118923D01*
X0113196Y0118923D01*
X0112204Y0119334D01*
X0111444Y0120093D01*
X0111033Y0121085D01*
X0111033Y0122160D01*
X0111444Y0123152D01*
X0112204Y0123912D01*
X0113196Y0124323D01*
X0114270Y0124323D01*
X0115263Y0123912D01*
X0116022Y0123152D01*
X0116433Y0122160D01*
X0116433Y0121085D01*
X0116433Y0121771D02*
X0142747Y0121771D01*
X0142533Y0122769D02*
X0116181Y0122769D01*
X0115407Y0123768D02*
X0142702Y0123768D01*
X0143359Y0124766D02*
X0082706Y0124766D01*
X0082570Y0124823D02*
X0081496Y0124823D01*
X0080504Y0124412D01*
X0079744Y0123652D01*
X0079333Y0122660D01*
X0079333Y0121585D01*
X0079744Y0120593D01*
X0080504Y0119834D01*
X0081496Y0119423D01*
X0082570Y0119423D01*
X0083563Y0119834D01*
X0084322Y0120593D01*
X0084733Y0121585D01*
X0084733Y0122660D01*
X0084322Y0123652D01*
X0083563Y0124412D01*
X0082570Y0124823D01*
X0081360Y0124766D02*
X0038160Y0124766D01*
X0038455Y0123768D02*
X0079860Y0123768D01*
X0079379Y0122769D02*
X0038455Y0122769D01*
X0038250Y0121771D02*
X0079333Y0121771D01*
X0079670Y0120772D02*
X0037837Y0120772D01*
X0036933Y0119774D02*
X0080649Y0119774D01*
X0083418Y0119774D02*
X0088104Y0119774D01*
X0088764Y0120772D02*
X0084396Y0120772D01*
X0084733Y0121771D02*
X0099563Y0121771D01*
X0099244Y0121452D02*
X0098833Y0120460D01*
X0098833Y0119385D01*
X0099244Y0118393D01*
X0100004Y0117634D01*
X0100996Y0117223D01*
X0102070Y0117223D01*
X0103063Y0117634D01*
X0103822Y0118393D01*
X0104233Y0119385D01*
X0104233Y0120460D01*
X0103822Y0121452D01*
X0103063Y0122212D01*
X0102070Y0122623D01*
X0100996Y0122623D01*
X0100004Y0122212D01*
X0099244Y0121452D01*
X0098963Y0120772D02*
X0092501Y0120772D01*
X0093161Y0119774D02*
X0098833Y0119774D01*
X0099086Y0118775D02*
X0093333Y0118775D01*
X0093122Y0117777D02*
X0099861Y0117777D01*
X0103206Y0117777D02*
X0122969Y0117777D01*
X0122131Y0116778D02*
X0092407Y0116778D01*
X0088859Y0116778D02*
X0036699Y0116778D01*
X0037698Y0115780D02*
X0121833Y0115780D01*
X0118874Y0114781D02*
X0038153Y0114781D01*
X0038455Y0113783D02*
X0118267Y0113783D01*
X0115703Y0119774D02*
X0160976Y0119774D01*
X0162778Y0118775D02*
X0103981Y0118775D01*
X0104233Y0119774D02*
X0111764Y0119774D01*
X0111163Y0120772D02*
X0104104Y0120772D01*
X0103504Y0121771D02*
X0111033Y0121771D01*
X0111286Y0122769D02*
X0084688Y0122769D01*
X0084207Y0123768D02*
X0112060Y0123768D01*
X0111470Y0129223D02*
X0110396Y0129223D01*
X0109404Y0129634D01*
X0108644Y0130393D01*
X0108233Y0131385D01*
X0108233Y0132460D01*
X0108644Y0133452D01*
X0109404Y0134212D01*
X0110396Y0134623D01*
X0111470Y0134623D01*
X0112463Y0134212D01*
X0113222Y0133452D01*
X0113633Y0132460D01*
X0113633Y0131385D01*
X0113222Y0130393D01*
X0112463Y0129634D01*
X0111470Y0129223D01*
X0112588Y0129759D02*
X0160991Y0129759D01*
X0160079Y0130757D02*
X0123137Y0130757D01*
X0123563Y0130934D02*
X0122570Y0130523D01*
X0121496Y0130523D01*
X0120504Y0130934D01*
X0119744Y0131693D01*
X0119333Y0132685D01*
X0119333Y0133760D01*
X0119744Y0134752D01*
X0120504Y0135512D01*
X0121496Y0135923D01*
X0122570Y0135923D01*
X0123563Y0135512D01*
X0124322Y0134752D01*
X0124733Y0133760D01*
X0124733Y0132685D01*
X0124322Y0131693D01*
X0123563Y0130934D01*
X0124348Y0131756D02*
X0141873Y0131756D01*
X0141607Y0131809D02*
X0142353Y0131660D01*
X0142446Y0131660D01*
X0142446Y0135235D01*
X0143021Y0135235D01*
X0143021Y0135810D01*
X0146596Y0135810D01*
X0146596Y0135903D01*
X0146447Y0136649D01*
X0146156Y0137352D01*
X0145733Y0137985D01*
X0145195Y0138523D01*
X0144563Y0138945D01*
X0143860Y0139236D01*
X0143114Y0139385D01*
X0143021Y0139385D01*
X0143021Y0135810D01*
X0142446Y0135810D01*
X0142446Y0139385D01*
X0142353Y0139385D01*
X0141607Y0139236D01*
X0140904Y0138945D01*
X0140271Y0138523D01*
X0139733Y0137985D01*
X0139311Y0137352D01*
X0139020Y0136649D01*
X0138871Y0135903D01*
X0138871Y0135810D01*
X0142446Y0135810D01*
X0142446Y0135235D01*
X0138871Y0135235D01*
X0138871Y0135142D01*
X0139020Y0134396D01*
X0139311Y0133693D01*
X0139733Y0133061D01*
X0140271Y0132523D01*
X0140904Y0132100D01*
X0141607Y0131809D01*
X0142446Y0131756D02*
X0143021Y0131756D01*
X0143021Y0131660D02*
X0143114Y0131660D01*
X0143860Y0131809D01*
X0144563Y0132100D01*
X0145195Y0132523D01*
X0145733Y0133061D01*
X0146156Y0133693D01*
X0146447Y0134396D01*
X0146596Y0135142D01*
X0146596Y0135235D01*
X0143021Y0135235D01*
X0143021Y0131660D01*
X0143594Y0131756D02*
X0159665Y0131756D01*
X0159455Y0132754D02*
X0145427Y0132754D01*
X0146181Y0133753D02*
X0159455Y0133753D01*
X0159743Y0134751D02*
X0146518Y0134751D01*
X0146406Y0136748D02*
X0161180Y0136748D01*
X0160182Y0135750D02*
X0143021Y0135750D01*
X0142446Y0135750D02*
X0131579Y0135750D01*
X0131263Y0135434D02*
X0132022Y0136193D01*
X0132433Y0137185D01*
X0132433Y0138260D01*
X0132022Y0139252D01*
X0131263Y0140012D01*
X0130270Y0140423D01*
X0129196Y0140423D01*
X0128204Y0140012D01*
X0127444Y0139252D01*
X0127033Y0138260D01*
X0127033Y0137185D01*
X0127444Y0136193D01*
X0128204Y0135434D01*
X0129196Y0135023D01*
X0130270Y0135023D01*
X0131263Y0135434D01*
X0132252Y0136748D02*
X0139061Y0136748D01*
X0139575Y0137747D02*
X0132433Y0137747D01*
X0132232Y0138745D02*
X0140605Y0138745D01*
X0142446Y0138745D02*
X0143021Y0138745D01*
X0143021Y0137747D02*
X0142446Y0137747D01*
X0142446Y0136748D02*
X0143021Y0136748D01*
X0143021Y0134751D02*
X0142446Y0134751D01*
X0142446Y0133753D02*
X0143021Y0133753D01*
X0143021Y0132754D02*
X0142446Y0132754D01*
X0140040Y0132754D02*
X0124733Y0132754D01*
X0124733Y0133753D02*
X0139286Y0133753D01*
X0138949Y0134751D02*
X0124323Y0134751D01*
X0122987Y0135750D02*
X0127888Y0135750D01*
X0127214Y0136748D02*
X0115218Y0136748D01*
X0115233Y0136785D02*
X0114822Y0135793D01*
X0114063Y0135034D01*
X0113070Y0134623D01*
X0111996Y0134623D01*
X0111004Y0135034D01*
X0110244Y0135793D01*
X0109833Y0136785D01*
X0109833Y0137860D01*
X0110244Y0138852D01*
X0111004Y0139612D01*
X0111996Y0140023D01*
X0113070Y0140023D01*
X0114063Y0139612D01*
X0114822Y0138852D01*
X0115233Y0137860D01*
X0115233Y0136785D01*
X0115233Y0137747D02*
X0127033Y0137747D01*
X0127235Y0138745D02*
X0114866Y0138745D01*
X0113743Y0139744D02*
X0127936Y0139744D01*
X0131530Y0139744D02*
X0161005Y0139744D01*
X0161406Y0139344D02*
X0163059Y0138659D01*
X0164850Y0138659D01*
X0166504Y0139344D01*
X0167770Y0140610D01*
X0168455Y0142264D01*
X0168455Y0144054D01*
X0167770Y0145708D01*
X0166504Y0146974D01*
X0164850Y0147659D01*
X0163059Y0147659D01*
X0161406Y0146974D01*
X0160140Y0145708D01*
X0159455Y0144054D01*
X0159455Y0142264D01*
X0160140Y0140610D01*
X0161406Y0139344D01*
X0162850Y0138745D02*
X0144862Y0138745D01*
X0145892Y0137747D02*
X0177033Y0137747D01*
X0177033Y0138745D02*
X0175059Y0138745D01*
X0176904Y0139744D02*
X0177033Y0139744D01*
X0177033Y0136748D02*
X0176729Y0136748D01*
X0172850Y0138745D02*
X0165059Y0138745D01*
X0166904Y0139744D02*
X0171005Y0139744D01*
X0170085Y0140742D02*
X0167824Y0140742D01*
X0168238Y0141741D02*
X0169671Y0141741D01*
X0169455Y0142739D02*
X0168455Y0142739D01*
X0168455Y0143738D02*
X0169455Y0143738D01*
X0169737Y0144736D02*
X0168172Y0144736D01*
X0167742Y0145735D02*
X0170167Y0145735D01*
X0171165Y0146734D02*
X0166744Y0146734D01*
X0166504Y0149344D02*
X0164850Y0148659D01*
X0163059Y0148659D01*
X0161406Y0149344D01*
X0160140Y0150610D01*
X0159455Y0152264D01*
X0159455Y0154054D01*
X0160140Y0155708D01*
X0161406Y0156974D01*
X0163059Y0157659D01*
X0164850Y0157659D01*
X0166504Y0156974D01*
X0167770Y0155708D01*
X0168455Y0154054D01*
X0168455Y0152264D01*
X0167770Y0150610D01*
X0166504Y0149344D01*
X0166889Y0149729D02*
X0171020Y0149729D01*
X0170091Y0150728D02*
X0167818Y0150728D01*
X0168232Y0151726D02*
X0169677Y0151726D01*
X0169455Y0152725D02*
X0168455Y0152725D01*
X0168455Y0153723D02*
X0169455Y0153723D01*
X0169731Y0154722D02*
X0168178Y0154722D01*
X0167757Y0155720D02*
X0170152Y0155720D01*
X0171150Y0156719D02*
X0166759Y0156719D01*
X0166504Y0159344D02*
X0167770Y0160610D01*
X0168455Y0162264D01*
X0168455Y0164054D01*
X0167770Y0165708D01*
X0166504Y0166974D01*
X0164850Y0167659D01*
X0163059Y0167659D01*
X0161406Y0166974D01*
X0160140Y0165708D01*
X0159455Y0164054D01*
X0159455Y0162264D01*
X0160140Y0160610D01*
X0161406Y0159344D01*
X0163059Y0158659D01*
X0164850Y0158659D01*
X0166504Y0159344D01*
X0166874Y0159714D02*
X0171035Y0159714D01*
X0170097Y0160713D02*
X0167812Y0160713D01*
X0168226Y0161711D02*
X0169683Y0161711D01*
X0169455Y0162710D02*
X0168455Y0162710D01*
X0168455Y0163708D02*
X0169455Y0163708D01*
X0169725Y0164707D02*
X0168184Y0164707D01*
X0167771Y0165705D02*
X0170139Y0165705D01*
X0171136Y0166704D02*
X0166774Y0166704D01*
X0166504Y0169344D02*
X0164850Y0168659D01*
X0163059Y0168659D01*
X0161406Y0169344D01*
X0160140Y0170610D01*
X0159455Y0172264D01*
X0159455Y0174054D01*
X0160140Y0175708D01*
X0161406Y0176974D01*
X0163059Y0177659D01*
X0164850Y0177659D01*
X0166504Y0176974D01*
X0167770Y0175708D01*
X0168455Y0174054D01*
X0168455Y0172264D01*
X0167770Y0170610D01*
X0166504Y0169344D01*
X0166859Y0169699D02*
X0171050Y0169699D01*
X0170103Y0170698D02*
X0167806Y0170698D01*
X0168220Y0171696D02*
X0169690Y0171696D01*
X0169455Y0172695D02*
X0168455Y0172695D01*
X0168455Y0173693D02*
X0169455Y0173693D01*
X0169719Y0174692D02*
X0168190Y0174692D01*
X0167777Y0175690D02*
X0170132Y0175690D01*
X0171121Y0176689D02*
X0166788Y0176689D01*
X0166504Y0179344D02*
X0164850Y0178659D01*
X0163059Y0178659D01*
X0161406Y0179344D01*
X0160140Y0180610D01*
X0159455Y0182264D01*
X0159455Y0184054D01*
X0160140Y0185708D01*
X0161406Y0186974D01*
X0163059Y0187659D01*
X0164850Y0187659D01*
X0166504Y0186974D01*
X0167770Y0185708D01*
X0168455Y0184054D01*
X0168455Y0182264D01*
X0167770Y0180610D01*
X0166504Y0179344D01*
X0166844Y0179684D02*
X0171065Y0179684D01*
X0170109Y0180683D02*
X0167800Y0180683D01*
X0168213Y0181681D02*
X0169696Y0181681D01*
X0169455Y0182680D02*
X0168455Y0182680D01*
X0168455Y0183678D02*
X0169455Y0183678D01*
X0169713Y0184677D02*
X0168197Y0184677D01*
X0167783Y0185675D02*
X0170126Y0185675D01*
X0171106Y0186674D02*
X0166803Y0186674D01*
X0166504Y0189344D02*
X0164850Y0188659D01*
X0163059Y0188659D01*
X0161406Y0189344D01*
X0160140Y0190610D01*
X0159455Y0192264D01*
X0159455Y0194054D01*
X0160140Y0195708D01*
X0161406Y0196974D01*
X0163059Y0197659D01*
X0164850Y0197659D01*
X0166030Y0197170D01*
X0165733Y0197885D01*
X0165733Y0198960D01*
X0165766Y0199038D01*
X0164850Y0198659D01*
X0163059Y0198659D01*
X0161406Y0199344D01*
X0160140Y0200610D01*
X0159455Y0202264D01*
X0159455Y0204054D01*
X0160140Y0205708D01*
X0161406Y0206974D01*
X0163059Y0207659D01*
X0164850Y0207659D01*
X0166504Y0206974D01*
X0167770Y0205708D01*
X0168455Y0204054D01*
X0168455Y0202264D01*
X0167982Y0201123D01*
X0168970Y0201123D01*
X0169963Y0200712D01*
X0170722Y0199952D01*
X0171133Y0198960D01*
X0171133Y0197885D01*
X0170722Y0196893D01*
X0169963Y0196134D01*
X0168970Y0195723D01*
X0167896Y0195723D01*
X0167655Y0195823D01*
X0167770Y0195708D01*
X0168455Y0194054D01*
X0168455Y0192264D01*
X0167770Y0190610D01*
X0166504Y0189344D01*
X0166829Y0189669D02*
X0171080Y0189669D01*
X0170116Y0190668D02*
X0167794Y0190668D01*
X0168207Y0191667D02*
X0169702Y0191667D01*
X0169455Y0192665D02*
X0168455Y0192665D01*
X0168455Y0193664D02*
X0169455Y0193664D01*
X0169706Y0194662D02*
X0168203Y0194662D01*
X0167789Y0195661D02*
X0170120Y0195661D01*
X0170488Y0196659D02*
X0171091Y0196659D01*
X0171039Y0197658D02*
X0173057Y0197658D01*
X0174853Y0197658D02*
X0177033Y0197658D01*
X0177033Y0198656D02*
X0171133Y0198656D01*
X0171095Y0199655D02*
X0170845Y0199655D01*
X0170122Y0200653D02*
X0170021Y0200653D01*
X0169708Y0201652D02*
X0168201Y0201652D01*
X0168455Y0202650D02*
X0169455Y0202650D01*
X0169455Y0203649D02*
X0168455Y0203649D01*
X0168209Y0204647D02*
X0169700Y0204647D01*
X0170114Y0205646D02*
X0167795Y0205646D01*
X0166833Y0206644D02*
X0171076Y0206644D01*
X0173021Y0207643D02*
X0164889Y0207643D01*
X0164455Y0208682D02*
X0165008Y0208770D01*
X0165682Y0208988D01*
X0166313Y0209310D01*
X0166886Y0209726D01*
X0167387Y0210227D01*
X0167803Y0210800D01*
X0168125Y0211431D01*
X0168344Y0212105D01*
X0168431Y0212659D01*
X0164455Y0212659D01*
X0164455Y0208682D01*
X0164455Y0209640D02*
X0163455Y0209640D01*
X0163455Y0208682D02*
X0163455Y0212659D01*
X0159478Y0212659D01*
X0159565Y0212105D01*
X0159784Y0211431D01*
X0160106Y0210800D01*
X0160522Y0210227D01*
X0161023Y0209726D01*
X0161596Y0209310D01*
X0162227Y0208988D01*
X0162901Y0208770D01*
X0163455Y0208682D01*
X0163021Y0207643D02*
X0152615Y0207643D01*
X0152650Y0207423D02*
X0152529Y0208187D01*
X0152266Y0208995D01*
X0151880Y0209753D01*
X0151381Y0210440D01*
X0150780Y0211041D01*
X0150092Y0211541D01*
X0149335Y0211927D01*
X0148526Y0212190D01*
X0147762Y0212311D01*
X0147762Y0207423D01*
X0146762Y0207423D01*
X0146762Y0212311D01*
X0145997Y0212190D01*
X0145189Y0211927D01*
X0144431Y0211541D01*
X0143744Y0211041D01*
X0143143Y0210440D01*
X0142643Y0209753D01*
X0142257Y0208995D01*
X0141995Y0208187D01*
X0141874Y0207423D01*
X0146762Y0207423D01*
X0146762Y0206423D01*
X0141874Y0206423D01*
X0141995Y0205658D01*
X0142257Y0204850D01*
X0142643Y0204092D01*
X0143143Y0203405D01*
X0143744Y0202804D01*
X0144431Y0202304D01*
X0145189Y0201918D01*
X0145997Y0201656D01*
X0146762Y0201534D01*
X0146762Y0206423D01*
X0147762Y0206423D01*
X0147762Y0207423D01*
X0152650Y0207423D01*
X0152650Y0206423D02*
X0147762Y0206423D01*
X0147762Y0201534D01*
X0148526Y0201656D01*
X0149335Y0201918D01*
X0150092Y0202304D01*
X0150780Y0202804D01*
X0151381Y0203405D01*
X0151880Y0204092D01*
X0152266Y0204850D01*
X0152529Y0205658D01*
X0152650Y0206423D01*
X0152525Y0205646D02*
X0160114Y0205646D01*
X0159700Y0204647D02*
X0152163Y0204647D01*
X0151558Y0203649D02*
X0159455Y0203649D01*
X0159455Y0202650D02*
X0150568Y0202650D01*
X0148502Y0201652D02*
X0159708Y0201652D01*
X0160122Y0200653D02*
X0112386Y0200653D01*
X0112386Y0201260D02*
X0111775Y0202733D01*
X0110647Y0203861D01*
X0109173Y0204472D01*
X0107578Y0204472D01*
X0106104Y0203861D01*
X0104976Y0202733D01*
X0104366Y0201260D01*
X0104366Y0199664D01*
X0104976Y0198191D01*
X0106104Y0197063D01*
X0107578Y0196452D01*
X0109173Y0196452D01*
X0110647Y0197063D01*
X0111775Y0198191D01*
X0112386Y0199664D01*
X0112386Y0201260D01*
X0112223Y0201652D02*
X0126191Y0201652D01*
X0126502Y0201523D02*
X0128651Y0201523D01*
X0130635Y0202345D01*
X0132155Y0203864D01*
X0132977Y0205848D01*
X0132977Y0207997D01*
X0132155Y0209981D01*
X0130635Y0211500D01*
X0128651Y0212323D01*
X0126502Y0212323D01*
X0124518Y0211500D01*
X0122999Y0209981D01*
X0122177Y0207997D01*
X0122177Y0205848D01*
X0122999Y0203864D01*
X0124518Y0202345D01*
X0126502Y0201523D01*
X0128962Y0201652D02*
X0146022Y0201652D01*
X0146762Y0201652D02*
X0147762Y0201652D01*
X0147762Y0202650D02*
X0146762Y0202650D01*
X0146762Y0203649D02*
X0147762Y0203649D01*
X0147762Y0204647D02*
X0146762Y0204647D01*
X0146762Y0205646D02*
X0147762Y0205646D01*
X0147762Y0206644D02*
X0161076Y0206644D01*
X0161142Y0209640D02*
X0151938Y0209640D01*
X0152381Y0208641D02*
X0177033Y0208641D01*
X0177033Y0207643D02*
X0174889Y0207643D01*
X0176833Y0206644D02*
X0177033Y0206644D01*
X0177033Y0209640D02*
X0176799Y0209640D01*
X0171110Y0209640D02*
X0166767Y0209640D01*
X0167686Y0210638D02*
X0170128Y0210638D01*
X0169714Y0211637D02*
X0168192Y0211637D01*
X0168428Y0212635D02*
X0169455Y0212635D01*
X0169455Y0213634D02*
X0164455Y0213634D01*
X0164455Y0212635D02*
X0163455Y0212635D01*
X0163455Y0211637D02*
X0164455Y0211637D01*
X0164455Y0210638D02*
X0163455Y0210638D01*
X0160224Y0210638D02*
X0151183Y0210638D01*
X0149904Y0211637D02*
X0159718Y0211637D01*
X0159481Y0212635D02*
X0116863Y0212635D01*
X0117136Y0211637D02*
X0124847Y0211637D01*
X0123656Y0210638D02*
X0112813Y0210638D01*
X0112813Y0210297D02*
X0117190Y0210297D01*
X0117088Y0209650D01*
X0116850Y0208917D01*
X0116500Y0208231D01*
X0116047Y0207607D01*
X0115502Y0207062D01*
X0114879Y0206609D01*
X0114192Y0206260D01*
X0113459Y0206021D01*
X0112813Y0205919D01*
X0112813Y0210297D01*
X0112813Y0209640D02*
X0111813Y0209640D01*
X0111813Y0210638D02*
X0085254Y0210638D01*
X0085254Y0210297D02*
X0089631Y0210297D01*
X0089529Y0209650D01*
X0089291Y0208917D01*
X0088941Y0208231D01*
X0088488Y0207607D01*
X0087943Y0207062D01*
X0087320Y0206609D01*
X0086633Y0206260D01*
X0085900Y0206021D01*
X0085254Y0205919D01*
X0085254Y0210297D01*
X0085254Y0209640D02*
X0084254Y0209640D01*
X0084254Y0210638D02*
X0073613Y0210638D01*
X0073613Y0210297D02*
X0077990Y0210297D01*
X0077888Y0209650D01*
X0077650Y0208917D01*
X0077300Y0208231D01*
X0076847Y0207607D01*
X0076302Y0207062D01*
X0075679Y0206609D01*
X0074992Y0206260D01*
X0074259Y0206021D01*
X0073613Y0205919D01*
X0073613Y0210297D01*
X0073613Y0209640D02*
X0072613Y0209640D01*
X0072613Y0210638D02*
X0046054Y0210638D01*
X0046054Y0210297D02*
X0050431Y0210297D01*
X0050329Y0209650D01*
X0050091Y0208917D01*
X0049741Y0208231D01*
X0049288Y0207607D01*
X0048743Y0207062D01*
X0048120Y0206609D01*
X0047433Y0206260D01*
X0046700Y0206021D01*
X0046054Y0205919D01*
X0046054Y0210297D01*
X0046054Y0209640D02*
X0045054Y0209640D01*
X0045054Y0210638D02*
X0037781Y0210638D01*
X0038195Y0211637D02*
X0040730Y0211637D01*
X0041004Y0212635D02*
X0038455Y0212635D01*
X0038455Y0213634D02*
X0041564Y0213634D01*
X0040782Y0209640D02*
X0036799Y0209640D01*
X0035682Y0207329D02*
X0035008Y0207548D01*
X0034455Y0207636D01*
X0034455Y0203659D01*
X0038431Y0203659D01*
X0038344Y0204213D01*
X0038125Y0204886D01*
X0037803Y0205517D01*
X0037387Y0206090D01*
X0036886Y0206591D01*
X0036313Y0207008D01*
X0035682Y0207329D01*
X0036813Y0206644D02*
X0042940Y0206644D01*
X0041794Y0207643D02*
X0024889Y0207643D01*
X0024455Y0208682D02*
X0025008Y0208770D01*
X0025682Y0208988D01*
X0026313Y0209310D01*
X0026886Y0209726D01*
X0027387Y0210227D01*
X0027803Y0210800D01*
X0028125Y0211431D01*
X0028344Y0212105D01*
X0028431Y0212659D01*
X0024455Y0212659D01*
X0024455Y0208682D01*
X0024455Y0209640D02*
X0023455Y0209640D01*
X0023455Y0210638D02*
X0024455Y0210638D01*
X0024455Y0211637D02*
X0023455Y0211637D01*
X0023455Y0212635D02*
X0024455Y0212635D01*
X0024455Y0213634D02*
X0029455Y0213634D01*
X0029455Y0212635D02*
X0028428Y0212635D01*
X0028192Y0211637D02*
X0029714Y0211637D01*
X0030128Y0210638D02*
X0027686Y0210638D01*
X0026767Y0209640D02*
X0031110Y0209640D01*
X0032227Y0207329D02*
X0031596Y0207008D01*
X0031023Y0206591D01*
X0030522Y0206090D01*
X0030106Y0205517D01*
X0029784Y0204886D01*
X0029565Y0204213D01*
X0029478Y0203659D01*
X0033455Y0203659D01*
X0033455Y0207636D01*
X0032901Y0207548D01*
X0032227Y0207329D01*
X0031096Y0206644D02*
X0026833Y0206644D01*
X0027795Y0205646D02*
X0030199Y0205646D01*
X0029707Y0204647D02*
X0028209Y0204647D01*
X0028455Y0203649D02*
X0033455Y0203649D01*
X0033455Y0203659D02*
X0033455Y0202659D01*
X0034455Y0202659D01*
X0034455Y0203659D01*
X0033455Y0203659D01*
X0033455Y0204647D02*
X0034455Y0204647D01*
X0034455Y0203649D02*
X0047007Y0203649D01*
X0047219Y0203861D02*
X0046091Y0202733D01*
X0045481Y0201260D01*
X0045481Y0199664D01*
X0046091Y0198191D01*
X0047219Y0197063D01*
X0048693Y0196452D01*
X0050288Y0196452D01*
X0051762Y0197063D01*
X0052890Y0198191D01*
X0053501Y0199664D01*
X0053501Y0201260D01*
X0052890Y0202733D01*
X0051762Y0203861D01*
X0050288Y0204472D01*
X0048693Y0204472D01*
X0047219Y0203861D01*
X0046057Y0202650D02*
X0038430Y0202650D01*
X0038431Y0202659D02*
X0034455Y0202659D01*
X0034455Y0198682D01*
X0035008Y0198770D01*
X0035682Y0198988D01*
X0036313Y0199310D01*
X0036886Y0199726D01*
X0037387Y0200227D01*
X0037803Y0200800D01*
X0038125Y0201431D01*
X0038344Y0202105D01*
X0038431Y0202659D01*
X0038196Y0201652D02*
X0045643Y0201652D01*
X0045481Y0200653D02*
X0037696Y0200653D01*
X0036787Y0199655D02*
X0045485Y0199655D01*
X0045899Y0198656D02*
X0022033Y0198656D01*
X0022033Y0197658D02*
X0023057Y0197658D01*
X0024853Y0197658D02*
X0033057Y0197658D01*
X0033059Y0197659D02*
X0031406Y0196974D01*
X0030140Y0195708D01*
X0029455Y0194054D01*
X0029455Y0192264D01*
X0030140Y0190610D01*
X0031406Y0189344D01*
X0033059Y0188659D01*
X0034850Y0188659D01*
X0036504Y0189344D01*
X0037770Y0190610D01*
X0038455Y0192264D01*
X0038455Y0194054D01*
X0037770Y0195708D01*
X0036504Y0196974D01*
X0034850Y0197659D01*
X0033059Y0197659D01*
X0033455Y0198682D02*
X0033455Y0202659D01*
X0029478Y0202659D01*
X0029565Y0202105D01*
X0029784Y0201431D01*
X0030106Y0200800D01*
X0030522Y0200227D01*
X0031023Y0199726D01*
X0031596Y0199310D01*
X0032227Y0198988D01*
X0032901Y0198770D01*
X0033455Y0198682D01*
X0033455Y0199655D02*
X0034455Y0199655D01*
X0034455Y0200653D02*
X0033455Y0200653D01*
X0033455Y0201652D02*
X0034455Y0201652D01*
X0034455Y0202650D02*
X0033455Y0202650D01*
X0033455Y0205646D02*
X0034455Y0205646D01*
X0034455Y0206644D02*
X0033455Y0206644D01*
X0037710Y0205646D02*
X0122261Y0205646D01*
X0122177Y0206644D02*
X0114927Y0206644D01*
X0116073Y0207643D02*
X0122177Y0207643D01*
X0122444Y0208641D02*
X0116709Y0208641D01*
X0117085Y0209640D02*
X0122857Y0209640D01*
X0122674Y0204647D02*
X0038203Y0204647D01*
X0041157Y0208641D02*
X0022033Y0208641D01*
X0022033Y0207643D02*
X0023021Y0207643D01*
X0028455Y0202650D02*
X0029479Y0202650D01*
X0029713Y0201652D02*
X0028201Y0201652D01*
X0027787Y0200653D02*
X0030213Y0200653D01*
X0031122Y0199655D02*
X0026814Y0199655D01*
X0026818Y0196659D02*
X0031091Y0196659D01*
X0030120Y0195661D02*
X0027789Y0195661D01*
X0028203Y0194662D02*
X0029706Y0194662D01*
X0029455Y0193664D02*
X0028455Y0193664D01*
X0028455Y0192665D02*
X0029455Y0192665D01*
X0029702Y0191667D02*
X0028207Y0191667D01*
X0027794Y0190668D02*
X0030116Y0190668D01*
X0031080Y0189669D02*
X0026829Y0189669D01*
X0024879Y0188671D02*
X0033030Y0188671D01*
X0033059Y0187659D02*
X0031406Y0186974D01*
X0030140Y0185708D01*
X0029455Y0184054D01*
X0029455Y0182264D01*
X0030140Y0180610D01*
X0031406Y0179344D01*
X0033059Y0178659D01*
X0034850Y0178659D01*
X0036504Y0179344D01*
X0037770Y0180610D01*
X0038455Y0182264D01*
X0038455Y0184054D01*
X0037770Y0185708D01*
X0036504Y0186974D01*
X0034850Y0187659D01*
X0033059Y0187659D01*
X0034879Y0188671D02*
X0052567Y0188671D01*
X0052904Y0188334D02*
X0052144Y0189093D01*
X0051733Y0190085D01*
X0051733Y0191160D01*
X0052144Y0192152D01*
X0052904Y0192912D01*
X0053896Y0193323D01*
X0054970Y0193323D01*
X0055963Y0192912D01*
X0056722Y0192152D01*
X0057133Y0191160D01*
X0057133Y0190085D01*
X0056722Y0189093D01*
X0055963Y0188334D01*
X0054970Y0187923D01*
X0053896Y0187923D01*
X0052904Y0188334D01*
X0051906Y0189669D02*
X0036829Y0189669D01*
X0037794Y0190668D02*
X0051733Y0190668D01*
X0051943Y0191667D02*
X0038207Y0191667D01*
X0038455Y0192665D02*
X0052657Y0192665D01*
X0056209Y0192665D02*
X0079733Y0192665D01*
X0079733Y0193160D02*
X0079733Y0192085D01*
X0080144Y0191093D01*
X0080904Y0190334D01*
X0081896Y0189923D01*
X0082970Y0189923D01*
X0083963Y0190334D01*
X0084722Y0191093D01*
X0085133Y0192085D01*
X0085133Y0193160D01*
X0084722Y0194152D01*
X0083963Y0194912D01*
X0082970Y0195323D01*
X0081896Y0195323D01*
X0080904Y0194912D01*
X0080144Y0194152D01*
X0079733Y0193160D01*
X0079942Y0193664D02*
X0038455Y0193664D01*
X0038203Y0194662D02*
X0080654Y0194662D01*
X0079907Y0191667D02*
X0056923Y0191667D01*
X0057133Y0190668D02*
X0067417Y0190668D01*
X0067546Y0190797D02*
X0066459Y0189710D01*
X0065871Y0188291D01*
X0065871Y0186754D01*
X0066459Y0185335D01*
X0067546Y0184248D01*
X0068965Y0183660D01*
X0070502Y0183660D01*
X0071921Y0184248D01*
X0073008Y0185335D01*
X0073596Y0186754D01*
X0073596Y0188291D01*
X0073008Y0189710D01*
X0071921Y0190797D01*
X0070502Y0191385D01*
X0068965Y0191385D01*
X0067546Y0190797D01*
X0066442Y0189669D02*
X0056961Y0189669D01*
X0056300Y0188671D02*
X0066029Y0188671D01*
X0065871Y0187672D02*
X0022033Y0187672D01*
X0022033Y0188671D02*
X0023030Y0188671D01*
X0026803Y0186674D02*
X0031106Y0186674D01*
X0030126Y0185675D02*
X0027783Y0185675D01*
X0028197Y0184677D02*
X0029713Y0184677D01*
X0029455Y0183678D02*
X0028455Y0183678D01*
X0028455Y0182680D02*
X0029455Y0182680D01*
X0029696Y0181681D02*
X0028213Y0181681D01*
X0027800Y0180683D02*
X0030109Y0180683D01*
X0031065Y0179684D02*
X0026844Y0179684D01*
X0024915Y0178686D02*
X0032994Y0178686D01*
X0033059Y0177659D02*
X0031406Y0176974D01*
X0030140Y0175708D01*
X0029455Y0174054D01*
X0029455Y0172264D01*
X0030140Y0170610D01*
X0031406Y0169344D01*
X0033059Y0168659D01*
X0034850Y0168659D01*
X0036504Y0169344D01*
X0037770Y0170610D01*
X0038455Y0172264D01*
X0038455Y0174054D01*
X0037770Y0175708D01*
X0036504Y0176974D01*
X0034850Y0177659D01*
X0033059Y0177659D01*
X0034915Y0178686D02*
X0041033Y0178686D01*
X0041033Y0178185D02*
X0041444Y0177193D01*
X0042204Y0176434D01*
X0043196Y0176023D01*
X0044270Y0176023D01*
X0045263Y0176434D01*
X0046022Y0177193D01*
X0046433Y0178185D01*
X0046433Y0179260D01*
X0046022Y0180252D01*
X0045263Y0181012D01*
X0044270Y0181423D01*
X0043196Y0181423D01*
X0042204Y0181012D01*
X0041444Y0180252D01*
X0041033Y0179260D01*
X0041033Y0178185D01*
X0041240Y0177687D02*
X0022033Y0177687D01*
X0022033Y0178686D02*
X0022994Y0178686D01*
X0026788Y0176689D02*
X0031121Y0176689D01*
X0030132Y0175690D02*
X0027777Y0175690D01*
X0028190Y0174692D02*
X0029719Y0174692D01*
X0029455Y0173693D02*
X0028455Y0173693D01*
X0028455Y0172695D02*
X0029455Y0172695D01*
X0029690Y0171696D02*
X0028220Y0171696D01*
X0027806Y0170698D02*
X0030103Y0170698D01*
X0031050Y0169699D02*
X0026859Y0169699D01*
X0024951Y0168701D02*
X0032958Y0168701D01*
X0032901Y0167548D02*
X0032227Y0167329D01*
X0031596Y0167008D01*
X0031023Y0166591D01*
X0030522Y0166090D01*
X0030106Y0165517D01*
X0029784Y0164886D01*
X0029565Y0164213D01*
X0029478Y0163659D01*
X0033455Y0163659D01*
X0033455Y0167636D01*
X0032901Y0167548D01*
X0033455Y0166704D02*
X0034455Y0166704D01*
X0034455Y0167636D02*
X0034455Y0163659D01*
X0038431Y0163659D01*
X0038344Y0164213D01*
X0038125Y0164886D01*
X0037803Y0165517D01*
X0037387Y0166090D01*
X0036886Y0166591D01*
X0036313Y0167008D01*
X0035682Y0167329D01*
X0035008Y0167548D01*
X0034455Y0167636D01*
X0034951Y0168701D02*
X0085782Y0168701D01*
X0085844Y0168852D02*
X0085433Y0167860D01*
X0085433Y0166785D01*
X0085844Y0165793D01*
X0086604Y0165034D01*
X0087596Y0164623D01*
X0088670Y0164623D01*
X0089663Y0165034D01*
X0090422Y0165793D01*
X0090833Y0166785D01*
X0090833Y0167860D01*
X0090422Y0168852D01*
X0089663Y0169612D01*
X0088670Y0170023D01*
X0087596Y0170023D01*
X0086604Y0169612D01*
X0085844Y0168852D01*
X0085433Y0167702D02*
X0022033Y0167702D01*
X0022033Y0168701D02*
X0022958Y0168701D01*
X0026774Y0166704D02*
X0031178Y0166704D01*
X0030242Y0165705D02*
X0027771Y0165705D01*
X0028184Y0164707D02*
X0029726Y0164707D01*
X0029486Y0163708D02*
X0028455Y0163708D01*
X0028455Y0162710D02*
X0033455Y0162710D01*
X0033455Y0162659D02*
X0029478Y0162659D01*
X0029565Y0162105D01*
X0029784Y0161431D01*
X0030106Y0160800D01*
X0030522Y0160227D01*
X0031023Y0159726D01*
X0031596Y0159310D01*
X0032227Y0158988D01*
X0032901Y0158770D01*
X0033455Y0158682D01*
X0033455Y0162659D01*
X0034455Y0162659D01*
X0034455Y0163659D01*
X0033455Y0163659D01*
X0033455Y0162659D01*
X0033455Y0161711D02*
X0034455Y0161711D01*
X0034455Y0162659D02*
X0034455Y0158682D01*
X0035008Y0158770D01*
X0035682Y0158988D01*
X0036313Y0159310D01*
X0036886Y0159726D01*
X0037387Y0160227D01*
X0037803Y0160800D01*
X0038125Y0161431D01*
X0038344Y0162105D01*
X0038431Y0162659D01*
X0034455Y0162659D01*
X0034455Y0162710D02*
X0084478Y0162710D01*
X0084333Y0162360D02*
X0084333Y0161285D01*
X0084744Y0160293D01*
X0085504Y0159534D01*
X0086496Y0159123D01*
X0087570Y0159123D01*
X0088563Y0159534D01*
X0089322Y0160293D01*
X0089733Y0161285D01*
X0089733Y0162360D01*
X0089322Y0163352D01*
X0088563Y0164112D01*
X0087570Y0164523D01*
X0086496Y0164523D01*
X0085504Y0164112D01*
X0084744Y0163352D01*
X0084333Y0162360D01*
X0084333Y0161711D02*
X0038216Y0161711D01*
X0037740Y0160713D02*
X0084571Y0160713D01*
X0085323Y0159714D02*
X0036869Y0159714D01*
X0034668Y0158716D02*
X0039408Y0158716D01*
X0039144Y0158452D02*
X0039904Y0159212D01*
X0040896Y0159623D01*
X0041970Y0159623D01*
X0042963Y0159212D01*
X0043722Y0158452D01*
X0044133Y0157460D01*
X0044133Y0156385D01*
X0043722Y0155393D01*
X0042963Y0154634D01*
X0041970Y0154223D01*
X0040896Y0154223D01*
X0039904Y0154634D01*
X0039144Y0155393D01*
X0038733Y0156385D01*
X0038733Y0157460D01*
X0039144Y0158452D01*
X0038840Y0157717D02*
X0022033Y0157717D01*
X0022033Y0158716D02*
X0022922Y0158716D01*
X0024987Y0158716D02*
X0033241Y0158716D01*
X0033455Y0158716D02*
X0034455Y0158716D01*
X0034455Y0159714D02*
X0033455Y0159714D01*
X0033455Y0160713D02*
X0034455Y0160713D01*
X0034850Y0157659D02*
X0033059Y0157659D01*
X0031406Y0156974D01*
X0030140Y0155708D01*
X0029455Y0154054D01*
X0029455Y0152264D01*
X0030140Y0150610D01*
X0031406Y0149344D01*
X0033059Y0148659D01*
X0034850Y0148659D01*
X0036504Y0149344D01*
X0037770Y0150610D01*
X0038455Y0152264D01*
X0038455Y0154054D01*
X0037770Y0155708D01*
X0036504Y0156974D01*
X0034850Y0157659D01*
X0036759Y0156719D02*
X0038733Y0156719D01*
X0039009Y0155720D02*
X0037757Y0155720D01*
X0038178Y0154722D02*
X0039816Y0154722D01*
X0038455Y0153723D02*
X0053608Y0153723D01*
X0053744Y0154052D02*
X0053333Y0153060D01*
X0053333Y0151985D01*
X0053744Y0150993D01*
X0054504Y0150234D01*
X0055496Y0149823D01*
X0056570Y0149823D01*
X0057563Y0150234D01*
X0058322Y0150993D01*
X0058733Y0151985D01*
X0058733Y0153060D01*
X0058322Y0154052D01*
X0057563Y0154812D01*
X0056570Y0155223D01*
X0055496Y0155223D01*
X0054504Y0154812D01*
X0053744Y0154052D01*
X0054414Y0154722D02*
X0043051Y0154722D01*
X0043858Y0155720D02*
X0076413Y0155720D01*
X0076704Y0156012D02*
X0075944Y0155252D01*
X0075533Y0154260D01*
X0075533Y0153185D01*
X0075944Y0152193D01*
X0076704Y0151434D01*
X0077696Y0151023D01*
X0078770Y0151023D01*
X0079763Y0151434D01*
X0080522Y0152193D01*
X0080933Y0153185D01*
X0080933Y0154260D01*
X0080522Y0155252D01*
X0079763Y0156012D01*
X0078770Y0156423D01*
X0077696Y0156423D01*
X0076704Y0156012D01*
X0075725Y0154722D02*
X0057653Y0154722D01*
X0058459Y0153723D02*
X0075533Y0153723D01*
X0075724Y0152725D02*
X0058733Y0152725D01*
X0058626Y0151726D02*
X0076411Y0151726D01*
X0080055Y0151726D02*
X0091311Y0151726D01*
X0091244Y0151793D02*
X0092004Y0151034D01*
X0092996Y0150623D01*
X0094070Y0150623D01*
X0095063Y0151034D01*
X0095822Y0151793D01*
X0096233Y0152785D01*
X0096233Y0153860D01*
X0095822Y0154852D01*
X0095063Y0155612D01*
X0094070Y0156023D01*
X0092996Y0156023D01*
X0092004Y0155612D01*
X0091244Y0154852D01*
X0090833Y0153860D01*
X0090833Y0152785D01*
X0091244Y0151793D01*
X0090859Y0152725D02*
X0080742Y0152725D01*
X0080933Y0153723D02*
X0090833Y0153723D01*
X0091190Y0154722D02*
X0080742Y0154722D01*
X0080054Y0155720D02*
X0092266Y0155720D01*
X0094801Y0155720D02*
X0149702Y0155720D01*
X0149633Y0155885D02*
X0150044Y0154893D01*
X0150804Y0154134D01*
X0151796Y0153723D01*
X0152870Y0153723D01*
X0153863Y0154134D01*
X0154622Y0154893D01*
X0154746Y0155192D01*
X0155404Y0154534D01*
X0156396Y0154123D01*
X0157470Y0154123D01*
X0158463Y0154534D01*
X0159222Y0155293D01*
X0159633Y0156285D01*
X0159633Y0157360D01*
X0159222Y0158352D01*
X0158463Y0159112D01*
X0157470Y0159523D01*
X0156396Y0159523D01*
X0155404Y0159112D01*
X0154644Y0158352D01*
X0154521Y0158053D01*
X0153863Y0158712D01*
X0152870Y0159123D01*
X0151796Y0159123D01*
X0150804Y0158712D01*
X0150044Y0157952D01*
X0149633Y0156960D01*
X0149633Y0155885D01*
X0149633Y0156719D02*
X0044133Y0156719D01*
X0044027Y0157717D02*
X0149947Y0157717D01*
X0150814Y0158716D02*
X0043459Y0158716D01*
X0038424Y0163708D02*
X0085101Y0163708D01*
X0085932Y0165705D02*
X0037667Y0165705D01*
X0038183Y0164707D02*
X0087393Y0164707D01*
X0088874Y0164707D02*
X0091817Y0164707D01*
X0092096Y0164823D02*
X0091104Y0164412D01*
X0090344Y0163652D01*
X0089933Y0162660D01*
X0089933Y0161585D01*
X0090344Y0160593D01*
X0091104Y0159834D01*
X0092096Y0159423D01*
X0093170Y0159423D01*
X0094163Y0159834D01*
X0094922Y0160593D01*
X0095333Y0161585D01*
X0095333Y0162660D01*
X0094922Y0163652D01*
X0094163Y0164412D01*
X0093170Y0164823D01*
X0092096Y0164823D01*
X0093450Y0164707D02*
X0159725Y0164707D01*
X0159455Y0163708D02*
X0100966Y0163708D01*
X0100963Y0163712D02*
X0099970Y0164123D01*
X0098896Y0164123D01*
X0097904Y0163712D01*
X0097144Y0162952D01*
X0096733Y0161960D01*
X0096733Y0160885D01*
X0097144Y0159893D01*
X0097904Y0159134D01*
X0098896Y0158723D01*
X0099970Y0158723D01*
X0100963Y0159134D01*
X0101722Y0159893D01*
X0102133Y0160885D01*
X0102133Y0161960D01*
X0101722Y0162952D01*
X0100963Y0163712D01*
X0101823Y0162710D02*
X0159455Y0162710D01*
X0159683Y0161711D02*
X0102133Y0161711D01*
X0102062Y0160713D02*
X0160097Y0160713D01*
X0161035Y0159714D02*
X0101543Y0159714D01*
X0097323Y0159714D02*
X0093874Y0159714D01*
X0094972Y0160713D02*
X0096805Y0160713D01*
X0096733Y0161711D02*
X0095333Y0161711D01*
X0095313Y0162710D02*
X0097044Y0162710D01*
X0097901Y0163708D02*
X0094866Y0163708D01*
X0091392Y0159714D02*
X0088743Y0159714D01*
X0089496Y0160713D02*
X0090295Y0160713D01*
X0089933Y0161711D02*
X0089733Y0161711D01*
X0089588Y0162710D02*
X0089954Y0162710D01*
X0090401Y0163708D02*
X0088966Y0163708D01*
X0090334Y0165705D02*
X0160139Y0165705D01*
X0161136Y0166704D02*
X0090799Y0166704D01*
X0090833Y0167702D02*
X0177033Y0167702D01*
X0177033Y0166704D02*
X0176774Y0166704D01*
X0177033Y0168701D02*
X0174951Y0168701D01*
X0172958Y0168701D02*
X0164951Y0168701D01*
X0162958Y0168701D02*
X0090485Y0168701D01*
X0089451Y0169699D02*
X0161050Y0169699D01*
X0160103Y0170698D02*
X0112135Y0170698D01*
X0112463Y0170834D02*
X0113222Y0171593D01*
X0113633Y0172585D01*
X0113633Y0173660D01*
X0113222Y0174652D01*
X0112463Y0175412D01*
X0111470Y0175823D01*
X0110396Y0175823D01*
X0109404Y0175412D01*
X0108644Y0174652D01*
X0108233Y0173660D01*
X0108233Y0172585D01*
X0108644Y0171593D01*
X0109404Y0170834D01*
X0110396Y0170423D01*
X0111470Y0170423D01*
X0112463Y0170834D01*
X0113265Y0171696D02*
X0159690Y0171696D01*
X0159455Y0172695D02*
X0113633Y0172695D01*
X0113619Y0173693D02*
X0159455Y0173693D01*
X0159719Y0174692D02*
X0113182Y0174692D01*
X0111790Y0175690D02*
X0160132Y0175690D01*
X0161121Y0176689D02*
X0045518Y0176689D01*
X0046227Y0177687D02*
X0177033Y0177687D01*
X0177033Y0176689D02*
X0176788Y0176689D01*
X0177033Y0178686D02*
X0174915Y0178686D01*
X0172994Y0178686D02*
X0164915Y0178686D01*
X0162994Y0178686D02*
X0046433Y0178686D01*
X0046257Y0179684D02*
X0074353Y0179684D01*
X0074144Y0179893D02*
X0074904Y0179134D01*
X0075896Y0178723D01*
X0076970Y0178723D01*
X0077963Y0179134D01*
X0078722Y0179893D01*
X0079133Y0180885D01*
X0079133Y0181960D01*
X0078722Y0182952D01*
X0077963Y0183712D01*
X0076970Y0184123D01*
X0075896Y0184123D01*
X0074904Y0183712D01*
X0074144Y0182952D01*
X0073733Y0181960D01*
X0073733Y0180885D01*
X0074144Y0179893D01*
X0073817Y0180683D02*
X0045591Y0180683D01*
X0041875Y0180683D02*
X0037800Y0180683D01*
X0038213Y0181681D02*
X0073733Y0181681D01*
X0074032Y0182680D02*
X0038455Y0182680D01*
X0038455Y0183678D02*
X0068921Y0183678D01*
X0070545Y0183678D02*
X0074871Y0183678D01*
X0073149Y0185675D02*
X0127868Y0185675D01*
X0127544Y0185352D02*
X0127133Y0184360D01*
X0127133Y0183285D01*
X0127544Y0182293D01*
X0128304Y0181534D01*
X0129296Y0181123D01*
X0130370Y0181123D01*
X0131363Y0181534D01*
X0132122Y0182293D01*
X0132533Y0183285D01*
X0132533Y0184360D01*
X0132122Y0185352D01*
X0131363Y0186112D01*
X0130370Y0186523D01*
X0129296Y0186523D01*
X0128304Y0186112D01*
X0127544Y0185352D01*
X0127265Y0184677D02*
X0112297Y0184677D01*
X0112063Y0184912D02*
X0111070Y0185323D01*
X0109996Y0185323D01*
X0109004Y0184912D01*
X0108244Y0184152D01*
X0107833Y0183160D01*
X0107833Y0182085D01*
X0108244Y0181093D01*
X0109004Y0180334D01*
X0109996Y0179923D01*
X0111070Y0179923D01*
X0112063Y0180334D01*
X0112822Y0181093D01*
X0113233Y0182085D01*
X0113233Y0183160D01*
X0112822Y0184152D01*
X0112063Y0184912D01*
X0113018Y0183678D02*
X0127133Y0183678D01*
X0127384Y0182680D02*
X0113233Y0182680D01*
X0113066Y0181681D02*
X0128156Y0181681D01*
X0131511Y0181681D02*
X0159696Y0181681D01*
X0159455Y0182680D02*
X0132282Y0182680D01*
X0132533Y0183678D02*
X0141921Y0183678D01*
X0141965Y0183660D02*
X0143502Y0183660D01*
X0144921Y0184248D01*
X0146008Y0185335D01*
X0146596Y0186754D01*
X0146596Y0188291D01*
X0146008Y0189710D01*
X0144921Y0190797D01*
X0143502Y0191385D01*
X0141965Y0191385D01*
X0140546Y0190797D01*
X0139459Y0189710D01*
X0138871Y0188291D01*
X0138871Y0186754D01*
X0139459Y0185335D01*
X0140546Y0184248D01*
X0141965Y0183660D01*
X0143545Y0183678D02*
X0159455Y0183678D01*
X0159713Y0184677D02*
X0145350Y0184677D01*
X0146149Y0185675D02*
X0160126Y0185675D01*
X0161106Y0186674D02*
X0146562Y0186674D01*
X0146596Y0187672D02*
X0177033Y0187672D01*
X0177033Y0186674D02*
X0176803Y0186674D01*
X0177033Y0188671D02*
X0174879Y0188671D01*
X0173030Y0188671D02*
X0164879Y0188671D01*
X0163030Y0188671D02*
X0146438Y0188671D01*
X0146024Y0189669D02*
X0161080Y0189669D01*
X0160116Y0190668D02*
X0145050Y0190668D01*
X0140417Y0190668D02*
X0105997Y0190668D01*
X0105763Y0190434D02*
X0106522Y0191193D01*
X0106933Y0192185D01*
X0106933Y0193260D01*
X0106522Y0194252D01*
X0105763Y0195012D01*
X0104770Y0195423D01*
X0103696Y0195423D01*
X0102704Y0195012D01*
X0101944Y0194252D01*
X0101533Y0193260D01*
X0101533Y0192185D01*
X0101944Y0191193D01*
X0102704Y0190434D01*
X0103696Y0190023D01*
X0104770Y0190023D01*
X0105763Y0190434D01*
X0106718Y0191667D02*
X0159702Y0191667D01*
X0159455Y0192665D02*
X0106933Y0192665D01*
X0106766Y0193664D02*
X0159455Y0193664D01*
X0159706Y0194662D02*
X0106112Y0194662D01*
X0107079Y0196659D02*
X0089988Y0196659D01*
X0089488Y0196452D02*
X0090962Y0197063D01*
X0092090Y0198191D01*
X0092701Y0199664D01*
X0092701Y0201260D01*
X0092090Y0202733D01*
X0090962Y0203861D01*
X0089488Y0204472D01*
X0087893Y0204472D01*
X0086419Y0203861D01*
X0085291Y0202733D01*
X0084681Y0201260D01*
X0084681Y0199664D01*
X0085291Y0198191D01*
X0086419Y0197063D01*
X0087893Y0196452D01*
X0089488Y0196452D01*
X0087394Y0196659D02*
X0070473Y0196659D01*
X0069973Y0196452D02*
X0071447Y0197063D01*
X0072575Y0198191D01*
X0073186Y0199664D01*
X0073186Y0201260D01*
X0072575Y0202733D01*
X0071447Y0203861D01*
X0069973Y0204472D01*
X0068378Y0204472D01*
X0066904Y0203861D01*
X0065776Y0202733D01*
X0065166Y0201260D01*
X0065166Y0199664D01*
X0065776Y0198191D01*
X0066904Y0197063D01*
X0068378Y0196452D01*
X0069973Y0196452D01*
X0067879Y0196659D02*
X0050788Y0196659D01*
X0052357Y0197658D02*
X0066309Y0197658D01*
X0065584Y0198656D02*
X0053083Y0198656D01*
X0053497Y0199655D02*
X0065170Y0199655D01*
X0065166Y0200653D02*
X0053501Y0200653D01*
X0053338Y0201652D02*
X0065328Y0201652D01*
X0065742Y0202650D02*
X0052925Y0202650D01*
X0051975Y0203649D02*
X0066692Y0203649D01*
X0069353Y0207643D02*
X0049314Y0207643D01*
X0049950Y0208641D02*
X0068717Y0208641D01*
X0068341Y0209640D02*
X0050326Y0209640D01*
X0050377Y0211637D02*
X0068289Y0211637D01*
X0068563Y0212635D02*
X0050104Y0212635D01*
X0049544Y0213634D02*
X0069123Y0213634D01*
X0072613Y0208641D02*
X0073613Y0208641D01*
X0073613Y0207643D02*
X0072613Y0207643D01*
X0072613Y0206644D02*
X0073613Y0206644D01*
X0075727Y0206644D02*
X0082140Y0206644D01*
X0080994Y0207643D02*
X0076873Y0207643D01*
X0077509Y0208641D02*
X0080357Y0208641D01*
X0079982Y0209640D02*
X0077885Y0209640D01*
X0077936Y0211637D02*
X0079930Y0211637D01*
X0080204Y0212635D02*
X0077663Y0212635D01*
X0077103Y0213634D02*
X0080764Y0213634D01*
X0084254Y0208641D02*
X0085254Y0208641D01*
X0085254Y0207643D02*
X0084254Y0207643D01*
X0084254Y0206644D02*
X0085254Y0206644D01*
X0087368Y0206644D02*
X0109699Y0206644D01*
X0108553Y0207643D02*
X0088514Y0207643D01*
X0089150Y0208641D02*
X0107917Y0208641D01*
X0107541Y0209640D02*
X0089526Y0209640D01*
X0089577Y0211637D02*
X0107489Y0211637D01*
X0107763Y0212635D02*
X0089304Y0212635D01*
X0088744Y0213634D02*
X0108323Y0213634D01*
X0111813Y0208641D02*
X0112813Y0208641D01*
X0112813Y0207643D02*
X0111813Y0207643D01*
X0111813Y0206644D02*
X0112813Y0206644D01*
X0110860Y0203649D02*
X0123214Y0203649D01*
X0124212Y0202650D02*
X0111810Y0202650D01*
X0112382Y0199655D02*
X0161095Y0199655D01*
X0163057Y0197658D02*
X0111242Y0197658D01*
X0111968Y0198656D02*
X0165733Y0198656D01*
X0165828Y0197658D02*
X0164853Y0197658D01*
X0161091Y0196659D02*
X0109673Y0196659D01*
X0105509Y0197658D02*
X0091557Y0197658D01*
X0092283Y0198656D02*
X0104784Y0198656D01*
X0104370Y0199655D02*
X0092697Y0199655D01*
X0092701Y0200653D02*
X0104366Y0200653D01*
X0104528Y0201652D02*
X0092538Y0201652D01*
X0092125Y0202650D02*
X0104942Y0202650D01*
X0105892Y0203649D02*
X0091175Y0203649D01*
X0086207Y0203649D02*
X0071660Y0203649D01*
X0072610Y0202650D02*
X0085257Y0202650D01*
X0084843Y0201652D02*
X0073023Y0201652D01*
X0073186Y0200653D02*
X0084681Y0200653D01*
X0084685Y0199655D02*
X0073182Y0199655D01*
X0072768Y0198656D02*
X0085099Y0198656D01*
X0085824Y0197658D02*
X0072042Y0197658D01*
X0072050Y0190668D02*
X0080570Y0190668D01*
X0084297Y0190668D02*
X0084833Y0190668D01*
X0084833Y0190760D02*
X0084833Y0189685D01*
X0085244Y0188693D01*
X0086004Y0187934D01*
X0086996Y0187523D01*
X0088070Y0187523D01*
X0089063Y0187934D01*
X0089822Y0188693D01*
X0090233Y0189685D01*
X0090233Y0190760D01*
X0089822Y0191752D01*
X0089063Y0192512D01*
X0088070Y0192923D01*
X0086996Y0192923D01*
X0086004Y0192512D01*
X0085244Y0191752D01*
X0084833Y0190760D01*
X0084960Y0191667D02*
X0085209Y0191667D01*
X0085133Y0192665D02*
X0086375Y0192665D01*
X0084925Y0193664D02*
X0101701Y0193664D01*
X0101533Y0192665D02*
X0088692Y0192665D01*
X0089858Y0191667D02*
X0101748Y0191667D01*
X0102470Y0190668D02*
X0090233Y0190668D01*
X0090227Y0189669D02*
X0139442Y0189669D01*
X0139029Y0188671D02*
X0089800Y0188671D01*
X0088432Y0187672D02*
X0138871Y0187672D01*
X0138904Y0186674D02*
X0073562Y0186674D01*
X0073596Y0187672D02*
X0086634Y0187672D01*
X0085267Y0188671D02*
X0073438Y0188671D01*
X0073024Y0189669D02*
X0084840Y0189669D01*
X0084212Y0194662D02*
X0102354Y0194662D01*
X0108769Y0184677D02*
X0072350Y0184677D01*
X0067117Y0184677D02*
X0038197Y0184677D01*
X0037783Y0185675D02*
X0066318Y0185675D01*
X0065904Y0186674D02*
X0036803Y0186674D01*
X0036844Y0179684D02*
X0041209Y0179684D01*
X0041949Y0176689D02*
X0036788Y0176689D01*
X0037777Y0175690D02*
X0110077Y0175690D01*
X0108684Y0174692D02*
X0038190Y0174692D01*
X0038455Y0173693D02*
X0108247Y0173693D01*
X0108233Y0172695D02*
X0038455Y0172695D01*
X0038220Y0171696D02*
X0108602Y0171696D01*
X0109732Y0170698D02*
X0037806Y0170698D01*
X0036859Y0169699D02*
X0086816Y0169699D01*
X0085467Y0166704D02*
X0036731Y0166704D01*
X0034455Y0165705D02*
X0033455Y0165705D01*
X0033455Y0164707D02*
X0034455Y0164707D01*
X0034455Y0163708D02*
X0033455Y0163708D01*
X0029693Y0161711D02*
X0028226Y0161711D01*
X0027812Y0160713D02*
X0030169Y0160713D01*
X0031040Y0159714D02*
X0026874Y0159714D01*
X0026759Y0156719D02*
X0031150Y0156719D01*
X0030152Y0155720D02*
X0027757Y0155720D01*
X0028178Y0154722D02*
X0029731Y0154722D01*
X0029455Y0153723D02*
X0028455Y0153723D01*
X0028455Y0152725D02*
X0029455Y0152725D01*
X0029677Y0151726D02*
X0028232Y0151726D01*
X0027818Y0150728D02*
X0030091Y0150728D01*
X0031020Y0149729D02*
X0026889Y0149729D01*
X0025023Y0148731D02*
X0032886Y0148731D01*
X0033059Y0147659D02*
X0031406Y0146974D01*
X0030140Y0145708D01*
X0029455Y0144054D01*
X0029455Y0142264D01*
X0030140Y0140610D01*
X0031406Y0139344D01*
X0033059Y0138659D01*
X0034850Y0138659D01*
X0036504Y0139344D01*
X0037770Y0140610D01*
X0038455Y0142264D01*
X0038455Y0144054D01*
X0037770Y0145708D01*
X0036504Y0146974D01*
X0034850Y0147659D01*
X0033059Y0147659D01*
X0031165Y0146734D02*
X0026744Y0146734D01*
X0027742Y0145735D02*
X0030167Y0145735D01*
X0029737Y0144736D02*
X0028172Y0144736D01*
X0028455Y0143738D02*
X0029455Y0143738D01*
X0029455Y0142739D02*
X0028455Y0142739D01*
X0028238Y0141741D02*
X0029671Y0141741D01*
X0030085Y0140742D02*
X0027824Y0140742D01*
X0026904Y0139744D02*
X0031005Y0139744D01*
X0032850Y0138745D02*
X0025059Y0138745D01*
X0022850Y0138745D02*
X0022033Y0138745D01*
X0022033Y0137747D02*
X0066575Y0137747D01*
X0066733Y0137985D02*
X0066311Y0137352D01*
X0066020Y0136649D01*
X0065871Y0135903D01*
X0065871Y0135810D01*
X0069446Y0135810D01*
X0069446Y0139385D01*
X0069353Y0139385D01*
X0068607Y0139236D01*
X0067904Y0138945D01*
X0067271Y0138523D01*
X0066733Y0137985D01*
X0067605Y0138745D02*
X0035059Y0138745D01*
X0036904Y0139744D02*
X0072633Y0139744D01*
X0072533Y0139985D02*
X0072944Y0138993D01*
X0073704Y0138234D01*
X0074696Y0137823D01*
X0075770Y0137823D01*
X0076763Y0138234D01*
X0077522Y0138993D01*
X0077933Y0139985D01*
X0077933Y0141060D01*
X0077522Y0142052D01*
X0076763Y0142812D01*
X0075770Y0143223D01*
X0074696Y0143223D01*
X0073704Y0142812D01*
X0072944Y0142052D01*
X0072533Y0141060D01*
X0072533Y0139985D01*
X0072533Y0140742D02*
X0037824Y0140742D01*
X0038238Y0141741D02*
X0072816Y0141741D01*
X0073632Y0142739D02*
X0038455Y0142739D01*
X0038455Y0143738D02*
X0142433Y0143738D01*
X0142433Y0143285D02*
X0142844Y0142293D01*
X0143604Y0141534D01*
X0144596Y0141123D01*
X0145670Y0141123D01*
X0146663Y0141534D01*
X0147422Y0142293D01*
X0147833Y0143285D01*
X0147833Y0144360D01*
X0147422Y0145352D01*
X0146663Y0146112D01*
X0145670Y0146523D01*
X0144596Y0146523D01*
X0143604Y0146112D01*
X0142844Y0145352D01*
X0142433Y0144360D01*
X0142433Y0143285D01*
X0142659Y0142739D02*
X0099035Y0142739D01*
X0098963Y0142812D02*
X0097970Y0143223D01*
X0096896Y0143223D01*
X0095904Y0142812D01*
X0095144Y0142052D01*
X0094733Y0141060D01*
X0094733Y0140296D01*
X0094670Y0140323D01*
X0093596Y0140323D01*
X0092604Y0139912D01*
X0091844Y0139152D01*
X0091433Y0138160D01*
X0091433Y0137085D01*
X0091844Y0136093D01*
X0092604Y0135334D01*
X0093596Y0134923D01*
X0093859Y0134923D01*
X0093833Y0134860D01*
X0093833Y0133785D01*
X0094244Y0132793D01*
X0095004Y0132034D01*
X0095996Y0131623D01*
X0097070Y0131623D01*
X0098063Y0132034D01*
X0098822Y0132793D01*
X0099233Y0133785D01*
X0099233Y0134860D01*
X0098822Y0135852D01*
X0098063Y0136612D01*
X0097070Y0137023D01*
X0096807Y0137023D01*
X0096833Y0137085D01*
X0096833Y0137849D01*
X0096896Y0137823D01*
X0097970Y0137823D01*
X0098963Y0138234D01*
X0099722Y0138993D01*
X0100133Y0139985D01*
X0100133Y0141060D01*
X0099722Y0142052D01*
X0098963Y0142812D01*
X0099851Y0141741D02*
X0143397Y0141741D01*
X0142589Y0144736D02*
X0038172Y0144736D01*
X0037742Y0145735D02*
X0143227Y0145735D01*
X0147039Y0145735D02*
X0160167Y0145735D01*
X0159737Y0144736D02*
X0147677Y0144736D01*
X0147833Y0143738D02*
X0159455Y0143738D01*
X0159455Y0142739D02*
X0147607Y0142739D01*
X0146870Y0141741D02*
X0159671Y0141741D01*
X0160085Y0140742D02*
X0100133Y0140742D01*
X0100033Y0139744D02*
X0111324Y0139744D01*
X0110200Y0138745D02*
X0099475Y0138745D01*
X0097732Y0136748D02*
X0109849Y0136748D01*
X0109833Y0137747D02*
X0096833Y0137747D01*
X0098865Y0135750D02*
X0110288Y0135750D01*
X0111685Y0134751D02*
X0106223Y0134751D01*
X0105863Y0135112D02*
X0104870Y0135523D01*
X0103796Y0135523D01*
X0102804Y0135112D01*
X0102044Y0134352D01*
X0101633Y0133360D01*
X0101633Y0132285D01*
X0102044Y0131293D01*
X0102804Y0130534D01*
X0103796Y0130123D01*
X0104870Y0130123D01*
X0105863Y0130534D01*
X0106622Y0131293D01*
X0107033Y0132285D01*
X0107033Y0133360D01*
X0106622Y0134352D01*
X0105863Y0135112D01*
X0106870Y0133753D02*
X0108945Y0133753D01*
X0108355Y0132754D02*
X0107033Y0132754D01*
X0106814Y0131756D02*
X0108233Y0131756D01*
X0108494Y0130757D02*
X0106086Y0130757D01*
X0109279Y0129759D02*
X0036919Y0129759D01*
X0037831Y0130757D02*
X0102580Y0130757D01*
X0101853Y0131756D02*
X0097392Y0131756D01*
X0098783Y0132754D02*
X0101633Y0132754D01*
X0101796Y0133753D02*
X0099220Y0133753D01*
X0099233Y0134751D02*
X0102444Y0134751D01*
X0095675Y0131756D02*
X0070594Y0131756D01*
X0070860Y0131809D02*
X0071563Y0132100D01*
X0072195Y0132523D01*
X0072733Y0133061D01*
X0073156Y0133693D01*
X0073447Y0134396D01*
X0073596Y0135142D01*
X0073596Y0135235D01*
X0070021Y0135235D01*
X0070021Y0135810D01*
X0073596Y0135810D01*
X0073596Y0135903D01*
X0073447Y0136649D01*
X0073156Y0137352D01*
X0072733Y0137985D01*
X0072195Y0138523D01*
X0071563Y0138945D01*
X0070860Y0139236D01*
X0070114Y0139385D01*
X0070021Y0139385D01*
X0070021Y0135810D01*
X0069446Y0135810D01*
X0069446Y0135235D01*
X0070021Y0135235D01*
X0070021Y0131660D01*
X0070114Y0131660D01*
X0070860Y0131809D01*
X0070021Y0131756D02*
X0069446Y0131756D01*
X0069446Y0131660D02*
X0069446Y0135235D01*
X0065871Y0135235D01*
X0065871Y0135142D01*
X0066020Y0134396D01*
X0066311Y0133693D01*
X0066733Y0133061D01*
X0067271Y0132523D01*
X0067904Y0132100D01*
X0068607Y0131809D01*
X0069353Y0131660D01*
X0069446Y0131660D01*
X0068873Y0131756D02*
X0038244Y0131756D01*
X0038455Y0132754D02*
X0067040Y0132754D01*
X0066286Y0133753D02*
X0038455Y0133753D01*
X0038166Y0134751D02*
X0065949Y0134751D01*
X0066061Y0136748D02*
X0036729Y0136748D01*
X0037727Y0135750D02*
X0069446Y0135750D01*
X0070021Y0135750D02*
X0092188Y0135750D01*
X0091573Y0136748D02*
X0073406Y0136748D01*
X0072892Y0137747D02*
X0091433Y0137747D01*
X0091676Y0138745D02*
X0077275Y0138745D01*
X0077833Y0139744D02*
X0092436Y0139744D01*
X0094733Y0140742D02*
X0077933Y0140742D01*
X0077651Y0141741D02*
X0095016Y0141741D01*
X0095832Y0142739D02*
X0076835Y0142739D01*
X0073192Y0138745D02*
X0071862Y0138745D01*
X0070021Y0138745D02*
X0069446Y0138745D01*
X0069446Y0137747D02*
X0070021Y0137747D01*
X0070021Y0136748D02*
X0069446Y0136748D01*
X0069446Y0134751D02*
X0070021Y0134751D01*
X0070021Y0133753D02*
X0069446Y0133753D01*
X0069446Y0132754D02*
X0070021Y0132754D01*
X0072427Y0132754D02*
X0094283Y0132754D01*
X0093847Y0133753D02*
X0073181Y0133753D01*
X0073518Y0134751D02*
X0093833Y0134751D01*
X0094324Y0150728D02*
X0160091Y0150728D01*
X0159677Y0151726D02*
X0095755Y0151726D01*
X0096208Y0152725D02*
X0159455Y0152725D01*
X0159455Y0153723D02*
X0152872Y0153723D01*
X0151795Y0153723D02*
X0096233Y0153723D01*
X0095876Y0154722D02*
X0150216Y0154722D01*
X0153853Y0158716D02*
X0155008Y0158716D01*
X0158859Y0158716D02*
X0162922Y0158716D01*
X0164987Y0158716D02*
X0172922Y0158716D01*
X0174987Y0158716D02*
X0177033Y0158716D01*
X0177033Y0159714D02*
X0176874Y0159714D01*
X0177033Y0157717D02*
X0159485Y0157717D01*
X0159633Y0156719D02*
X0161150Y0156719D01*
X0160152Y0155720D02*
X0159399Y0155720D01*
X0159731Y0154722D02*
X0158651Y0154722D01*
X0155216Y0154722D02*
X0154451Y0154722D01*
X0161020Y0149729D02*
X0044633Y0149729D01*
X0044633Y0149760D02*
X0044222Y0150752D01*
X0043463Y0151512D01*
X0042470Y0151923D01*
X0041396Y0151923D01*
X0040404Y0151512D01*
X0039644Y0150752D01*
X0039233Y0149760D01*
X0039233Y0148685D01*
X0039644Y0147693D01*
X0040404Y0146934D01*
X0041396Y0146523D01*
X0042470Y0146523D01*
X0043463Y0146934D01*
X0044222Y0147693D01*
X0044633Y0148685D01*
X0044633Y0149760D01*
X0044633Y0148731D02*
X0162886Y0148731D01*
X0165023Y0148731D02*
X0172886Y0148731D01*
X0175023Y0148731D02*
X0177033Y0148731D01*
X0177033Y0149729D02*
X0176889Y0149729D01*
X0177033Y0147732D02*
X0044238Y0147732D01*
X0042980Y0146734D02*
X0161165Y0146734D01*
X0166729Y0136748D02*
X0171180Y0136748D01*
X0170182Y0135750D02*
X0167727Y0135750D01*
X0168166Y0134751D02*
X0169743Y0134751D01*
X0169455Y0133753D02*
X0168455Y0133753D01*
X0168455Y0132754D02*
X0169455Y0132754D01*
X0169665Y0131756D02*
X0168244Y0131756D01*
X0167831Y0130757D02*
X0170079Y0130757D01*
X0170991Y0129759D02*
X0166919Y0129759D01*
X0165095Y0128760D02*
X0172814Y0128760D01*
X0175095Y0128760D02*
X0177033Y0128760D01*
X0177033Y0127762D02*
X0022033Y0127762D01*
X0022033Y0128760D02*
X0022814Y0128760D01*
X0026919Y0129759D02*
X0030991Y0129759D01*
X0030079Y0130757D02*
X0027831Y0130757D01*
X0028244Y0131756D02*
X0029665Y0131756D01*
X0029455Y0132754D02*
X0028455Y0132754D01*
X0028455Y0133753D02*
X0029455Y0133753D01*
X0029743Y0134751D02*
X0028166Y0134751D01*
X0027727Y0135750D02*
X0030182Y0135750D01*
X0031180Y0136748D02*
X0026729Y0136748D01*
X0022033Y0147732D02*
X0039628Y0147732D01*
X0039233Y0148731D02*
X0035023Y0148731D01*
X0036889Y0149729D02*
X0039233Y0149729D01*
X0039634Y0150728D02*
X0037818Y0150728D01*
X0038232Y0151726D02*
X0040922Y0151726D01*
X0042945Y0151726D02*
X0053441Y0151726D01*
X0053333Y0152725D02*
X0038455Y0152725D01*
X0044232Y0150728D02*
X0054010Y0150728D01*
X0058057Y0150728D02*
X0092743Y0150728D01*
X0113381Y0134751D02*
X0119744Y0134751D01*
X0119333Y0133753D02*
X0112921Y0133753D01*
X0113511Y0132754D02*
X0119333Y0132754D01*
X0119718Y0131756D02*
X0113633Y0131756D01*
X0113373Y0130757D02*
X0120930Y0130757D01*
X0121079Y0135750D02*
X0114779Y0135750D01*
X0126098Y0117777D02*
X0177033Y0117777D01*
X0177033Y0118775D02*
X0175131Y0118775D01*
X0176933Y0119774D02*
X0177033Y0119774D01*
X0177033Y0116778D02*
X0176629Y0116778D01*
X0174455Y0116778D02*
X0173455Y0116778D01*
X0173455Y0115780D02*
X0174455Y0115780D01*
X0174455Y0114781D02*
X0173455Y0114781D01*
X0173455Y0113783D02*
X0174455Y0113783D01*
X0173455Y0112784D02*
X0164455Y0112784D01*
X0164455Y0111786D02*
X0163455Y0111786D01*
X0163455Y0110787D02*
X0164455Y0110787D01*
X0164455Y0109789D02*
X0163455Y0109789D01*
X0163059Y0107659D02*
X0161406Y0106974D01*
X0160140Y0105708D01*
X0159455Y0104054D01*
X0159455Y0102264D01*
X0160140Y0100610D01*
X0161406Y0099344D01*
X0163059Y0098659D01*
X0164850Y0098659D01*
X0166504Y0099344D01*
X0167770Y0100610D01*
X0168455Y0102264D01*
X0168455Y0104054D01*
X0167770Y0105708D01*
X0166504Y0106974D01*
X0164850Y0107659D01*
X0163059Y0107659D01*
X0161225Y0106793D02*
X0149924Y0106793D01*
X0151146Y0105795D02*
X0160226Y0105795D01*
X0159762Y0104796D02*
X0151533Y0104796D01*
X0151533Y0103798D02*
X0159455Y0103798D01*
X0159455Y0102799D02*
X0151125Y0102799D01*
X0149800Y0101800D02*
X0159646Y0101800D01*
X0160060Y0100802D02*
X0145292Y0100802D01*
X0145533Y0101800D02*
X0147867Y0101800D01*
X0146542Y0102799D02*
X0145393Y0102799D01*
X0144777Y0103798D02*
X0146133Y0103798D01*
X0144533Y0099803D02*
X0160946Y0099803D01*
X0162707Y0098805D02*
X0145169Y0098805D01*
X0145907Y0097806D02*
X0177033Y0097806D01*
X0177033Y0096808D02*
X0176669Y0096808D01*
X0177033Y0098805D02*
X0175203Y0098805D01*
X0176963Y0099803D02*
X0177033Y0099803D01*
X0172707Y0098805D02*
X0165203Y0098805D01*
X0164850Y0097659D02*
X0163059Y0097659D01*
X0161406Y0096974D01*
X0160140Y0095708D01*
X0159455Y0094054D01*
X0159455Y0092264D01*
X0160140Y0090610D01*
X0161406Y0089344D01*
X0163059Y0088659D01*
X0164850Y0088659D01*
X0166504Y0089344D01*
X0167770Y0090610D01*
X0168455Y0092264D01*
X0168455Y0094054D01*
X0167770Y0095708D01*
X0166504Y0096974D01*
X0164850Y0097659D01*
X0166669Y0096808D02*
X0171240Y0096808D01*
X0170241Y0095809D02*
X0167668Y0095809D01*
X0168141Y0094811D02*
X0169768Y0094811D01*
X0169455Y0093812D02*
X0168455Y0093812D01*
X0168455Y0092814D02*
X0169455Y0092814D01*
X0169640Y0091815D02*
X0168269Y0091815D01*
X0167855Y0090817D02*
X0170054Y0090817D01*
X0170931Y0089818D02*
X0166978Y0089818D01*
X0165239Y0088820D02*
X0172671Y0088820D01*
X0171255Y0086823D02*
X0166655Y0086823D01*
X0166504Y0086974D02*
X0164850Y0087659D01*
X0163059Y0087659D01*
X0161406Y0086974D01*
X0160140Y0085708D01*
X0159455Y0084054D01*
X0159455Y0082264D01*
X0160140Y0080610D01*
X0161406Y0079344D01*
X0163059Y0078659D01*
X0164850Y0078659D01*
X0166504Y0079344D01*
X0167770Y0080610D01*
X0168455Y0082264D01*
X0168455Y0084054D01*
X0167770Y0085708D01*
X0166504Y0086974D01*
X0167653Y0085824D02*
X0170256Y0085824D01*
X0169774Y0084826D02*
X0168135Y0084826D01*
X0168455Y0083827D02*
X0169455Y0083827D01*
X0169455Y0082829D02*
X0168455Y0082829D01*
X0168275Y0081830D02*
X0169634Y0081830D01*
X0170048Y0080832D02*
X0167861Y0080832D01*
X0166993Y0079833D02*
X0170916Y0079833D01*
X0172635Y0078835D02*
X0165274Y0078835D01*
X0166640Y0076838D02*
X0171270Y0076838D01*
X0170271Y0075839D02*
X0167638Y0075839D01*
X0168129Y0074841D02*
X0169780Y0074841D01*
X0169455Y0073842D02*
X0168455Y0073842D01*
X0168455Y0072844D02*
X0169455Y0072844D01*
X0169628Y0071845D02*
X0168281Y0071845D01*
X0167868Y0070847D02*
X0170042Y0070847D01*
X0170901Y0069848D02*
X0167008Y0069848D01*
X0165310Y0068850D02*
X0172599Y0068850D01*
X0171284Y0066853D02*
X0166625Y0066853D01*
X0167623Y0065854D02*
X0170286Y0065854D01*
X0169787Y0064856D02*
X0168123Y0064856D01*
X0168455Y0063857D02*
X0169455Y0063857D01*
X0169455Y0062859D02*
X0168455Y0062859D01*
X0168287Y0061860D02*
X0169622Y0061860D01*
X0170035Y0060862D02*
X0167874Y0060862D01*
X0167023Y0059863D02*
X0170886Y0059863D01*
X0172563Y0058865D02*
X0165346Y0058865D01*
X0166610Y0056867D02*
X0171299Y0056867D01*
X0170301Y0055869D02*
X0167608Y0055869D01*
X0168116Y0054870D02*
X0169793Y0054870D01*
X0169455Y0053872D02*
X0168455Y0053872D01*
X0168455Y0052873D02*
X0169455Y0052873D01*
X0169616Y0051875D02*
X0168294Y0051875D01*
X0167880Y0050876D02*
X0170029Y0050876D01*
X0170871Y0049878D02*
X0167038Y0049878D01*
X0160871Y0049878D02*
X0136407Y0049878D01*
X0136548Y0050876D02*
X0160029Y0050876D01*
X0159616Y0051875D02*
X0136548Y0051875D01*
X0136548Y0052873D02*
X0159455Y0052873D01*
X0159455Y0053872D02*
X0136473Y0053872D01*
X0136548Y0054870D02*
X0159793Y0054870D01*
X0160301Y0055869D02*
X0147398Y0055869D01*
X0147063Y0055534D02*
X0147822Y0056293D01*
X0148233Y0057285D01*
X0148233Y0058360D01*
X0147822Y0059352D01*
X0147063Y0060112D01*
X0146070Y0060523D01*
X0144996Y0060523D01*
X0144004Y0060112D01*
X0143244Y0059352D01*
X0142833Y0058360D01*
X0142833Y0057285D01*
X0143244Y0056293D01*
X0144004Y0055534D01*
X0144996Y0055123D01*
X0146070Y0055123D01*
X0147063Y0055534D01*
X0148060Y0056867D02*
X0150870Y0056867D01*
X0150904Y0056834D02*
X0151896Y0056423D01*
X0152970Y0056423D01*
X0153963Y0056834D01*
X0154722Y0057593D01*
X0155133Y0058585D01*
X0155133Y0059660D01*
X0154722Y0060652D01*
X0153963Y0061412D01*
X0152970Y0061823D01*
X0151896Y0061823D01*
X0150904Y0061412D01*
X0150144Y0060652D01*
X0149733Y0059660D01*
X0149733Y0058585D01*
X0150144Y0057593D01*
X0150904Y0056834D01*
X0150031Y0057866D02*
X0148233Y0057866D01*
X0148024Y0058865D02*
X0149733Y0058865D01*
X0149818Y0059863D02*
X0147311Y0059863D01*
X0150354Y0060862D02*
X0134053Y0060862D01*
X0135428Y0059863D02*
X0143755Y0059863D01*
X0143042Y0058865D02*
X0136117Y0058865D01*
X0136531Y0057866D02*
X0142833Y0057866D01*
X0143006Y0056867D02*
X0136548Y0056867D01*
X0136548Y0055869D02*
X0143669Y0055869D01*
X0153997Y0056867D02*
X0161299Y0056867D01*
X0162563Y0058865D02*
X0155133Y0058865D01*
X0155049Y0059863D02*
X0160886Y0059863D01*
X0160035Y0060862D02*
X0154513Y0060862D01*
X0154835Y0057866D02*
X0177033Y0057866D01*
X0177033Y0058865D02*
X0175346Y0058865D01*
X0177023Y0059863D02*
X0177033Y0059863D01*
X0177033Y0056867D02*
X0176610Y0056867D01*
X0176625Y0066853D02*
X0177033Y0066853D01*
X0177033Y0067851D02*
X0098088Y0067851D01*
X0098333Y0066853D02*
X0161284Y0066853D01*
X0160286Y0065854D02*
X0098196Y0065854D01*
X0097325Y0068850D02*
X0162599Y0068850D01*
X0162635Y0078835D02*
X0118829Y0078835D01*
X0118933Y0079085D02*
X0118522Y0078093D01*
X0117763Y0077334D01*
X0116770Y0076923D01*
X0115696Y0076923D01*
X0114704Y0077334D01*
X0113944Y0078093D01*
X0113533Y0079085D01*
X0113533Y0080160D01*
X0113944Y0081152D01*
X0114704Y0081912D01*
X0115696Y0082323D01*
X0116770Y0082323D01*
X0117763Y0081912D01*
X0118522Y0081152D01*
X0118933Y0080160D01*
X0118933Y0079085D01*
X0118933Y0079833D02*
X0160916Y0079833D01*
X0160048Y0080832D02*
X0151461Y0080832D01*
X0151822Y0081193D02*
X0152233Y0082185D01*
X0152233Y0082723D01*
X0153070Y0082723D01*
X0154063Y0083134D01*
X0154822Y0083893D01*
X0155233Y0084885D01*
X0155233Y0085390D01*
X0156063Y0085734D01*
X0156822Y0086493D01*
X0157233Y0087485D01*
X0157233Y0088560D01*
X0156822Y0089552D01*
X0156063Y0090312D01*
X0155070Y0090723D01*
X0153996Y0090723D01*
X0153004Y0090312D01*
X0152244Y0089552D01*
X0151833Y0088560D01*
X0151833Y0088055D01*
X0151004Y0087712D01*
X0150244Y0086952D01*
X0149833Y0085960D01*
X0149833Y0085423D01*
X0148996Y0085423D01*
X0148004Y0085012D01*
X0147244Y0084252D01*
X0146833Y0083260D01*
X0146833Y0082185D01*
X0147244Y0081193D01*
X0148004Y0080434D01*
X0148996Y0080023D01*
X0150070Y0080023D01*
X0151063Y0080434D01*
X0151822Y0081193D01*
X0152086Y0081830D02*
X0159634Y0081830D01*
X0159455Y0082829D02*
X0153327Y0082829D01*
X0154756Y0083827D02*
X0159455Y0083827D01*
X0159774Y0084826D02*
X0155209Y0084826D01*
X0156153Y0085824D02*
X0160256Y0085824D01*
X0161255Y0086823D02*
X0156959Y0086823D01*
X0157233Y0087821D02*
X0177033Y0087821D01*
X0177033Y0086823D02*
X0176655Y0086823D01*
X0177033Y0088820D02*
X0175239Y0088820D01*
X0176978Y0089818D02*
X0177033Y0089818D01*
X0176993Y0079833D02*
X0177033Y0079833D01*
X0177033Y0078835D02*
X0175274Y0078835D01*
X0177033Y0077836D02*
X0118265Y0077836D01*
X0118655Y0080832D02*
X0147606Y0080832D01*
X0146980Y0081830D02*
X0117844Y0081830D01*
X0114623Y0081830D02*
X0106144Y0081830D01*
X0105963Y0082012D02*
X0104970Y0082423D01*
X0103896Y0082423D01*
X0102904Y0082012D01*
X0102144Y0081252D01*
X0101733Y0080260D01*
X0101733Y0079185D01*
X0102144Y0078193D01*
X0102904Y0077434D01*
X0103896Y0077023D01*
X0104970Y0077023D01*
X0105963Y0077434D01*
X0106722Y0078193D01*
X0107133Y0079185D01*
X0107133Y0080260D01*
X0106722Y0081252D01*
X0105963Y0082012D01*
X0106896Y0080832D02*
X0113812Y0080832D01*
X0113533Y0079833D02*
X0107133Y0079833D01*
X0106988Y0078835D02*
X0113637Y0078835D01*
X0114201Y0077836D02*
X0106365Y0077836D01*
X0102501Y0077836D02*
X0022033Y0077836D01*
X0022033Y0078835D02*
X0022635Y0078835D01*
X0025274Y0078835D02*
X0032635Y0078835D01*
X0030916Y0079833D02*
X0026993Y0079833D01*
X0027861Y0080832D02*
X0030048Y0080832D01*
X0029634Y0081830D02*
X0028275Y0081830D01*
X0028455Y0082829D02*
X0029455Y0082829D01*
X0029455Y0083827D02*
X0028455Y0083827D01*
X0028135Y0084826D02*
X0029774Y0084826D01*
X0030256Y0085824D02*
X0027653Y0085824D01*
X0026655Y0086823D02*
X0031255Y0086823D01*
X0030931Y0089818D02*
X0026978Y0089818D01*
X0027855Y0090817D02*
X0030054Y0090817D01*
X0029640Y0091815D02*
X0028269Y0091815D01*
X0028455Y0092814D02*
X0029455Y0092814D01*
X0029455Y0093812D02*
X0028455Y0093812D01*
X0028141Y0094811D02*
X0029768Y0094811D01*
X0030241Y0095809D02*
X0027668Y0095809D01*
X0026669Y0096808D02*
X0031240Y0096808D01*
X0030946Y0099803D02*
X0026963Y0099803D01*
X0027849Y0100802D02*
X0030060Y0100802D01*
X0029646Y0101800D02*
X0028263Y0101800D01*
X0028455Y0102799D02*
X0029455Y0102799D01*
X0029455Y0103798D02*
X0028455Y0103798D01*
X0028147Y0104796D02*
X0029762Y0104796D01*
X0030226Y0105795D02*
X0027683Y0105795D01*
X0026684Y0106793D02*
X0031225Y0106793D01*
X0036684Y0106793D02*
X0070543Y0106793D01*
X0069404Y0107792D02*
X0022033Y0107792D01*
X0022033Y0108790D02*
X0022743Y0108790D01*
X0037683Y0105795D02*
X0064104Y0105795D01*
X0063080Y0104796D02*
X0038147Y0104796D01*
X0038455Y0103798D02*
X0062733Y0103798D01*
X0062769Y0102799D02*
X0038455Y0102799D01*
X0038263Y0101800D02*
X0063237Y0101800D01*
X0066762Y0105795D02*
X0141743Y0105795D01*
X0143659Y0113783D02*
X0126612Y0113783D01*
X0127149Y0114781D02*
X0143533Y0114781D01*
X0143790Y0115780D02*
X0127233Y0115780D01*
X0126936Y0116778D02*
X0144571Y0116778D01*
X0146133Y0096808D02*
X0161240Y0096808D01*
X0160241Y0095809D02*
X0145978Y0095809D01*
X0145340Y0094811D02*
X0159768Y0094811D01*
X0159455Y0093812D02*
X0132433Y0093812D01*
X0132246Y0094811D02*
X0141527Y0094811D01*
X0140889Y0095809D02*
X0131565Y0095809D01*
X0132238Y0092814D02*
X0159455Y0092814D01*
X0159640Y0091815D02*
X0131545Y0091815D01*
X0130463Y0090212D02*
X0129470Y0090623D01*
X0128396Y0090623D01*
X0127404Y0090212D01*
X0126644Y0089452D01*
X0126233Y0088460D01*
X0126233Y0087385D01*
X0126644Y0086393D01*
X0127404Y0085634D01*
X0128396Y0085223D01*
X0129470Y0085223D01*
X0130463Y0085634D01*
X0131222Y0086393D01*
X0131633Y0087385D01*
X0131633Y0088460D01*
X0131222Y0089452D01*
X0130463Y0090212D01*
X0130856Y0089818D02*
X0152511Y0089818D01*
X0151941Y0088820D02*
X0131484Y0088820D01*
X0131633Y0087821D02*
X0151269Y0087821D01*
X0150191Y0086823D02*
X0131400Y0086823D01*
X0130653Y0085824D02*
X0149833Y0085824D01*
X0147818Y0084826D02*
X0099633Y0084826D01*
X0099565Y0085824D02*
X0127213Y0085824D01*
X0126466Y0086823D02*
X0099051Y0086823D01*
X0097473Y0087821D02*
X0126233Y0087821D01*
X0126383Y0088820D02*
X0125349Y0088820D01*
X0125864Y0089818D02*
X0127011Y0089818D01*
X0125933Y0090817D02*
X0160054Y0090817D01*
X0160931Y0089818D02*
X0156556Y0089818D01*
X0157126Y0088820D02*
X0162671Y0088820D01*
X0166963Y0099803D02*
X0170946Y0099803D01*
X0170060Y0100802D02*
X0167849Y0100802D01*
X0168263Y0101800D02*
X0169646Y0101800D01*
X0169455Y0102799D02*
X0168455Y0102799D01*
X0168455Y0103798D02*
X0169455Y0103798D01*
X0169762Y0104796D02*
X0168147Y0104796D01*
X0167683Y0105795D02*
X0170226Y0105795D01*
X0171225Y0106793D02*
X0166684Y0106793D01*
X0166948Y0109789D02*
X0170961Y0109789D01*
X0170115Y0110787D02*
X0167794Y0110787D01*
X0168240Y0111786D02*
X0169669Y0111786D01*
X0169497Y0113783D02*
X0168412Y0113783D01*
X0168159Y0114781D02*
X0169750Y0114781D01*
X0170296Y0115780D02*
X0167613Y0115780D01*
X0166629Y0116778D02*
X0171280Y0116778D01*
X0172778Y0118775D02*
X0165131Y0118775D01*
X0166933Y0119774D02*
X0170976Y0119774D01*
X0170072Y0120772D02*
X0167837Y0120772D01*
X0168250Y0121771D02*
X0169659Y0121771D01*
X0169455Y0122769D02*
X0168455Y0122769D01*
X0168455Y0123768D02*
X0169455Y0123768D01*
X0169750Y0124766D02*
X0168160Y0124766D01*
X0167713Y0125765D02*
X0170197Y0125765D01*
X0171195Y0126763D02*
X0166714Y0126763D01*
X0176714Y0126763D02*
X0177033Y0126763D01*
X0177033Y0129759D02*
X0176919Y0129759D01*
X0176744Y0146734D02*
X0177033Y0146734D01*
X0177033Y0156719D02*
X0176759Y0156719D01*
X0176859Y0169699D02*
X0177033Y0169699D01*
X0177033Y0179684D02*
X0176844Y0179684D01*
X0176829Y0189669D02*
X0177033Y0189669D01*
X0177033Y0196659D02*
X0176818Y0196659D01*
X0176814Y0199655D02*
X0177033Y0199655D01*
X0163455Y0213634D02*
X0116303Y0213634D01*
X0130306Y0211637D02*
X0144619Y0211637D01*
X0143341Y0210638D02*
X0131498Y0210638D01*
X0132296Y0209640D02*
X0142586Y0209640D01*
X0142142Y0208641D02*
X0132710Y0208641D01*
X0132977Y0207643D02*
X0141908Y0207643D01*
X0141999Y0205646D02*
X0132893Y0205646D01*
X0132977Y0206644D02*
X0146762Y0206644D01*
X0146762Y0207643D02*
X0147762Y0207643D01*
X0147762Y0208641D02*
X0146762Y0208641D01*
X0146762Y0209640D02*
X0147762Y0209640D01*
X0147762Y0210638D02*
X0146762Y0210638D01*
X0146762Y0211637D02*
X0147762Y0211637D01*
X0142360Y0204647D02*
X0132479Y0204647D01*
X0131939Y0203649D02*
X0142966Y0203649D01*
X0143955Y0202650D02*
X0130941Y0202650D01*
X0131799Y0185675D02*
X0139318Y0185675D01*
X0140117Y0184677D02*
X0132402Y0184677D01*
X0112412Y0180683D02*
X0160109Y0180683D01*
X0161065Y0179684D02*
X0078514Y0179684D01*
X0079049Y0180683D02*
X0108655Y0180683D01*
X0108001Y0181681D02*
X0079133Y0181681D01*
X0078835Y0182680D02*
X0107833Y0182680D01*
X0108048Y0183678D02*
X0077996Y0183678D01*
X0070499Y0206644D02*
X0048168Y0206644D01*
X0046054Y0206644D02*
X0045054Y0206644D01*
X0045054Y0207643D02*
X0046054Y0207643D01*
X0046054Y0208641D02*
X0045054Y0208641D01*
X0046624Y0197658D02*
X0034853Y0197658D01*
X0036818Y0196659D02*
X0048194Y0196659D01*
X0037789Y0195661D02*
X0160120Y0195661D01*
X0173455Y0111786D02*
X0174455Y0111786D01*
X0174455Y0110787D02*
X0173455Y0110787D01*
X0173455Y0109789D02*
X0174455Y0109789D01*
X0176948Y0109789D02*
X0177033Y0109789D01*
X0177033Y0106793D02*
X0176684Y0106793D01*
X0176640Y0076838D02*
X0177033Y0076838D01*
X0177008Y0069848D02*
X0177033Y0069848D01*
X0177033Y0068850D02*
X0175310Y0068850D01*
X0166089Y0038894D02*
X0165418Y0038894D01*
X0161329Y0036897D02*
X0134969Y0036897D01*
X0135927Y0035899D02*
X0160331Y0035899D01*
X0159805Y0034900D02*
X0136340Y0034900D01*
X0136548Y0033902D02*
X0159455Y0033902D01*
X0159455Y0032903D02*
X0136548Y0032903D01*
X0136548Y0031905D02*
X0159603Y0031905D01*
X0160017Y0030906D02*
X0136540Y0030906D01*
X0136548Y0029908D02*
X0160842Y0029908D01*
X0161465Y0026912D02*
X0136548Y0026912D01*
X0136184Y0025914D02*
X0160394Y0025914D01*
X0159799Y0024915D02*
X0135590Y0024915D01*
X0134443Y0023917D02*
X0159519Y0023917D01*
X0130111Y0023917D02*
X0077356Y0023917D01*
X0078503Y0024915D02*
X0128964Y0024915D01*
X0128369Y0025914D02*
X0079097Y0025914D01*
X0079462Y0026912D02*
X0128005Y0026912D01*
X0128005Y0027911D02*
X0079462Y0027911D01*
X0079462Y0028909D02*
X0128005Y0028909D01*
X0128005Y0029908D02*
X0079462Y0029908D01*
X0079453Y0030906D02*
X0128014Y0030906D01*
X0128005Y0031905D02*
X0079462Y0031905D01*
X0079462Y0032903D02*
X0128005Y0032903D01*
X0128005Y0033902D02*
X0079462Y0033902D01*
X0079254Y0034900D02*
X0128213Y0034900D01*
X0128627Y0035899D02*
X0078840Y0035899D01*
X0077882Y0036897D02*
X0124840Y0036897D01*
X0128426Y0036897D02*
X0129584Y0036897D01*
X0101879Y0078835D02*
X0097964Y0078835D01*
X0098529Y0079833D02*
X0101733Y0079833D01*
X0101970Y0080832D02*
X0098633Y0080832D01*
X0098356Y0081830D02*
X0102723Y0081830D01*
X0099319Y0083827D02*
X0147068Y0083827D01*
X0146833Y0082829D02*
X0098451Y0082829D01*
X0093511Y0081830D02*
X0047717Y0081830D01*
X0047954Y0080832D02*
X0093233Y0080832D01*
X0093338Y0079833D02*
X0047808Y0079833D01*
X0047184Y0078835D02*
X0093903Y0078835D01*
X0104819Y0089818D02*
X0075326Y0089818D01*
X0074757Y0090817D02*
X0104127Y0090817D01*
X0125620Y0091815D02*
X0127922Y0091815D01*
X0077848Y0067851D02*
X0022033Y0067851D01*
X0022033Y0068850D02*
X0022599Y0068850D01*
X0027008Y0069848D02*
X0030901Y0069848D01*
X0030042Y0070847D02*
X0027868Y0070847D01*
X0028281Y0071845D02*
X0029628Y0071845D01*
X0029455Y0072844D02*
X0028455Y0072844D01*
X0028455Y0073842D02*
X0029455Y0073842D01*
X0029780Y0074841D02*
X0028129Y0074841D01*
X0027638Y0075839D02*
X0030271Y0075839D01*
X0031270Y0076838D02*
X0026640Y0076838D01*
X0037023Y0059863D02*
X0067255Y0059863D01*
X0066931Y0056867D02*
X0036610Y0056867D01*
X0037608Y0055869D02*
X0067769Y0055869D01*
X0072551Y0046882D02*
X0074133Y0046882D01*
X0070918Y0026912D02*
X0036565Y0026912D01*
X0037564Y0025914D02*
X0071283Y0025914D01*
X0071877Y0024915D02*
X0038098Y0024915D01*
X0038455Y0023917D02*
X0073024Y0023917D01*
X0052528Y0028909D02*
X0035454Y0028909D01*
X0037067Y0029908D02*
X0051948Y0029908D01*
X0051833Y0030906D02*
X0037892Y0030906D01*
X0038306Y0031905D02*
X0052101Y0031905D01*
X0032455Y0028909D02*
X0025454Y0028909D01*
X0027067Y0029908D02*
X0030842Y0029908D01*
X0030017Y0030906D02*
X0027892Y0030906D01*
X0028306Y0031905D02*
X0029603Y0031905D01*
X0029455Y0032903D02*
X0028455Y0032903D01*
X0028455Y0033902D02*
X0029455Y0033902D01*
X0031344Y0026912D02*
X0026444Y0026912D01*
X0027515Y0025914D02*
X0030345Y0025914D01*
X0029811Y0024915D02*
X0028110Y0024915D01*
X0028391Y0023917D02*
X0029455Y0023917D01*
X0022455Y0028909D02*
X0022033Y0028909D01*
X0036744Y0146734D02*
X0040887Y0146734D01*
X0022886Y0148731D02*
X0022033Y0148731D01*
D11*
X0023955Y0153159D03*
X0023955Y0163159D03*
X0033955Y0163159D03*
X0033955Y0153159D03*
X0033955Y0143159D03*
X0033955Y0133159D03*
X0033955Y0123159D03*
X0033955Y0113159D03*
X0033955Y0103159D03*
X0033955Y0093159D03*
X0033955Y0083159D03*
X0033955Y0073159D03*
X0033955Y0063159D03*
X0033955Y0053159D03*
X0033955Y0043159D03*
X0033955Y0033159D03*
X0033955Y0023159D03*
X0023955Y0023159D03*
X0023955Y0033159D03*
X0023955Y0043159D03*
X0023955Y0053159D03*
X0023955Y0063159D03*
X0023955Y0073159D03*
X0023955Y0083159D03*
X0023955Y0093159D03*
X0023955Y0103159D03*
X0023955Y0113159D03*
X0023955Y0123159D03*
X0023955Y0133159D03*
X0023955Y0143159D03*
X0023955Y0173159D03*
X0023955Y0183159D03*
X0033955Y0183159D03*
X0033955Y0173159D03*
X0033955Y0193159D03*
X0033955Y0203159D03*
X0033955Y0213159D03*
X0023955Y0213159D03*
X0023955Y0203159D03*
X0023955Y0193159D03*
X0163955Y0193159D03*
X0163955Y0203159D03*
X0173955Y0203159D03*
X0173955Y0193159D03*
X0173955Y0183159D03*
X0173955Y0173159D03*
X0173955Y0163159D03*
X0173955Y0153159D03*
X0173955Y0143159D03*
X0173955Y0133159D03*
X0173955Y0123159D03*
X0173955Y0113159D03*
X0173955Y0103159D03*
X0173955Y0093159D03*
X0173955Y0083159D03*
X0173955Y0073159D03*
X0173955Y0063159D03*
X0173955Y0053159D03*
X0173955Y0043159D03*
X0173955Y0033159D03*
X0173955Y0023159D03*
X0163955Y0023159D03*
X0163955Y0033159D03*
X0163955Y0043159D03*
X0163955Y0053159D03*
X0163955Y0063159D03*
X0163955Y0073159D03*
X0163955Y0083159D03*
X0163955Y0093159D03*
X0163955Y0103159D03*
X0163955Y0113159D03*
X0163955Y0123159D03*
X0163955Y0133159D03*
X0163955Y0143159D03*
X0163955Y0153159D03*
X0163955Y0163159D03*
X0163955Y0173159D03*
X0163955Y0183159D03*
X0163955Y0213159D03*
X0173955Y0213159D03*
D12*
X0112313Y0210797D03*
X0084754Y0210797D03*
X0073113Y0210797D03*
X0045554Y0210797D03*
D13*
X0049491Y0200462D03*
X0069176Y0200462D03*
X0088691Y0200462D03*
X0108376Y0200462D03*
D14*
X0142733Y0187523D03*
X0142733Y0135523D03*
X0069733Y0135523D03*
X0069733Y0187523D03*
D15*
X0127577Y0206923D03*
X0147262Y0206923D03*
D16*
X0132277Y0054021D03*
X0132277Y0030556D03*
X0075190Y0030556D03*
X0075190Y0054021D03*
D17*
X0073418Y0055202D02*
X0073420Y0055286D01*
X0073426Y0055369D01*
X0073436Y0055452D01*
X0073450Y0055535D01*
X0073467Y0055617D01*
X0073489Y0055698D01*
X0073514Y0055777D01*
X0073543Y0055856D01*
X0073576Y0055933D01*
X0073612Y0056008D01*
X0073652Y0056082D01*
X0073695Y0056154D01*
X0073742Y0056223D01*
X0073792Y0056290D01*
X0073845Y0056355D01*
X0073901Y0056417D01*
X0073959Y0056477D01*
X0074021Y0056534D01*
X0074085Y0056587D01*
X0074152Y0056638D01*
X0074221Y0056685D01*
X0074292Y0056730D01*
X0074365Y0056770D01*
X0074440Y0056807D01*
X0074517Y0056841D01*
X0074595Y0056871D01*
X0074674Y0056897D01*
X0074755Y0056920D01*
X0074837Y0056938D01*
X0074919Y0056953D01*
X0075002Y0056964D01*
X0075085Y0056971D01*
X0075169Y0056974D01*
X0075253Y0056973D01*
X0075336Y0056968D01*
X0075420Y0056959D01*
X0075502Y0056946D01*
X0075584Y0056930D01*
X0075665Y0056909D01*
X0075746Y0056885D01*
X0075824Y0056857D01*
X0075902Y0056825D01*
X0075978Y0056789D01*
X0076052Y0056750D01*
X0076124Y0056708D01*
X0076194Y0056662D01*
X0076262Y0056613D01*
X0076327Y0056561D01*
X0076390Y0056506D01*
X0076450Y0056448D01*
X0076508Y0056387D01*
X0076562Y0056323D01*
X0076614Y0056257D01*
X0076662Y0056189D01*
X0076707Y0056118D01*
X0076748Y0056045D01*
X0076787Y0055971D01*
X0076821Y0055895D01*
X0076852Y0055817D01*
X0076879Y0055738D01*
X0076903Y0055657D01*
X0076922Y0055576D01*
X0076938Y0055494D01*
X0076950Y0055411D01*
X0076958Y0055327D01*
X0076962Y0055244D01*
X0076962Y0055160D01*
X0076958Y0055077D01*
X0076950Y0054993D01*
X0076938Y0054910D01*
X0076922Y0054828D01*
X0076903Y0054747D01*
X0076879Y0054666D01*
X0076852Y0054587D01*
X0076821Y0054509D01*
X0076787Y0054433D01*
X0076748Y0054359D01*
X0076707Y0054286D01*
X0076662Y0054215D01*
X0076614Y0054147D01*
X0076562Y0054081D01*
X0076508Y0054017D01*
X0076450Y0053956D01*
X0076390Y0053898D01*
X0076327Y0053843D01*
X0076262Y0053791D01*
X0076194Y0053742D01*
X0076124Y0053696D01*
X0076052Y0053654D01*
X0075978Y0053615D01*
X0075902Y0053579D01*
X0075824Y0053547D01*
X0075746Y0053519D01*
X0075665Y0053495D01*
X0075584Y0053474D01*
X0075502Y0053458D01*
X0075420Y0053445D01*
X0075336Y0053436D01*
X0075253Y0053431D01*
X0075169Y0053430D01*
X0075085Y0053433D01*
X0075002Y0053440D01*
X0074919Y0053451D01*
X0074837Y0053466D01*
X0074755Y0053484D01*
X0074674Y0053507D01*
X0074595Y0053533D01*
X0074517Y0053563D01*
X0074440Y0053597D01*
X0074365Y0053634D01*
X0074292Y0053674D01*
X0074221Y0053719D01*
X0074152Y0053766D01*
X0074085Y0053817D01*
X0074021Y0053870D01*
X0073959Y0053927D01*
X0073901Y0053987D01*
X0073845Y0054049D01*
X0073792Y0054114D01*
X0073742Y0054181D01*
X0073695Y0054250D01*
X0073652Y0054322D01*
X0073612Y0054396D01*
X0073576Y0054471D01*
X0073543Y0054548D01*
X0073514Y0054627D01*
X0073489Y0054706D01*
X0073467Y0054787D01*
X0073450Y0054869D01*
X0073436Y0054952D01*
X0073426Y0055035D01*
X0073420Y0055118D01*
X0073418Y0055202D01*
X0073418Y0056974D02*
X0073420Y0057058D01*
X0073426Y0057141D01*
X0073436Y0057224D01*
X0073450Y0057307D01*
X0073467Y0057389D01*
X0073489Y0057470D01*
X0073514Y0057549D01*
X0073543Y0057628D01*
X0073576Y0057705D01*
X0073612Y0057780D01*
X0073652Y0057854D01*
X0073695Y0057926D01*
X0073742Y0057995D01*
X0073792Y0058062D01*
X0073845Y0058127D01*
X0073901Y0058189D01*
X0073959Y0058249D01*
X0074021Y0058306D01*
X0074085Y0058359D01*
X0074152Y0058410D01*
X0074221Y0058457D01*
X0074292Y0058502D01*
X0074365Y0058542D01*
X0074440Y0058579D01*
X0074517Y0058613D01*
X0074595Y0058643D01*
X0074674Y0058669D01*
X0074755Y0058692D01*
X0074837Y0058710D01*
X0074919Y0058725D01*
X0075002Y0058736D01*
X0075085Y0058743D01*
X0075169Y0058746D01*
X0075253Y0058745D01*
X0075336Y0058740D01*
X0075420Y0058731D01*
X0075502Y0058718D01*
X0075584Y0058702D01*
X0075665Y0058681D01*
X0075746Y0058657D01*
X0075824Y0058629D01*
X0075902Y0058597D01*
X0075978Y0058561D01*
X0076052Y0058522D01*
X0076124Y0058480D01*
X0076194Y0058434D01*
X0076262Y0058385D01*
X0076327Y0058333D01*
X0076390Y0058278D01*
X0076450Y0058220D01*
X0076508Y0058159D01*
X0076562Y0058095D01*
X0076614Y0058029D01*
X0076662Y0057961D01*
X0076707Y0057890D01*
X0076748Y0057817D01*
X0076787Y0057743D01*
X0076821Y0057667D01*
X0076852Y0057589D01*
X0076879Y0057510D01*
X0076903Y0057429D01*
X0076922Y0057348D01*
X0076938Y0057266D01*
X0076950Y0057183D01*
X0076958Y0057099D01*
X0076962Y0057016D01*
X0076962Y0056932D01*
X0076958Y0056849D01*
X0076950Y0056765D01*
X0076938Y0056682D01*
X0076922Y0056600D01*
X0076903Y0056519D01*
X0076879Y0056438D01*
X0076852Y0056359D01*
X0076821Y0056281D01*
X0076787Y0056205D01*
X0076748Y0056131D01*
X0076707Y0056058D01*
X0076662Y0055987D01*
X0076614Y0055919D01*
X0076562Y0055853D01*
X0076508Y0055789D01*
X0076450Y0055728D01*
X0076390Y0055670D01*
X0076327Y0055615D01*
X0076262Y0055563D01*
X0076194Y0055514D01*
X0076124Y0055468D01*
X0076052Y0055426D01*
X0075978Y0055387D01*
X0075902Y0055351D01*
X0075824Y0055319D01*
X0075746Y0055291D01*
X0075665Y0055267D01*
X0075584Y0055246D01*
X0075502Y0055230D01*
X0075420Y0055217D01*
X0075336Y0055208D01*
X0075253Y0055203D01*
X0075169Y0055202D01*
X0075085Y0055205D01*
X0075002Y0055212D01*
X0074919Y0055223D01*
X0074837Y0055238D01*
X0074755Y0055256D01*
X0074674Y0055279D01*
X0074595Y0055305D01*
X0074517Y0055335D01*
X0074440Y0055369D01*
X0074365Y0055406D01*
X0074292Y0055446D01*
X0074221Y0055491D01*
X0074152Y0055538D01*
X0074085Y0055589D01*
X0074021Y0055642D01*
X0073959Y0055699D01*
X0073901Y0055759D01*
X0073845Y0055821D01*
X0073792Y0055886D01*
X0073742Y0055953D01*
X0073695Y0056022D01*
X0073652Y0056094D01*
X0073612Y0056168D01*
X0073576Y0056243D01*
X0073543Y0056320D01*
X0073514Y0056399D01*
X0073489Y0056478D01*
X0073467Y0056559D01*
X0073450Y0056641D01*
X0073436Y0056724D01*
X0073426Y0056807D01*
X0073420Y0056890D01*
X0073418Y0056974D01*
X0073418Y0052840D02*
X0073420Y0052924D01*
X0073426Y0053007D01*
X0073436Y0053090D01*
X0073450Y0053173D01*
X0073467Y0053255D01*
X0073489Y0053336D01*
X0073514Y0053415D01*
X0073543Y0053494D01*
X0073576Y0053571D01*
X0073612Y0053646D01*
X0073652Y0053720D01*
X0073695Y0053792D01*
X0073742Y0053861D01*
X0073792Y0053928D01*
X0073845Y0053993D01*
X0073901Y0054055D01*
X0073959Y0054115D01*
X0074021Y0054172D01*
X0074085Y0054225D01*
X0074152Y0054276D01*
X0074221Y0054323D01*
X0074292Y0054368D01*
X0074365Y0054408D01*
X0074440Y0054445D01*
X0074517Y0054479D01*
X0074595Y0054509D01*
X0074674Y0054535D01*
X0074755Y0054558D01*
X0074837Y0054576D01*
X0074919Y0054591D01*
X0075002Y0054602D01*
X0075085Y0054609D01*
X0075169Y0054612D01*
X0075253Y0054611D01*
X0075336Y0054606D01*
X0075420Y0054597D01*
X0075502Y0054584D01*
X0075584Y0054568D01*
X0075665Y0054547D01*
X0075746Y0054523D01*
X0075824Y0054495D01*
X0075902Y0054463D01*
X0075978Y0054427D01*
X0076052Y0054388D01*
X0076124Y0054346D01*
X0076194Y0054300D01*
X0076262Y0054251D01*
X0076327Y0054199D01*
X0076390Y0054144D01*
X0076450Y0054086D01*
X0076508Y0054025D01*
X0076562Y0053961D01*
X0076614Y0053895D01*
X0076662Y0053827D01*
X0076707Y0053756D01*
X0076748Y0053683D01*
X0076787Y0053609D01*
X0076821Y0053533D01*
X0076852Y0053455D01*
X0076879Y0053376D01*
X0076903Y0053295D01*
X0076922Y0053214D01*
X0076938Y0053132D01*
X0076950Y0053049D01*
X0076958Y0052965D01*
X0076962Y0052882D01*
X0076962Y0052798D01*
X0076958Y0052715D01*
X0076950Y0052631D01*
X0076938Y0052548D01*
X0076922Y0052466D01*
X0076903Y0052385D01*
X0076879Y0052304D01*
X0076852Y0052225D01*
X0076821Y0052147D01*
X0076787Y0052071D01*
X0076748Y0051997D01*
X0076707Y0051924D01*
X0076662Y0051853D01*
X0076614Y0051785D01*
X0076562Y0051719D01*
X0076508Y0051655D01*
X0076450Y0051594D01*
X0076390Y0051536D01*
X0076327Y0051481D01*
X0076262Y0051429D01*
X0076194Y0051380D01*
X0076124Y0051334D01*
X0076052Y0051292D01*
X0075978Y0051253D01*
X0075902Y0051217D01*
X0075824Y0051185D01*
X0075746Y0051157D01*
X0075665Y0051133D01*
X0075584Y0051112D01*
X0075502Y0051096D01*
X0075420Y0051083D01*
X0075336Y0051074D01*
X0075253Y0051069D01*
X0075169Y0051068D01*
X0075085Y0051071D01*
X0075002Y0051078D01*
X0074919Y0051089D01*
X0074837Y0051104D01*
X0074755Y0051122D01*
X0074674Y0051145D01*
X0074595Y0051171D01*
X0074517Y0051201D01*
X0074440Y0051235D01*
X0074365Y0051272D01*
X0074292Y0051312D01*
X0074221Y0051357D01*
X0074152Y0051404D01*
X0074085Y0051455D01*
X0074021Y0051508D01*
X0073959Y0051565D01*
X0073901Y0051625D01*
X0073845Y0051687D01*
X0073792Y0051752D01*
X0073742Y0051819D01*
X0073695Y0051888D01*
X0073652Y0051960D01*
X0073612Y0052034D01*
X0073576Y0052109D01*
X0073543Y0052186D01*
X0073514Y0052265D01*
X0073489Y0052344D01*
X0073467Y0052425D01*
X0073450Y0052507D01*
X0073436Y0052590D01*
X0073426Y0052673D01*
X0073420Y0052756D01*
X0073418Y0052840D01*
X0073418Y0051068D02*
X0073420Y0051152D01*
X0073426Y0051235D01*
X0073436Y0051318D01*
X0073450Y0051401D01*
X0073467Y0051483D01*
X0073489Y0051564D01*
X0073514Y0051643D01*
X0073543Y0051722D01*
X0073576Y0051799D01*
X0073612Y0051874D01*
X0073652Y0051948D01*
X0073695Y0052020D01*
X0073742Y0052089D01*
X0073792Y0052156D01*
X0073845Y0052221D01*
X0073901Y0052283D01*
X0073959Y0052343D01*
X0074021Y0052400D01*
X0074085Y0052453D01*
X0074152Y0052504D01*
X0074221Y0052551D01*
X0074292Y0052596D01*
X0074365Y0052636D01*
X0074440Y0052673D01*
X0074517Y0052707D01*
X0074595Y0052737D01*
X0074674Y0052763D01*
X0074755Y0052786D01*
X0074837Y0052804D01*
X0074919Y0052819D01*
X0075002Y0052830D01*
X0075085Y0052837D01*
X0075169Y0052840D01*
X0075253Y0052839D01*
X0075336Y0052834D01*
X0075420Y0052825D01*
X0075502Y0052812D01*
X0075584Y0052796D01*
X0075665Y0052775D01*
X0075746Y0052751D01*
X0075824Y0052723D01*
X0075902Y0052691D01*
X0075978Y0052655D01*
X0076052Y0052616D01*
X0076124Y0052574D01*
X0076194Y0052528D01*
X0076262Y0052479D01*
X0076327Y0052427D01*
X0076390Y0052372D01*
X0076450Y0052314D01*
X0076508Y0052253D01*
X0076562Y0052189D01*
X0076614Y0052123D01*
X0076662Y0052055D01*
X0076707Y0051984D01*
X0076748Y0051911D01*
X0076787Y0051837D01*
X0076821Y0051761D01*
X0076852Y0051683D01*
X0076879Y0051604D01*
X0076903Y0051523D01*
X0076922Y0051442D01*
X0076938Y0051360D01*
X0076950Y0051277D01*
X0076958Y0051193D01*
X0076962Y0051110D01*
X0076962Y0051026D01*
X0076958Y0050943D01*
X0076950Y0050859D01*
X0076938Y0050776D01*
X0076922Y0050694D01*
X0076903Y0050613D01*
X0076879Y0050532D01*
X0076852Y0050453D01*
X0076821Y0050375D01*
X0076787Y0050299D01*
X0076748Y0050225D01*
X0076707Y0050152D01*
X0076662Y0050081D01*
X0076614Y0050013D01*
X0076562Y0049947D01*
X0076508Y0049883D01*
X0076450Y0049822D01*
X0076390Y0049764D01*
X0076327Y0049709D01*
X0076262Y0049657D01*
X0076194Y0049608D01*
X0076124Y0049562D01*
X0076052Y0049520D01*
X0075978Y0049481D01*
X0075902Y0049445D01*
X0075824Y0049413D01*
X0075746Y0049385D01*
X0075665Y0049361D01*
X0075584Y0049340D01*
X0075502Y0049324D01*
X0075420Y0049311D01*
X0075336Y0049302D01*
X0075253Y0049297D01*
X0075169Y0049296D01*
X0075085Y0049299D01*
X0075002Y0049306D01*
X0074919Y0049317D01*
X0074837Y0049332D01*
X0074755Y0049350D01*
X0074674Y0049373D01*
X0074595Y0049399D01*
X0074517Y0049429D01*
X0074440Y0049463D01*
X0074365Y0049500D01*
X0074292Y0049540D01*
X0074221Y0049585D01*
X0074152Y0049632D01*
X0074085Y0049683D01*
X0074021Y0049736D01*
X0073959Y0049793D01*
X0073901Y0049853D01*
X0073845Y0049915D01*
X0073792Y0049980D01*
X0073742Y0050047D01*
X0073695Y0050116D01*
X0073652Y0050188D01*
X0073612Y0050262D01*
X0073576Y0050337D01*
X0073543Y0050414D01*
X0073514Y0050493D01*
X0073489Y0050572D01*
X0073467Y0050653D01*
X0073450Y0050735D01*
X0073436Y0050818D01*
X0073426Y0050901D01*
X0073420Y0050984D01*
X0073418Y0051068D01*
X0073418Y0033549D02*
X0073420Y0033633D01*
X0073426Y0033716D01*
X0073436Y0033799D01*
X0073450Y0033882D01*
X0073467Y0033964D01*
X0073489Y0034045D01*
X0073514Y0034124D01*
X0073543Y0034203D01*
X0073576Y0034280D01*
X0073612Y0034355D01*
X0073652Y0034429D01*
X0073695Y0034501D01*
X0073742Y0034570D01*
X0073792Y0034637D01*
X0073845Y0034702D01*
X0073901Y0034764D01*
X0073959Y0034824D01*
X0074021Y0034881D01*
X0074085Y0034934D01*
X0074152Y0034985D01*
X0074221Y0035032D01*
X0074292Y0035077D01*
X0074365Y0035117D01*
X0074440Y0035154D01*
X0074517Y0035188D01*
X0074595Y0035218D01*
X0074674Y0035244D01*
X0074755Y0035267D01*
X0074837Y0035285D01*
X0074919Y0035300D01*
X0075002Y0035311D01*
X0075085Y0035318D01*
X0075169Y0035321D01*
X0075253Y0035320D01*
X0075336Y0035315D01*
X0075420Y0035306D01*
X0075502Y0035293D01*
X0075584Y0035277D01*
X0075665Y0035256D01*
X0075746Y0035232D01*
X0075824Y0035204D01*
X0075902Y0035172D01*
X0075978Y0035136D01*
X0076052Y0035097D01*
X0076124Y0035055D01*
X0076194Y0035009D01*
X0076262Y0034960D01*
X0076327Y0034908D01*
X0076390Y0034853D01*
X0076450Y0034795D01*
X0076508Y0034734D01*
X0076562Y0034670D01*
X0076614Y0034604D01*
X0076662Y0034536D01*
X0076707Y0034465D01*
X0076748Y0034392D01*
X0076787Y0034318D01*
X0076821Y0034242D01*
X0076852Y0034164D01*
X0076879Y0034085D01*
X0076903Y0034004D01*
X0076922Y0033923D01*
X0076938Y0033841D01*
X0076950Y0033758D01*
X0076958Y0033674D01*
X0076962Y0033591D01*
X0076962Y0033507D01*
X0076958Y0033424D01*
X0076950Y0033340D01*
X0076938Y0033257D01*
X0076922Y0033175D01*
X0076903Y0033094D01*
X0076879Y0033013D01*
X0076852Y0032934D01*
X0076821Y0032856D01*
X0076787Y0032780D01*
X0076748Y0032706D01*
X0076707Y0032633D01*
X0076662Y0032562D01*
X0076614Y0032494D01*
X0076562Y0032428D01*
X0076508Y0032364D01*
X0076450Y0032303D01*
X0076390Y0032245D01*
X0076327Y0032190D01*
X0076262Y0032138D01*
X0076194Y0032089D01*
X0076124Y0032043D01*
X0076052Y0032001D01*
X0075978Y0031962D01*
X0075902Y0031926D01*
X0075824Y0031894D01*
X0075746Y0031866D01*
X0075665Y0031842D01*
X0075584Y0031821D01*
X0075502Y0031805D01*
X0075420Y0031792D01*
X0075336Y0031783D01*
X0075253Y0031778D01*
X0075169Y0031777D01*
X0075085Y0031780D01*
X0075002Y0031787D01*
X0074919Y0031798D01*
X0074837Y0031813D01*
X0074755Y0031831D01*
X0074674Y0031854D01*
X0074595Y0031880D01*
X0074517Y0031910D01*
X0074440Y0031944D01*
X0074365Y0031981D01*
X0074292Y0032021D01*
X0074221Y0032066D01*
X0074152Y0032113D01*
X0074085Y0032164D01*
X0074021Y0032217D01*
X0073959Y0032274D01*
X0073901Y0032334D01*
X0073845Y0032396D01*
X0073792Y0032461D01*
X0073742Y0032528D01*
X0073695Y0032597D01*
X0073652Y0032669D01*
X0073612Y0032743D01*
X0073576Y0032818D01*
X0073543Y0032895D01*
X0073514Y0032974D01*
X0073489Y0033053D01*
X0073467Y0033134D01*
X0073450Y0033216D01*
X0073436Y0033299D01*
X0073426Y0033382D01*
X0073420Y0033465D01*
X0073418Y0033549D01*
X0073418Y0031777D02*
X0073420Y0031861D01*
X0073426Y0031944D01*
X0073436Y0032027D01*
X0073450Y0032110D01*
X0073467Y0032192D01*
X0073489Y0032273D01*
X0073514Y0032352D01*
X0073543Y0032431D01*
X0073576Y0032508D01*
X0073612Y0032583D01*
X0073652Y0032657D01*
X0073695Y0032729D01*
X0073742Y0032798D01*
X0073792Y0032865D01*
X0073845Y0032930D01*
X0073901Y0032992D01*
X0073959Y0033052D01*
X0074021Y0033109D01*
X0074085Y0033162D01*
X0074152Y0033213D01*
X0074221Y0033260D01*
X0074292Y0033305D01*
X0074365Y0033345D01*
X0074440Y0033382D01*
X0074517Y0033416D01*
X0074595Y0033446D01*
X0074674Y0033472D01*
X0074755Y0033495D01*
X0074837Y0033513D01*
X0074919Y0033528D01*
X0075002Y0033539D01*
X0075085Y0033546D01*
X0075169Y0033549D01*
X0075253Y0033548D01*
X0075336Y0033543D01*
X0075420Y0033534D01*
X0075502Y0033521D01*
X0075584Y0033505D01*
X0075665Y0033484D01*
X0075746Y0033460D01*
X0075824Y0033432D01*
X0075902Y0033400D01*
X0075978Y0033364D01*
X0076052Y0033325D01*
X0076124Y0033283D01*
X0076194Y0033237D01*
X0076262Y0033188D01*
X0076327Y0033136D01*
X0076390Y0033081D01*
X0076450Y0033023D01*
X0076508Y0032962D01*
X0076562Y0032898D01*
X0076614Y0032832D01*
X0076662Y0032764D01*
X0076707Y0032693D01*
X0076748Y0032620D01*
X0076787Y0032546D01*
X0076821Y0032470D01*
X0076852Y0032392D01*
X0076879Y0032313D01*
X0076903Y0032232D01*
X0076922Y0032151D01*
X0076938Y0032069D01*
X0076950Y0031986D01*
X0076958Y0031902D01*
X0076962Y0031819D01*
X0076962Y0031735D01*
X0076958Y0031652D01*
X0076950Y0031568D01*
X0076938Y0031485D01*
X0076922Y0031403D01*
X0076903Y0031322D01*
X0076879Y0031241D01*
X0076852Y0031162D01*
X0076821Y0031084D01*
X0076787Y0031008D01*
X0076748Y0030934D01*
X0076707Y0030861D01*
X0076662Y0030790D01*
X0076614Y0030722D01*
X0076562Y0030656D01*
X0076508Y0030592D01*
X0076450Y0030531D01*
X0076390Y0030473D01*
X0076327Y0030418D01*
X0076262Y0030366D01*
X0076194Y0030317D01*
X0076124Y0030271D01*
X0076052Y0030229D01*
X0075978Y0030190D01*
X0075902Y0030154D01*
X0075824Y0030122D01*
X0075746Y0030094D01*
X0075665Y0030070D01*
X0075584Y0030049D01*
X0075502Y0030033D01*
X0075420Y0030020D01*
X0075336Y0030011D01*
X0075253Y0030006D01*
X0075169Y0030005D01*
X0075085Y0030008D01*
X0075002Y0030015D01*
X0074919Y0030026D01*
X0074837Y0030041D01*
X0074755Y0030059D01*
X0074674Y0030082D01*
X0074595Y0030108D01*
X0074517Y0030138D01*
X0074440Y0030172D01*
X0074365Y0030209D01*
X0074292Y0030249D01*
X0074221Y0030294D01*
X0074152Y0030341D01*
X0074085Y0030392D01*
X0074021Y0030445D01*
X0073959Y0030502D01*
X0073901Y0030562D01*
X0073845Y0030624D01*
X0073792Y0030689D01*
X0073742Y0030756D01*
X0073695Y0030825D01*
X0073652Y0030897D01*
X0073612Y0030971D01*
X0073576Y0031046D01*
X0073543Y0031123D01*
X0073514Y0031202D01*
X0073489Y0031281D01*
X0073467Y0031362D01*
X0073450Y0031444D01*
X0073436Y0031527D01*
X0073426Y0031610D01*
X0073420Y0031693D01*
X0073418Y0031777D01*
X0073418Y0029415D02*
X0073420Y0029499D01*
X0073426Y0029582D01*
X0073436Y0029665D01*
X0073450Y0029748D01*
X0073467Y0029830D01*
X0073489Y0029911D01*
X0073514Y0029990D01*
X0073543Y0030069D01*
X0073576Y0030146D01*
X0073612Y0030221D01*
X0073652Y0030295D01*
X0073695Y0030367D01*
X0073742Y0030436D01*
X0073792Y0030503D01*
X0073845Y0030568D01*
X0073901Y0030630D01*
X0073959Y0030690D01*
X0074021Y0030747D01*
X0074085Y0030800D01*
X0074152Y0030851D01*
X0074221Y0030898D01*
X0074292Y0030943D01*
X0074365Y0030983D01*
X0074440Y0031020D01*
X0074517Y0031054D01*
X0074595Y0031084D01*
X0074674Y0031110D01*
X0074755Y0031133D01*
X0074837Y0031151D01*
X0074919Y0031166D01*
X0075002Y0031177D01*
X0075085Y0031184D01*
X0075169Y0031187D01*
X0075253Y0031186D01*
X0075336Y0031181D01*
X0075420Y0031172D01*
X0075502Y0031159D01*
X0075584Y0031143D01*
X0075665Y0031122D01*
X0075746Y0031098D01*
X0075824Y0031070D01*
X0075902Y0031038D01*
X0075978Y0031002D01*
X0076052Y0030963D01*
X0076124Y0030921D01*
X0076194Y0030875D01*
X0076262Y0030826D01*
X0076327Y0030774D01*
X0076390Y0030719D01*
X0076450Y0030661D01*
X0076508Y0030600D01*
X0076562Y0030536D01*
X0076614Y0030470D01*
X0076662Y0030402D01*
X0076707Y0030331D01*
X0076748Y0030258D01*
X0076787Y0030184D01*
X0076821Y0030108D01*
X0076852Y0030030D01*
X0076879Y0029951D01*
X0076903Y0029870D01*
X0076922Y0029789D01*
X0076938Y0029707D01*
X0076950Y0029624D01*
X0076958Y0029540D01*
X0076962Y0029457D01*
X0076962Y0029373D01*
X0076958Y0029290D01*
X0076950Y0029206D01*
X0076938Y0029123D01*
X0076922Y0029041D01*
X0076903Y0028960D01*
X0076879Y0028879D01*
X0076852Y0028800D01*
X0076821Y0028722D01*
X0076787Y0028646D01*
X0076748Y0028572D01*
X0076707Y0028499D01*
X0076662Y0028428D01*
X0076614Y0028360D01*
X0076562Y0028294D01*
X0076508Y0028230D01*
X0076450Y0028169D01*
X0076390Y0028111D01*
X0076327Y0028056D01*
X0076262Y0028004D01*
X0076194Y0027955D01*
X0076124Y0027909D01*
X0076052Y0027867D01*
X0075978Y0027828D01*
X0075902Y0027792D01*
X0075824Y0027760D01*
X0075746Y0027732D01*
X0075665Y0027708D01*
X0075584Y0027687D01*
X0075502Y0027671D01*
X0075420Y0027658D01*
X0075336Y0027649D01*
X0075253Y0027644D01*
X0075169Y0027643D01*
X0075085Y0027646D01*
X0075002Y0027653D01*
X0074919Y0027664D01*
X0074837Y0027679D01*
X0074755Y0027697D01*
X0074674Y0027720D01*
X0074595Y0027746D01*
X0074517Y0027776D01*
X0074440Y0027810D01*
X0074365Y0027847D01*
X0074292Y0027887D01*
X0074221Y0027932D01*
X0074152Y0027979D01*
X0074085Y0028030D01*
X0074021Y0028083D01*
X0073959Y0028140D01*
X0073901Y0028200D01*
X0073845Y0028262D01*
X0073792Y0028327D01*
X0073742Y0028394D01*
X0073695Y0028463D01*
X0073652Y0028535D01*
X0073612Y0028609D01*
X0073576Y0028684D01*
X0073543Y0028761D01*
X0073514Y0028840D01*
X0073489Y0028919D01*
X0073467Y0029000D01*
X0073450Y0029082D01*
X0073436Y0029165D01*
X0073426Y0029248D01*
X0073420Y0029331D01*
X0073418Y0029415D01*
X0073418Y0027643D02*
X0073420Y0027727D01*
X0073426Y0027810D01*
X0073436Y0027893D01*
X0073450Y0027976D01*
X0073467Y0028058D01*
X0073489Y0028139D01*
X0073514Y0028218D01*
X0073543Y0028297D01*
X0073576Y0028374D01*
X0073612Y0028449D01*
X0073652Y0028523D01*
X0073695Y0028595D01*
X0073742Y0028664D01*
X0073792Y0028731D01*
X0073845Y0028796D01*
X0073901Y0028858D01*
X0073959Y0028918D01*
X0074021Y0028975D01*
X0074085Y0029028D01*
X0074152Y0029079D01*
X0074221Y0029126D01*
X0074292Y0029171D01*
X0074365Y0029211D01*
X0074440Y0029248D01*
X0074517Y0029282D01*
X0074595Y0029312D01*
X0074674Y0029338D01*
X0074755Y0029361D01*
X0074837Y0029379D01*
X0074919Y0029394D01*
X0075002Y0029405D01*
X0075085Y0029412D01*
X0075169Y0029415D01*
X0075253Y0029414D01*
X0075336Y0029409D01*
X0075420Y0029400D01*
X0075502Y0029387D01*
X0075584Y0029371D01*
X0075665Y0029350D01*
X0075746Y0029326D01*
X0075824Y0029298D01*
X0075902Y0029266D01*
X0075978Y0029230D01*
X0076052Y0029191D01*
X0076124Y0029149D01*
X0076194Y0029103D01*
X0076262Y0029054D01*
X0076327Y0029002D01*
X0076390Y0028947D01*
X0076450Y0028889D01*
X0076508Y0028828D01*
X0076562Y0028764D01*
X0076614Y0028698D01*
X0076662Y0028630D01*
X0076707Y0028559D01*
X0076748Y0028486D01*
X0076787Y0028412D01*
X0076821Y0028336D01*
X0076852Y0028258D01*
X0076879Y0028179D01*
X0076903Y0028098D01*
X0076922Y0028017D01*
X0076938Y0027935D01*
X0076950Y0027852D01*
X0076958Y0027768D01*
X0076962Y0027685D01*
X0076962Y0027601D01*
X0076958Y0027518D01*
X0076950Y0027434D01*
X0076938Y0027351D01*
X0076922Y0027269D01*
X0076903Y0027188D01*
X0076879Y0027107D01*
X0076852Y0027028D01*
X0076821Y0026950D01*
X0076787Y0026874D01*
X0076748Y0026800D01*
X0076707Y0026727D01*
X0076662Y0026656D01*
X0076614Y0026588D01*
X0076562Y0026522D01*
X0076508Y0026458D01*
X0076450Y0026397D01*
X0076390Y0026339D01*
X0076327Y0026284D01*
X0076262Y0026232D01*
X0076194Y0026183D01*
X0076124Y0026137D01*
X0076052Y0026095D01*
X0075978Y0026056D01*
X0075902Y0026020D01*
X0075824Y0025988D01*
X0075746Y0025960D01*
X0075665Y0025936D01*
X0075584Y0025915D01*
X0075502Y0025899D01*
X0075420Y0025886D01*
X0075336Y0025877D01*
X0075253Y0025872D01*
X0075169Y0025871D01*
X0075085Y0025874D01*
X0075002Y0025881D01*
X0074919Y0025892D01*
X0074837Y0025907D01*
X0074755Y0025925D01*
X0074674Y0025948D01*
X0074595Y0025974D01*
X0074517Y0026004D01*
X0074440Y0026038D01*
X0074365Y0026075D01*
X0074292Y0026115D01*
X0074221Y0026160D01*
X0074152Y0026207D01*
X0074085Y0026258D01*
X0074021Y0026311D01*
X0073959Y0026368D01*
X0073901Y0026428D01*
X0073845Y0026490D01*
X0073792Y0026555D01*
X0073742Y0026622D01*
X0073695Y0026691D01*
X0073652Y0026763D01*
X0073612Y0026837D01*
X0073576Y0026912D01*
X0073543Y0026989D01*
X0073514Y0027068D01*
X0073489Y0027147D01*
X0073467Y0027228D01*
X0073450Y0027310D01*
X0073436Y0027393D01*
X0073426Y0027476D01*
X0073420Y0027559D01*
X0073418Y0027643D01*
X0130505Y0027643D02*
X0130507Y0027727D01*
X0130513Y0027810D01*
X0130523Y0027893D01*
X0130537Y0027976D01*
X0130554Y0028058D01*
X0130576Y0028139D01*
X0130601Y0028218D01*
X0130630Y0028297D01*
X0130663Y0028374D01*
X0130699Y0028449D01*
X0130739Y0028523D01*
X0130782Y0028595D01*
X0130829Y0028664D01*
X0130879Y0028731D01*
X0130932Y0028796D01*
X0130988Y0028858D01*
X0131046Y0028918D01*
X0131108Y0028975D01*
X0131172Y0029028D01*
X0131239Y0029079D01*
X0131308Y0029126D01*
X0131379Y0029171D01*
X0131452Y0029211D01*
X0131527Y0029248D01*
X0131604Y0029282D01*
X0131682Y0029312D01*
X0131761Y0029338D01*
X0131842Y0029361D01*
X0131924Y0029379D01*
X0132006Y0029394D01*
X0132089Y0029405D01*
X0132172Y0029412D01*
X0132256Y0029415D01*
X0132340Y0029414D01*
X0132423Y0029409D01*
X0132507Y0029400D01*
X0132589Y0029387D01*
X0132671Y0029371D01*
X0132752Y0029350D01*
X0132833Y0029326D01*
X0132911Y0029298D01*
X0132989Y0029266D01*
X0133065Y0029230D01*
X0133139Y0029191D01*
X0133211Y0029149D01*
X0133281Y0029103D01*
X0133349Y0029054D01*
X0133414Y0029002D01*
X0133477Y0028947D01*
X0133537Y0028889D01*
X0133595Y0028828D01*
X0133649Y0028764D01*
X0133701Y0028698D01*
X0133749Y0028630D01*
X0133794Y0028559D01*
X0133835Y0028486D01*
X0133874Y0028412D01*
X0133908Y0028336D01*
X0133939Y0028258D01*
X0133966Y0028179D01*
X0133990Y0028098D01*
X0134009Y0028017D01*
X0134025Y0027935D01*
X0134037Y0027852D01*
X0134045Y0027768D01*
X0134049Y0027685D01*
X0134049Y0027601D01*
X0134045Y0027518D01*
X0134037Y0027434D01*
X0134025Y0027351D01*
X0134009Y0027269D01*
X0133990Y0027188D01*
X0133966Y0027107D01*
X0133939Y0027028D01*
X0133908Y0026950D01*
X0133874Y0026874D01*
X0133835Y0026800D01*
X0133794Y0026727D01*
X0133749Y0026656D01*
X0133701Y0026588D01*
X0133649Y0026522D01*
X0133595Y0026458D01*
X0133537Y0026397D01*
X0133477Y0026339D01*
X0133414Y0026284D01*
X0133349Y0026232D01*
X0133281Y0026183D01*
X0133211Y0026137D01*
X0133139Y0026095D01*
X0133065Y0026056D01*
X0132989Y0026020D01*
X0132911Y0025988D01*
X0132833Y0025960D01*
X0132752Y0025936D01*
X0132671Y0025915D01*
X0132589Y0025899D01*
X0132507Y0025886D01*
X0132423Y0025877D01*
X0132340Y0025872D01*
X0132256Y0025871D01*
X0132172Y0025874D01*
X0132089Y0025881D01*
X0132006Y0025892D01*
X0131924Y0025907D01*
X0131842Y0025925D01*
X0131761Y0025948D01*
X0131682Y0025974D01*
X0131604Y0026004D01*
X0131527Y0026038D01*
X0131452Y0026075D01*
X0131379Y0026115D01*
X0131308Y0026160D01*
X0131239Y0026207D01*
X0131172Y0026258D01*
X0131108Y0026311D01*
X0131046Y0026368D01*
X0130988Y0026428D01*
X0130932Y0026490D01*
X0130879Y0026555D01*
X0130829Y0026622D01*
X0130782Y0026691D01*
X0130739Y0026763D01*
X0130699Y0026837D01*
X0130663Y0026912D01*
X0130630Y0026989D01*
X0130601Y0027068D01*
X0130576Y0027147D01*
X0130554Y0027228D01*
X0130537Y0027310D01*
X0130523Y0027393D01*
X0130513Y0027476D01*
X0130507Y0027559D01*
X0130505Y0027643D01*
X0130505Y0029415D02*
X0130507Y0029499D01*
X0130513Y0029582D01*
X0130523Y0029665D01*
X0130537Y0029748D01*
X0130554Y0029830D01*
X0130576Y0029911D01*
X0130601Y0029990D01*
X0130630Y0030069D01*
X0130663Y0030146D01*
X0130699Y0030221D01*
X0130739Y0030295D01*
X0130782Y0030367D01*
X0130829Y0030436D01*
X0130879Y0030503D01*
X0130932Y0030568D01*
X0130988Y0030630D01*
X0131046Y0030690D01*
X0131108Y0030747D01*
X0131172Y0030800D01*
X0131239Y0030851D01*
X0131308Y0030898D01*
X0131379Y0030943D01*
X0131452Y0030983D01*
X0131527Y0031020D01*
X0131604Y0031054D01*
X0131682Y0031084D01*
X0131761Y0031110D01*
X0131842Y0031133D01*
X0131924Y0031151D01*
X0132006Y0031166D01*
X0132089Y0031177D01*
X0132172Y0031184D01*
X0132256Y0031187D01*
X0132340Y0031186D01*
X0132423Y0031181D01*
X0132507Y0031172D01*
X0132589Y0031159D01*
X0132671Y0031143D01*
X0132752Y0031122D01*
X0132833Y0031098D01*
X0132911Y0031070D01*
X0132989Y0031038D01*
X0133065Y0031002D01*
X0133139Y0030963D01*
X0133211Y0030921D01*
X0133281Y0030875D01*
X0133349Y0030826D01*
X0133414Y0030774D01*
X0133477Y0030719D01*
X0133537Y0030661D01*
X0133595Y0030600D01*
X0133649Y0030536D01*
X0133701Y0030470D01*
X0133749Y0030402D01*
X0133794Y0030331D01*
X0133835Y0030258D01*
X0133874Y0030184D01*
X0133908Y0030108D01*
X0133939Y0030030D01*
X0133966Y0029951D01*
X0133990Y0029870D01*
X0134009Y0029789D01*
X0134025Y0029707D01*
X0134037Y0029624D01*
X0134045Y0029540D01*
X0134049Y0029457D01*
X0134049Y0029373D01*
X0134045Y0029290D01*
X0134037Y0029206D01*
X0134025Y0029123D01*
X0134009Y0029041D01*
X0133990Y0028960D01*
X0133966Y0028879D01*
X0133939Y0028800D01*
X0133908Y0028722D01*
X0133874Y0028646D01*
X0133835Y0028572D01*
X0133794Y0028499D01*
X0133749Y0028428D01*
X0133701Y0028360D01*
X0133649Y0028294D01*
X0133595Y0028230D01*
X0133537Y0028169D01*
X0133477Y0028111D01*
X0133414Y0028056D01*
X0133349Y0028004D01*
X0133281Y0027955D01*
X0133211Y0027909D01*
X0133139Y0027867D01*
X0133065Y0027828D01*
X0132989Y0027792D01*
X0132911Y0027760D01*
X0132833Y0027732D01*
X0132752Y0027708D01*
X0132671Y0027687D01*
X0132589Y0027671D01*
X0132507Y0027658D01*
X0132423Y0027649D01*
X0132340Y0027644D01*
X0132256Y0027643D01*
X0132172Y0027646D01*
X0132089Y0027653D01*
X0132006Y0027664D01*
X0131924Y0027679D01*
X0131842Y0027697D01*
X0131761Y0027720D01*
X0131682Y0027746D01*
X0131604Y0027776D01*
X0131527Y0027810D01*
X0131452Y0027847D01*
X0131379Y0027887D01*
X0131308Y0027932D01*
X0131239Y0027979D01*
X0131172Y0028030D01*
X0131108Y0028083D01*
X0131046Y0028140D01*
X0130988Y0028200D01*
X0130932Y0028262D01*
X0130879Y0028327D01*
X0130829Y0028394D01*
X0130782Y0028463D01*
X0130739Y0028535D01*
X0130699Y0028609D01*
X0130663Y0028684D01*
X0130630Y0028761D01*
X0130601Y0028840D01*
X0130576Y0028919D01*
X0130554Y0029000D01*
X0130537Y0029082D01*
X0130523Y0029165D01*
X0130513Y0029248D01*
X0130507Y0029331D01*
X0130505Y0029415D01*
X0130505Y0031777D02*
X0130507Y0031861D01*
X0130513Y0031944D01*
X0130523Y0032027D01*
X0130537Y0032110D01*
X0130554Y0032192D01*
X0130576Y0032273D01*
X0130601Y0032352D01*
X0130630Y0032431D01*
X0130663Y0032508D01*
X0130699Y0032583D01*
X0130739Y0032657D01*
X0130782Y0032729D01*
X0130829Y0032798D01*
X0130879Y0032865D01*
X0130932Y0032930D01*
X0130988Y0032992D01*
X0131046Y0033052D01*
X0131108Y0033109D01*
X0131172Y0033162D01*
X0131239Y0033213D01*
X0131308Y0033260D01*
X0131379Y0033305D01*
X0131452Y0033345D01*
X0131527Y0033382D01*
X0131604Y0033416D01*
X0131682Y0033446D01*
X0131761Y0033472D01*
X0131842Y0033495D01*
X0131924Y0033513D01*
X0132006Y0033528D01*
X0132089Y0033539D01*
X0132172Y0033546D01*
X0132256Y0033549D01*
X0132340Y0033548D01*
X0132423Y0033543D01*
X0132507Y0033534D01*
X0132589Y0033521D01*
X0132671Y0033505D01*
X0132752Y0033484D01*
X0132833Y0033460D01*
X0132911Y0033432D01*
X0132989Y0033400D01*
X0133065Y0033364D01*
X0133139Y0033325D01*
X0133211Y0033283D01*
X0133281Y0033237D01*
X0133349Y0033188D01*
X0133414Y0033136D01*
X0133477Y0033081D01*
X0133537Y0033023D01*
X0133595Y0032962D01*
X0133649Y0032898D01*
X0133701Y0032832D01*
X0133749Y0032764D01*
X0133794Y0032693D01*
X0133835Y0032620D01*
X0133874Y0032546D01*
X0133908Y0032470D01*
X0133939Y0032392D01*
X0133966Y0032313D01*
X0133990Y0032232D01*
X0134009Y0032151D01*
X0134025Y0032069D01*
X0134037Y0031986D01*
X0134045Y0031902D01*
X0134049Y0031819D01*
X0134049Y0031735D01*
X0134045Y0031652D01*
X0134037Y0031568D01*
X0134025Y0031485D01*
X0134009Y0031403D01*
X0133990Y0031322D01*
X0133966Y0031241D01*
X0133939Y0031162D01*
X0133908Y0031084D01*
X0133874Y0031008D01*
X0133835Y0030934D01*
X0133794Y0030861D01*
X0133749Y0030790D01*
X0133701Y0030722D01*
X0133649Y0030656D01*
X0133595Y0030592D01*
X0133537Y0030531D01*
X0133477Y0030473D01*
X0133414Y0030418D01*
X0133349Y0030366D01*
X0133281Y0030317D01*
X0133211Y0030271D01*
X0133139Y0030229D01*
X0133065Y0030190D01*
X0132989Y0030154D01*
X0132911Y0030122D01*
X0132833Y0030094D01*
X0132752Y0030070D01*
X0132671Y0030049D01*
X0132589Y0030033D01*
X0132507Y0030020D01*
X0132423Y0030011D01*
X0132340Y0030006D01*
X0132256Y0030005D01*
X0132172Y0030008D01*
X0132089Y0030015D01*
X0132006Y0030026D01*
X0131924Y0030041D01*
X0131842Y0030059D01*
X0131761Y0030082D01*
X0131682Y0030108D01*
X0131604Y0030138D01*
X0131527Y0030172D01*
X0131452Y0030209D01*
X0131379Y0030249D01*
X0131308Y0030294D01*
X0131239Y0030341D01*
X0131172Y0030392D01*
X0131108Y0030445D01*
X0131046Y0030502D01*
X0130988Y0030562D01*
X0130932Y0030624D01*
X0130879Y0030689D01*
X0130829Y0030756D01*
X0130782Y0030825D01*
X0130739Y0030897D01*
X0130699Y0030971D01*
X0130663Y0031046D01*
X0130630Y0031123D01*
X0130601Y0031202D01*
X0130576Y0031281D01*
X0130554Y0031362D01*
X0130537Y0031444D01*
X0130523Y0031527D01*
X0130513Y0031610D01*
X0130507Y0031693D01*
X0130505Y0031777D01*
X0130505Y0033549D02*
X0130507Y0033633D01*
X0130513Y0033716D01*
X0130523Y0033799D01*
X0130537Y0033882D01*
X0130554Y0033964D01*
X0130576Y0034045D01*
X0130601Y0034124D01*
X0130630Y0034203D01*
X0130663Y0034280D01*
X0130699Y0034355D01*
X0130739Y0034429D01*
X0130782Y0034501D01*
X0130829Y0034570D01*
X0130879Y0034637D01*
X0130932Y0034702D01*
X0130988Y0034764D01*
X0131046Y0034824D01*
X0131108Y0034881D01*
X0131172Y0034934D01*
X0131239Y0034985D01*
X0131308Y0035032D01*
X0131379Y0035077D01*
X0131452Y0035117D01*
X0131527Y0035154D01*
X0131604Y0035188D01*
X0131682Y0035218D01*
X0131761Y0035244D01*
X0131842Y0035267D01*
X0131924Y0035285D01*
X0132006Y0035300D01*
X0132089Y0035311D01*
X0132172Y0035318D01*
X0132256Y0035321D01*
X0132340Y0035320D01*
X0132423Y0035315D01*
X0132507Y0035306D01*
X0132589Y0035293D01*
X0132671Y0035277D01*
X0132752Y0035256D01*
X0132833Y0035232D01*
X0132911Y0035204D01*
X0132989Y0035172D01*
X0133065Y0035136D01*
X0133139Y0035097D01*
X0133211Y0035055D01*
X0133281Y0035009D01*
X0133349Y0034960D01*
X0133414Y0034908D01*
X0133477Y0034853D01*
X0133537Y0034795D01*
X0133595Y0034734D01*
X0133649Y0034670D01*
X0133701Y0034604D01*
X0133749Y0034536D01*
X0133794Y0034465D01*
X0133835Y0034392D01*
X0133874Y0034318D01*
X0133908Y0034242D01*
X0133939Y0034164D01*
X0133966Y0034085D01*
X0133990Y0034004D01*
X0134009Y0033923D01*
X0134025Y0033841D01*
X0134037Y0033758D01*
X0134045Y0033674D01*
X0134049Y0033591D01*
X0134049Y0033507D01*
X0134045Y0033424D01*
X0134037Y0033340D01*
X0134025Y0033257D01*
X0134009Y0033175D01*
X0133990Y0033094D01*
X0133966Y0033013D01*
X0133939Y0032934D01*
X0133908Y0032856D01*
X0133874Y0032780D01*
X0133835Y0032706D01*
X0133794Y0032633D01*
X0133749Y0032562D01*
X0133701Y0032494D01*
X0133649Y0032428D01*
X0133595Y0032364D01*
X0133537Y0032303D01*
X0133477Y0032245D01*
X0133414Y0032190D01*
X0133349Y0032138D01*
X0133281Y0032089D01*
X0133211Y0032043D01*
X0133139Y0032001D01*
X0133065Y0031962D01*
X0132989Y0031926D01*
X0132911Y0031894D01*
X0132833Y0031866D01*
X0132752Y0031842D01*
X0132671Y0031821D01*
X0132589Y0031805D01*
X0132507Y0031792D01*
X0132423Y0031783D01*
X0132340Y0031778D01*
X0132256Y0031777D01*
X0132172Y0031780D01*
X0132089Y0031787D01*
X0132006Y0031798D01*
X0131924Y0031813D01*
X0131842Y0031831D01*
X0131761Y0031854D01*
X0131682Y0031880D01*
X0131604Y0031910D01*
X0131527Y0031944D01*
X0131452Y0031981D01*
X0131379Y0032021D01*
X0131308Y0032066D01*
X0131239Y0032113D01*
X0131172Y0032164D01*
X0131108Y0032217D01*
X0131046Y0032274D01*
X0130988Y0032334D01*
X0130932Y0032396D01*
X0130879Y0032461D01*
X0130829Y0032528D01*
X0130782Y0032597D01*
X0130739Y0032669D01*
X0130699Y0032743D01*
X0130663Y0032818D01*
X0130630Y0032895D01*
X0130601Y0032974D01*
X0130576Y0033053D01*
X0130554Y0033134D01*
X0130537Y0033216D01*
X0130523Y0033299D01*
X0130513Y0033382D01*
X0130507Y0033465D01*
X0130505Y0033549D01*
X0130505Y0051068D02*
X0130507Y0051152D01*
X0130513Y0051235D01*
X0130523Y0051318D01*
X0130537Y0051401D01*
X0130554Y0051483D01*
X0130576Y0051564D01*
X0130601Y0051643D01*
X0130630Y0051722D01*
X0130663Y0051799D01*
X0130699Y0051874D01*
X0130739Y0051948D01*
X0130782Y0052020D01*
X0130829Y0052089D01*
X0130879Y0052156D01*
X0130932Y0052221D01*
X0130988Y0052283D01*
X0131046Y0052343D01*
X0131108Y0052400D01*
X0131172Y0052453D01*
X0131239Y0052504D01*
X0131308Y0052551D01*
X0131379Y0052596D01*
X0131452Y0052636D01*
X0131527Y0052673D01*
X0131604Y0052707D01*
X0131682Y0052737D01*
X0131761Y0052763D01*
X0131842Y0052786D01*
X0131924Y0052804D01*
X0132006Y0052819D01*
X0132089Y0052830D01*
X0132172Y0052837D01*
X0132256Y0052840D01*
X0132340Y0052839D01*
X0132423Y0052834D01*
X0132507Y0052825D01*
X0132589Y0052812D01*
X0132671Y0052796D01*
X0132752Y0052775D01*
X0132833Y0052751D01*
X0132911Y0052723D01*
X0132989Y0052691D01*
X0133065Y0052655D01*
X0133139Y0052616D01*
X0133211Y0052574D01*
X0133281Y0052528D01*
X0133349Y0052479D01*
X0133414Y0052427D01*
X0133477Y0052372D01*
X0133537Y0052314D01*
X0133595Y0052253D01*
X0133649Y0052189D01*
X0133701Y0052123D01*
X0133749Y0052055D01*
X0133794Y0051984D01*
X0133835Y0051911D01*
X0133874Y0051837D01*
X0133908Y0051761D01*
X0133939Y0051683D01*
X0133966Y0051604D01*
X0133990Y0051523D01*
X0134009Y0051442D01*
X0134025Y0051360D01*
X0134037Y0051277D01*
X0134045Y0051193D01*
X0134049Y0051110D01*
X0134049Y0051026D01*
X0134045Y0050943D01*
X0134037Y0050859D01*
X0134025Y0050776D01*
X0134009Y0050694D01*
X0133990Y0050613D01*
X0133966Y0050532D01*
X0133939Y0050453D01*
X0133908Y0050375D01*
X0133874Y0050299D01*
X0133835Y0050225D01*
X0133794Y0050152D01*
X0133749Y0050081D01*
X0133701Y0050013D01*
X0133649Y0049947D01*
X0133595Y0049883D01*
X0133537Y0049822D01*
X0133477Y0049764D01*
X0133414Y0049709D01*
X0133349Y0049657D01*
X0133281Y0049608D01*
X0133211Y0049562D01*
X0133139Y0049520D01*
X0133065Y0049481D01*
X0132989Y0049445D01*
X0132911Y0049413D01*
X0132833Y0049385D01*
X0132752Y0049361D01*
X0132671Y0049340D01*
X0132589Y0049324D01*
X0132507Y0049311D01*
X0132423Y0049302D01*
X0132340Y0049297D01*
X0132256Y0049296D01*
X0132172Y0049299D01*
X0132089Y0049306D01*
X0132006Y0049317D01*
X0131924Y0049332D01*
X0131842Y0049350D01*
X0131761Y0049373D01*
X0131682Y0049399D01*
X0131604Y0049429D01*
X0131527Y0049463D01*
X0131452Y0049500D01*
X0131379Y0049540D01*
X0131308Y0049585D01*
X0131239Y0049632D01*
X0131172Y0049683D01*
X0131108Y0049736D01*
X0131046Y0049793D01*
X0130988Y0049853D01*
X0130932Y0049915D01*
X0130879Y0049980D01*
X0130829Y0050047D01*
X0130782Y0050116D01*
X0130739Y0050188D01*
X0130699Y0050262D01*
X0130663Y0050337D01*
X0130630Y0050414D01*
X0130601Y0050493D01*
X0130576Y0050572D01*
X0130554Y0050653D01*
X0130537Y0050735D01*
X0130523Y0050818D01*
X0130513Y0050901D01*
X0130507Y0050984D01*
X0130505Y0051068D01*
X0130505Y0052840D02*
X0130507Y0052924D01*
X0130513Y0053007D01*
X0130523Y0053090D01*
X0130537Y0053173D01*
X0130554Y0053255D01*
X0130576Y0053336D01*
X0130601Y0053415D01*
X0130630Y0053494D01*
X0130663Y0053571D01*
X0130699Y0053646D01*
X0130739Y0053720D01*
X0130782Y0053792D01*
X0130829Y0053861D01*
X0130879Y0053928D01*
X0130932Y0053993D01*
X0130988Y0054055D01*
X0131046Y0054115D01*
X0131108Y0054172D01*
X0131172Y0054225D01*
X0131239Y0054276D01*
X0131308Y0054323D01*
X0131379Y0054368D01*
X0131452Y0054408D01*
X0131527Y0054445D01*
X0131604Y0054479D01*
X0131682Y0054509D01*
X0131761Y0054535D01*
X0131842Y0054558D01*
X0131924Y0054576D01*
X0132006Y0054591D01*
X0132089Y0054602D01*
X0132172Y0054609D01*
X0132256Y0054612D01*
X0132340Y0054611D01*
X0132423Y0054606D01*
X0132507Y0054597D01*
X0132589Y0054584D01*
X0132671Y0054568D01*
X0132752Y0054547D01*
X0132833Y0054523D01*
X0132911Y0054495D01*
X0132989Y0054463D01*
X0133065Y0054427D01*
X0133139Y0054388D01*
X0133211Y0054346D01*
X0133281Y0054300D01*
X0133349Y0054251D01*
X0133414Y0054199D01*
X0133477Y0054144D01*
X0133537Y0054086D01*
X0133595Y0054025D01*
X0133649Y0053961D01*
X0133701Y0053895D01*
X0133749Y0053827D01*
X0133794Y0053756D01*
X0133835Y0053683D01*
X0133874Y0053609D01*
X0133908Y0053533D01*
X0133939Y0053455D01*
X0133966Y0053376D01*
X0133990Y0053295D01*
X0134009Y0053214D01*
X0134025Y0053132D01*
X0134037Y0053049D01*
X0134045Y0052965D01*
X0134049Y0052882D01*
X0134049Y0052798D01*
X0134045Y0052715D01*
X0134037Y0052631D01*
X0134025Y0052548D01*
X0134009Y0052466D01*
X0133990Y0052385D01*
X0133966Y0052304D01*
X0133939Y0052225D01*
X0133908Y0052147D01*
X0133874Y0052071D01*
X0133835Y0051997D01*
X0133794Y0051924D01*
X0133749Y0051853D01*
X0133701Y0051785D01*
X0133649Y0051719D01*
X0133595Y0051655D01*
X0133537Y0051594D01*
X0133477Y0051536D01*
X0133414Y0051481D01*
X0133349Y0051429D01*
X0133281Y0051380D01*
X0133211Y0051334D01*
X0133139Y0051292D01*
X0133065Y0051253D01*
X0132989Y0051217D01*
X0132911Y0051185D01*
X0132833Y0051157D01*
X0132752Y0051133D01*
X0132671Y0051112D01*
X0132589Y0051096D01*
X0132507Y0051083D01*
X0132423Y0051074D01*
X0132340Y0051069D01*
X0132256Y0051068D01*
X0132172Y0051071D01*
X0132089Y0051078D01*
X0132006Y0051089D01*
X0131924Y0051104D01*
X0131842Y0051122D01*
X0131761Y0051145D01*
X0131682Y0051171D01*
X0131604Y0051201D01*
X0131527Y0051235D01*
X0131452Y0051272D01*
X0131379Y0051312D01*
X0131308Y0051357D01*
X0131239Y0051404D01*
X0131172Y0051455D01*
X0131108Y0051508D01*
X0131046Y0051565D01*
X0130988Y0051625D01*
X0130932Y0051687D01*
X0130879Y0051752D01*
X0130829Y0051819D01*
X0130782Y0051888D01*
X0130739Y0051960D01*
X0130699Y0052034D01*
X0130663Y0052109D01*
X0130630Y0052186D01*
X0130601Y0052265D01*
X0130576Y0052344D01*
X0130554Y0052425D01*
X0130537Y0052507D01*
X0130523Y0052590D01*
X0130513Y0052673D01*
X0130507Y0052756D01*
X0130505Y0052840D01*
X0130505Y0055202D02*
X0130507Y0055286D01*
X0130513Y0055369D01*
X0130523Y0055452D01*
X0130537Y0055535D01*
X0130554Y0055617D01*
X0130576Y0055698D01*
X0130601Y0055777D01*
X0130630Y0055856D01*
X0130663Y0055933D01*
X0130699Y0056008D01*
X0130739Y0056082D01*
X0130782Y0056154D01*
X0130829Y0056223D01*
X0130879Y0056290D01*
X0130932Y0056355D01*
X0130988Y0056417D01*
X0131046Y0056477D01*
X0131108Y0056534D01*
X0131172Y0056587D01*
X0131239Y0056638D01*
X0131308Y0056685D01*
X0131379Y0056730D01*
X0131452Y0056770D01*
X0131527Y0056807D01*
X0131604Y0056841D01*
X0131682Y0056871D01*
X0131761Y0056897D01*
X0131842Y0056920D01*
X0131924Y0056938D01*
X0132006Y0056953D01*
X0132089Y0056964D01*
X0132172Y0056971D01*
X0132256Y0056974D01*
X0132340Y0056973D01*
X0132423Y0056968D01*
X0132507Y0056959D01*
X0132589Y0056946D01*
X0132671Y0056930D01*
X0132752Y0056909D01*
X0132833Y0056885D01*
X0132911Y0056857D01*
X0132989Y0056825D01*
X0133065Y0056789D01*
X0133139Y0056750D01*
X0133211Y0056708D01*
X0133281Y0056662D01*
X0133349Y0056613D01*
X0133414Y0056561D01*
X0133477Y0056506D01*
X0133537Y0056448D01*
X0133595Y0056387D01*
X0133649Y0056323D01*
X0133701Y0056257D01*
X0133749Y0056189D01*
X0133794Y0056118D01*
X0133835Y0056045D01*
X0133874Y0055971D01*
X0133908Y0055895D01*
X0133939Y0055817D01*
X0133966Y0055738D01*
X0133990Y0055657D01*
X0134009Y0055576D01*
X0134025Y0055494D01*
X0134037Y0055411D01*
X0134045Y0055327D01*
X0134049Y0055244D01*
X0134049Y0055160D01*
X0134045Y0055077D01*
X0134037Y0054993D01*
X0134025Y0054910D01*
X0134009Y0054828D01*
X0133990Y0054747D01*
X0133966Y0054666D01*
X0133939Y0054587D01*
X0133908Y0054509D01*
X0133874Y0054433D01*
X0133835Y0054359D01*
X0133794Y0054286D01*
X0133749Y0054215D01*
X0133701Y0054147D01*
X0133649Y0054081D01*
X0133595Y0054017D01*
X0133537Y0053956D01*
X0133477Y0053898D01*
X0133414Y0053843D01*
X0133349Y0053791D01*
X0133281Y0053742D01*
X0133211Y0053696D01*
X0133139Y0053654D01*
X0133065Y0053615D01*
X0132989Y0053579D01*
X0132911Y0053547D01*
X0132833Y0053519D01*
X0132752Y0053495D01*
X0132671Y0053474D01*
X0132589Y0053458D01*
X0132507Y0053445D01*
X0132423Y0053436D01*
X0132340Y0053431D01*
X0132256Y0053430D01*
X0132172Y0053433D01*
X0132089Y0053440D01*
X0132006Y0053451D01*
X0131924Y0053466D01*
X0131842Y0053484D01*
X0131761Y0053507D01*
X0131682Y0053533D01*
X0131604Y0053563D01*
X0131527Y0053597D01*
X0131452Y0053634D01*
X0131379Y0053674D01*
X0131308Y0053719D01*
X0131239Y0053766D01*
X0131172Y0053817D01*
X0131108Y0053870D01*
X0131046Y0053927D01*
X0130988Y0053987D01*
X0130932Y0054049D01*
X0130879Y0054114D01*
X0130829Y0054181D01*
X0130782Y0054250D01*
X0130739Y0054322D01*
X0130699Y0054396D01*
X0130663Y0054471D01*
X0130630Y0054548D01*
X0130601Y0054627D01*
X0130576Y0054706D01*
X0130554Y0054787D01*
X0130537Y0054869D01*
X0130523Y0054952D01*
X0130513Y0055035D01*
X0130507Y0055118D01*
X0130505Y0055202D01*
X0130505Y0056974D02*
X0130507Y0057058D01*
X0130513Y0057141D01*
X0130523Y0057224D01*
X0130537Y0057307D01*
X0130554Y0057389D01*
X0130576Y0057470D01*
X0130601Y0057549D01*
X0130630Y0057628D01*
X0130663Y0057705D01*
X0130699Y0057780D01*
X0130739Y0057854D01*
X0130782Y0057926D01*
X0130829Y0057995D01*
X0130879Y0058062D01*
X0130932Y0058127D01*
X0130988Y0058189D01*
X0131046Y0058249D01*
X0131108Y0058306D01*
X0131172Y0058359D01*
X0131239Y0058410D01*
X0131308Y0058457D01*
X0131379Y0058502D01*
X0131452Y0058542D01*
X0131527Y0058579D01*
X0131604Y0058613D01*
X0131682Y0058643D01*
X0131761Y0058669D01*
X0131842Y0058692D01*
X0131924Y0058710D01*
X0132006Y0058725D01*
X0132089Y0058736D01*
X0132172Y0058743D01*
X0132256Y0058746D01*
X0132340Y0058745D01*
X0132423Y0058740D01*
X0132507Y0058731D01*
X0132589Y0058718D01*
X0132671Y0058702D01*
X0132752Y0058681D01*
X0132833Y0058657D01*
X0132911Y0058629D01*
X0132989Y0058597D01*
X0133065Y0058561D01*
X0133139Y0058522D01*
X0133211Y0058480D01*
X0133281Y0058434D01*
X0133349Y0058385D01*
X0133414Y0058333D01*
X0133477Y0058278D01*
X0133537Y0058220D01*
X0133595Y0058159D01*
X0133649Y0058095D01*
X0133701Y0058029D01*
X0133749Y0057961D01*
X0133794Y0057890D01*
X0133835Y0057817D01*
X0133874Y0057743D01*
X0133908Y0057667D01*
X0133939Y0057589D01*
X0133966Y0057510D01*
X0133990Y0057429D01*
X0134009Y0057348D01*
X0134025Y0057266D01*
X0134037Y0057183D01*
X0134045Y0057099D01*
X0134049Y0057016D01*
X0134049Y0056932D01*
X0134045Y0056849D01*
X0134037Y0056765D01*
X0134025Y0056682D01*
X0134009Y0056600D01*
X0133990Y0056519D01*
X0133966Y0056438D01*
X0133939Y0056359D01*
X0133908Y0056281D01*
X0133874Y0056205D01*
X0133835Y0056131D01*
X0133794Y0056058D01*
X0133749Y0055987D01*
X0133701Y0055919D01*
X0133649Y0055853D01*
X0133595Y0055789D01*
X0133537Y0055728D01*
X0133477Y0055670D01*
X0133414Y0055615D01*
X0133349Y0055563D01*
X0133281Y0055514D01*
X0133211Y0055468D01*
X0133139Y0055426D01*
X0133065Y0055387D01*
X0132989Y0055351D01*
X0132911Y0055319D01*
X0132833Y0055291D01*
X0132752Y0055267D01*
X0132671Y0055246D01*
X0132589Y0055230D01*
X0132507Y0055217D01*
X0132423Y0055208D01*
X0132340Y0055203D01*
X0132256Y0055202D01*
X0132172Y0055205D01*
X0132089Y0055212D01*
X0132006Y0055223D01*
X0131924Y0055238D01*
X0131842Y0055256D01*
X0131761Y0055279D01*
X0131682Y0055305D01*
X0131604Y0055335D01*
X0131527Y0055369D01*
X0131452Y0055406D01*
X0131379Y0055446D01*
X0131308Y0055491D01*
X0131239Y0055538D01*
X0131172Y0055589D01*
X0131108Y0055642D01*
X0131046Y0055699D01*
X0130988Y0055759D01*
X0130932Y0055821D01*
X0130879Y0055886D01*
X0130829Y0055953D01*
X0130782Y0056022D01*
X0130739Y0056094D01*
X0130699Y0056168D01*
X0130663Y0056243D01*
X0130630Y0056320D01*
X0130601Y0056399D01*
X0130576Y0056478D01*
X0130554Y0056559D01*
X0130537Y0056641D01*
X0130523Y0056724D01*
X0130513Y0056807D01*
X0130507Y0056890D01*
X0130505Y0056974D01*
D18*
X0126233Y0054392D03*
X0125233Y0062392D03*
X0125533Y0067792D03*
X0116233Y0079623D03*
X0110333Y0079592D03*
X0104433Y0079723D03*
X0099833Y0080292D03*
X0095933Y0080623D03*
X0096933Y0085123D03*
X0106633Y0091823D03*
X0123233Y0090523D03*
X0128933Y0087923D03*
X0129733Y0093823D03*
X0128133Y0108623D03*
X0124533Y0115523D03*
X0120833Y0112923D03*
X0113733Y0121623D03*
X0107233Y0119492D03*
X0101533Y0119923D03*
X0095833Y0119492D03*
X0090633Y0118823D03*
X0082033Y0122123D03*
X0074933Y0112992D03*
X0071733Y0109223D03*
X0065433Y0103423D03*
X0056533Y0105792D03*
X0056533Y0108992D03*
X0054533Y0100692D03*
X0045254Y0090323D03*
X0045254Y0085592D03*
X0045254Y0080723D03*
X0045254Y0075692D03*
X0045254Y0070592D03*
X0045254Y0065592D03*
X0045254Y0060692D03*
X0045254Y0055592D03*
X0045254Y0050492D03*
X0045254Y0045492D03*
X0045254Y0040492D03*
X0054533Y0030723D03*
X0060933Y0031192D03*
X0069933Y0042023D03*
X0070233Y0045423D03*
X0069333Y0058123D03*
X0080933Y0054492D03*
X0089433Y0047092D03*
X0101733Y0048592D03*
X0107533Y0048592D03*
X0113533Y0048592D03*
X0119333Y0048592D03*
X0126633Y0038923D03*
X0126633Y0029792D03*
X0141733Y0044923D03*
X0145533Y0057823D03*
X0152433Y0059123D03*
X0152433Y0077892D03*
X0149533Y0082723D03*
X0152533Y0085423D03*
X0154533Y0088023D03*
X0145733Y0090292D03*
X0143433Y0096723D03*
X0142833Y0101923D03*
X0143733Y0107623D03*
X0146533Y0110523D03*
X0146233Y0114623D03*
X0141533Y0110192D03*
X0148833Y0104323D03*
X0152133Y0105692D03*
X0141033Y0120692D03*
X0145233Y0122823D03*
X0129733Y0137723D03*
X0122033Y0133223D03*
X0118133Y0133192D03*
X0112533Y0137323D03*
X0110933Y0131923D03*
X0104333Y0132823D03*
X0101233Y0140392D03*
X0097433Y0140523D03*
X0094133Y0137623D03*
X0096533Y0134323D03*
X0086233Y0141192D03*
X0093533Y0153323D03*
X0092633Y0162123D03*
X0088133Y0167323D03*
X0087033Y0161823D03*
X0078233Y0153723D03*
X0075233Y0140523D03*
X0066433Y0125792D03*
X0062433Y0153492D03*
X0056033Y0152523D03*
X0041933Y0149223D03*
X0041433Y0156923D03*
X0043733Y0178723D03*
X0054433Y0190623D03*
X0057333Y0193592D03*
X0076433Y0181423D03*
X0080133Y0181292D03*
X0087533Y0190223D03*
X0082433Y0192623D03*
X0081033Y0197192D03*
X0104233Y0192723D03*
X0110433Y0187792D03*
X0110533Y0182623D03*
X0110933Y0173123D03*
X0099433Y0161423D03*
X0111433Y0146892D03*
X0134733Y0154492D03*
X0145133Y0143823D03*
X0152333Y0156423D03*
X0156933Y0156823D03*
X0134733Y0171192D03*
X0129833Y0183823D03*
X0168433Y0198423D03*
X0076533Y0091992D03*
X0072733Y0089023D03*
X0066864Y0078523D03*
X0080533Y0068423D03*
X0095633Y0066723D03*
X0081133Y0028992D03*
X0028833Y0037323D03*
X0068533Y0165192D03*
X0140933Y0079892D03*
X0168733Y0038223D03*
M02*
