%
M48
M72
T01C0.01200
T02C0.03150
T03C0.03346
T04C0.03543
T05C0.04000
T06C0.04528
T07C0.05200
%
T01
X28833Y37323
X45254Y40492
X45254Y45492
X45254Y50492
X45254Y55592
X45254Y60692
X45254Y65592
X45254Y70592
X45254Y75692
X45254Y80723
X45254Y85592
X45254Y90323
X54533Y100692
X56533Y105792
X56533Y108992
X65433Y103423
X71733Y109223
X74933Y112992
X82033Y122123
X90633Y118823
X95833Y119492
X101533Y119923
X107233Y119492
X113733Y121623
X120833Y112923
X124533Y115523
X128133Y108623
X129733Y93823
X128933Y87923
X123233Y90523
X116233Y79623
X110333Y79592
X104433Y79723
X99833Y80292
X95933Y80623
X96933Y85123
X106633Y91823
X95633Y66723
X80533Y68423
X80933Y54492
X89433Y47092
X101733Y48592
X107533Y48592
X113533Y48592
X119333Y48592
X126233Y54392
X125233Y62392
X125533Y67792
X140933Y79892
X145733Y90292
X143433Y96723
X142833Y101923
X143733Y107623
X146533Y110523
X146233Y114623
X141533Y110192
X148833Y104323
X152133Y105692
X141033Y120692
X145233Y122823
X129733Y137723
X122033Y133223
X118133Y133192
X112533Y137323
X110933Y131923
X104333Y132823
X101233Y140392
X97433Y140523
X94133Y137623
X96533Y134323
X86233Y141192
X93533Y153323
X92633Y162123
X88133Y167323
X87033Y161823
X78233Y153723
X75233Y140523
X66433Y125792
X62433Y153492
X56033Y152523
X41933Y149223
X41433Y156923
X43733Y178723
X54433Y190623
X57333Y193592
X76433Y181423
X80133Y181292
X87533Y190223
X82433Y192623
X81033Y197192
X104233Y192723
X110433Y187792
X110533Y182623
X110933Y173123
X99433Y161423
X111433Y146892
X134733Y154492
X145133Y143823
X152333Y156423
X156933Y156823
X134733Y171192
X129833Y183823
X168433Y198423
X154533Y88023
X152533Y85423
X149533Y82723
X152433Y77892
X152433Y59123
X145533Y57823
X141733Y44923
X126633Y38923
X126633Y29792
X168733Y38223
X81133Y28992
X69933Y42023
X70233Y45423
X69333Y58123
X66864Y78523
X72733Y89023
X76533Y91992
X60933Y31192
X54533Y30723
X68533Y165192
T02
X69733Y187523
X69733Y135523
X142733Y135523
X142733Y187523
T03
X108376Y200462
X88691Y200462
X69176Y200462
X49491Y200462
T04
X75190Y56974
X75190Y55202
X75190Y54021
X75190Y52840
X75190Y51068
X75190Y33549
X75190Y31777
X75190Y30556
X75190Y29415
X75190Y27643
X132277Y27643
X132277Y29415
X132277Y30556
X132277Y31777
X132277Y33549
X132277Y51068
X132277Y52840
X132277Y54021
X132277Y55202
X132277Y56974
T05
X23955Y23159
X23955Y33159
X33955Y33159
X33955Y23159
X33955Y43159
X33955Y53159
X33955Y63159
X33955Y73159
X33955Y83159
X33955Y93159
X33955Y103159
X33955Y113159
X33955Y123159
X33955Y133159
X33955Y143159
X33955Y153159
X33955Y163159
X33955Y173159
X33955Y183159
X33955Y193159
X33955Y203159
X33955Y213159
X23955Y213159
X23955Y203159
X23955Y193159
X23955Y183159
X23955Y173159
X23955Y163159
X23955Y153159
X23955Y143159
X23955Y133159
X23955Y123159
X23955Y113159
X23955Y103159
X23955Y93159
X23955Y83159
X23955Y73159
X23955Y63159
X23955Y53159
X23955Y43159
X163955Y43159
X163955Y53159
X163955Y63159
X173955Y63159
X173955Y53159
X173955Y43159
X173955Y33159
X173955Y23159
X163955Y23159
X163955Y33159
X163955Y73159
X163955Y83159
X173955Y83159
X173955Y73159
X173955Y93159
X173955Y103159
X173955Y113159
X173955Y123159
X173955Y133159
X173955Y143159
X173955Y153159
X173955Y163159
X173955Y173159
X173955Y183159
X173955Y193159
X173955Y203159
X173955Y213159
X163955Y213159
X163955Y203159
X163955Y193159
X163955Y183159
X163955Y173159
X163955Y163159
X163955Y153159
X163955Y143159
X163955Y133159
X163955Y123159
X163955Y113159
X163955Y103159
X163955Y93159
T06
X112313Y210797
X84754Y210797
X73113Y210797
X45554Y210797
T07
X127577Y206923
X147262Y206923
M30
