G75*
%MOIN*%
%OFA0B0*%
%FSLAX25Y25*%
%IPPOS*%
%LPD*%
%AMOC8*
5,1,8,0,0,1.08239X$1,22.5*
%
%ADD10C,0.01000*%
%ADD11R,0.01575X0.05315*%
%ADD12R,0.05906X0.07480*%
%ADD13R,0.09449X0.09449*%
%ADD14R,0.05906X0.00984*%
%ADD15R,0.00984X0.05906*%
%ADD16R,0.01181X0.10236*%
%ADD17C,0.00000*%
%ADD18R,0.05118X0.05906*%
%ADD19R,0.05906X0.05118*%
%ADD20R,0.02200X0.04800*%
%ADD21R,0.07600X0.21000*%
%ADD22R,0.06299X0.05118*%
%ADD23R,0.05118X0.06299*%
D10*
X0045031Y0019923D02*
X0045031Y0216673D01*
X0206031Y0216673D01*
X0206031Y0019923D01*
X0045031Y0019923D01*
D11*
X0080213Y0200265D03*
X0082772Y0200265D03*
X0085331Y0200265D03*
X0087890Y0200265D03*
X0090449Y0200265D03*
X0119413Y0200265D03*
X0121972Y0200265D03*
X0124531Y0200265D03*
X0127090Y0200265D03*
X0129649Y0200265D03*
D12*
X0128468Y0210797D03*
X0120594Y0210757D03*
X0089268Y0210797D03*
X0081394Y0210757D03*
D13*
X0170884Y0167884D03*
X0170884Y0150561D03*
D14*
X0161906Y0118523D03*
X0161906Y0116555D03*
X0161906Y0114586D03*
X0161906Y0112618D03*
X0161906Y0110649D03*
X0161906Y0108681D03*
X0161906Y0106712D03*
X0161906Y0104744D03*
X0161906Y0102775D03*
X0161906Y0100807D03*
X0161906Y0098838D03*
X0161906Y0096870D03*
X0161906Y0094901D03*
X0161906Y0092933D03*
X0161906Y0090964D03*
X0161906Y0088996D03*
X0161906Y0087027D03*
X0161906Y0085059D03*
X0161906Y0083090D03*
X0161906Y0081122D03*
X0108756Y0081122D03*
X0108756Y0083090D03*
X0108756Y0085059D03*
X0108756Y0087027D03*
X0108756Y0088996D03*
X0108756Y0090964D03*
X0108756Y0092933D03*
X0108756Y0094901D03*
X0108756Y0096870D03*
X0108756Y0098838D03*
X0108756Y0100807D03*
X0108756Y0102775D03*
X0108756Y0104744D03*
X0108756Y0106712D03*
X0108756Y0108681D03*
X0108756Y0110649D03*
X0108756Y0112618D03*
X0108756Y0114586D03*
X0108756Y0116555D03*
X0108756Y0118523D03*
D15*
X0116630Y0126397D03*
X0118599Y0126397D03*
X0120567Y0126397D03*
X0122536Y0126397D03*
X0124504Y0126397D03*
X0126473Y0126397D03*
X0128441Y0126397D03*
X0130410Y0126397D03*
X0132378Y0126397D03*
X0134347Y0126397D03*
X0136315Y0126397D03*
X0138284Y0126397D03*
X0140252Y0126397D03*
X0142221Y0126397D03*
X0144189Y0126397D03*
X0146158Y0126397D03*
X0148126Y0126397D03*
X0150095Y0126397D03*
X0152063Y0126397D03*
X0154032Y0126397D03*
X0154032Y0073248D03*
X0152063Y0073248D03*
X0150095Y0073248D03*
X0148126Y0073248D03*
X0146158Y0073248D03*
X0144189Y0073248D03*
X0142221Y0073248D03*
X0140252Y0073248D03*
X0138284Y0073248D03*
X0136315Y0073248D03*
X0134347Y0073248D03*
X0132378Y0073248D03*
X0130410Y0073248D03*
X0128441Y0073248D03*
X0126473Y0073248D03*
X0124504Y0073248D03*
X0122536Y0073248D03*
X0120567Y0073248D03*
X0118599Y0073248D03*
X0116630Y0073248D03*
D16*
X0115952Y0057013D03*
X0117920Y0057013D03*
X0119889Y0057013D03*
X0121857Y0057013D03*
X0123826Y0057013D03*
X0125794Y0057013D03*
X0127763Y0057013D03*
X0129731Y0057013D03*
X0131700Y0057013D03*
X0133668Y0057013D03*
X0135637Y0057013D03*
X0137605Y0057013D03*
X0139574Y0057013D03*
X0141542Y0057013D03*
X0143511Y0057013D03*
X0145479Y0057013D03*
X0147448Y0057013D03*
X0113983Y0057013D03*
X0112015Y0057013D03*
D17*
X0099416Y0056974D02*
X0099418Y0057058D01*
X0099424Y0057141D01*
X0099434Y0057224D01*
X0099448Y0057307D01*
X0099465Y0057389D01*
X0099487Y0057470D01*
X0099512Y0057549D01*
X0099541Y0057628D01*
X0099574Y0057705D01*
X0099610Y0057780D01*
X0099650Y0057854D01*
X0099693Y0057926D01*
X0099740Y0057995D01*
X0099790Y0058062D01*
X0099843Y0058127D01*
X0099899Y0058189D01*
X0099957Y0058249D01*
X0100019Y0058306D01*
X0100083Y0058359D01*
X0100150Y0058410D01*
X0100219Y0058457D01*
X0100290Y0058502D01*
X0100363Y0058542D01*
X0100438Y0058579D01*
X0100515Y0058613D01*
X0100593Y0058643D01*
X0100672Y0058669D01*
X0100753Y0058692D01*
X0100835Y0058710D01*
X0100917Y0058725D01*
X0101000Y0058736D01*
X0101083Y0058743D01*
X0101167Y0058746D01*
X0101251Y0058745D01*
X0101334Y0058740D01*
X0101418Y0058731D01*
X0101500Y0058718D01*
X0101582Y0058702D01*
X0101663Y0058681D01*
X0101744Y0058657D01*
X0101822Y0058629D01*
X0101900Y0058597D01*
X0101976Y0058561D01*
X0102050Y0058522D01*
X0102122Y0058480D01*
X0102192Y0058434D01*
X0102260Y0058385D01*
X0102325Y0058333D01*
X0102388Y0058278D01*
X0102448Y0058220D01*
X0102506Y0058159D01*
X0102560Y0058095D01*
X0102612Y0058029D01*
X0102660Y0057961D01*
X0102705Y0057890D01*
X0102746Y0057817D01*
X0102785Y0057743D01*
X0102819Y0057667D01*
X0102850Y0057589D01*
X0102877Y0057510D01*
X0102901Y0057429D01*
X0102920Y0057348D01*
X0102936Y0057266D01*
X0102948Y0057183D01*
X0102956Y0057099D01*
X0102960Y0057016D01*
X0102960Y0056932D01*
X0102956Y0056849D01*
X0102948Y0056765D01*
X0102936Y0056682D01*
X0102920Y0056600D01*
X0102901Y0056519D01*
X0102877Y0056438D01*
X0102850Y0056359D01*
X0102819Y0056281D01*
X0102785Y0056205D01*
X0102746Y0056131D01*
X0102705Y0056058D01*
X0102660Y0055987D01*
X0102612Y0055919D01*
X0102560Y0055853D01*
X0102506Y0055789D01*
X0102448Y0055728D01*
X0102388Y0055670D01*
X0102325Y0055615D01*
X0102260Y0055563D01*
X0102192Y0055514D01*
X0102122Y0055468D01*
X0102050Y0055426D01*
X0101976Y0055387D01*
X0101900Y0055351D01*
X0101822Y0055319D01*
X0101744Y0055291D01*
X0101663Y0055267D01*
X0101582Y0055246D01*
X0101500Y0055230D01*
X0101418Y0055217D01*
X0101334Y0055208D01*
X0101251Y0055203D01*
X0101167Y0055202D01*
X0101083Y0055205D01*
X0101000Y0055212D01*
X0100917Y0055223D01*
X0100835Y0055238D01*
X0100753Y0055256D01*
X0100672Y0055279D01*
X0100593Y0055305D01*
X0100515Y0055335D01*
X0100438Y0055369D01*
X0100363Y0055406D01*
X0100290Y0055446D01*
X0100219Y0055491D01*
X0100150Y0055538D01*
X0100083Y0055589D01*
X0100019Y0055642D01*
X0099957Y0055699D01*
X0099899Y0055759D01*
X0099843Y0055821D01*
X0099790Y0055886D01*
X0099740Y0055953D01*
X0099693Y0056022D01*
X0099650Y0056094D01*
X0099610Y0056168D01*
X0099574Y0056243D01*
X0099541Y0056320D01*
X0099512Y0056399D01*
X0099487Y0056478D01*
X0099465Y0056559D01*
X0099448Y0056641D01*
X0099434Y0056724D01*
X0099424Y0056807D01*
X0099418Y0056890D01*
X0099416Y0056974D01*
X0099416Y0055202D02*
X0099418Y0055286D01*
X0099424Y0055369D01*
X0099434Y0055452D01*
X0099448Y0055535D01*
X0099465Y0055617D01*
X0099487Y0055698D01*
X0099512Y0055777D01*
X0099541Y0055856D01*
X0099574Y0055933D01*
X0099610Y0056008D01*
X0099650Y0056082D01*
X0099693Y0056154D01*
X0099740Y0056223D01*
X0099790Y0056290D01*
X0099843Y0056355D01*
X0099899Y0056417D01*
X0099957Y0056477D01*
X0100019Y0056534D01*
X0100083Y0056587D01*
X0100150Y0056638D01*
X0100219Y0056685D01*
X0100290Y0056730D01*
X0100363Y0056770D01*
X0100438Y0056807D01*
X0100515Y0056841D01*
X0100593Y0056871D01*
X0100672Y0056897D01*
X0100753Y0056920D01*
X0100835Y0056938D01*
X0100917Y0056953D01*
X0101000Y0056964D01*
X0101083Y0056971D01*
X0101167Y0056974D01*
X0101251Y0056973D01*
X0101334Y0056968D01*
X0101418Y0056959D01*
X0101500Y0056946D01*
X0101582Y0056930D01*
X0101663Y0056909D01*
X0101744Y0056885D01*
X0101822Y0056857D01*
X0101900Y0056825D01*
X0101976Y0056789D01*
X0102050Y0056750D01*
X0102122Y0056708D01*
X0102192Y0056662D01*
X0102260Y0056613D01*
X0102325Y0056561D01*
X0102388Y0056506D01*
X0102448Y0056448D01*
X0102506Y0056387D01*
X0102560Y0056323D01*
X0102612Y0056257D01*
X0102660Y0056189D01*
X0102705Y0056118D01*
X0102746Y0056045D01*
X0102785Y0055971D01*
X0102819Y0055895D01*
X0102850Y0055817D01*
X0102877Y0055738D01*
X0102901Y0055657D01*
X0102920Y0055576D01*
X0102936Y0055494D01*
X0102948Y0055411D01*
X0102956Y0055327D01*
X0102960Y0055244D01*
X0102960Y0055160D01*
X0102956Y0055077D01*
X0102948Y0054993D01*
X0102936Y0054910D01*
X0102920Y0054828D01*
X0102901Y0054747D01*
X0102877Y0054666D01*
X0102850Y0054587D01*
X0102819Y0054509D01*
X0102785Y0054433D01*
X0102746Y0054359D01*
X0102705Y0054286D01*
X0102660Y0054215D01*
X0102612Y0054147D01*
X0102560Y0054081D01*
X0102506Y0054017D01*
X0102448Y0053956D01*
X0102388Y0053898D01*
X0102325Y0053843D01*
X0102260Y0053791D01*
X0102192Y0053742D01*
X0102122Y0053696D01*
X0102050Y0053654D01*
X0101976Y0053615D01*
X0101900Y0053579D01*
X0101822Y0053547D01*
X0101744Y0053519D01*
X0101663Y0053495D01*
X0101582Y0053474D01*
X0101500Y0053458D01*
X0101418Y0053445D01*
X0101334Y0053436D01*
X0101251Y0053431D01*
X0101167Y0053430D01*
X0101083Y0053433D01*
X0101000Y0053440D01*
X0100917Y0053451D01*
X0100835Y0053466D01*
X0100753Y0053484D01*
X0100672Y0053507D01*
X0100593Y0053533D01*
X0100515Y0053563D01*
X0100438Y0053597D01*
X0100363Y0053634D01*
X0100290Y0053674D01*
X0100219Y0053719D01*
X0100150Y0053766D01*
X0100083Y0053817D01*
X0100019Y0053870D01*
X0099957Y0053927D01*
X0099899Y0053987D01*
X0099843Y0054049D01*
X0099790Y0054114D01*
X0099740Y0054181D01*
X0099693Y0054250D01*
X0099650Y0054322D01*
X0099610Y0054396D01*
X0099574Y0054471D01*
X0099541Y0054548D01*
X0099512Y0054627D01*
X0099487Y0054706D01*
X0099465Y0054787D01*
X0099448Y0054869D01*
X0099434Y0054952D01*
X0099424Y0055035D01*
X0099418Y0055118D01*
X0099416Y0055202D01*
X0099416Y0052840D02*
X0099418Y0052924D01*
X0099424Y0053007D01*
X0099434Y0053090D01*
X0099448Y0053173D01*
X0099465Y0053255D01*
X0099487Y0053336D01*
X0099512Y0053415D01*
X0099541Y0053494D01*
X0099574Y0053571D01*
X0099610Y0053646D01*
X0099650Y0053720D01*
X0099693Y0053792D01*
X0099740Y0053861D01*
X0099790Y0053928D01*
X0099843Y0053993D01*
X0099899Y0054055D01*
X0099957Y0054115D01*
X0100019Y0054172D01*
X0100083Y0054225D01*
X0100150Y0054276D01*
X0100219Y0054323D01*
X0100290Y0054368D01*
X0100363Y0054408D01*
X0100438Y0054445D01*
X0100515Y0054479D01*
X0100593Y0054509D01*
X0100672Y0054535D01*
X0100753Y0054558D01*
X0100835Y0054576D01*
X0100917Y0054591D01*
X0101000Y0054602D01*
X0101083Y0054609D01*
X0101167Y0054612D01*
X0101251Y0054611D01*
X0101334Y0054606D01*
X0101418Y0054597D01*
X0101500Y0054584D01*
X0101582Y0054568D01*
X0101663Y0054547D01*
X0101744Y0054523D01*
X0101822Y0054495D01*
X0101900Y0054463D01*
X0101976Y0054427D01*
X0102050Y0054388D01*
X0102122Y0054346D01*
X0102192Y0054300D01*
X0102260Y0054251D01*
X0102325Y0054199D01*
X0102388Y0054144D01*
X0102448Y0054086D01*
X0102506Y0054025D01*
X0102560Y0053961D01*
X0102612Y0053895D01*
X0102660Y0053827D01*
X0102705Y0053756D01*
X0102746Y0053683D01*
X0102785Y0053609D01*
X0102819Y0053533D01*
X0102850Y0053455D01*
X0102877Y0053376D01*
X0102901Y0053295D01*
X0102920Y0053214D01*
X0102936Y0053132D01*
X0102948Y0053049D01*
X0102956Y0052965D01*
X0102960Y0052882D01*
X0102960Y0052798D01*
X0102956Y0052715D01*
X0102948Y0052631D01*
X0102936Y0052548D01*
X0102920Y0052466D01*
X0102901Y0052385D01*
X0102877Y0052304D01*
X0102850Y0052225D01*
X0102819Y0052147D01*
X0102785Y0052071D01*
X0102746Y0051997D01*
X0102705Y0051924D01*
X0102660Y0051853D01*
X0102612Y0051785D01*
X0102560Y0051719D01*
X0102506Y0051655D01*
X0102448Y0051594D01*
X0102388Y0051536D01*
X0102325Y0051481D01*
X0102260Y0051429D01*
X0102192Y0051380D01*
X0102122Y0051334D01*
X0102050Y0051292D01*
X0101976Y0051253D01*
X0101900Y0051217D01*
X0101822Y0051185D01*
X0101744Y0051157D01*
X0101663Y0051133D01*
X0101582Y0051112D01*
X0101500Y0051096D01*
X0101418Y0051083D01*
X0101334Y0051074D01*
X0101251Y0051069D01*
X0101167Y0051068D01*
X0101083Y0051071D01*
X0101000Y0051078D01*
X0100917Y0051089D01*
X0100835Y0051104D01*
X0100753Y0051122D01*
X0100672Y0051145D01*
X0100593Y0051171D01*
X0100515Y0051201D01*
X0100438Y0051235D01*
X0100363Y0051272D01*
X0100290Y0051312D01*
X0100219Y0051357D01*
X0100150Y0051404D01*
X0100083Y0051455D01*
X0100019Y0051508D01*
X0099957Y0051565D01*
X0099899Y0051625D01*
X0099843Y0051687D01*
X0099790Y0051752D01*
X0099740Y0051819D01*
X0099693Y0051888D01*
X0099650Y0051960D01*
X0099610Y0052034D01*
X0099574Y0052109D01*
X0099541Y0052186D01*
X0099512Y0052265D01*
X0099487Y0052344D01*
X0099465Y0052425D01*
X0099448Y0052507D01*
X0099434Y0052590D01*
X0099424Y0052673D01*
X0099418Y0052756D01*
X0099416Y0052840D01*
X0099416Y0051068D02*
X0099418Y0051152D01*
X0099424Y0051235D01*
X0099434Y0051318D01*
X0099448Y0051401D01*
X0099465Y0051483D01*
X0099487Y0051564D01*
X0099512Y0051643D01*
X0099541Y0051722D01*
X0099574Y0051799D01*
X0099610Y0051874D01*
X0099650Y0051948D01*
X0099693Y0052020D01*
X0099740Y0052089D01*
X0099790Y0052156D01*
X0099843Y0052221D01*
X0099899Y0052283D01*
X0099957Y0052343D01*
X0100019Y0052400D01*
X0100083Y0052453D01*
X0100150Y0052504D01*
X0100219Y0052551D01*
X0100290Y0052596D01*
X0100363Y0052636D01*
X0100438Y0052673D01*
X0100515Y0052707D01*
X0100593Y0052737D01*
X0100672Y0052763D01*
X0100753Y0052786D01*
X0100835Y0052804D01*
X0100917Y0052819D01*
X0101000Y0052830D01*
X0101083Y0052837D01*
X0101167Y0052840D01*
X0101251Y0052839D01*
X0101334Y0052834D01*
X0101418Y0052825D01*
X0101500Y0052812D01*
X0101582Y0052796D01*
X0101663Y0052775D01*
X0101744Y0052751D01*
X0101822Y0052723D01*
X0101900Y0052691D01*
X0101976Y0052655D01*
X0102050Y0052616D01*
X0102122Y0052574D01*
X0102192Y0052528D01*
X0102260Y0052479D01*
X0102325Y0052427D01*
X0102388Y0052372D01*
X0102448Y0052314D01*
X0102506Y0052253D01*
X0102560Y0052189D01*
X0102612Y0052123D01*
X0102660Y0052055D01*
X0102705Y0051984D01*
X0102746Y0051911D01*
X0102785Y0051837D01*
X0102819Y0051761D01*
X0102850Y0051683D01*
X0102877Y0051604D01*
X0102901Y0051523D01*
X0102920Y0051442D01*
X0102936Y0051360D01*
X0102948Y0051277D01*
X0102956Y0051193D01*
X0102960Y0051110D01*
X0102960Y0051026D01*
X0102956Y0050943D01*
X0102948Y0050859D01*
X0102936Y0050776D01*
X0102920Y0050694D01*
X0102901Y0050613D01*
X0102877Y0050532D01*
X0102850Y0050453D01*
X0102819Y0050375D01*
X0102785Y0050299D01*
X0102746Y0050225D01*
X0102705Y0050152D01*
X0102660Y0050081D01*
X0102612Y0050013D01*
X0102560Y0049947D01*
X0102506Y0049883D01*
X0102448Y0049822D01*
X0102388Y0049764D01*
X0102325Y0049709D01*
X0102260Y0049657D01*
X0102192Y0049608D01*
X0102122Y0049562D01*
X0102050Y0049520D01*
X0101976Y0049481D01*
X0101900Y0049445D01*
X0101822Y0049413D01*
X0101744Y0049385D01*
X0101663Y0049361D01*
X0101582Y0049340D01*
X0101500Y0049324D01*
X0101418Y0049311D01*
X0101334Y0049302D01*
X0101251Y0049297D01*
X0101167Y0049296D01*
X0101083Y0049299D01*
X0101000Y0049306D01*
X0100917Y0049317D01*
X0100835Y0049332D01*
X0100753Y0049350D01*
X0100672Y0049373D01*
X0100593Y0049399D01*
X0100515Y0049429D01*
X0100438Y0049463D01*
X0100363Y0049500D01*
X0100290Y0049540D01*
X0100219Y0049585D01*
X0100150Y0049632D01*
X0100083Y0049683D01*
X0100019Y0049736D01*
X0099957Y0049793D01*
X0099899Y0049853D01*
X0099843Y0049915D01*
X0099790Y0049980D01*
X0099740Y0050047D01*
X0099693Y0050116D01*
X0099650Y0050188D01*
X0099610Y0050262D01*
X0099574Y0050337D01*
X0099541Y0050414D01*
X0099512Y0050493D01*
X0099487Y0050572D01*
X0099465Y0050653D01*
X0099448Y0050735D01*
X0099434Y0050818D01*
X0099424Y0050901D01*
X0099418Y0050984D01*
X0099416Y0051068D01*
X0099416Y0033549D02*
X0099418Y0033633D01*
X0099424Y0033716D01*
X0099434Y0033799D01*
X0099448Y0033882D01*
X0099465Y0033964D01*
X0099487Y0034045D01*
X0099512Y0034124D01*
X0099541Y0034203D01*
X0099574Y0034280D01*
X0099610Y0034355D01*
X0099650Y0034429D01*
X0099693Y0034501D01*
X0099740Y0034570D01*
X0099790Y0034637D01*
X0099843Y0034702D01*
X0099899Y0034764D01*
X0099957Y0034824D01*
X0100019Y0034881D01*
X0100083Y0034934D01*
X0100150Y0034985D01*
X0100219Y0035032D01*
X0100290Y0035077D01*
X0100363Y0035117D01*
X0100438Y0035154D01*
X0100515Y0035188D01*
X0100593Y0035218D01*
X0100672Y0035244D01*
X0100753Y0035267D01*
X0100835Y0035285D01*
X0100917Y0035300D01*
X0101000Y0035311D01*
X0101083Y0035318D01*
X0101167Y0035321D01*
X0101251Y0035320D01*
X0101334Y0035315D01*
X0101418Y0035306D01*
X0101500Y0035293D01*
X0101582Y0035277D01*
X0101663Y0035256D01*
X0101744Y0035232D01*
X0101822Y0035204D01*
X0101900Y0035172D01*
X0101976Y0035136D01*
X0102050Y0035097D01*
X0102122Y0035055D01*
X0102192Y0035009D01*
X0102260Y0034960D01*
X0102325Y0034908D01*
X0102388Y0034853D01*
X0102448Y0034795D01*
X0102506Y0034734D01*
X0102560Y0034670D01*
X0102612Y0034604D01*
X0102660Y0034536D01*
X0102705Y0034465D01*
X0102746Y0034392D01*
X0102785Y0034318D01*
X0102819Y0034242D01*
X0102850Y0034164D01*
X0102877Y0034085D01*
X0102901Y0034004D01*
X0102920Y0033923D01*
X0102936Y0033841D01*
X0102948Y0033758D01*
X0102956Y0033674D01*
X0102960Y0033591D01*
X0102960Y0033507D01*
X0102956Y0033424D01*
X0102948Y0033340D01*
X0102936Y0033257D01*
X0102920Y0033175D01*
X0102901Y0033094D01*
X0102877Y0033013D01*
X0102850Y0032934D01*
X0102819Y0032856D01*
X0102785Y0032780D01*
X0102746Y0032706D01*
X0102705Y0032633D01*
X0102660Y0032562D01*
X0102612Y0032494D01*
X0102560Y0032428D01*
X0102506Y0032364D01*
X0102448Y0032303D01*
X0102388Y0032245D01*
X0102325Y0032190D01*
X0102260Y0032138D01*
X0102192Y0032089D01*
X0102122Y0032043D01*
X0102050Y0032001D01*
X0101976Y0031962D01*
X0101900Y0031926D01*
X0101822Y0031894D01*
X0101744Y0031866D01*
X0101663Y0031842D01*
X0101582Y0031821D01*
X0101500Y0031805D01*
X0101418Y0031792D01*
X0101334Y0031783D01*
X0101251Y0031778D01*
X0101167Y0031777D01*
X0101083Y0031780D01*
X0101000Y0031787D01*
X0100917Y0031798D01*
X0100835Y0031813D01*
X0100753Y0031831D01*
X0100672Y0031854D01*
X0100593Y0031880D01*
X0100515Y0031910D01*
X0100438Y0031944D01*
X0100363Y0031981D01*
X0100290Y0032021D01*
X0100219Y0032066D01*
X0100150Y0032113D01*
X0100083Y0032164D01*
X0100019Y0032217D01*
X0099957Y0032274D01*
X0099899Y0032334D01*
X0099843Y0032396D01*
X0099790Y0032461D01*
X0099740Y0032528D01*
X0099693Y0032597D01*
X0099650Y0032669D01*
X0099610Y0032743D01*
X0099574Y0032818D01*
X0099541Y0032895D01*
X0099512Y0032974D01*
X0099487Y0033053D01*
X0099465Y0033134D01*
X0099448Y0033216D01*
X0099434Y0033299D01*
X0099424Y0033382D01*
X0099418Y0033465D01*
X0099416Y0033549D01*
X0099416Y0031777D02*
X0099418Y0031861D01*
X0099424Y0031944D01*
X0099434Y0032027D01*
X0099448Y0032110D01*
X0099465Y0032192D01*
X0099487Y0032273D01*
X0099512Y0032352D01*
X0099541Y0032431D01*
X0099574Y0032508D01*
X0099610Y0032583D01*
X0099650Y0032657D01*
X0099693Y0032729D01*
X0099740Y0032798D01*
X0099790Y0032865D01*
X0099843Y0032930D01*
X0099899Y0032992D01*
X0099957Y0033052D01*
X0100019Y0033109D01*
X0100083Y0033162D01*
X0100150Y0033213D01*
X0100219Y0033260D01*
X0100290Y0033305D01*
X0100363Y0033345D01*
X0100438Y0033382D01*
X0100515Y0033416D01*
X0100593Y0033446D01*
X0100672Y0033472D01*
X0100753Y0033495D01*
X0100835Y0033513D01*
X0100917Y0033528D01*
X0101000Y0033539D01*
X0101083Y0033546D01*
X0101167Y0033549D01*
X0101251Y0033548D01*
X0101334Y0033543D01*
X0101418Y0033534D01*
X0101500Y0033521D01*
X0101582Y0033505D01*
X0101663Y0033484D01*
X0101744Y0033460D01*
X0101822Y0033432D01*
X0101900Y0033400D01*
X0101976Y0033364D01*
X0102050Y0033325D01*
X0102122Y0033283D01*
X0102192Y0033237D01*
X0102260Y0033188D01*
X0102325Y0033136D01*
X0102388Y0033081D01*
X0102448Y0033023D01*
X0102506Y0032962D01*
X0102560Y0032898D01*
X0102612Y0032832D01*
X0102660Y0032764D01*
X0102705Y0032693D01*
X0102746Y0032620D01*
X0102785Y0032546D01*
X0102819Y0032470D01*
X0102850Y0032392D01*
X0102877Y0032313D01*
X0102901Y0032232D01*
X0102920Y0032151D01*
X0102936Y0032069D01*
X0102948Y0031986D01*
X0102956Y0031902D01*
X0102960Y0031819D01*
X0102960Y0031735D01*
X0102956Y0031652D01*
X0102948Y0031568D01*
X0102936Y0031485D01*
X0102920Y0031403D01*
X0102901Y0031322D01*
X0102877Y0031241D01*
X0102850Y0031162D01*
X0102819Y0031084D01*
X0102785Y0031008D01*
X0102746Y0030934D01*
X0102705Y0030861D01*
X0102660Y0030790D01*
X0102612Y0030722D01*
X0102560Y0030656D01*
X0102506Y0030592D01*
X0102448Y0030531D01*
X0102388Y0030473D01*
X0102325Y0030418D01*
X0102260Y0030366D01*
X0102192Y0030317D01*
X0102122Y0030271D01*
X0102050Y0030229D01*
X0101976Y0030190D01*
X0101900Y0030154D01*
X0101822Y0030122D01*
X0101744Y0030094D01*
X0101663Y0030070D01*
X0101582Y0030049D01*
X0101500Y0030033D01*
X0101418Y0030020D01*
X0101334Y0030011D01*
X0101251Y0030006D01*
X0101167Y0030005D01*
X0101083Y0030008D01*
X0101000Y0030015D01*
X0100917Y0030026D01*
X0100835Y0030041D01*
X0100753Y0030059D01*
X0100672Y0030082D01*
X0100593Y0030108D01*
X0100515Y0030138D01*
X0100438Y0030172D01*
X0100363Y0030209D01*
X0100290Y0030249D01*
X0100219Y0030294D01*
X0100150Y0030341D01*
X0100083Y0030392D01*
X0100019Y0030445D01*
X0099957Y0030502D01*
X0099899Y0030562D01*
X0099843Y0030624D01*
X0099790Y0030689D01*
X0099740Y0030756D01*
X0099693Y0030825D01*
X0099650Y0030897D01*
X0099610Y0030971D01*
X0099574Y0031046D01*
X0099541Y0031123D01*
X0099512Y0031202D01*
X0099487Y0031281D01*
X0099465Y0031362D01*
X0099448Y0031444D01*
X0099434Y0031527D01*
X0099424Y0031610D01*
X0099418Y0031693D01*
X0099416Y0031777D01*
X0099416Y0029415D02*
X0099418Y0029499D01*
X0099424Y0029582D01*
X0099434Y0029665D01*
X0099448Y0029748D01*
X0099465Y0029830D01*
X0099487Y0029911D01*
X0099512Y0029990D01*
X0099541Y0030069D01*
X0099574Y0030146D01*
X0099610Y0030221D01*
X0099650Y0030295D01*
X0099693Y0030367D01*
X0099740Y0030436D01*
X0099790Y0030503D01*
X0099843Y0030568D01*
X0099899Y0030630D01*
X0099957Y0030690D01*
X0100019Y0030747D01*
X0100083Y0030800D01*
X0100150Y0030851D01*
X0100219Y0030898D01*
X0100290Y0030943D01*
X0100363Y0030983D01*
X0100438Y0031020D01*
X0100515Y0031054D01*
X0100593Y0031084D01*
X0100672Y0031110D01*
X0100753Y0031133D01*
X0100835Y0031151D01*
X0100917Y0031166D01*
X0101000Y0031177D01*
X0101083Y0031184D01*
X0101167Y0031187D01*
X0101251Y0031186D01*
X0101334Y0031181D01*
X0101418Y0031172D01*
X0101500Y0031159D01*
X0101582Y0031143D01*
X0101663Y0031122D01*
X0101744Y0031098D01*
X0101822Y0031070D01*
X0101900Y0031038D01*
X0101976Y0031002D01*
X0102050Y0030963D01*
X0102122Y0030921D01*
X0102192Y0030875D01*
X0102260Y0030826D01*
X0102325Y0030774D01*
X0102388Y0030719D01*
X0102448Y0030661D01*
X0102506Y0030600D01*
X0102560Y0030536D01*
X0102612Y0030470D01*
X0102660Y0030402D01*
X0102705Y0030331D01*
X0102746Y0030258D01*
X0102785Y0030184D01*
X0102819Y0030108D01*
X0102850Y0030030D01*
X0102877Y0029951D01*
X0102901Y0029870D01*
X0102920Y0029789D01*
X0102936Y0029707D01*
X0102948Y0029624D01*
X0102956Y0029540D01*
X0102960Y0029457D01*
X0102960Y0029373D01*
X0102956Y0029290D01*
X0102948Y0029206D01*
X0102936Y0029123D01*
X0102920Y0029041D01*
X0102901Y0028960D01*
X0102877Y0028879D01*
X0102850Y0028800D01*
X0102819Y0028722D01*
X0102785Y0028646D01*
X0102746Y0028572D01*
X0102705Y0028499D01*
X0102660Y0028428D01*
X0102612Y0028360D01*
X0102560Y0028294D01*
X0102506Y0028230D01*
X0102448Y0028169D01*
X0102388Y0028111D01*
X0102325Y0028056D01*
X0102260Y0028004D01*
X0102192Y0027955D01*
X0102122Y0027909D01*
X0102050Y0027867D01*
X0101976Y0027828D01*
X0101900Y0027792D01*
X0101822Y0027760D01*
X0101744Y0027732D01*
X0101663Y0027708D01*
X0101582Y0027687D01*
X0101500Y0027671D01*
X0101418Y0027658D01*
X0101334Y0027649D01*
X0101251Y0027644D01*
X0101167Y0027643D01*
X0101083Y0027646D01*
X0101000Y0027653D01*
X0100917Y0027664D01*
X0100835Y0027679D01*
X0100753Y0027697D01*
X0100672Y0027720D01*
X0100593Y0027746D01*
X0100515Y0027776D01*
X0100438Y0027810D01*
X0100363Y0027847D01*
X0100290Y0027887D01*
X0100219Y0027932D01*
X0100150Y0027979D01*
X0100083Y0028030D01*
X0100019Y0028083D01*
X0099957Y0028140D01*
X0099899Y0028200D01*
X0099843Y0028262D01*
X0099790Y0028327D01*
X0099740Y0028394D01*
X0099693Y0028463D01*
X0099650Y0028535D01*
X0099610Y0028609D01*
X0099574Y0028684D01*
X0099541Y0028761D01*
X0099512Y0028840D01*
X0099487Y0028919D01*
X0099465Y0029000D01*
X0099448Y0029082D01*
X0099434Y0029165D01*
X0099424Y0029248D01*
X0099418Y0029331D01*
X0099416Y0029415D01*
X0099416Y0027643D02*
X0099418Y0027727D01*
X0099424Y0027810D01*
X0099434Y0027893D01*
X0099448Y0027976D01*
X0099465Y0028058D01*
X0099487Y0028139D01*
X0099512Y0028218D01*
X0099541Y0028297D01*
X0099574Y0028374D01*
X0099610Y0028449D01*
X0099650Y0028523D01*
X0099693Y0028595D01*
X0099740Y0028664D01*
X0099790Y0028731D01*
X0099843Y0028796D01*
X0099899Y0028858D01*
X0099957Y0028918D01*
X0100019Y0028975D01*
X0100083Y0029028D01*
X0100150Y0029079D01*
X0100219Y0029126D01*
X0100290Y0029171D01*
X0100363Y0029211D01*
X0100438Y0029248D01*
X0100515Y0029282D01*
X0100593Y0029312D01*
X0100672Y0029338D01*
X0100753Y0029361D01*
X0100835Y0029379D01*
X0100917Y0029394D01*
X0101000Y0029405D01*
X0101083Y0029412D01*
X0101167Y0029415D01*
X0101251Y0029414D01*
X0101334Y0029409D01*
X0101418Y0029400D01*
X0101500Y0029387D01*
X0101582Y0029371D01*
X0101663Y0029350D01*
X0101744Y0029326D01*
X0101822Y0029298D01*
X0101900Y0029266D01*
X0101976Y0029230D01*
X0102050Y0029191D01*
X0102122Y0029149D01*
X0102192Y0029103D01*
X0102260Y0029054D01*
X0102325Y0029002D01*
X0102388Y0028947D01*
X0102448Y0028889D01*
X0102506Y0028828D01*
X0102560Y0028764D01*
X0102612Y0028698D01*
X0102660Y0028630D01*
X0102705Y0028559D01*
X0102746Y0028486D01*
X0102785Y0028412D01*
X0102819Y0028336D01*
X0102850Y0028258D01*
X0102877Y0028179D01*
X0102901Y0028098D01*
X0102920Y0028017D01*
X0102936Y0027935D01*
X0102948Y0027852D01*
X0102956Y0027768D01*
X0102960Y0027685D01*
X0102960Y0027601D01*
X0102956Y0027518D01*
X0102948Y0027434D01*
X0102936Y0027351D01*
X0102920Y0027269D01*
X0102901Y0027188D01*
X0102877Y0027107D01*
X0102850Y0027028D01*
X0102819Y0026950D01*
X0102785Y0026874D01*
X0102746Y0026800D01*
X0102705Y0026727D01*
X0102660Y0026656D01*
X0102612Y0026588D01*
X0102560Y0026522D01*
X0102506Y0026458D01*
X0102448Y0026397D01*
X0102388Y0026339D01*
X0102325Y0026284D01*
X0102260Y0026232D01*
X0102192Y0026183D01*
X0102122Y0026137D01*
X0102050Y0026095D01*
X0101976Y0026056D01*
X0101900Y0026020D01*
X0101822Y0025988D01*
X0101744Y0025960D01*
X0101663Y0025936D01*
X0101582Y0025915D01*
X0101500Y0025899D01*
X0101418Y0025886D01*
X0101334Y0025877D01*
X0101251Y0025872D01*
X0101167Y0025871D01*
X0101083Y0025874D01*
X0101000Y0025881D01*
X0100917Y0025892D01*
X0100835Y0025907D01*
X0100753Y0025925D01*
X0100672Y0025948D01*
X0100593Y0025974D01*
X0100515Y0026004D01*
X0100438Y0026038D01*
X0100363Y0026075D01*
X0100290Y0026115D01*
X0100219Y0026160D01*
X0100150Y0026207D01*
X0100083Y0026258D01*
X0100019Y0026311D01*
X0099957Y0026368D01*
X0099899Y0026428D01*
X0099843Y0026490D01*
X0099790Y0026555D01*
X0099740Y0026622D01*
X0099693Y0026691D01*
X0099650Y0026763D01*
X0099610Y0026837D01*
X0099574Y0026912D01*
X0099541Y0026989D01*
X0099512Y0027068D01*
X0099487Y0027147D01*
X0099465Y0027228D01*
X0099448Y0027310D01*
X0099434Y0027393D01*
X0099424Y0027476D01*
X0099418Y0027559D01*
X0099416Y0027643D01*
X0156503Y0027643D02*
X0156505Y0027727D01*
X0156511Y0027810D01*
X0156521Y0027893D01*
X0156535Y0027976D01*
X0156552Y0028058D01*
X0156574Y0028139D01*
X0156599Y0028218D01*
X0156628Y0028297D01*
X0156661Y0028374D01*
X0156697Y0028449D01*
X0156737Y0028523D01*
X0156780Y0028595D01*
X0156827Y0028664D01*
X0156877Y0028731D01*
X0156930Y0028796D01*
X0156986Y0028858D01*
X0157044Y0028918D01*
X0157106Y0028975D01*
X0157170Y0029028D01*
X0157237Y0029079D01*
X0157306Y0029126D01*
X0157377Y0029171D01*
X0157450Y0029211D01*
X0157525Y0029248D01*
X0157602Y0029282D01*
X0157680Y0029312D01*
X0157759Y0029338D01*
X0157840Y0029361D01*
X0157922Y0029379D01*
X0158004Y0029394D01*
X0158087Y0029405D01*
X0158170Y0029412D01*
X0158254Y0029415D01*
X0158338Y0029414D01*
X0158421Y0029409D01*
X0158505Y0029400D01*
X0158587Y0029387D01*
X0158669Y0029371D01*
X0158750Y0029350D01*
X0158831Y0029326D01*
X0158909Y0029298D01*
X0158987Y0029266D01*
X0159063Y0029230D01*
X0159137Y0029191D01*
X0159209Y0029149D01*
X0159279Y0029103D01*
X0159347Y0029054D01*
X0159412Y0029002D01*
X0159475Y0028947D01*
X0159535Y0028889D01*
X0159593Y0028828D01*
X0159647Y0028764D01*
X0159699Y0028698D01*
X0159747Y0028630D01*
X0159792Y0028559D01*
X0159833Y0028486D01*
X0159872Y0028412D01*
X0159906Y0028336D01*
X0159937Y0028258D01*
X0159964Y0028179D01*
X0159988Y0028098D01*
X0160007Y0028017D01*
X0160023Y0027935D01*
X0160035Y0027852D01*
X0160043Y0027768D01*
X0160047Y0027685D01*
X0160047Y0027601D01*
X0160043Y0027518D01*
X0160035Y0027434D01*
X0160023Y0027351D01*
X0160007Y0027269D01*
X0159988Y0027188D01*
X0159964Y0027107D01*
X0159937Y0027028D01*
X0159906Y0026950D01*
X0159872Y0026874D01*
X0159833Y0026800D01*
X0159792Y0026727D01*
X0159747Y0026656D01*
X0159699Y0026588D01*
X0159647Y0026522D01*
X0159593Y0026458D01*
X0159535Y0026397D01*
X0159475Y0026339D01*
X0159412Y0026284D01*
X0159347Y0026232D01*
X0159279Y0026183D01*
X0159209Y0026137D01*
X0159137Y0026095D01*
X0159063Y0026056D01*
X0158987Y0026020D01*
X0158909Y0025988D01*
X0158831Y0025960D01*
X0158750Y0025936D01*
X0158669Y0025915D01*
X0158587Y0025899D01*
X0158505Y0025886D01*
X0158421Y0025877D01*
X0158338Y0025872D01*
X0158254Y0025871D01*
X0158170Y0025874D01*
X0158087Y0025881D01*
X0158004Y0025892D01*
X0157922Y0025907D01*
X0157840Y0025925D01*
X0157759Y0025948D01*
X0157680Y0025974D01*
X0157602Y0026004D01*
X0157525Y0026038D01*
X0157450Y0026075D01*
X0157377Y0026115D01*
X0157306Y0026160D01*
X0157237Y0026207D01*
X0157170Y0026258D01*
X0157106Y0026311D01*
X0157044Y0026368D01*
X0156986Y0026428D01*
X0156930Y0026490D01*
X0156877Y0026555D01*
X0156827Y0026622D01*
X0156780Y0026691D01*
X0156737Y0026763D01*
X0156697Y0026837D01*
X0156661Y0026912D01*
X0156628Y0026989D01*
X0156599Y0027068D01*
X0156574Y0027147D01*
X0156552Y0027228D01*
X0156535Y0027310D01*
X0156521Y0027393D01*
X0156511Y0027476D01*
X0156505Y0027559D01*
X0156503Y0027643D01*
X0156503Y0029415D02*
X0156505Y0029499D01*
X0156511Y0029582D01*
X0156521Y0029665D01*
X0156535Y0029748D01*
X0156552Y0029830D01*
X0156574Y0029911D01*
X0156599Y0029990D01*
X0156628Y0030069D01*
X0156661Y0030146D01*
X0156697Y0030221D01*
X0156737Y0030295D01*
X0156780Y0030367D01*
X0156827Y0030436D01*
X0156877Y0030503D01*
X0156930Y0030568D01*
X0156986Y0030630D01*
X0157044Y0030690D01*
X0157106Y0030747D01*
X0157170Y0030800D01*
X0157237Y0030851D01*
X0157306Y0030898D01*
X0157377Y0030943D01*
X0157450Y0030983D01*
X0157525Y0031020D01*
X0157602Y0031054D01*
X0157680Y0031084D01*
X0157759Y0031110D01*
X0157840Y0031133D01*
X0157922Y0031151D01*
X0158004Y0031166D01*
X0158087Y0031177D01*
X0158170Y0031184D01*
X0158254Y0031187D01*
X0158338Y0031186D01*
X0158421Y0031181D01*
X0158505Y0031172D01*
X0158587Y0031159D01*
X0158669Y0031143D01*
X0158750Y0031122D01*
X0158831Y0031098D01*
X0158909Y0031070D01*
X0158987Y0031038D01*
X0159063Y0031002D01*
X0159137Y0030963D01*
X0159209Y0030921D01*
X0159279Y0030875D01*
X0159347Y0030826D01*
X0159412Y0030774D01*
X0159475Y0030719D01*
X0159535Y0030661D01*
X0159593Y0030600D01*
X0159647Y0030536D01*
X0159699Y0030470D01*
X0159747Y0030402D01*
X0159792Y0030331D01*
X0159833Y0030258D01*
X0159872Y0030184D01*
X0159906Y0030108D01*
X0159937Y0030030D01*
X0159964Y0029951D01*
X0159988Y0029870D01*
X0160007Y0029789D01*
X0160023Y0029707D01*
X0160035Y0029624D01*
X0160043Y0029540D01*
X0160047Y0029457D01*
X0160047Y0029373D01*
X0160043Y0029290D01*
X0160035Y0029206D01*
X0160023Y0029123D01*
X0160007Y0029041D01*
X0159988Y0028960D01*
X0159964Y0028879D01*
X0159937Y0028800D01*
X0159906Y0028722D01*
X0159872Y0028646D01*
X0159833Y0028572D01*
X0159792Y0028499D01*
X0159747Y0028428D01*
X0159699Y0028360D01*
X0159647Y0028294D01*
X0159593Y0028230D01*
X0159535Y0028169D01*
X0159475Y0028111D01*
X0159412Y0028056D01*
X0159347Y0028004D01*
X0159279Y0027955D01*
X0159209Y0027909D01*
X0159137Y0027867D01*
X0159063Y0027828D01*
X0158987Y0027792D01*
X0158909Y0027760D01*
X0158831Y0027732D01*
X0158750Y0027708D01*
X0158669Y0027687D01*
X0158587Y0027671D01*
X0158505Y0027658D01*
X0158421Y0027649D01*
X0158338Y0027644D01*
X0158254Y0027643D01*
X0158170Y0027646D01*
X0158087Y0027653D01*
X0158004Y0027664D01*
X0157922Y0027679D01*
X0157840Y0027697D01*
X0157759Y0027720D01*
X0157680Y0027746D01*
X0157602Y0027776D01*
X0157525Y0027810D01*
X0157450Y0027847D01*
X0157377Y0027887D01*
X0157306Y0027932D01*
X0157237Y0027979D01*
X0157170Y0028030D01*
X0157106Y0028083D01*
X0157044Y0028140D01*
X0156986Y0028200D01*
X0156930Y0028262D01*
X0156877Y0028327D01*
X0156827Y0028394D01*
X0156780Y0028463D01*
X0156737Y0028535D01*
X0156697Y0028609D01*
X0156661Y0028684D01*
X0156628Y0028761D01*
X0156599Y0028840D01*
X0156574Y0028919D01*
X0156552Y0029000D01*
X0156535Y0029082D01*
X0156521Y0029165D01*
X0156511Y0029248D01*
X0156505Y0029331D01*
X0156503Y0029415D01*
X0156503Y0031777D02*
X0156505Y0031861D01*
X0156511Y0031944D01*
X0156521Y0032027D01*
X0156535Y0032110D01*
X0156552Y0032192D01*
X0156574Y0032273D01*
X0156599Y0032352D01*
X0156628Y0032431D01*
X0156661Y0032508D01*
X0156697Y0032583D01*
X0156737Y0032657D01*
X0156780Y0032729D01*
X0156827Y0032798D01*
X0156877Y0032865D01*
X0156930Y0032930D01*
X0156986Y0032992D01*
X0157044Y0033052D01*
X0157106Y0033109D01*
X0157170Y0033162D01*
X0157237Y0033213D01*
X0157306Y0033260D01*
X0157377Y0033305D01*
X0157450Y0033345D01*
X0157525Y0033382D01*
X0157602Y0033416D01*
X0157680Y0033446D01*
X0157759Y0033472D01*
X0157840Y0033495D01*
X0157922Y0033513D01*
X0158004Y0033528D01*
X0158087Y0033539D01*
X0158170Y0033546D01*
X0158254Y0033549D01*
X0158338Y0033548D01*
X0158421Y0033543D01*
X0158505Y0033534D01*
X0158587Y0033521D01*
X0158669Y0033505D01*
X0158750Y0033484D01*
X0158831Y0033460D01*
X0158909Y0033432D01*
X0158987Y0033400D01*
X0159063Y0033364D01*
X0159137Y0033325D01*
X0159209Y0033283D01*
X0159279Y0033237D01*
X0159347Y0033188D01*
X0159412Y0033136D01*
X0159475Y0033081D01*
X0159535Y0033023D01*
X0159593Y0032962D01*
X0159647Y0032898D01*
X0159699Y0032832D01*
X0159747Y0032764D01*
X0159792Y0032693D01*
X0159833Y0032620D01*
X0159872Y0032546D01*
X0159906Y0032470D01*
X0159937Y0032392D01*
X0159964Y0032313D01*
X0159988Y0032232D01*
X0160007Y0032151D01*
X0160023Y0032069D01*
X0160035Y0031986D01*
X0160043Y0031902D01*
X0160047Y0031819D01*
X0160047Y0031735D01*
X0160043Y0031652D01*
X0160035Y0031568D01*
X0160023Y0031485D01*
X0160007Y0031403D01*
X0159988Y0031322D01*
X0159964Y0031241D01*
X0159937Y0031162D01*
X0159906Y0031084D01*
X0159872Y0031008D01*
X0159833Y0030934D01*
X0159792Y0030861D01*
X0159747Y0030790D01*
X0159699Y0030722D01*
X0159647Y0030656D01*
X0159593Y0030592D01*
X0159535Y0030531D01*
X0159475Y0030473D01*
X0159412Y0030418D01*
X0159347Y0030366D01*
X0159279Y0030317D01*
X0159209Y0030271D01*
X0159137Y0030229D01*
X0159063Y0030190D01*
X0158987Y0030154D01*
X0158909Y0030122D01*
X0158831Y0030094D01*
X0158750Y0030070D01*
X0158669Y0030049D01*
X0158587Y0030033D01*
X0158505Y0030020D01*
X0158421Y0030011D01*
X0158338Y0030006D01*
X0158254Y0030005D01*
X0158170Y0030008D01*
X0158087Y0030015D01*
X0158004Y0030026D01*
X0157922Y0030041D01*
X0157840Y0030059D01*
X0157759Y0030082D01*
X0157680Y0030108D01*
X0157602Y0030138D01*
X0157525Y0030172D01*
X0157450Y0030209D01*
X0157377Y0030249D01*
X0157306Y0030294D01*
X0157237Y0030341D01*
X0157170Y0030392D01*
X0157106Y0030445D01*
X0157044Y0030502D01*
X0156986Y0030562D01*
X0156930Y0030624D01*
X0156877Y0030689D01*
X0156827Y0030756D01*
X0156780Y0030825D01*
X0156737Y0030897D01*
X0156697Y0030971D01*
X0156661Y0031046D01*
X0156628Y0031123D01*
X0156599Y0031202D01*
X0156574Y0031281D01*
X0156552Y0031362D01*
X0156535Y0031444D01*
X0156521Y0031527D01*
X0156511Y0031610D01*
X0156505Y0031693D01*
X0156503Y0031777D01*
X0156503Y0033549D02*
X0156505Y0033633D01*
X0156511Y0033716D01*
X0156521Y0033799D01*
X0156535Y0033882D01*
X0156552Y0033964D01*
X0156574Y0034045D01*
X0156599Y0034124D01*
X0156628Y0034203D01*
X0156661Y0034280D01*
X0156697Y0034355D01*
X0156737Y0034429D01*
X0156780Y0034501D01*
X0156827Y0034570D01*
X0156877Y0034637D01*
X0156930Y0034702D01*
X0156986Y0034764D01*
X0157044Y0034824D01*
X0157106Y0034881D01*
X0157170Y0034934D01*
X0157237Y0034985D01*
X0157306Y0035032D01*
X0157377Y0035077D01*
X0157450Y0035117D01*
X0157525Y0035154D01*
X0157602Y0035188D01*
X0157680Y0035218D01*
X0157759Y0035244D01*
X0157840Y0035267D01*
X0157922Y0035285D01*
X0158004Y0035300D01*
X0158087Y0035311D01*
X0158170Y0035318D01*
X0158254Y0035321D01*
X0158338Y0035320D01*
X0158421Y0035315D01*
X0158505Y0035306D01*
X0158587Y0035293D01*
X0158669Y0035277D01*
X0158750Y0035256D01*
X0158831Y0035232D01*
X0158909Y0035204D01*
X0158987Y0035172D01*
X0159063Y0035136D01*
X0159137Y0035097D01*
X0159209Y0035055D01*
X0159279Y0035009D01*
X0159347Y0034960D01*
X0159412Y0034908D01*
X0159475Y0034853D01*
X0159535Y0034795D01*
X0159593Y0034734D01*
X0159647Y0034670D01*
X0159699Y0034604D01*
X0159747Y0034536D01*
X0159792Y0034465D01*
X0159833Y0034392D01*
X0159872Y0034318D01*
X0159906Y0034242D01*
X0159937Y0034164D01*
X0159964Y0034085D01*
X0159988Y0034004D01*
X0160007Y0033923D01*
X0160023Y0033841D01*
X0160035Y0033758D01*
X0160043Y0033674D01*
X0160047Y0033591D01*
X0160047Y0033507D01*
X0160043Y0033424D01*
X0160035Y0033340D01*
X0160023Y0033257D01*
X0160007Y0033175D01*
X0159988Y0033094D01*
X0159964Y0033013D01*
X0159937Y0032934D01*
X0159906Y0032856D01*
X0159872Y0032780D01*
X0159833Y0032706D01*
X0159792Y0032633D01*
X0159747Y0032562D01*
X0159699Y0032494D01*
X0159647Y0032428D01*
X0159593Y0032364D01*
X0159535Y0032303D01*
X0159475Y0032245D01*
X0159412Y0032190D01*
X0159347Y0032138D01*
X0159279Y0032089D01*
X0159209Y0032043D01*
X0159137Y0032001D01*
X0159063Y0031962D01*
X0158987Y0031926D01*
X0158909Y0031894D01*
X0158831Y0031866D01*
X0158750Y0031842D01*
X0158669Y0031821D01*
X0158587Y0031805D01*
X0158505Y0031792D01*
X0158421Y0031783D01*
X0158338Y0031778D01*
X0158254Y0031777D01*
X0158170Y0031780D01*
X0158087Y0031787D01*
X0158004Y0031798D01*
X0157922Y0031813D01*
X0157840Y0031831D01*
X0157759Y0031854D01*
X0157680Y0031880D01*
X0157602Y0031910D01*
X0157525Y0031944D01*
X0157450Y0031981D01*
X0157377Y0032021D01*
X0157306Y0032066D01*
X0157237Y0032113D01*
X0157170Y0032164D01*
X0157106Y0032217D01*
X0157044Y0032274D01*
X0156986Y0032334D01*
X0156930Y0032396D01*
X0156877Y0032461D01*
X0156827Y0032528D01*
X0156780Y0032597D01*
X0156737Y0032669D01*
X0156697Y0032743D01*
X0156661Y0032818D01*
X0156628Y0032895D01*
X0156599Y0032974D01*
X0156574Y0033053D01*
X0156552Y0033134D01*
X0156535Y0033216D01*
X0156521Y0033299D01*
X0156511Y0033382D01*
X0156505Y0033465D01*
X0156503Y0033549D01*
X0156503Y0051068D02*
X0156505Y0051152D01*
X0156511Y0051235D01*
X0156521Y0051318D01*
X0156535Y0051401D01*
X0156552Y0051483D01*
X0156574Y0051564D01*
X0156599Y0051643D01*
X0156628Y0051722D01*
X0156661Y0051799D01*
X0156697Y0051874D01*
X0156737Y0051948D01*
X0156780Y0052020D01*
X0156827Y0052089D01*
X0156877Y0052156D01*
X0156930Y0052221D01*
X0156986Y0052283D01*
X0157044Y0052343D01*
X0157106Y0052400D01*
X0157170Y0052453D01*
X0157237Y0052504D01*
X0157306Y0052551D01*
X0157377Y0052596D01*
X0157450Y0052636D01*
X0157525Y0052673D01*
X0157602Y0052707D01*
X0157680Y0052737D01*
X0157759Y0052763D01*
X0157840Y0052786D01*
X0157922Y0052804D01*
X0158004Y0052819D01*
X0158087Y0052830D01*
X0158170Y0052837D01*
X0158254Y0052840D01*
X0158338Y0052839D01*
X0158421Y0052834D01*
X0158505Y0052825D01*
X0158587Y0052812D01*
X0158669Y0052796D01*
X0158750Y0052775D01*
X0158831Y0052751D01*
X0158909Y0052723D01*
X0158987Y0052691D01*
X0159063Y0052655D01*
X0159137Y0052616D01*
X0159209Y0052574D01*
X0159279Y0052528D01*
X0159347Y0052479D01*
X0159412Y0052427D01*
X0159475Y0052372D01*
X0159535Y0052314D01*
X0159593Y0052253D01*
X0159647Y0052189D01*
X0159699Y0052123D01*
X0159747Y0052055D01*
X0159792Y0051984D01*
X0159833Y0051911D01*
X0159872Y0051837D01*
X0159906Y0051761D01*
X0159937Y0051683D01*
X0159964Y0051604D01*
X0159988Y0051523D01*
X0160007Y0051442D01*
X0160023Y0051360D01*
X0160035Y0051277D01*
X0160043Y0051193D01*
X0160047Y0051110D01*
X0160047Y0051026D01*
X0160043Y0050943D01*
X0160035Y0050859D01*
X0160023Y0050776D01*
X0160007Y0050694D01*
X0159988Y0050613D01*
X0159964Y0050532D01*
X0159937Y0050453D01*
X0159906Y0050375D01*
X0159872Y0050299D01*
X0159833Y0050225D01*
X0159792Y0050152D01*
X0159747Y0050081D01*
X0159699Y0050013D01*
X0159647Y0049947D01*
X0159593Y0049883D01*
X0159535Y0049822D01*
X0159475Y0049764D01*
X0159412Y0049709D01*
X0159347Y0049657D01*
X0159279Y0049608D01*
X0159209Y0049562D01*
X0159137Y0049520D01*
X0159063Y0049481D01*
X0158987Y0049445D01*
X0158909Y0049413D01*
X0158831Y0049385D01*
X0158750Y0049361D01*
X0158669Y0049340D01*
X0158587Y0049324D01*
X0158505Y0049311D01*
X0158421Y0049302D01*
X0158338Y0049297D01*
X0158254Y0049296D01*
X0158170Y0049299D01*
X0158087Y0049306D01*
X0158004Y0049317D01*
X0157922Y0049332D01*
X0157840Y0049350D01*
X0157759Y0049373D01*
X0157680Y0049399D01*
X0157602Y0049429D01*
X0157525Y0049463D01*
X0157450Y0049500D01*
X0157377Y0049540D01*
X0157306Y0049585D01*
X0157237Y0049632D01*
X0157170Y0049683D01*
X0157106Y0049736D01*
X0157044Y0049793D01*
X0156986Y0049853D01*
X0156930Y0049915D01*
X0156877Y0049980D01*
X0156827Y0050047D01*
X0156780Y0050116D01*
X0156737Y0050188D01*
X0156697Y0050262D01*
X0156661Y0050337D01*
X0156628Y0050414D01*
X0156599Y0050493D01*
X0156574Y0050572D01*
X0156552Y0050653D01*
X0156535Y0050735D01*
X0156521Y0050818D01*
X0156511Y0050901D01*
X0156505Y0050984D01*
X0156503Y0051068D01*
X0156503Y0052840D02*
X0156505Y0052924D01*
X0156511Y0053007D01*
X0156521Y0053090D01*
X0156535Y0053173D01*
X0156552Y0053255D01*
X0156574Y0053336D01*
X0156599Y0053415D01*
X0156628Y0053494D01*
X0156661Y0053571D01*
X0156697Y0053646D01*
X0156737Y0053720D01*
X0156780Y0053792D01*
X0156827Y0053861D01*
X0156877Y0053928D01*
X0156930Y0053993D01*
X0156986Y0054055D01*
X0157044Y0054115D01*
X0157106Y0054172D01*
X0157170Y0054225D01*
X0157237Y0054276D01*
X0157306Y0054323D01*
X0157377Y0054368D01*
X0157450Y0054408D01*
X0157525Y0054445D01*
X0157602Y0054479D01*
X0157680Y0054509D01*
X0157759Y0054535D01*
X0157840Y0054558D01*
X0157922Y0054576D01*
X0158004Y0054591D01*
X0158087Y0054602D01*
X0158170Y0054609D01*
X0158254Y0054612D01*
X0158338Y0054611D01*
X0158421Y0054606D01*
X0158505Y0054597D01*
X0158587Y0054584D01*
X0158669Y0054568D01*
X0158750Y0054547D01*
X0158831Y0054523D01*
X0158909Y0054495D01*
X0158987Y0054463D01*
X0159063Y0054427D01*
X0159137Y0054388D01*
X0159209Y0054346D01*
X0159279Y0054300D01*
X0159347Y0054251D01*
X0159412Y0054199D01*
X0159475Y0054144D01*
X0159535Y0054086D01*
X0159593Y0054025D01*
X0159647Y0053961D01*
X0159699Y0053895D01*
X0159747Y0053827D01*
X0159792Y0053756D01*
X0159833Y0053683D01*
X0159872Y0053609D01*
X0159906Y0053533D01*
X0159937Y0053455D01*
X0159964Y0053376D01*
X0159988Y0053295D01*
X0160007Y0053214D01*
X0160023Y0053132D01*
X0160035Y0053049D01*
X0160043Y0052965D01*
X0160047Y0052882D01*
X0160047Y0052798D01*
X0160043Y0052715D01*
X0160035Y0052631D01*
X0160023Y0052548D01*
X0160007Y0052466D01*
X0159988Y0052385D01*
X0159964Y0052304D01*
X0159937Y0052225D01*
X0159906Y0052147D01*
X0159872Y0052071D01*
X0159833Y0051997D01*
X0159792Y0051924D01*
X0159747Y0051853D01*
X0159699Y0051785D01*
X0159647Y0051719D01*
X0159593Y0051655D01*
X0159535Y0051594D01*
X0159475Y0051536D01*
X0159412Y0051481D01*
X0159347Y0051429D01*
X0159279Y0051380D01*
X0159209Y0051334D01*
X0159137Y0051292D01*
X0159063Y0051253D01*
X0158987Y0051217D01*
X0158909Y0051185D01*
X0158831Y0051157D01*
X0158750Y0051133D01*
X0158669Y0051112D01*
X0158587Y0051096D01*
X0158505Y0051083D01*
X0158421Y0051074D01*
X0158338Y0051069D01*
X0158254Y0051068D01*
X0158170Y0051071D01*
X0158087Y0051078D01*
X0158004Y0051089D01*
X0157922Y0051104D01*
X0157840Y0051122D01*
X0157759Y0051145D01*
X0157680Y0051171D01*
X0157602Y0051201D01*
X0157525Y0051235D01*
X0157450Y0051272D01*
X0157377Y0051312D01*
X0157306Y0051357D01*
X0157237Y0051404D01*
X0157170Y0051455D01*
X0157106Y0051508D01*
X0157044Y0051565D01*
X0156986Y0051625D01*
X0156930Y0051687D01*
X0156877Y0051752D01*
X0156827Y0051819D01*
X0156780Y0051888D01*
X0156737Y0051960D01*
X0156697Y0052034D01*
X0156661Y0052109D01*
X0156628Y0052186D01*
X0156599Y0052265D01*
X0156574Y0052344D01*
X0156552Y0052425D01*
X0156535Y0052507D01*
X0156521Y0052590D01*
X0156511Y0052673D01*
X0156505Y0052756D01*
X0156503Y0052840D01*
X0156503Y0055202D02*
X0156505Y0055286D01*
X0156511Y0055369D01*
X0156521Y0055452D01*
X0156535Y0055535D01*
X0156552Y0055617D01*
X0156574Y0055698D01*
X0156599Y0055777D01*
X0156628Y0055856D01*
X0156661Y0055933D01*
X0156697Y0056008D01*
X0156737Y0056082D01*
X0156780Y0056154D01*
X0156827Y0056223D01*
X0156877Y0056290D01*
X0156930Y0056355D01*
X0156986Y0056417D01*
X0157044Y0056477D01*
X0157106Y0056534D01*
X0157170Y0056587D01*
X0157237Y0056638D01*
X0157306Y0056685D01*
X0157377Y0056730D01*
X0157450Y0056770D01*
X0157525Y0056807D01*
X0157602Y0056841D01*
X0157680Y0056871D01*
X0157759Y0056897D01*
X0157840Y0056920D01*
X0157922Y0056938D01*
X0158004Y0056953D01*
X0158087Y0056964D01*
X0158170Y0056971D01*
X0158254Y0056974D01*
X0158338Y0056973D01*
X0158421Y0056968D01*
X0158505Y0056959D01*
X0158587Y0056946D01*
X0158669Y0056930D01*
X0158750Y0056909D01*
X0158831Y0056885D01*
X0158909Y0056857D01*
X0158987Y0056825D01*
X0159063Y0056789D01*
X0159137Y0056750D01*
X0159209Y0056708D01*
X0159279Y0056662D01*
X0159347Y0056613D01*
X0159412Y0056561D01*
X0159475Y0056506D01*
X0159535Y0056448D01*
X0159593Y0056387D01*
X0159647Y0056323D01*
X0159699Y0056257D01*
X0159747Y0056189D01*
X0159792Y0056118D01*
X0159833Y0056045D01*
X0159872Y0055971D01*
X0159906Y0055895D01*
X0159937Y0055817D01*
X0159964Y0055738D01*
X0159988Y0055657D01*
X0160007Y0055576D01*
X0160023Y0055494D01*
X0160035Y0055411D01*
X0160043Y0055327D01*
X0160047Y0055244D01*
X0160047Y0055160D01*
X0160043Y0055077D01*
X0160035Y0054993D01*
X0160023Y0054910D01*
X0160007Y0054828D01*
X0159988Y0054747D01*
X0159964Y0054666D01*
X0159937Y0054587D01*
X0159906Y0054509D01*
X0159872Y0054433D01*
X0159833Y0054359D01*
X0159792Y0054286D01*
X0159747Y0054215D01*
X0159699Y0054147D01*
X0159647Y0054081D01*
X0159593Y0054017D01*
X0159535Y0053956D01*
X0159475Y0053898D01*
X0159412Y0053843D01*
X0159347Y0053791D01*
X0159279Y0053742D01*
X0159209Y0053696D01*
X0159137Y0053654D01*
X0159063Y0053615D01*
X0158987Y0053579D01*
X0158909Y0053547D01*
X0158831Y0053519D01*
X0158750Y0053495D01*
X0158669Y0053474D01*
X0158587Y0053458D01*
X0158505Y0053445D01*
X0158421Y0053436D01*
X0158338Y0053431D01*
X0158254Y0053430D01*
X0158170Y0053433D01*
X0158087Y0053440D01*
X0158004Y0053451D01*
X0157922Y0053466D01*
X0157840Y0053484D01*
X0157759Y0053507D01*
X0157680Y0053533D01*
X0157602Y0053563D01*
X0157525Y0053597D01*
X0157450Y0053634D01*
X0157377Y0053674D01*
X0157306Y0053719D01*
X0157237Y0053766D01*
X0157170Y0053817D01*
X0157106Y0053870D01*
X0157044Y0053927D01*
X0156986Y0053987D01*
X0156930Y0054049D01*
X0156877Y0054114D01*
X0156827Y0054181D01*
X0156780Y0054250D01*
X0156737Y0054322D01*
X0156697Y0054396D01*
X0156661Y0054471D01*
X0156628Y0054548D01*
X0156599Y0054627D01*
X0156574Y0054706D01*
X0156552Y0054787D01*
X0156535Y0054869D01*
X0156521Y0054952D01*
X0156511Y0055035D01*
X0156505Y0055118D01*
X0156503Y0055202D01*
X0156503Y0056974D02*
X0156505Y0057058D01*
X0156511Y0057141D01*
X0156521Y0057224D01*
X0156535Y0057307D01*
X0156552Y0057389D01*
X0156574Y0057470D01*
X0156599Y0057549D01*
X0156628Y0057628D01*
X0156661Y0057705D01*
X0156697Y0057780D01*
X0156737Y0057854D01*
X0156780Y0057926D01*
X0156827Y0057995D01*
X0156877Y0058062D01*
X0156930Y0058127D01*
X0156986Y0058189D01*
X0157044Y0058249D01*
X0157106Y0058306D01*
X0157170Y0058359D01*
X0157237Y0058410D01*
X0157306Y0058457D01*
X0157377Y0058502D01*
X0157450Y0058542D01*
X0157525Y0058579D01*
X0157602Y0058613D01*
X0157680Y0058643D01*
X0157759Y0058669D01*
X0157840Y0058692D01*
X0157922Y0058710D01*
X0158004Y0058725D01*
X0158087Y0058736D01*
X0158170Y0058743D01*
X0158254Y0058746D01*
X0158338Y0058745D01*
X0158421Y0058740D01*
X0158505Y0058731D01*
X0158587Y0058718D01*
X0158669Y0058702D01*
X0158750Y0058681D01*
X0158831Y0058657D01*
X0158909Y0058629D01*
X0158987Y0058597D01*
X0159063Y0058561D01*
X0159137Y0058522D01*
X0159209Y0058480D01*
X0159279Y0058434D01*
X0159347Y0058385D01*
X0159412Y0058333D01*
X0159475Y0058278D01*
X0159535Y0058220D01*
X0159593Y0058159D01*
X0159647Y0058095D01*
X0159699Y0058029D01*
X0159747Y0057961D01*
X0159792Y0057890D01*
X0159833Y0057817D01*
X0159872Y0057743D01*
X0159906Y0057667D01*
X0159937Y0057589D01*
X0159964Y0057510D01*
X0159988Y0057429D01*
X0160007Y0057348D01*
X0160023Y0057266D01*
X0160035Y0057183D01*
X0160043Y0057099D01*
X0160047Y0057016D01*
X0160047Y0056932D01*
X0160043Y0056849D01*
X0160035Y0056765D01*
X0160023Y0056682D01*
X0160007Y0056600D01*
X0159988Y0056519D01*
X0159964Y0056438D01*
X0159937Y0056359D01*
X0159906Y0056281D01*
X0159872Y0056205D01*
X0159833Y0056131D01*
X0159792Y0056058D01*
X0159747Y0055987D01*
X0159699Y0055919D01*
X0159647Y0055853D01*
X0159593Y0055789D01*
X0159535Y0055728D01*
X0159475Y0055670D01*
X0159412Y0055615D01*
X0159347Y0055563D01*
X0159279Y0055514D01*
X0159209Y0055468D01*
X0159137Y0055426D01*
X0159063Y0055387D01*
X0158987Y0055351D01*
X0158909Y0055319D01*
X0158831Y0055291D01*
X0158750Y0055267D01*
X0158669Y0055246D01*
X0158587Y0055230D01*
X0158505Y0055217D01*
X0158421Y0055208D01*
X0158338Y0055203D01*
X0158254Y0055202D01*
X0158170Y0055205D01*
X0158087Y0055212D01*
X0158004Y0055223D01*
X0157922Y0055238D01*
X0157840Y0055256D01*
X0157759Y0055279D01*
X0157680Y0055305D01*
X0157602Y0055335D01*
X0157525Y0055369D01*
X0157450Y0055406D01*
X0157377Y0055446D01*
X0157306Y0055491D01*
X0157237Y0055538D01*
X0157170Y0055589D01*
X0157106Y0055642D01*
X0157044Y0055699D01*
X0156986Y0055759D01*
X0156930Y0055821D01*
X0156877Y0055886D01*
X0156827Y0055953D01*
X0156780Y0056022D01*
X0156737Y0056094D01*
X0156697Y0056168D01*
X0156661Y0056243D01*
X0156628Y0056320D01*
X0156599Y0056399D01*
X0156574Y0056478D01*
X0156552Y0056559D01*
X0156535Y0056641D01*
X0156521Y0056724D01*
X0156511Y0056807D01*
X0156505Y0056890D01*
X0156503Y0056974D01*
D18*
X0171491Y0063623D03*
X0178971Y0063623D03*
X0179071Y0072323D03*
X0171591Y0072323D03*
X0171691Y0094923D03*
X0179171Y0094923D03*
X0121171Y0148223D03*
X0113691Y0148223D03*
X0107371Y0164423D03*
X0099891Y0164423D03*
X0077471Y0174023D03*
X0069991Y0174023D03*
X0069791Y0144523D03*
X0077271Y0144523D03*
X0086591Y0110423D03*
X0094071Y0110423D03*
X0091571Y0098723D03*
X0084091Y0098723D03*
X0086871Y0090523D03*
X0079391Y0090523D03*
X0079391Y0082523D03*
X0086871Y0082523D03*
X0086171Y0061323D03*
X0078691Y0061323D03*
X0078691Y0053123D03*
X0086171Y0053123D03*
X0086171Y0045023D03*
X0078691Y0045023D03*
X0078691Y0036823D03*
X0086171Y0036823D03*
D19*
X0177431Y0120482D03*
X0177431Y0127963D03*
X0133031Y0136282D03*
X0133031Y0143763D03*
D20*
X0077731Y0153304D03*
X0073931Y0153304D03*
X0070191Y0153304D03*
X0070191Y0163623D03*
X0077731Y0163623D03*
D21*
X0150331Y0145823D03*
X0150331Y0183823D03*
D22*
X0130931Y0186563D03*
X0121531Y0186563D03*
X0121531Y0179082D03*
X0130931Y0179082D03*
X0112931Y0179082D03*
X0112931Y0186563D03*
D23*
X0125291Y0165923D03*
X0132771Y0165923D03*
M02*
