G75*
%MOIN*%
%OFA0B0*%
%FSLAX25Y25*%
%IPPOS*%
%LPD*%
%AMOC8*
5,1,8,0,0,1.08239X$1,22.5*
%
%ADD10C,0.01000*%
%ADD11C,0.06000*%
%ADD12C,0.06791*%
%ADD13C,0.05020*%
%ADD14C,0.04724*%
%ADD15C,0.07800*%
%ADD16C,0.05315*%
%ADD17C,0.00000*%
%ADD18C,0.02400*%
%ADD19C,0.01600*%
D10*
X0045031Y0019923D02*
X0045031Y0216673D01*
X0206031Y0216673D01*
X0206031Y0019923D01*
X0045031Y0019923D01*
D11*
X0049952Y0023159D03*
X0049952Y0033159D03*
X0059952Y0033159D03*
X0059952Y0023159D03*
X0059952Y0043159D03*
X0049952Y0043159D03*
X0049952Y0053159D03*
X0049952Y0063159D03*
X0059952Y0063159D03*
X0059952Y0053159D03*
X0059952Y0073159D03*
X0049952Y0073159D03*
X0049952Y0083159D03*
X0059952Y0083159D03*
X0059952Y0093159D03*
X0049952Y0093159D03*
X0049952Y0103159D03*
X0049952Y0113159D03*
X0059952Y0113159D03*
X0059952Y0103159D03*
X0059952Y0123159D03*
X0049952Y0123159D03*
X0049952Y0133159D03*
X0059952Y0133159D03*
X0059952Y0143159D03*
X0049952Y0143159D03*
X0049952Y0153159D03*
X0049952Y0163159D03*
X0059952Y0163159D03*
X0059952Y0153159D03*
X0059952Y0173159D03*
X0049952Y0173159D03*
X0049952Y0183159D03*
X0059952Y0183159D03*
X0059952Y0193159D03*
X0049952Y0193159D03*
X0049952Y0203159D03*
X0059952Y0203159D03*
X0059952Y0213159D03*
X0049952Y0213159D03*
X0189952Y0213159D03*
X0199952Y0213159D03*
X0199952Y0203159D03*
X0189952Y0203159D03*
X0189952Y0193159D03*
X0199952Y0193159D03*
X0199952Y0183159D03*
X0189952Y0183159D03*
X0189952Y0173159D03*
X0199952Y0173159D03*
X0199952Y0163159D03*
X0189952Y0163159D03*
X0189952Y0153159D03*
X0189952Y0143159D03*
X0199952Y0143159D03*
X0199952Y0153159D03*
X0199952Y0133159D03*
X0189952Y0133159D03*
X0189952Y0123159D03*
X0199952Y0123159D03*
X0199952Y0113159D03*
X0189952Y0113159D03*
X0189952Y0103159D03*
X0189952Y0093159D03*
X0199952Y0093159D03*
X0199952Y0103159D03*
X0199952Y0083159D03*
X0189952Y0083159D03*
X0189952Y0073159D03*
X0199952Y0073159D03*
X0199952Y0063159D03*
X0189952Y0063159D03*
X0189952Y0053159D03*
X0189952Y0043159D03*
X0199952Y0043159D03*
X0199952Y0053159D03*
X0199952Y0033159D03*
X0189952Y0033159D03*
X0189952Y0023159D03*
X0199952Y0023159D03*
D12*
X0138311Y0210797D03*
X0110752Y0210797D03*
X0099111Y0210797D03*
X0071552Y0210797D03*
D13*
X0075489Y0200462D03*
X0095174Y0200462D03*
X0114689Y0200462D03*
X0134374Y0200462D03*
D14*
X0168731Y0187523D03*
X0168731Y0135523D03*
X0095731Y0135523D03*
X0095731Y0187523D03*
D15*
X0153575Y0206923D03*
X0173260Y0206923D03*
D16*
X0158275Y0054021D03*
X0158275Y0030556D03*
X0101188Y0030556D03*
X0101188Y0054021D03*
D17*
X0099416Y0055202D02*
X0099418Y0055286D01*
X0099424Y0055369D01*
X0099434Y0055452D01*
X0099448Y0055535D01*
X0099465Y0055617D01*
X0099487Y0055698D01*
X0099512Y0055777D01*
X0099541Y0055856D01*
X0099574Y0055933D01*
X0099610Y0056008D01*
X0099650Y0056082D01*
X0099693Y0056154D01*
X0099740Y0056223D01*
X0099790Y0056290D01*
X0099843Y0056355D01*
X0099899Y0056417D01*
X0099957Y0056477D01*
X0100019Y0056534D01*
X0100083Y0056587D01*
X0100150Y0056638D01*
X0100219Y0056685D01*
X0100290Y0056730D01*
X0100363Y0056770D01*
X0100438Y0056807D01*
X0100515Y0056841D01*
X0100593Y0056871D01*
X0100672Y0056897D01*
X0100753Y0056920D01*
X0100835Y0056938D01*
X0100917Y0056953D01*
X0101000Y0056964D01*
X0101083Y0056971D01*
X0101167Y0056974D01*
X0101251Y0056973D01*
X0101334Y0056968D01*
X0101418Y0056959D01*
X0101500Y0056946D01*
X0101582Y0056930D01*
X0101663Y0056909D01*
X0101744Y0056885D01*
X0101822Y0056857D01*
X0101900Y0056825D01*
X0101976Y0056789D01*
X0102050Y0056750D01*
X0102122Y0056708D01*
X0102192Y0056662D01*
X0102260Y0056613D01*
X0102325Y0056561D01*
X0102388Y0056506D01*
X0102448Y0056448D01*
X0102506Y0056387D01*
X0102560Y0056323D01*
X0102612Y0056257D01*
X0102660Y0056189D01*
X0102705Y0056118D01*
X0102746Y0056045D01*
X0102785Y0055971D01*
X0102819Y0055895D01*
X0102850Y0055817D01*
X0102877Y0055738D01*
X0102901Y0055657D01*
X0102920Y0055576D01*
X0102936Y0055494D01*
X0102948Y0055411D01*
X0102956Y0055327D01*
X0102960Y0055244D01*
X0102960Y0055160D01*
X0102956Y0055077D01*
X0102948Y0054993D01*
X0102936Y0054910D01*
X0102920Y0054828D01*
X0102901Y0054747D01*
X0102877Y0054666D01*
X0102850Y0054587D01*
X0102819Y0054509D01*
X0102785Y0054433D01*
X0102746Y0054359D01*
X0102705Y0054286D01*
X0102660Y0054215D01*
X0102612Y0054147D01*
X0102560Y0054081D01*
X0102506Y0054017D01*
X0102448Y0053956D01*
X0102388Y0053898D01*
X0102325Y0053843D01*
X0102260Y0053791D01*
X0102192Y0053742D01*
X0102122Y0053696D01*
X0102050Y0053654D01*
X0101976Y0053615D01*
X0101900Y0053579D01*
X0101822Y0053547D01*
X0101744Y0053519D01*
X0101663Y0053495D01*
X0101582Y0053474D01*
X0101500Y0053458D01*
X0101418Y0053445D01*
X0101334Y0053436D01*
X0101251Y0053431D01*
X0101167Y0053430D01*
X0101083Y0053433D01*
X0101000Y0053440D01*
X0100917Y0053451D01*
X0100835Y0053466D01*
X0100753Y0053484D01*
X0100672Y0053507D01*
X0100593Y0053533D01*
X0100515Y0053563D01*
X0100438Y0053597D01*
X0100363Y0053634D01*
X0100290Y0053674D01*
X0100219Y0053719D01*
X0100150Y0053766D01*
X0100083Y0053817D01*
X0100019Y0053870D01*
X0099957Y0053927D01*
X0099899Y0053987D01*
X0099843Y0054049D01*
X0099790Y0054114D01*
X0099740Y0054181D01*
X0099693Y0054250D01*
X0099650Y0054322D01*
X0099610Y0054396D01*
X0099574Y0054471D01*
X0099541Y0054548D01*
X0099512Y0054627D01*
X0099487Y0054706D01*
X0099465Y0054787D01*
X0099448Y0054869D01*
X0099434Y0054952D01*
X0099424Y0055035D01*
X0099418Y0055118D01*
X0099416Y0055202D01*
X0099416Y0056974D02*
X0099418Y0057058D01*
X0099424Y0057141D01*
X0099434Y0057224D01*
X0099448Y0057307D01*
X0099465Y0057389D01*
X0099487Y0057470D01*
X0099512Y0057549D01*
X0099541Y0057628D01*
X0099574Y0057705D01*
X0099610Y0057780D01*
X0099650Y0057854D01*
X0099693Y0057926D01*
X0099740Y0057995D01*
X0099790Y0058062D01*
X0099843Y0058127D01*
X0099899Y0058189D01*
X0099957Y0058249D01*
X0100019Y0058306D01*
X0100083Y0058359D01*
X0100150Y0058410D01*
X0100219Y0058457D01*
X0100290Y0058502D01*
X0100363Y0058542D01*
X0100438Y0058579D01*
X0100515Y0058613D01*
X0100593Y0058643D01*
X0100672Y0058669D01*
X0100753Y0058692D01*
X0100835Y0058710D01*
X0100917Y0058725D01*
X0101000Y0058736D01*
X0101083Y0058743D01*
X0101167Y0058746D01*
X0101251Y0058745D01*
X0101334Y0058740D01*
X0101418Y0058731D01*
X0101500Y0058718D01*
X0101582Y0058702D01*
X0101663Y0058681D01*
X0101744Y0058657D01*
X0101822Y0058629D01*
X0101900Y0058597D01*
X0101976Y0058561D01*
X0102050Y0058522D01*
X0102122Y0058480D01*
X0102192Y0058434D01*
X0102260Y0058385D01*
X0102325Y0058333D01*
X0102388Y0058278D01*
X0102448Y0058220D01*
X0102506Y0058159D01*
X0102560Y0058095D01*
X0102612Y0058029D01*
X0102660Y0057961D01*
X0102705Y0057890D01*
X0102746Y0057817D01*
X0102785Y0057743D01*
X0102819Y0057667D01*
X0102850Y0057589D01*
X0102877Y0057510D01*
X0102901Y0057429D01*
X0102920Y0057348D01*
X0102936Y0057266D01*
X0102948Y0057183D01*
X0102956Y0057099D01*
X0102960Y0057016D01*
X0102960Y0056932D01*
X0102956Y0056849D01*
X0102948Y0056765D01*
X0102936Y0056682D01*
X0102920Y0056600D01*
X0102901Y0056519D01*
X0102877Y0056438D01*
X0102850Y0056359D01*
X0102819Y0056281D01*
X0102785Y0056205D01*
X0102746Y0056131D01*
X0102705Y0056058D01*
X0102660Y0055987D01*
X0102612Y0055919D01*
X0102560Y0055853D01*
X0102506Y0055789D01*
X0102448Y0055728D01*
X0102388Y0055670D01*
X0102325Y0055615D01*
X0102260Y0055563D01*
X0102192Y0055514D01*
X0102122Y0055468D01*
X0102050Y0055426D01*
X0101976Y0055387D01*
X0101900Y0055351D01*
X0101822Y0055319D01*
X0101744Y0055291D01*
X0101663Y0055267D01*
X0101582Y0055246D01*
X0101500Y0055230D01*
X0101418Y0055217D01*
X0101334Y0055208D01*
X0101251Y0055203D01*
X0101167Y0055202D01*
X0101083Y0055205D01*
X0101000Y0055212D01*
X0100917Y0055223D01*
X0100835Y0055238D01*
X0100753Y0055256D01*
X0100672Y0055279D01*
X0100593Y0055305D01*
X0100515Y0055335D01*
X0100438Y0055369D01*
X0100363Y0055406D01*
X0100290Y0055446D01*
X0100219Y0055491D01*
X0100150Y0055538D01*
X0100083Y0055589D01*
X0100019Y0055642D01*
X0099957Y0055699D01*
X0099899Y0055759D01*
X0099843Y0055821D01*
X0099790Y0055886D01*
X0099740Y0055953D01*
X0099693Y0056022D01*
X0099650Y0056094D01*
X0099610Y0056168D01*
X0099574Y0056243D01*
X0099541Y0056320D01*
X0099512Y0056399D01*
X0099487Y0056478D01*
X0099465Y0056559D01*
X0099448Y0056641D01*
X0099434Y0056724D01*
X0099424Y0056807D01*
X0099418Y0056890D01*
X0099416Y0056974D01*
X0099416Y0052840D02*
X0099418Y0052924D01*
X0099424Y0053007D01*
X0099434Y0053090D01*
X0099448Y0053173D01*
X0099465Y0053255D01*
X0099487Y0053336D01*
X0099512Y0053415D01*
X0099541Y0053494D01*
X0099574Y0053571D01*
X0099610Y0053646D01*
X0099650Y0053720D01*
X0099693Y0053792D01*
X0099740Y0053861D01*
X0099790Y0053928D01*
X0099843Y0053993D01*
X0099899Y0054055D01*
X0099957Y0054115D01*
X0100019Y0054172D01*
X0100083Y0054225D01*
X0100150Y0054276D01*
X0100219Y0054323D01*
X0100290Y0054368D01*
X0100363Y0054408D01*
X0100438Y0054445D01*
X0100515Y0054479D01*
X0100593Y0054509D01*
X0100672Y0054535D01*
X0100753Y0054558D01*
X0100835Y0054576D01*
X0100917Y0054591D01*
X0101000Y0054602D01*
X0101083Y0054609D01*
X0101167Y0054612D01*
X0101251Y0054611D01*
X0101334Y0054606D01*
X0101418Y0054597D01*
X0101500Y0054584D01*
X0101582Y0054568D01*
X0101663Y0054547D01*
X0101744Y0054523D01*
X0101822Y0054495D01*
X0101900Y0054463D01*
X0101976Y0054427D01*
X0102050Y0054388D01*
X0102122Y0054346D01*
X0102192Y0054300D01*
X0102260Y0054251D01*
X0102325Y0054199D01*
X0102388Y0054144D01*
X0102448Y0054086D01*
X0102506Y0054025D01*
X0102560Y0053961D01*
X0102612Y0053895D01*
X0102660Y0053827D01*
X0102705Y0053756D01*
X0102746Y0053683D01*
X0102785Y0053609D01*
X0102819Y0053533D01*
X0102850Y0053455D01*
X0102877Y0053376D01*
X0102901Y0053295D01*
X0102920Y0053214D01*
X0102936Y0053132D01*
X0102948Y0053049D01*
X0102956Y0052965D01*
X0102960Y0052882D01*
X0102960Y0052798D01*
X0102956Y0052715D01*
X0102948Y0052631D01*
X0102936Y0052548D01*
X0102920Y0052466D01*
X0102901Y0052385D01*
X0102877Y0052304D01*
X0102850Y0052225D01*
X0102819Y0052147D01*
X0102785Y0052071D01*
X0102746Y0051997D01*
X0102705Y0051924D01*
X0102660Y0051853D01*
X0102612Y0051785D01*
X0102560Y0051719D01*
X0102506Y0051655D01*
X0102448Y0051594D01*
X0102388Y0051536D01*
X0102325Y0051481D01*
X0102260Y0051429D01*
X0102192Y0051380D01*
X0102122Y0051334D01*
X0102050Y0051292D01*
X0101976Y0051253D01*
X0101900Y0051217D01*
X0101822Y0051185D01*
X0101744Y0051157D01*
X0101663Y0051133D01*
X0101582Y0051112D01*
X0101500Y0051096D01*
X0101418Y0051083D01*
X0101334Y0051074D01*
X0101251Y0051069D01*
X0101167Y0051068D01*
X0101083Y0051071D01*
X0101000Y0051078D01*
X0100917Y0051089D01*
X0100835Y0051104D01*
X0100753Y0051122D01*
X0100672Y0051145D01*
X0100593Y0051171D01*
X0100515Y0051201D01*
X0100438Y0051235D01*
X0100363Y0051272D01*
X0100290Y0051312D01*
X0100219Y0051357D01*
X0100150Y0051404D01*
X0100083Y0051455D01*
X0100019Y0051508D01*
X0099957Y0051565D01*
X0099899Y0051625D01*
X0099843Y0051687D01*
X0099790Y0051752D01*
X0099740Y0051819D01*
X0099693Y0051888D01*
X0099650Y0051960D01*
X0099610Y0052034D01*
X0099574Y0052109D01*
X0099541Y0052186D01*
X0099512Y0052265D01*
X0099487Y0052344D01*
X0099465Y0052425D01*
X0099448Y0052507D01*
X0099434Y0052590D01*
X0099424Y0052673D01*
X0099418Y0052756D01*
X0099416Y0052840D01*
X0099416Y0051068D02*
X0099418Y0051152D01*
X0099424Y0051235D01*
X0099434Y0051318D01*
X0099448Y0051401D01*
X0099465Y0051483D01*
X0099487Y0051564D01*
X0099512Y0051643D01*
X0099541Y0051722D01*
X0099574Y0051799D01*
X0099610Y0051874D01*
X0099650Y0051948D01*
X0099693Y0052020D01*
X0099740Y0052089D01*
X0099790Y0052156D01*
X0099843Y0052221D01*
X0099899Y0052283D01*
X0099957Y0052343D01*
X0100019Y0052400D01*
X0100083Y0052453D01*
X0100150Y0052504D01*
X0100219Y0052551D01*
X0100290Y0052596D01*
X0100363Y0052636D01*
X0100438Y0052673D01*
X0100515Y0052707D01*
X0100593Y0052737D01*
X0100672Y0052763D01*
X0100753Y0052786D01*
X0100835Y0052804D01*
X0100917Y0052819D01*
X0101000Y0052830D01*
X0101083Y0052837D01*
X0101167Y0052840D01*
X0101251Y0052839D01*
X0101334Y0052834D01*
X0101418Y0052825D01*
X0101500Y0052812D01*
X0101582Y0052796D01*
X0101663Y0052775D01*
X0101744Y0052751D01*
X0101822Y0052723D01*
X0101900Y0052691D01*
X0101976Y0052655D01*
X0102050Y0052616D01*
X0102122Y0052574D01*
X0102192Y0052528D01*
X0102260Y0052479D01*
X0102325Y0052427D01*
X0102388Y0052372D01*
X0102448Y0052314D01*
X0102506Y0052253D01*
X0102560Y0052189D01*
X0102612Y0052123D01*
X0102660Y0052055D01*
X0102705Y0051984D01*
X0102746Y0051911D01*
X0102785Y0051837D01*
X0102819Y0051761D01*
X0102850Y0051683D01*
X0102877Y0051604D01*
X0102901Y0051523D01*
X0102920Y0051442D01*
X0102936Y0051360D01*
X0102948Y0051277D01*
X0102956Y0051193D01*
X0102960Y0051110D01*
X0102960Y0051026D01*
X0102956Y0050943D01*
X0102948Y0050859D01*
X0102936Y0050776D01*
X0102920Y0050694D01*
X0102901Y0050613D01*
X0102877Y0050532D01*
X0102850Y0050453D01*
X0102819Y0050375D01*
X0102785Y0050299D01*
X0102746Y0050225D01*
X0102705Y0050152D01*
X0102660Y0050081D01*
X0102612Y0050013D01*
X0102560Y0049947D01*
X0102506Y0049883D01*
X0102448Y0049822D01*
X0102388Y0049764D01*
X0102325Y0049709D01*
X0102260Y0049657D01*
X0102192Y0049608D01*
X0102122Y0049562D01*
X0102050Y0049520D01*
X0101976Y0049481D01*
X0101900Y0049445D01*
X0101822Y0049413D01*
X0101744Y0049385D01*
X0101663Y0049361D01*
X0101582Y0049340D01*
X0101500Y0049324D01*
X0101418Y0049311D01*
X0101334Y0049302D01*
X0101251Y0049297D01*
X0101167Y0049296D01*
X0101083Y0049299D01*
X0101000Y0049306D01*
X0100917Y0049317D01*
X0100835Y0049332D01*
X0100753Y0049350D01*
X0100672Y0049373D01*
X0100593Y0049399D01*
X0100515Y0049429D01*
X0100438Y0049463D01*
X0100363Y0049500D01*
X0100290Y0049540D01*
X0100219Y0049585D01*
X0100150Y0049632D01*
X0100083Y0049683D01*
X0100019Y0049736D01*
X0099957Y0049793D01*
X0099899Y0049853D01*
X0099843Y0049915D01*
X0099790Y0049980D01*
X0099740Y0050047D01*
X0099693Y0050116D01*
X0099650Y0050188D01*
X0099610Y0050262D01*
X0099574Y0050337D01*
X0099541Y0050414D01*
X0099512Y0050493D01*
X0099487Y0050572D01*
X0099465Y0050653D01*
X0099448Y0050735D01*
X0099434Y0050818D01*
X0099424Y0050901D01*
X0099418Y0050984D01*
X0099416Y0051068D01*
X0099416Y0033549D02*
X0099418Y0033633D01*
X0099424Y0033716D01*
X0099434Y0033799D01*
X0099448Y0033882D01*
X0099465Y0033964D01*
X0099487Y0034045D01*
X0099512Y0034124D01*
X0099541Y0034203D01*
X0099574Y0034280D01*
X0099610Y0034355D01*
X0099650Y0034429D01*
X0099693Y0034501D01*
X0099740Y0034570D01*
X0099790Y0034637D01*
X0099843Y0034702D01*
X0099899Y0034764D01*
X0099957Y0034824D01*
X0100019Y0034881D01*
X0100083Y0034934D01*
X0100150Y0034985D01*
X0100219Y0035032D01*
X0100290Y0035077D01*
X0100363Y0035117D01*
X0100438Y0035154D01*
X0100515Y0035188D01*
X0100593Y0035218D01*
X0100672Y0035244D01*
X0100753Y0035267D01*
X0100835Y0035285D01*
X0100917Y0035300D01*
X0101000Y0035311D01*
X0101083Y0035318D01*
X0101167Y0035321D01*
X0101251Y0035320D01*
X0101334Y0035315D01*
X0101418Y0035306D01*
X0101500Y0035293D01*
X0101582Y0035277D01*
X0101663Y0035256D01*
X0101744Y0035232D01*
X0101822Y0035204D01*
X0101900Y0035172D01*
X0101976Y0035136D01*
X0102050Y0035097D01*
X0102122Y0035055D01*
X0102192Y0035009D01*
X0102260Y0034960D01*
X0102325Y0034908D01*
X0102388Y0034853D01*
X0102448Y0034795D01*
X0102506Y0034734D01*
X0102560Y0034670D01*
X0102612Y0034604D01*
X0102660Y0034536D01*
X0102705Y0034465D01*
X0102746Y0034392D01*
X0102785Y0034318D01*
X0102819Y0034242D01*
X0102850Y0034164D01*
X0102877Y0034085D01*
X0102901Y0034004D01*
X0102920Y0033923D01*
X0102936Y0033841D01*
X0102948Y0033758D01*
X0102956Y0033674D01*
X0102960Y0033591D01*
X0102960Y0033507D01*
X0102956Y0033424D01*
X0102948Y0033340D01*
X0102936Y0033257D01*
X0102920Y0033175D01*
X0102901Y0033094D01*
X0102877Y0033013D01*
X0102850Y0032934D01*
X0102819Y0032856D01*
X0102785Y0032780D01*
X0102746Y0032706D01*
X0102705Y0032633D01*
X0102660Y0032562D01*
X0102612Y0032494D01*
X0102560Y0032428D01*
X0102506Y0032364D01*
X0102448Y0032303D01*
X0102388Y0032245D01*
X0102325Y0032190D01*
X0102260Y0032138D01*
X0102192Y0032089D01*
X0102122Y0032043D01*
X0102050Y0032001D01*
X0101976Y0031962D01*
X0101900Y0031926D01*
X0101822Y0031894D01*
X0101744Y0031866D01*
X0101663Y0031842D01*
X0101582Y0031821D01*
X0101500Y0031805D01*
X0101418Y0031792D01*
X0101334Y0031783D01*
X0101251Y0031778D01*
X0101167Y0031777D01*
X0101083Y0031780D01*
X0101000Y0031787D01*
X0100917Y0031798D01*
X0100835Y0031813D01*
X0100753Y0031831D01*
X0100672Y0031854D01*
X0100593Y0031880D01*
X0100515Y0031910D01*
X0100438Y0031944D01*
X0100363Y0031981D01*
X0100290Y0032021D01*
X0100219Y0032066D01*
X0100150Y0032113D01*
X0100083Y0032164D01*
X0100019Y0032217D01*
X0099957Y0032274D01*
X0099899Y0032334D01*
X0099843Y0032396D01*
X0099790Y0032461D01*
X0099740Y0032528D01*
X0099693Y0032597D01*
X0099650Y0032669D01*
X0099610Y0032743D01*
X0099574Y0032818D01*
X0099541Y0032895D01*
X0099512Y0032974D01*
X0099487Y0033053D01*
X0099465Y0033134D01*
X0099448Y0033216D01*
X0099434Y0033299D01*
X0099424Y0033382D01*
X0099418Y0033465D01*
X0099416Y0033549D01*
X0099416Y0031777D02*
X0099418Y0031861D01*
X0099424Y0031944D01*
X0099434Y0032027D01*
X0099448Y0032110D01*
X0099465Y0032192D01*
X0099487Y0032273D01*
X0099512Y0032352D01*
X0099541Y0032431D01*
X0099574Y0032508D01*
X0099610Y0032583D01*
X0099650Y0032657D01*
X0099693Y0032729D01*
X0099740Y0032798D01*
X0099790Y0032865D01*
X0099843Y0032930D01*
X0099899Y0032992D01*
X0099957Y0033052D01*
X0100019Y0033109D01*
X0100083Y0033162D01*
X0100150Y0033213D01*
X0100219Y0033260D01*
X0100290Y0033305D01*
X0100363Y0033345D01*
X0100438Y0033382D01*
X0100515Y0033416D01*
X0100593Y0033446D01*
X0100672Y0033472D01*
X0100753Y0033495D01*
X0100835Y0033513D01*
X0100917Y0033528D01*
X0101000Y0033539D01*
X0101083Y0033546D01*
X0101167Y0033549D01*
X0101251Y0033548D01*
X0101334Y0033543D01*
X0101418Y0033534D01*
X0101500Y0033521D01*
X0101582Y0033505D01*
X0101663Y0033484D01*
X0101744Y0033460D01*
X0101822Y0033432D01*
X0101900Y0033400D01*
X0101976Y0033364D01*
X0102050Y0033325D01*
X0102122Y0033283D01*
X0102192Y0033237D01*
X0102260Y0033188D01*
X0102325Y0033136D01*
X0102388Y0033081D01*
X0102448Y0033023D01*
X0102506Y0032962D01*
X0102560Y0032898D01*
X0102612Y0032832D01*
X0102660Y0032764D01*
X0102705Y0032693D01*
X0102746Y0032620D01*
X0102785Y0032546D01*
X0102819Y0032470D01*
X0102850Y0032392D01*
X0102877Y0032313D01*
X0102901Y0032232D01*
X0102920Y0032151D01*
X0102936Y0032069D01*
X0102948Y0031986D01*
X0102956Y0031902D01*
X0102960Y0031819D01*
X0102960Y0031735D01*
X0102956Y0031652D01*
X0102948Y0031568D01*
X0102936Y0031485D01*
X0102920Y0031403D01*
X0102901Y0031322D01*
X0102877Y0031241D01*
X0102850Y0031162D01*
X0102819Y0031084D01*
X0102785Y0031008D01*
X0102746Y0030934D01*
X0102705Y0030861D01*
X0102660Y0030790D01*
X0102612Y0030722D01*
X0102560Y0030656D01*
X0102506Y0030592D01*
X0102448Y0030531D01*
X0102388Y0030473D01*
X0102325Y0030418D01*
X0102260Y0030366D01*
X0102192Y0030317D01*
X0102122Y0030271D01*
X0102050Y0030229D01*
X0101976Y0030190D01*
X0101900Y0030154D01*
X0101822Y0030122D01*
X0101744Y0030094D01*
X0101663Y0030070D01*
X0101582Y0030049D01*
X0101500Y0030033D01*
X0101418Y0030020D01*
X0101334Y0030011D01*
X0101251Y0030006D01*
X0101167Y0030005D01*
X0101083Y0030008D01*
X0101000Y0030015D01*
X0100917Y0030026D01*
X0100835Y0030041D01*
X0100753Y0030059D01*
X0100672Y0030082D01*
X0100593Y0030108D01*
X0100515Y0030138D01*
X0100438Y0030172D01*
X0100363Y0030209D01*
X0100290Y0030249D01*
X0100219Y0030294D01*
X0100150Y0030341D01*
X0100083Y0030392D01*
X0100019Y0030445D01*
X0099957Y0030502D01*
X0099899Y0030562D01*
X0099843Y0030624D01*
X0099790Y0030689D01*
X0099740Y0030756D01*
X0099693Y0030825D01*
X0099650Y0030897D01*
X0099610Y0030971D01*
X0099574Y0031046D01*
X0099541Y0031123D01*
X0099512Y0031202D01*
X0099487Y0031281D01*
X0099465Y0031362D01*
X0099448Y0031444D01*
X0099434Y0031527D01*
X0099424Y0031610D01*
X0099418Y0031693D01*
X0099416Y0031777D01*
X0099416Y0029415D02*
X0099418Y0029499D01*
X0099424Y0029582D01*
X0099434Y0029665D01*
X0099448Y0029748D01*
X0099465Y0029830D01*
X0099487Y0029911D01*
X0099512Y0029990D01*
X0099541Y0030069D01*
X0099574Y0030146D01*
X0099610Y0030221D01*
X0099650Y0030295D01*
X0099693Y0030367D01*
X0099740Y0030436D01*
X0099790Y0030503D01*
X0099843Y0030568D01*
X0099899Y0030630D01*
X0099957Y0030690D01*
X0100019Y0030747D01*
X0100083Y0030800D01*
X0100150Y0030851D01*
X0100219Y0030898D01*
X0100290Y0030943D01*
X0100363Y0030983D01*
X0100438Y0031020D01*
X0100515Y0031054D01*
X0100593Y0031084D01*
X0100672Y0031110D01*
X0100753Y0031133D01*
X0100835Y0031151D01*
X0100917Y0031166D01*
X0101000Y0031177D01*
X0101083Y0031184D01*
X0101167Y0031187D01*
X0101251Y0031186D01*
X0101334Y0031181D01*
X0101418Y0031172D01*
X0101500Y0031159D01*
X0101582Y0031143D01*
X0101663Y0031122D01*
X0101744Y0031098D01*
X0101822Y0031070D01*
X0101900Y0031038D01*
X0101976Y0031002D01*
X0102050Y0030963D01*
X0102122Y0030921D01*
X0102192Y0030875D01*
X0102260Y0030826D01*
X0102325Y0030774D01*
X0102388Y0030719D01*
X0102448Y0030661D01*
X0102506Y0030600D01*
X0102560Y0030536D01*
X0102612Y0030470D01*
X0102660Y0030402D01*
X0102705Y0030331D01*
X0102746Y0030258D01*
X0102785Y0030184D01*
X0102819Y0030108D01*
X0102850Y0030030D01*
X0102877Y0029951D01*
X0102901Y0029870D01*
X0102920Y0029789D01*
X0102936Y0029707D01*
X0102948Y0029624D01*
X0102956Y0029540D01*
X0102960Y0029457D01*
X0102960Y0029373D01*
X0102956Y0029290D01*
X0102948Y0029206D01*
X0102936Y0029123D01*
X0102920Y0029041D01*
X0102901Y0028960D01*
X0102877Y0028879D01*
X0102850Y0028800D01*
X0102819Y0028722D01*
X0102785Y0028646D01*
X0102746Y0028572D01*
X0102705Y0028499D01*
X0102660Y0028428D01*
X0102612Y0028360D01*
X0102560Y0028294D01*
X0102506Y0028230D01*
X0102448Y0028169D01*
X0102388Y0028111D01*
X0102325Y0028056D01*
X0102260Y0028004D01*
X0102192Y0027955D01*
X0102122Y0027909D01*
X0102050Y0027867D01*
X0101976Y0027828D01*
X0101900Y0027792D01*
X0101822Y0027760D01*
X0101744Y0027732D01*
X0101663Y0027708D01*
X0101582Y0027687D01*
X0101500Y0027671D01*
X0101418Y0027658D01*
X0101334Y0027649D01*
X0101251Y0027644D01*
X0101167Y0027643D01*
X0101083Y0027646D01*
X0101000Y0027653D01*
X0100917Y0027664D01*
X0100835Y0027679D01*
X0100753Y0027697D01*
X0100672Y0027720D01*
X0100593Y0027746D01*
X0100515Y0027776D01*
X0100438Y0027810D01*
X0100363Y0027847D01*
X0100290Y0027887D01*
X0100219Y0027932D01*
X0100150Y0027979D01*
X0100083Y0028030D01*
X0100019Y0028083D01*
X0099957Y0028140D01*
X0099899Y0028200D01*
X0099843Y0028262D01*
X0099790Y0028327D01*
X0099740Y0028394D01*
X0099693Y0028463D01*
X0099650Y0028535D01*
X0099610Y0028609D01*
X0099574Y0028684D01*
X0099541Y0028761D01*
X0099512Y0028840D01*
X0099487Y0028919D01*
X0099465Y0029000D01*
X0099448Y0029082D01*
X0099434Y0029165D01*
X0099424Y0029248D01*
X0099418Y0029331D01*
X0099416Y0029415D01*
X0099416Y0027643D02*
X0099418Y0027727D01*
X0099424Y0027810D01*
X0099434Y0027893D01*
X0099448Y0027976D01*
X0099465Y0028058D01*
X0099487Y0028139D01*
X0099512Y0028218D01*
X0099541Y0028297D01*
X0099574Y0028374D01*
X0099610Y0028449D01*
X0099650Y0028523D01*
X0099693Y0028595D01*
X0099740Y0028664D01*
X0099790Y0028731D01*
X0099843Y0028796D01*
X0099899Y0028858D01*
X0099957Y0028918D01*
X0100019Y0028975D01*
X0100083Y0029028D01*
X0100150Y0029079D01*
X0100219Y0029126D01*
X0100290Y0029171D01*
X0100363Y0029211D01*
X0100438Y0029248D01*
X0100515Y0029282D01*
X0100593Y0029312D01*
X0100672Y0029338D01*
X0100753Y0029361D01*
X0100835Y0029379D01*
X0100917Y0029394D01*
X0101000Y0029405D01*
X0101083Y0029412D01*
X0101167Y0029415D01*
X0101251Y0029414D01*
X0101334Y0029409D01*
X0101418Y0029400D01*
X0101500Y0029387D01*
X0101582Y0029371D01*
X0101663Y0029350D01*
X0101744Y0029326D01*
X0101822Y0029298D01*
X0101900Y0029266D01*
X0101976Y0029230D01*
X0102050Y0029191D01*
X0102122Y0029149D01*
X0102192Y0029103D01*
X0102260Y0029054D01*
X0102325Y0029002D01*
X0102388Y0028947D01*
X0102448Y0028889D01*
X0102506Y0028828D01*
X0102560Y0028764D01*
X0102612Y0028698D01*
X0102660Y0028630D01*
X0102705Y0028559D01*
X0102746Y0028486D01*
X0102785Y0028412D01*
X0102819Y0028336D01*
X0102850Y0028258D01*
X0102877Y0028179D01*
X0102901Y0028098D01*
X0102920Y0028017D01*
X0102936Y0027935D01*
X0102948Y0027852D01*
X0102956Y0027768D01*
X0102960Y0027685D01*
X0102960Y0027601D01*
X0102956Y0027518D01*
X0102948Y0027434D01*
X0102936Y0027351D01*
X0102920Y0027269D01*
X0102901Y0027188D01*
X0102877Y0027107D01*
X0102850Y0027028D01*
X0102819Y0026950D01*
X0102785Y0026874D01*
X0102746Y0026800D01*
X0102705Y0026727D01*
X0102660Y0026656D01*
X0102612Y0026588D01*
X0102560Y0026522D01*
X0102506Y0026458D01*
X0102448Y0026397D01*
X0102388Y0026339D01*
X0102325Y0026284D01*
X0102260Y0026232D01*
X0102192Y0026183D01*
X0102122Y0026137D01*
X0102050Y0026095D01*
X0101976Y0026056D01*
X0101900Y0026020D01*
X0101822Y0025988D01*
X0101744Y0025960D01*
X0101663Y0025936D01*
X0101582Y0025915D01*
X0101500Y0025899D01*
X0101418Y0025886D01*
X0101334Y0025877D01*
X0101251Y0025872D01*
X0101167Y0025871D01*
X0101083Y0025874D01*
X0101000Y0025881D01*
X0100917Y0025892D01*
X0100835Y0025907D01*
X0100753Y0025925D01*
X0100672Y0025948D01*
X0100593Y0025974D01*
X0100515Y0026004D01*
X0100438Y0026038D01*
X0100363Y0026075D01*
X0100290Y0026115D01*
X0100219Y0026160D01*
X0100150Y0026207D01*
X0100083Y0026258D01*
X0100019Y0026311D01*
X0099957Y0026368D01*
X0099899Y0026428D01*
X0099843Y0026490D01*
X0099790Y0026555D01*
X0099740Y0026622D01*
X0099693Y0026691D01*
X0099650Y0026763D01*
X0099610Y0026837D01*
X0099574Y0026912D01*
X0099541Y0026989D01*
X0099512Y0027068D01*
X0099487Y0027147D01*
X0099465Y0027228D01*
X0099448Y0027310D01*
X0099434Y0027393D01*
X0099424Y0027476D01*
X0099418Y0027559D01*
X0099416Y0027643D01*
X0156503Y0027643D02*
X0156505Y0027727D01*
X0156511Y0027810D01*
X0156521Y0027893D01*
X0156535Y0027976D01*
X0156552Y0028058D01*
X0156574Y0028139D01*
X0156599Y0028218D01*
X0156628Y0028297D01*
X0156661Y0028374D01*
X0156697Y0028449D01*
X0156737Y0028523D01*
X0156780Y0028595D01*
X0156827Y0028664D01*
X0156877Y0028731D01*
X0156930Y0028796D01*
X0156986Y0028858D01*
X0157044Y0028918D01*
X0157106Y0028975D01*
X0157170Y0029028D01*
X0157237Y0029079D01*
X0157306Y0029126D01*
X0157377Y0029171D01*
X0157450Y0029211D01*
X0157525Y0029248D01*
X0157602Y0029282D01*
X0157680Y0029312D01*
X0157759Y0029338D01*
X0157840Y0029361D01*
X0157922Y0029379D01*
X0158004Y0029394D01*
X0158087Y0029405D01*
X0158170Y0029412D01*
X0158254Y0029415D01*
X0158338Y0029414D01*
X0158421Y0029409D01*
X0158505Y0029400D01*
X0158587Y0029387D01*
X0158669Y0029371D01*
X0158750Y0029350D01*
X0158831Y0029326D01*
X0158909Y0029298D01*
X0158987Y0029266D01*
X0159063Y0029230D01*
X0159137Y0029191D01*
X0159209Y0029149D01*
X0159279Y0029103D01*
X0159347Y0029054D01*
X0159412Y0029002D01*
X0159475Y0028947D01*
X0159535Y0028889D01*
X0159593Y0028828D01*
X0159647Y0028764D01*
X0159699Y0028698D01*
X0159747Y0028630D01*
X0159792Y0028559D01*
X0159833Y0028486D01*
X0159872Y0028412D01*
X0159906Y0028336D01*
X0159937Y0028258D01*
X0159964Y0028179D01*
X0159988Y0028098D01*
X0160007Y0028017D01*
X0160023Y0027935D01*
X0160035Y0027852D01*
X0160043Y0027768D01*
X0160047Y0027685D01*
X0160047Y0027601D01*
X0160043Y0027518D01*
X0160035Y0027434D01*
X0160023Y0027351D01*
X0160007Y0027269D01*
X0159988Y0027188D01*
X0159964Y0027107D01*
X0159937Y0027028D01*
X0159906Y0026950D01*
X0159872Y0026874D01*
X0159833Y0026800D01*
X0159792Y0026727D01*
X0159747Y0026656D01*
X0159699Y0026588D01*
X0159647Y0026522D01*
X0159593Y0026458D01*
X0159535Y0026397D01*
X0159475Y0026339D01*
X0159412Y0026284D01*
X0159347Y0026232D01*
X0159279Y0026183D01*
X0159209Y0026137D01*
X0159137Y0026095D01*
X0159063Y0026056D01*
X0158987Y0026020D01*
X0158909Y0025988D01*
X0158831Y0025960D01*
X0158750Y0025936D01*
X0158669Y0025915D01*
X0158587Y0025899D01*
X0158505Y0025886D01*
X0158421Y0025877D01*
X0158338Y0025872D01*
X0158254Y0025871D01*
X0158170Y0025874D01*
X0158087Y0025881D01*
X0158004Y0025892D01*
X0157922Y0025907D01*
X0157840Y0025925D01*
X0157759Y0025948D01*
X0157680Y0025974D01*
X0157602Y0026004D01*
X0157525Y0026038D01*
X0157450Y0026075D01*
X0157377Y0026115D01*
X0157306Y0026160D01*
X0157237Y0026207D01*
X0157170Y0026258D01*
X0157106Y0026311D01*
X0157044Y0026368D01*
X0156986Y0026428D01*
X0156930Y0026490D01*
X0156877Y0026555D01*
X0156827Y0026622D01*
X0156780Y0026691D01*
X0156737Y0026763D01*
X0156697Y0026837D01*
X0156661Y0026912D01*
X0156628Y0026989D01*
X0156599Y0027068D01*
X0156574Y0027147D01*
X0156552Y0027228D01*
X0156535Y0027310D01*
X0156521Y0027393D01*
X0156511Y0027476D01*
X0156505Y0027559D01*
X0156503Y0027643D01*
X0156503Y0029415D02*
X0156505Y0029499D01*
X0156511Y0029582D01*
X0156521Y0029665D01*
X0156535Y0029748D01*
X0156552Y0029830D01*
X0156574Y0029911D01*
X0156599Y0029990D01*
X0156628Y0030069D01*
X0156661Y0030146D01*
X0156697Y0030221D01*
X0156737Y0030295D01*
X0156780Y0030367D01*
X0156827Y0030436D01*
X0156877Y0030503D01*
X0156930Y0030568D01*
X0156986Y0030630D01*
X0157044Y0030690D01*
X0157106Y0030747D01*
X0157170Y0030800D01*
X0157237Y0030851D01*
X0157306Y0030898D01*
X0157377Y0030943D01*
X0157450Y0030983D01*
X0157525Y0031020D01*
X0157602Y0031054D01*
X0157680Y0031084D01*
X0157759Y0031110D01*
X0157840Y0031133D01*
X0157922Y0031151D01*
X0158004Y0031166D01*
X0158087Y0031177D01*
X0158170Y0031184D01*
X0158254Y0031187D01*
X0158338Y0031186D01*
X0158421Y0031181D01*
X0158505Y0031172D01*
X0158587Y0031159D01*
X0158669Y0031143D01*
X0158750Y0031122D01*
X0158831Y0031098D01*
X0158909Y0031070D01*
X0158987Y0031038D01*
X0159063Y0031002D01*
X0159137Y0030963D01*
X0159209Y0030921D01*
X0159279Y0030875D01*
X0159347Y0030826D01*
X0159412Y0030774D01*
X0159475Y0030719D01*
X0159535Y0030661D01*
X0159593Y0030600D01*
X0159647Y0030536D01*
X0159699Y0030470D01*
X0159747Y0030402D01*
X0159792Y0030331D01*
X0159833Y0030258D01*
X0159872Y0030184D01*
X0159906Y0030108D01*
X0159937Y0030030D01*
X0159964Y0029951D01*
X0159988Y0029870D01*
X0160007Y0029789D01*
X0160023Y0029707D01*
X0160035Y0029624D01*
X0160043Y0029540D01*
X0160047Y0029457D01*
X0160047Y0029373D01*
X0160043Y0029290D01*
X0160035Y0029206D01*
X0160023Y0029123D01*
X0160007Y0029041D01*
X0159988Y0028960D01*
X0159964Y0028879D01*
X0159937Y0028800D01*
X0159906Y0028722D01*
X0159872Y0028646D01*
X0159833Y0028572D01*
X0159792Y0028499D01*
X0159747Y0028428D01*
X0159699Y0028360D01*
X0159647Y0028294D01*
X0159593Y0028230D01*
X0159535Y0028169D01*
X0159475Y0028111D01*
X0159412Y0028056D01*
X0159347Y0028004D01*
X0159279Y0027955D01*
X0159209Y0027909D01*
X0159137Y0027867D01*
X0159063Y0027828D01*
X0158987Y0027792D01*
X0158909Y0027760D01*
X0158831Y0027732D01*
X0158750Y0027708D01*
X0158669Y0027687D01*
X0158587Y0027671D01*
X0158505Y0027658D01*
X0158421Y0027649D01*
X0158338Y0027644D01*
X0158254Y0027643D01*
X0158170Y0027646D01*
X0158087Y0027653D01*
X0158004Y0027664D01*
X0157922Y0027679D01*
X0157840Y0027697D01*
X0157759Y0027720D01*
X0157680Y0027746D01*
X0157602Y0027776D01*
X0157525Y0027810D01*
X0157450Y0027847D01*
X0157377Y0027887D01*
X0157306Y0027932D01*
X0157237Y0027979D01*
X0157170Y0028030D01*
X0157106Y0028083D01*
X0157044Y0028140D01*
X0156986Y0028200D01*
X0156930Y0028262D01*
X0156877Y0028327D01*
X0156827Y0028394D01*
X0156780Y0028463D01*
X0156737Y0028535D01*
X0156697Y0028609D01*
X0156661Y0028684D01*
X0156628Y0028761D01*
X0156599Y0028840D01*
X0156574Y0028919D01*
X0156552Y0029000D01*
X0156535Y0029082D01*
X0156521Y0029165D01*
X0156511Y0029248D01*
X0156505Y0029331D01*
X0156503Y0029415D01*
X0156503Y0031777D02*
X0156505Y0031861D01*
X0156511Y0031944D01*
X0156521Y0032027D01*
X0156535Y0032110D01*
X0156552Y0032192D01*
X0156574Y0032273D01*
X0156599Y0032352D01*
X0156628Y0032431D01*
X0156661Y0032508D01*
X0156697Y0032583D01*
X0156737Y0032657D01*
X0156780Y0032729D01*
X0156827Y0032798D01*
X0156877Y0032865D01*
X0156930Y0032930D01*
X0156986Y0032992D01*
X0157044Y0033052D01*
X0157106Y0033109D01*
X0157170Y0033162D01*
X0157237Y0033213D01*
X0157306Y0033260D01*
X0157377Y0033305D01*
X0157450Y0033345D01*
X0157525Y0033382D01*
X0157602Y0033416D01*
X0157680Y0033446D01*
X0157759Y0033472D01*
X0157840Y0033495D01*
X0157922Y0033513D01*
X0158004Y0033528D01*
X0158087Y0033539D01*
X0158170Y0033546D01*
X0158254Y0033549D01*
X0158338Y0033548D01*
X0158421Y0033543D01*
X0158505Y0033534D01*
X0158587Y0033521D01*
X0158669Y0033505D01*
X0158750Y0033484D01*
X0158831Y0033460D01*
X0158909Y0033432D01*
X0158987Y0033400D01*
X0159063Y0033364D01*
X0159137Y0033325D01*
X0159209Y0033283D01*
X0159279Y0033237D01*
X0159347Y0033188D01*
X0159412Y0033136D01*
X0159475Y0033081D01*
X0159535Y0033023D01*
X0159593Y0032962D01*
X0159647Y0032898D01*
X0159699Y0032832D01*
X0159747Y0032764D01*
X0159792Y0032693D01*
X0159833Y0032620D01*
X0159872Y0032546D01*
X0159906Y0032470D01*
X0159937Y0032392D01*
X0159964Y0032313D01*
X0159988Y0032232D01*
X0160007Y0032151D01*
X0160023Y0032069D01*
X0160035Y0031986D01*
X0160043Y0031902D01*
X0160047Y0031819D01*
X0160047Y0031735D01*
X0160043Y0031652D01*
X0160035Y0031568D01*
X0160023Y0031485D01*
X0160007Y0031403D01*
X0159988Y0031322D01*
X0159964Y0031241D01*
X0159937Y0031162D01*
X0159906Y0031084D01*
X0159872Y0031008D01*
X0159833Y0030934D01*
X0159792Y0030861D01*
X0159747Y0030790D01*
X0159699Y0030722D01*
X0159647Y0030656D01*
X0159593Y0030592D01*
X0159535Y0030531D01*
X0159475Y0030473D01*
X0159412Y0030418D01*
X0159347Y0030366D01*
X0159279Y0030317D01*
X0159209Y0030271D01*
X0159137Y0030229D01*
X0159063Y0030190D01*
X0158987Y0030154D01*
X0158909Y0030122D01*
X0158831Y0030094D01*
X0158750Y0030070D01*
X0158669Y0030049D01*
X0158587Y0030033D01*
X0158505Y0030020D01*
X0158421Y0030011D01*
X0158338Y0030006D01*
X0158254Y0030005D01*
X0158170Y0030008D01*
X0158087Y0030015D01*
X0158004Y0030026D01*
X0157922Y0030041D01*
X0157840Y0030059D01*
X0157759Y0030082D01*
X0157680Y0030108D01*
X0157602Y0030138D01*
X0157525Y0030172D01*
X0157450Y0030209D01*
X0157377Y0030249D01*
X0157306Y0030294D01*
X0157237Y0030341D01*
X0157170Y0030392D01*
X0157106Y0030445D01*
X0157044Y0030502D01*
X0156986Y0030562D01*
X0156930Y0030624D01*
X0156877Y0030689D01*
X0156827Y0030756D01*
X0156780Y0030825D01*
X0156737Y0030897D01*
X0156697Y0030971D01*
X0156661Y0031046D01*
X0156628Y0031123D01*
X0156599Y0031202D01*
X0156574Y0031281D01*
X0156552Y0031362D01*
X0156535Y0031444D01*
X0156521Y0031527D01*
X0156511Y0031610D01*
X0156505Y0031693D01*
X0156503Y0031777D01*
X0156503Y0033549D02*
X0156505Y0033633D01*
X0156511Y0033716D01*
X0156521Y0033799D01*
X0156535Y0033882D01*
X0156552Y0033964D01*
X0156574Y0034045D01*
X0156599Y0034124D01*
X0156628Y0034203D01*
X0156661Y0034280D01*
X0156697Y0034355D01*
X0156737Y0034429D01*
X0156780Y0034501D01*
X0156827Y0034570D01*
X0156877Y0034637D01*
X0156930Y0034702D01*
X0156986Y0034764D01*
X0157044Y0034824D01*
X0157106Y0034881D01*
X0157170Y0034934D01*
X0157237Y0034985D01*
X0157306Y0035032D01*
X0157377Y0035077D01*
X0157450Y0035117D01*
X0157525Y0035154D01*
X0157602Y0035188D01*
X0157680Y0035218D01*
X0157759Y0035244D01*
X0157840Y0035267D01*
X0157922Y0035285D01*
X0158004Y0035300D01*
X0158087Y0035311D01*
X0158170Y0035318D01*
X0158254Y0035321D01*
X0158338Y0035320D01*
X0158421Y0035315D01*
X0158505Y0035306D01*
X0158587Y0035293D01*
X0158669Y0035277D01*
X0158750Y0035256D01*
X0158831Y0035232D01*
X0158909Y0035204D01*
X0158987Y0035172D01*
X0159063Y0035136D01*
X0159137Y0035097D01*
X0159209Y0035055D01*
X0159279Y0035009D01*
X0159347Y0034960D01*
X0159412Y0034908D01*
X0159475Y0034853D01*
X0159535Y0034795D01*
X0159593Y0034734D01*
X0159647Y0034670D01*
X0159699Y0034604D01*
X0159747Y0034536D01*
X0159792Y0034465D01*
X0159833Y0034392D01*
X0159872Y0034318D01*
X0159906Y0034242D01*
X0159937Y0034164D01*
X0159964Y0034085D01*
X0159988Y0034004D01*
X0160007Y0033923D01*
X0160023Y0033841D01*
X0160035Y0033758D01*
X0160043Y0033674D01*
X0160047Y0033591D01*
X0160047Y0033507D01*
X0160043Y0033424D01*
X0160035Y0033340D01*
X0160023Y0033257D01*
X0160007Y0033175D01*
X0159988Y0033094D01*
X0159964Y0033013D01*
X0159937Y0032934D01*
X0159906Y0032856D01*
X0159872Y0032780D01*
X0159833Y0032706D01*
X0159792Y0032633D01*
X0159747Y0032562D01*
X0159699Y0032494D01*
X0159647Y0032428D01*
X0159593Y0032364D01*
X0159535Y0032303D01*
X0159475Y0032245D01*
X0159412Y0032190D01*
X0159347Y0032138D01*
X0159279Y0032089D01*
X0159209Y0032043D01*
X0159137Y0032001D01*
X0159063Y0031962D01*
X0158987Y0031926D01*
X0158909Y0031894D01*
X0158831Y0031866D01*
X0158750Y0031842D01*
X0158669Y0031821D01*
X0158587Y0031805D01*
X0158505Y0031792D01*
X0158421Y0031783D01*
X0158338Y0031778D01*
X0158254Y0031777D01*
X0158170Y0031780D01*
X0158087Y0031787D01*
X0158004Y0031798D01*
X0157922Y0031813D01*
X0157840Y0031831D01*
X0157759Y0031854D01*
X0157680Y0031880D01*
X0157602Y0031910D01*
X0157525Y0031944D01*
X0157450Y0031981D01*
X0157377Y0032021D01*
X0157306Y0032066D01*
X0157237Y0032113D01*
X0157170Y0032164D01*
X0157106Y0032217D01*
X0157044Y0032274D01*
X0156986Y0032334D01*
X0156930Y0032396D01*
X0156877Y0032461D01*
X0156827Y0032528D01*
X0156780Y0032597D01*
X0156737Y0032669D01*
X0156697Y0032743D01*
X0156661Y0032818D01*
X0156628Y0032895D01*
X0156599Y0032974D01*
X0156574Y0033053D01*
X0156552Y0033134D01*
X0156535Y0033216D01*
X0156521Y0033299D01*
X0156511Y0033382D01*
X0156505Y0033465D01*
X0156503Y0033549D01*
X0156503Y0051068D02*
X0156505Y0051152D01*
X0156511Y0051235D01*
X0156521Y0051318D01*
X0156535Y0051401D01*
X0156552Y0051483D01*
X0156574Y0051564D01*
X0156599Y0051643D01*
X0156628Y0051722D01*
X0156661Y0051799D01*
X0156697Y0051874D01*
X0156737Y0051948D01*
X0156780Y0052020D01*
X0156827Y0052089D01*
X0156877Y0052156D01*
X0156930Y0052221D01*
X0156986Y0052283D01*
X0157044Y0052343D01*
X0157106Y0052400D01*
X0157170Y0052453D01*
X0157237Y0052504D01*
X0157306Y0052551D01*
X0157377Y0052596D01*
X0157450Y0052636D01*
X0157525Y0052673D01*
X0157602Y0052707D01*
X0157680Y0052737D01*
X0157759Y0052763D01*
X0157840Y0052786D01*
X0157922Y0052804D01*
X0158004Y0052819D01*
X0158087Y0052830D01*
X0158170Y0052837D01*
X0158254Y0052840D01*
X0158338Y0052839D01*
X0158421Y0052834D01*
X0158505Y0052825D01*
X0158587Y0052812D01*
X0158669Y0052796D01*
X0158750Y0052775D01*
X0158831Y0052751D01*
X0158909Y0052723D01*
X0158987Y0052691D01*
X0159063Y0052655D01*
X0159137Y0052616D01*
X0159209Y0052574D01*
X0159279Y0052528D01*
X0159347Y0052479D01*
X0159412Y0052427D01*
X0159475Y0052372D01*
X0159535Y0052314D01*
X0159593Y0052253D01*
X0159647Y0052189D01*
X0159699Y0052123D01*
X0159747Y0052055D01*
X0159792Y0051984D01*
X0159833Y0051911D01*
X0159872Y0051837D01*
X0159906Y0051761D01*
X0159937Y0051683D01*
X0159964Y0051604D01*
X0159988Y0051523D01*
X0160007Y0051442D01*
X0160023Y0051360D01*
X0160035Y0051277D01*
X0160043Y0051193D01*
X0160047Y0051110D01*
X0160047Y0051026D01*
X0160043Y0050943D01*
X0160035Y0050859D01*
X0160023Y0050776D01*
X0160007Y0050694D01*
X0159988Y0050613D01*
X0159964Y0050532D01*
X0159937Y0050453D01*
X0159906Y0050375D01*
X0159872Y0050299D01*
X0159833Y0050225D01*
X0159792Y0050152D01*
X0159747Y0050081D01*
X0159699Y0050013D01*
X0159647Y0049947D01*
X0159593Y0049883D01*
X0159535Y0049822D01*
X0159475Y0049764D01*
X0159412Y0049709D01*
X0159347Y0049657D01*
X0159279Y0049608D01*
X0159209Y0049562D01*
X0159137Y0049520D01*
X0159063Y0049481D01*
X0158987Y0049445D01*
X0158909Y0049413D01*
X0158831Y0049385D01*
X0158750Y0049361D01*
X0158669Y0049340D01*
X0158587Y0049324D01*
X0158505Y0049311D01*
X0158421Y0049302D01*
X0158338Y0049297D01*
X0158254Y0049296D01*
X0158170Y0049299D01*
X0158087Y0049306D01*
X0158004Y0049317D01*
X0157922Y0049332D01*
X0157840Y0049350D01*
X0157759Y0049373D01*
X0157680Y0049399D01*
X0157602Y0049429D01*
X0157525Y0049463D01*
X0157450Y0049500D01*
X0157377Y0049540D01*
X0157306Y0049585D01*
X0157237Y0049632D01*
X0157170Y0049683D01*
X0157106Y0049736D01*
X0157044Y0049793D01*
X0156986Y0049853D01*
X0156930Y0049915D01*
X0156877Y0049980D01*
X0156827Y0050047D01*
X0156780Y0050116D01*
X0156737Y0050188D01*
X0156697Y0050262D01*
X0156661Y0050337D01*
X0156628Y0050414D01*
X0156599Y0050493D01*
X0156574Y0050572D01*
X0156552Y0050653D01*
X0156535Y0050735D01*
X0156521Y0050818D01*
X0156511Y0050901D01*
X0156505Y0050984D01*
X0156503Y0051068D01*
X0156503Y0052840D02*
X0156505Y0052924D01*
X0156511Y0053007D01*
X0156521Y0053090D01*
X0156535Y0053173D01*
X0156552Y0053255D01*
X0156574Y0053336D01*
X0156599Y0053415D01*
X0156628Y0053494D01*
X0156661Y0053571D01*
X0156697Y0053646D01*
X0156737Y0053720D01*
X0156780Y0053792D01*
X0156827Y0053861D01*
X0156877Y0053928D01*
X0156930Y0053993D01*
X0156986Y0054055D01*
X0157044Y0054115D01*
X0157106Y0054172D01*
X0157170Y0054225D01*
X0157237Y0054276D01*
X0157306Y0054323D01*
X0157377Y0054368D01*
X0157450Y0054408D01*
X0157525Y0054445D01*
X0157602Y0054479D01*
X0157680Y0054509D01*
X0157759Y0054535D01*
X0157840Y0054558D01*
X0157922Y0054576D01*
X0158004Y0054591D01*
X0158087Y0054602D01*
X0158170Y0054609D01*
X0158254Y0054612D01*
X0158338Y0054611D01*
X0158421Y0054606D01*
X0158505Y0054597D01*
X0158587Y0054584D01*
X0158669Y0054568D01*
X0158750Y0054547D01*
X0158831Y0054523D01*
X0158909Y0054495D01*
X0158987Y0054463D01*
X0159063Y0054427D01*
X0159137Y0054388D01*
X0159209Y0054346D01*
X0159279Y0054300D01*
X0159347Y0054251D01*
X0159412Y0054199D01*
X0159475Y0054144D01*
X0159535Y0054086D01*
X0159593Y0054025D01*
X0159647Y0053961D01*
X0159699Y0053895D01*
X0159747Y0053827D01*
X0159792Y0053756D01*
X0159833Y0053683D01*
X0159872Y0053609D01*
X0159906Y0053533D01*
X0159937Y0053455D01*
X0159964Y0053376D01*
X0159988Y0053295D01*
X0160007Y0053214D01*
X0160023Y0053132D01*
X0160035Y0053049D01*
X0160043Y0052965D01*
X0160047Y0052882D01*
X0160047Y0052798D01*
X0160043Y0052715D01*
X0160035Y0052631D01*
X0160023Y0052548D01*
X0160007Y0052466D01*
X0159988Y0052385D01*
X0159964Y0052304D01*
X0159937Y0052225D01*
X0159906Y0052147D01*
X0159872Y0052071D01*
X0159833Y0051997D01*
X0159792Y0051924D01*
X0159747Y0051853D01*
X0159699Y0051785D01*
X0159647Y0051719D01*
X0159593Y0051655D01*
X0159535Y0051594D01*
X0159475Y0051536D01*
X0159412Y0051481D01*
X0159347Y0051429D01*
X0159279Y0051380D01*
X0159209Y0051334D01*
X0159137Y0051292D01*
X0159063Y0051253D01*
X0158987Y0051217D01*
X0158909Y0051185D01*
X0158831Y0051157D01*
X0158750Y0051133D01*
X0158669Y0051112D01*
X0158587Y0051096D01*
X0158505Y0051083D01*
X0158421Y0051074D01*
X0158338Y0051069D01*
X0158254Y0051068D01*
X0158170Y0051071D01*
X0158087Y0051078D01*
X0158004Y0051089D01*
X0157922Y0051104D01*
X0157840Y0051122D01*
X0157759Y0051145D01*
X0157680Y0051171D01*
X0157602Y0051201D01*
X0157525Y0051235D01*
X0157450Y0051272D01*
X0157377Y0051312D01*
X0157306Y0051357D01*
X0157237Y0051404D01*
X0157170Y0051455D01*
X0157106Y0051508D01*
X0157044Y0051565D01*
X0156986Y0051625D01*
X0156930Y0051687D01*
X0156877Y0051752D01*
X0156827Y0051819D01*
X0156780Y0051888D01*
X0156737Y0051960D01*
X0156697Y0052034D01*
X0156661Y0052109D01*
X0156628Y0052186D01*
X0156599Y0052265D01*
X0156574Y0052344D01*
X0156552Y0052425D01*
X0156535Y0052507D01*
X0156521Y0052590D01*
X0156511Y0052673D01*
X0156505Y0052756D01*
X0156503Y0052840D01*
X0156503Y0055202D02*
X0156505Y0055286D01*
X0156511Y0055369D01*
X0156521Y0055452D01*
X0156535Y0055535D01*
X0156552Y0055617D01*
X0156574Y0055698D01*
X0156599Y0055777D01*
X0156628Y0055856D01*
X0156661Y0055933D01*
X0156697Y0056008D01*
X0156737Y0056082D01*
X0156780Y0056154D01*
X0156827Y0056223D01*
X0156877Y0056290D01*
X0156930Y0056355D01*
X0156986Y0056417D01*
X0157044Y0056477D01*
X0157106Y0056534D01*
X0157170Y0056587D01*
X0157237Y0056638D01*
X0157306Y0056685D01*
X0157377Y0056730D01*
X0157450Y0056770D01*
X0157525Y0056807D01*
X0157602Y0056841D01*
X0157680Y0056871D01*
X0157759Y0056897D01*
X0157840Y0056920D01*
X0157922Y0056938D01*
X0158004Y0056953D01*
X0158087Y0056964D01*
X0158170Y0056971D01*
X0158254Y0056974D01*
X0158338Y0056973D01*
X0158421Y0056968D01*
X0158505Y0056959D01*
X0158587Y0056946D01*
X0158669Y0056930D01*
X0158750Y0056909D01*
X0158831Y0056885D01*
X0158909Y0056857D01*
X0158987Y0056825D01*
X0159063Y0056789D01*
X0159137Y0056750D01*
X0159209Y0056708D01*
X0159279Y0056662D01*
X0159347Y0056613D01*
X0159412Y0056561D01*
X0159475Y0056506D01*
X0159535Y0056448D01*
X0159593Y0056387D01*
X0159647Y0056323D01*
X0159699Y0056257D01*
X0159747Y0056189D01*
X0159792Y0056118D01*
X0159833Y0056045D01*
X0159872Y0055971D01*
X0159906Y0055895D01*
X0159937Y0055817D01*
X0159964Y0055738D01*
X0159988Y0055657D01*
X0160007Y0055576D01*
X0160023Y0055494D01*
X0160035Y0055411D01*
X0160043Y0055327D01*
X0160047Y0055244D01*
X0160047Y0055160D01*
X0160043Y0055077D01*
X0160035Y0054993D01*
X0160023Y0054910D01*
X0160007Y0054828D01*
X0159988Y0054747D01*
X0159964Y0054666D01*
X0159937Y0054587D01*
X0159906Y0054509D01*
X0159872Y0054433D01*
X0159833Y0054359D01*
X0159792Y0054286D01*
X0159747Y0054215D01*
X0159699Y0054147D01*
X0159647Y0054081D01*
X0159593Y0054017D01*
X0159535Y0053956D01*
X0159475Y0053898D01*
X0159412Y0053843D01*
X0159347Y0053791D01*
X0159279Y0053742D01*
X0159209Y0053696D01*
X0159137Y0053654D01*
X0159063Y0053615D01*
X0158987Y0053579D01*
X0158909Y0053547D01*
X0158831Y0053519D01*
X0158750Y0053495D01*
X0158669Y0053474D01*
X0158587Y0053458D01*
X0158505Y0053445D01*
X0158421Y0053436D01*
X0158338Y0053431D01*
X0158254Y0053430D01*
X0158170Y0053433D01*
X0158087Y0053440D01*
X0158004Y0053451D01*
X0157922Y0053466D01*
X0157840Y0053484D01*
X0157759Y0053507D01*
X0157680Y0053533D01*
X0157602Y0053563D01*
X0157525Y0053597D01*
X0157450Y0053634D01*
X0157377Y0053674D01*
X0157306Y0053719D01*
X0157237Y0053766D01*
X0157170Y0053817D01*
X0157106Y0053870D01*
X0157044Y0053927D01*
X0156986Y0053987D01*
X0156930Y0054049D01*
X0156877Y0054114D01*
X0156827Y0054181D01*
X0156780Y0054250D01*
X0156737Y0054322D01*
X0156697Y0054396D01*
X0156661Y0054471D01*
X0156628Y0054548D01*
X0156599Y0054627D01*
X0156574Y0054706D01*
X0156552Y0054787D01*
X0156535Y0054869D01*
X0156521Y0054952D01*
X0156511Y0055035D01*
X0156505Y0055118D01*
X0156503Y0055202D01*
X0156503Y0056974D02*
X0156505Y0057058D01*
X0156511Y0057141D01*
X0156521Y0057224D01*
X0156535Y0057307D01*
X0156552Y0057389D01*
X0156574Y0057470D01*
X0156599Y0057549D01*
X0156628Y0057628D01*
X0156661Y0057705D01*
X0156697Y0057780D01*
X0156737Y0057854D01*
X0156780Y0057926D01*
X0156827Y0057995D01*
X0156877Y0058062D01*
X0156930Y0058127D01*
X0156986Y0058189D01*
X0157044Y0058249D01*
X0157106Y0058306D01*
X0157170Y0058359D01*
X0157237Y0058410D01*
X0157306Y0058457D01*
X0157377Y0058502D01*
X0157450Y0058542D01*
X0157525Y0058579D01*
X0157602Y0058613D01*
X0157680Y0058643D01*
X0157759Y0058669D01*
X0157840Y0058692D01*
X0157922Y0058710D01*
X0158004Y0058725D01*
X0158087Y0058736D01*
X0158170Y0058743D01*
X0158254Y0058746D01*
X0158338Y0058745D01*
X0158421Y0058740D01*
X0158505Y0058731D01*
X0158587Y0058718D01*
X0158669Y0058702D01*
X0158750Y0058681D01*
X0158831Y0058657D01*
X0158909Y0058629D01*
X0158987Y0058597D01*
X0159063Y0058561D01*
X0159137Y0058522D01*
X0159209Y0058480D01*
X0159279Y0058434D01*
X0159347Y0058385D01*
X0159412Y0058333D01*
X0159475Y0058278D01*
X0159535Y0058220D01*
X0159593Y0058159D01*
X0159647Y0058095D01*
X0159699Y0058029D01*
X0159747Y0057961D01*
X0159792Y0057890D01*
X0159833Y0057817D01*
X0159872Y0057743D01*
X0159906Y0057667D01*
X0159937Y0057589D01*
X0159964Y0057510D01*
X0159988Y0057429D01*
X0160007Y0057348D01*
X0160023Y0057266D01*
X0160035Y0057183D01*
X0160043Y0057099D01*
X0160047Y0057016D01*
X0160047Y0056932D01*
X0160043Y0056849D01*
X0160035Y0056765D01*
X0160023Y0056682D01*
X0160007Y0056600D01*
X0159988Y0056519D01*
X0159964Y0056438D01*
X0159937Y0056359D01*
X0159906Y0056281D01*
X0159872Y0056205D01*
X0159833Y0056131D01*
X0159792Y0056058D01*
X0159747Y0055987D01*
X0159699Y0055919D01*
X0159647Y0055853D01*
X0159593Y0055789D01*
X0159535Y0055728D01*
X0159475Y0055670D01*
X0159412Y0055615D01*
X0159347Y0055563D01*
X0159279Y0055514D01*
X0159209Y0055468D01*
X0159137Y0055426D01*
X0159063Y0055387D01*
X0158987Y0055351D01*
X0158909Y0055319D01*
X0158831Y0055291D01*
X0158750Y0055267D01*
X0158669Y0055246D01*
X0158587Y0055230D01*
X0158505Y0055217D01*
X0158421Y0055208D01*
X0158338Y0055203D01*
X0158254Y0055202D01*
X0158170Y0055205D01*
X0158087Y0055212D01*
X0158004Y0055223D01*
X0157922Y0055238D01*
X0157840Y0055256D01*
X0157759Y0055279D01*
X0157680Y0055305D01*
X0157602Y0055335D01*
X0157525Y0055369D01*
X0157450Y0055406D01*
X0157377Y0055446D01*
X0157306Y0055491D01*
X0157237Y0055538D01*
X0157170Y0055589D01*
X0157106Y0055642D01*
X0157044Y0055699D01*
X0156986Y0055759D01*
X0156930Y0055821D01*
X0156877Y0055886D01*
X0156827Y0055953D01*
X0156780Y0056022D01*
X0156737Y0056094D01*
X0156697Y0056168D01*
X0156661Y0056243D01*
X0156628Y0056320D01*
X0156599Y0056399D01*
X0156574Y0056478D01*
X0156552Y0056559D01*
X0156535Y0056641D01*
X0156521Y0056724D01*
X0156511Y0056807D01*
X0156505Y0056890D01*
X0156503Y0056974D01*
D18*
X0152231Y0054392D03*
X0145331Y0048592D03*
X0139531Y0048592D03*
X0133531Y0048592D03*
X0127731Y0048592D03*
X0121931Y0044823D03*
X0116231Y0048492D03*
X0113931Y0044923D03*
X0108731Y0048623D03*
X0106931Y0054492D03*
X0107531Y0060323D03*
X0112731Y0069223D03*
X0121631Y0066723D03*
X0121931Y0080623D03*
X0125831Y0080292D03*
X0130431Y0079723D03*
X0136331Y0079592D03*
X0142231Y0079623D03*
X0150031Y0079992D03*
X0154931Y0087923D03*
X0155731Y0093823D03*
X0153031Y0096623D03*
X0149031Y0094023D03*
X0143531Y0092423D03*
X0154131Y0108623D03*
X0150531Y0115523D03*
X0146831Y0112923D03*
X0140831Y0118592D03*
X0139731Y0121623D03*
X0133231Y0119492D03*
X0127531Y0119923D03*
X0121831Y0119492D03*
X0116630Y0118823D03*
X0108031Y0122123D03*
X0100931Y0112992D03*
X0097731Y0109223D03*
X0091431Y0103423D03*
X0082731Y0110692D03*
X0082531Y0105792D03*
X0080531Y0100692D03*
X0070731Y0090323D03*
X0070531Y0080723D03*
X0077231Y0075692D03*
X0084431Y0073992D03*
X0080562Y0066223D03*
X0071031Y0065592D03*
X0071831Y0060692D03*
X0072131Y0055592D03*
X0072031Y0050492D03*
X0071831Y0045492D03*
X0071931Y0040492D03*
X0080531Y0030723D03*
X0086931Y0031192D03*
X0107131Y0028992D03*
X0152631Y0029792D03*
X0152631Y0038923D03*
X0171531Y0057823D03*
X0178431Y0059123D03*
X0178431Y0077892D03*
X0175531Y0082723D03*
X0178531Y0085423D03*
X0180531Y0089992D03*
X0173331Y0089623D03*
X0167231Y0091892D03*
X0172331Y0101823D03*
X0174831Y0104323D03*
X0169731Y0107623D03*
X0167231Y0109892D03*
X0172531Y0110523D03*
X0172831Y0114623D03*
X0170931Y0118323D03*
X0167031Y0120692D03*
X0147231Y0120592D03*
X0148031Y0133223D03*
X0138531Y0137323D03*
X0136931Y0131923D03*
X0130331Y0132823D03*
X0122531Y0134323D03*
X0120131Y0137623D03*
X0123431Y0140523D03*
X0112231Y0141192D03*
X0121531Y0152723D03*
X0131131Y0160923D03*
X0123131Y0161723D03*
X0117631Y0161123D03*
X0112531Y0162523D03*
X0114131Y0167323D03*
X0107331Y0159723D03*
X0094531Y0165192D03*
X0082031Y0152523D03*
X0083231Y0144592D03*
X0068931Y0135623D03*
X0065331Y0125692D03*
X0065331Y0120692D03*
X0092431Y0125792D03*
X0067431Y0156923D03*
X0069731Y0178723D03*
X0080431Y0190623D03*
X0083331Y0193592D03*
X0106131Y0181292D03*
X0108431Y0192623D03*
X0107031Y0197192D03*
X0130231Y0192723D03*
X0155831Y0183823D03*
X0160731Y0171192D03*
X0160731Y0154492D03*
X0171131Y0143823D03*
X0178331Y0156423D03*
X0182931Y0156823D03*
X0156331Y0142323D03*
X0137431Y0146892D03*
X0102531Y0091992D03*
X0098731Y0089023D03*
X0122931Y0085123D03*
X0151131Y0067492D03*
X0151331Y0063992D03*
X0166931Y0079892D03*
X0194731Y0038223D03*
X0054831Y0037323D03*
X0194431Y0198423D03*
D19*
X0194429Y0201423D02*
X0194752Y0202204D01*
X0194752Y0204114D01*
X0194022Y0205878D01*
X0192671Y0207228D01*
X0190907Y0207959D01*
X0188998Y0207959D01*
X0187233Y0207228D01*
X0185883Y0205878D01*
X0185152Y0204114D01*
X0185152Y0202204D01*
X0185883Y0200440D01*
X0187233Y0199090D01*
X0188998Y0198359D01*
X0190907Y0198359D01*
X0191431Y0198576D01*
X0191431Y0197826D01*
X0191473Y0197724D01*
X0190907Y0197959D01*
X0188998Y0197959D01*
X0187233Y0197228D01*
X0185883Y0195878D01*
X0185152Y0194114D01*
X0185152Y0192204D01*
X0185883Y0190440D01*
X0187233Y0189090D01*
X0188998Y0188359D01*
X0190907Y0188359D01*
X0192671Y0189090D01*
X0194022Y0190440D01*
X0194752Y0192204D01*
X0194752Y0194114D01*
X0194210Y0195423D01*
X0195028Y0195423D01*
X0195833Y0195756D01*
X0195152Y0194114D01*
X0195152Y0192204D01*
X0195883Y0190440D01*
X0197233Y0189090D01*
X0198998Y0188359D01*
X0200907Y0188359D01*
X0202671Y0189090D01*
X0202731Y0189149D01*
X0202731Y0187168D01*
X0202671Y0187228D01*
X0200907Y0187959D01*
X0198998Y0187959D01*
X0197233Y0187228D01*
X0195883Y0185878D01*
X0195152Y0184114D01*
X0195152Y0182204D01*
X0195883Y0180440D01*
X0197233Y0179090D01*
X0198998Y0178359D01*
X0200907Y0178359D01*
X0202671Y0179090D01*
X0202731Y0179149D01*
X0202731Y0177168D01*
X0202671Y0177228D01*
X0200907Y0177959D01*
X0198998Y0177959D01*
X0197233Y0177228D01*
X0195883Y0175878D01*
X0195152Y0174114D01*
X0195152Y0172204D01*
X0195883Y0170440D01*
X0197233Y0169090D01*
X0198998Y0168359D01*
X0200907Y0168359D01*
X0202671Y0169090D01*
X0202731Y0169149D01*
X0202731Y0167168D01*
X0202671Y0167228D01*
X0200907Y0167959D01*
X0198998Y0167959D01*
X0197233Y0167228D01*
X0195883Y0165878D01*
X0195152Y0164114D01*
X0195152Y0162204D01*
X0195883Y0160440D01*
X0197233Y0159090D01*
X0198998Y0158359D01*
X0200907Y0158359D01*
X0202671Y0159090D01*
X0202731Y0159149D01*
X0202731Y0157168D01*
X0202671Y0157228D01*
X0200907Y0157959D01*
X0198998Y0157959D01*
X0197233Y0157228D01*
X0195883Y0155878D01*
X0195152Y0154114D01*
X0195152Y0152204D01*
X0195883Y0150440D01*
X0197233Y0149090D01*
X0198998Y0148359D01*
X0200907Y0148359D01*
X0202671Y0149090D01*
X0202731Y0149149D01*
X0202731Y0147168D01*
X0202671Y0147228D01*
X0200907Y0147959D01*
X0198998Y0147959D01*
X0197233Y0147228D01*
X0195883Y0145878D01*
X0195152Y0144114D01*
X0195152Y0142204D01*
X0195883Y0140440D01*
X0197233Y0139090D01*
X0198998Y0138359D01*
X0200907Y0138359D01*
X0202671Y0139090D01*
X0202731Y0139149D01*
X0202731Y0137168D01*
X0202671Y0137228D01*
X0200907Y0137959D01*
X0198998Y0137959D01*
X0197233Y0137228D01*
X0195883Y0135878D01*
X0195152Y0134114D01*
X0195152Y0132204D01*
X0195883Y0130440D01*
X0197233Y0129090D01*
X0198998Y0128359D01*
X0200907Y0128359D01*
X0202671Y0129090D01*
X0202731Y0129149D01*
X0202731Y0127168D01*
X0202671Y0127228D01*
X0200907Y0127959D01*
X0198998Y0127959D01*
X0197233Y0127228D01*
X0195883Y0125878D01*
X0195152Y0124114D01*
X0195152Y0122204D01*
X0195883Y0120440D01*
X0197233Y0119090D01*
X0198998Y0118359D01*
X0200907Y0118359D01*
X0202671Y0119090D01*
X0202731Y0119149D01*
X0202731Y0117073D01*
X0202468Y0117264D01*
X0201795Y0117607D01*
X0201076Y0117841D01*
X0200330Y0117959D01*
X0200152Y0117959D01*
X0200152Y0113359D01*
X0199752Y0113359D01*
X0199752Y0112959D01*
X0195152Y0112959D01*
X0195152Y0112781D01*
X0195271Y0112035D01*
X0195504Y0111316D01*
X0195847Y0110643D01*
X0196291Y0110032D01*
X0196825Y0109498D01*
X0197437Y0109053D01*
X0198110Y0108710D01*
X0198828Y0108477D01*
X0199575Y0108359D01*
X0199752Y0108359D01*
X0199752Y0112959D01*
X0200152Y0112959D01*
X0200152Y0108359D01*
X0200330Y0108359D01*
X0201076Y0108477D01*
X0201795Y0108710D01*
X0202468Y0109053D01*
X0202731Y0109245D01*
X0202731Y0107168D01*
X0202671Y0107228D01*
X0200907Y0107959D01*
X0198998Y0107959D01*
X0197233Y0107228D01*
X0195883Y0105878D01*
X0195152Y0104114D01*
X0195152Y0102204D01*
X0195883Y0100440D01*
X0197233Y0099090D01*
X0198998Y0098359D01*
X0200907Y0098359D01*
X0202671Y0099090D01*
X0202731Y0099149D01*
X0202731Y0097168D01*
X0202671Y0097228D01*
X0200907Y0097959D01*
X0198998Y0097959D01*
X0197233Y0097228D01*
X0195883Y0095878D01*
X0195152Y0094114D01*
X0195152Y0092204D01*
X0195883Y0090440D01*
X0197233Y0089090D01*
X0198998Y0088359D01*
X0200907Y0088359D01*
X0202671Y0089090D01*
X0202731Y0089149D01*
X0202731Y0087168D01*
X0202671Y0087228D01*
X0200907Y0087959D01*
X0198998Y0087959D01*
X0197233Y0087228D01*
X0195883Y0085878D01*
X0195152Y0084114D01*
X0195152Y0082204D01*
X0195883Y0080440D01*
X0197233Y0079090D01*
X0198998Y0078359D01*
X0200907Y0078359D01*
X0202671Y0079090D01*
X0202731Y0079149D01*
X0202731Y0077168D01*
X0202671Y0077228D01*
X0200907Y0077959D01*
X0198998Y0077959D01*
X0197233Y0077228D01*
X0195883Y0075878D01*
X0195152Y0074114D01*
X0195152Y0072204D01*
X0195883Y0070440D01*
X0197233Y0069090D01*
X0198998Y0068359D01*
X0200907Y0068359D01*
X0202671Y0069090D01*
X0202731Y0069149D01*
X0202731Y0067168D01*
X0202671Y0067228D01*
X0200907Y0067959D01*
X0198998Y0067959D01*
X0197233Y0067228D01*
X0195883Y0065878D01*
X0195152Y0064114D01*
X0195152Y0062204D01*
X0195883Y0060440D01*
X0197233Y0059090D01*
X0198998Y0058359D01*
X0200907Y0058359D01*
X0202671Y0059090D01*
X0202731Y0059149D01*
X0202731Y0057168D01*
X0202671Y0057228D01*
X0200907Y0057959D01*
X0198998Y0057959D01*
X0197233Y0057228D01*
X0195883Y0055878D01*
X0195152Y0054114D01*
X0195152Y0052204D01*
X0195883Y0050440D01*
X0197233Y0049090D01*
X0198998Y0048359D01*
X0200907Y0048359D01*
X0202671Y0049090D01*
X0202731Y0049149D01*
X0202731Y0047168D01*
X0202671Y0047228D01*
X0200907Y0047959D01*
X0198998Y0047959D01*
X0197233Y0047228D01*
X0195883Y0045878D01*
X0195152Y0044114D01*
X0195152Y0042204D01*
X0195607Y0041107D01*
X0195328Y0041223D01*
X0194346Y0041223D01*
X0194752Y0042204D01*
X0194752Y0044114D01*
X0194022Y0045878D01*
X0192671Y0047228D01*
X0190907Y0047959D01*
X0188998Y0047959D01*
X0187233Y0047228D01*
X0185883Y0045878D01*
X0185152Y0044114D01*
X0185152Y0042204D01*
X0185883Y0040440D01*
X0187233Y0039090D01*
X0188998Y0038359D01*
X0190907Y0038359D01*
X0191731Y0038700D01*
X0191731Y0037626D01*
X0191735Y0037616D01*
X0190907Y0037959D01*
X0188998Y0037959D01*
X0187233Y0037228D01*
X0185883Y0035878D01*
X0185152Y0034114D01*
X0185152Y0032204D01*
X0185883Y0030440D01*
X0187233Y0029090D01*
X0188998Y0028359D01*
X0190907Y0028359D01*
X0192671Y0029090D01*
X0194022Y0030440D01*
X0194752Y0032204D01*
X0194752Y0034114D01*
X0194293Y0035223D01*
X0195328Y0035223D01*
X0195671Y0035365D01*
X0195152Y0034114D01*
X0195152Y0032204D01*
X0195883Y0030440D01*
X0197233Y0029090D01*
X0198998Y0028359D01*
X0200907Y0028359D01*
X0202671Y0029090D01*
X0202731Y0029149D01*
X0202731Y0027073D01*
X0202468Y0027264D01*
X0201795Y0027607D01*
X0201076Y0027841D01*
X0200330Y0027959D01*
X0200152Y0027959D01*
X0200152Y0023359D01*
X0199752Y0023359D01*
X0199752Y0023223D01*
X0190153Y0023223D01*
X0190153Y0023359D01*
X0194752Y0023359D01*
X0194752Y0023537D01*
X0194634Y0024283D01*
X0194401Y0025001D01*
X0194058Y0025675D01*
X0193614Y0026286D01*
X0193079Y0026820D01*
X0192468Y0027264D01*
X0191795Y0027607D01*
X0191076Y0027841D01*
X0190330Y0027959D01*
X0190152Y0027959D01*
X0190152Y0023359D01*
X0189752Y0023359D01*
X0189752Y0023223D01*
X0159549Y0023223D01*
X0160864Y0023767D01*
X0162150Y0025053D01*
X0162846Y0026734D01*
X0162846Y0030324D01*
X0162734Y0030596D01*
X0162846Y0030868D01*
X0162846Y0034458D01*
X0162150Y0036138D01*
X0160864Y0037424D01*
X0159184Y0038120D01*
X0157365Y0038120D01*
X0155685Y0037424D01*
X0154399Y0036138D01*
X0153703Y0034458D01*
X0153703Y0030868D01*
X0153815Y0030596D01*
X0153703Y0030324D01*
X0153703Y0026734D01*
X0154399Y0025053D01*
X0155685Y0023767D01*
X0157000Y0023223D01*
X0102462Y0023223D01*
X0103778Y0023767D01*
X0105064Y0025053D01*
X0105760Y0026734D01*
X0105760Y0030324D01*
X0105647Y0030596D01*
X0105760Y0030868D01*
X0105760Y0034458D01*
X0105064Y0036138D01*
X0103778Y0037424D01*
X0102097Y0038120D01*
X0100279Y0038120D01*
X0098598Y0037424D01*
X0097312Y0036138D01*
X0096616Y0034458D01*
X0096616Y0030868D01*
X0096729Y0030596D01*
X0096616Y0030324D01*
X0096616Y0026734D01*
X0097312Y0025053D01*
X0098598Y0023767D01*
X0099914Y0023223D01*
X0064752Y0023223D01*
X0064752Y0024114D01*
X0064022Y0025878D01*
X0062671Y0027228D01*
X0060907Y0027959D01*
X0058998Y0027959D01*
X0057233Y0027228D01*
X0055883Y0025878D01*
X0055152Y0024114D01*
X0055152Y0023223D01*
X0050153Y0023223D01*
X0050153Y0023359D01*
X0054752Y0023359D01*
X0054752Y0023537D01*
X0054634Y0024283D01*
X0054401Y0025001D01*
X0054058Y0025675D01*
X0053614Y0026286D01*
X0053079Y0026820D01*
X0052468Y0027264D01*
X0051795Y0027607D01*
X0051076Y0027841D01*
X0050330Y0027959D01*
X0050152Y0027959D01*
X0050152Y0023359D01*
X0049752Y0023359D01*
X0049752Y0023223D01*
X0048331Y0023223D01*
X0048331Y0023359D01*
X0049752Y0023359D01*
X0049752Y0027959D01*
X0049575Y0027959D01*
X0048828Y0027841D01*
X0048331Y0027679D01*
X0048331Y0028635D01*
X0048998Y0028359D01*
X0050907Y0028359D01*
X0052671Y0029090D01*
X0054022Y0030440D01*
X0054752Y0032204D01*
X0054752Y0034114D01*
X0054666Y0034323D01*
X0055239Y0034323D01*
X0055152Y0034114D01*
X0055152Y0032204D01*
X0055883Y0030440D01*
X0057233Y0029090D01*
X0058998Y0028359D01*
X0060907Y0028359D01*
X0062671Y0029090D01*
X0064022Y0030440D01*
X0064752Y0032204D01*
X0064752Y0034114D01*
X0064022Y0035878D01*
X0062671Y0037228D01*
X0060907Y0037959D01*
X0058998Y0037959D01*
X0057831Y0037476D01*
X0057831Y0037919D01*
X0057374Y0039022D01*
X0057359Y0039038D01*
X0058998Y0038359D01*
X0060907Y0038359D01*
X0062671Y0039090D01*
X0064022Y0040440D01*
X0064752Y0042204D01*
X0064752Y0044114D01*
X0064022Y0045878D01*
X0062671Y0047228D01*
X0060907Y0047959D01*
X0058998Y0047959D01*
X0057233Y0047228D01*
X0055883Y0045878D01*
X0055152Y0044114D01*
X0055152Y0042204D01*
X0055883Y0040440D01*
X0056405Y0039918D01*
X0055428Y0040323D01*
X0054234Y0040323D01*
X0053671Y0040089D01*
X0054022Y0040440D01*
X0054752Y0042204D01*
X0054752Y0044114D01*
X0054022Y0045878D01*
X0052671Y0047228D01*
X0050907Y0047959D01*
X0048998Y0047959D01*
X0048331Y0047683D01*
X0048331Y0048635D01*
X0048998Y0048359D01*
X0050907Y0048359D01*
X0052671Y0049090D01*
X0054022Y0050440D01*
X0054752Y0052204D01*
X0054752Y0054114D01*
X0054022Y0055878D01*
X0052671Y0057228D01*
X0050907Y0057959D01*
X0048998Y0057959D01*
X0048331Y0057683D01*
X0048331Y0058635D01*
X0048998Y0058359D01*
X0050907Y0058359D01*
X0052671Y0059090D01*
X0054022Y0060440D01*
X0054752Y0062204D01*
X0054752Y0064114D01*
X0054022Y0065878D01*
X0052671Y0067228D01*
X0050907Y0067959D01*
X0048998Y0067959D01*
X0048331Y0067683D01*
X0048331Y0068635D01*
X0048998Y0068359D01*
X0050907Y0068359D01*
X0052671Y0069090D01*
X0054022Y0070440D01*
X0054752Y0072204D01*
X0054752Y0074114D01*
X0054022Y0075878D01*
X0052671Y0077228D01*
X0050907Y0077959D01*
X0048998Y0077959D01*
X0048331Y0077683D01*
X0048331Y0078635D01*
X0048998Y0078359D01*
X0050907Y0078359D01*
X0052671Y0079090D01*
X0054022Y0080440D01*
X0054752Y0082204D01*
X0054752Y0084114D01*
X0054022Y0085878D01*
X0052671Y0087228D01*
X0050907Y0087959D01*
X0048998Y0087959D01*
X0048331Y0087683D01*
X0048331Y0088635D01*
X0048998Y0088359D01*
X0050907Y0088359D01*
X0052671Y0089090D01*
X0054022Y0090440D01*
X0054752Y0092204D01*
X0054752Y0094114D01*
X0054022Y0095878D01*
X0052671Y0097228D01*
X0050907Y0097959D01*
X0048998Y0097959D01*
X0048331Y0097683D01*
X0048331Y0098635D01*
X0048998Y0098359D01*
X0050907Y0098359D01*
X0052671Y0099090D01*
X0054022Y0100440D01*
X0054752Y0102204D01*
X0054752Y0104114D01*
X0054022Y0105878D01*
X0052671Y0107228D01*
X0050907Y0107959D01*
X0048998Y0107959D01*
X0048331Y0107683D01*
X0048331Y0108635D01*
X0048998Y0108359D01*
X0050907Y0108359D01*
X0052671Y0109090D01*
X0054022Y0110440D01*
X0054752Y0112204D01*
X0054752Y0114114D01*
X0054022Y0115878D01*
X0052671Y0117228D01*
X0050907Y0117959D01*
X0048998Y0117959D01*
X0048331Y0117683D01*
X0048331Y0118635D01*
X0048998Y0118359D01*
X0050907Y0118359D01*
X0052671Y0119090D01*
X0054022Y0120440D01*
X0054752Y0122204D01*
X0054752Y0124114D01*
X0054022Y0125878D01*
X0052671Y0127228D01*
X0050907Y0127959D01*
X0048998Y0127959D01*
X0048331Y0127683D01*
X0048331Y0128635D01*
X0048998Y0128359D01*
X0050907Y0128359D01*
X0052671Y0129090D01*
X0054022Y0130440D01*
X0054752Y0132204D01*
X0054752Y0134114D01*
X0054022Y0135878D01*
X0052671Y0137228D01*
X0050907Y0137959D01*
X0048998Y0137959D01*
X0048331Y0137683D01*
X0048331Y0138635D01*
X0048998Y0138359D01*
X0050907Y0138359D01*
X0052671Y0139090D01*
X0054022Y0140440D01*
X0054752Y0142204D01*
X0054752Y0144114D01*
X0054022Y0145878D01*
X0052671Y0147228D01*
X0050907Y0147959D01*
X0048998Y0147959D01*
X0048331Y0147683D01*
X0048331Y0148635D01*
X0048998Y0148359D01*
X0050907Y0148359D01*
X0052671Y0149090D01*
X0054022Y0150440D01*
X0054752Y0152204D01*
X0054752Y0154114D01*
X0054022Y0155878D01*
X0052671Y0157228D01*
X0050907Y0157959D01*
X0048998Y0157959D01*
X0048331Y0157683D01*
X0048331Y0158635D01*
X0048998Y0158359D01*
X0050907Y0158359D01*
X0052671Y0159090D01*
X0054022Y0160440D01*
X0054752Y0162204D01*
X0054752Y0164114D01*
X0054022Y0165878D01*
X0052671Y0167228D01*
X0050907Y0167959D01*
X0048998Y0167959D01*
X0048331Y0167683D01*
X0048331Y0168635D01*
X0048998Y0168359D01*
X0050907Y0168359D01*
X0052671Y0169090D01*
X0054022Y0170440D01*
X0054752Y0172204D01*
X0054752Y0174114D01*
X0054022Y0175878D01*
X0052671Y0177228D01*
X0050907Y0177959D01*
X0048998Y0177959D01*
X0048331Y0177683D01*
X0048331Y0178635D01*
X0048998Y0178359D01*
X0050907Y0178359D01*
X0052671Y0179090D01*
X0054022Y0180440D01*
X0054752Y0182204D01*
X0054752Y0184114D01*
X0054022Y0185878D01*
X0052671Y0187228D01*
X0050907Y0187959D01*
X0048998Y0187959D01*
X0048331Y0187683D01*
X0048331Y0188635D01*
X0048998Y0188359D01*
X0050907Y0188359D01*
X0052671Y0189090D01*
X0054022Y0190440D01*
X0054752Y0192204D01*
X0054752Y0194114D01*
X0054022Y0195878D01*
X0052671Y0197228D01*
X0050907Y0197959D01*
X0048998Y0197959D01*
X0048331Y0197683D01*
X0048331Y0198635D01*
X0048998Y0198359D01*
X0050907Y0198359D01*
X0052671Y0199090D01*
X0054022Y0200440D01*
X0054752Y0202204D01*
X0054752Y0204114D01*
X0054022Y0205878D01*
X0052671Y0207228D01*
X0050907Y0207959D01*
X0048998Y0207959D01*
X0048331Y0207683D01*
X0048331Y0208639D01*
X0048828Y0208477D01*
X0049575Y0208359D01*
X0049752Y0208359D01*
X0049752Y0212959D01*
X0050152Y0212959D01*
X0050152Y0208359D01*
X0050330Y0208359D01*
X0051076Y0208477D01*
X0051795Y0208710D01*
X0052468Y0209053D01*
X0053079Y0209498D01*
X0053614Y0210032D01*
X0054058Y0210643D01*
X0054401Y0211316D01*
X0054634Y0212035D01*
X0054752Y0212781D01*
X0054752Y0212959D01*
X0050153Y0212959D01*
X0050153Y0213359D01*
X0054752Y0213359D01*
X0054752Y0213373D01*
X0055152Y0213373D01*
X0055152Y0212204D01*
X0055883Y0210440D01*
X0057233Y0209090D01*
X0058998Y0208359D01*
X0060907Y0208359D01*
X0062671Y0209090D01*
X0064022Y0210440D01*
X0064752Y0212204D01*
X0064752Y0213373D01*
X0067033Y0213373D01*
X0066737Y0212791D01*
X0066484Y0212013D01*
X0066356Y0211205D01*
X0066356Y0211128D01*
X0071220Y0211128D01*
X0071220Y0210465D01*
X0066356Y0210465D01*
X0066356Y0210388D01*
X0066484Y0209580D01*
X0066737Y0208802D01*
X0067108Y0208073D01*
X0067589Y0207412D01*
X0068167Y0206834D01*
X0068829Y0206353D01*
X0069557Y0205982D01*
X0070335Y0205729D01*
X0071143Y0205601D01*
X0071220Y0205601D01*
X0071220Y0210465D01*
X0071884Y0210465D01*
X0071884Y0211128D01*
X0076747Y0211128D01*
X0076747Y0211205D01*
X0076619Y0212013D01*
X0076367Y0212791D01*
X0076070Y0213373D01*
X0094592Y0213373D01*
X0094296Y0212791D01*
X0094043Y0212013D01*
X0093915Y0211205D01*
X0093915Y0211128D01*
X0098779Y0211128D01*
X0098779Y0210465D01*
X0093915Y0210465D01*
X0093915Y0210388D01*
X0094043Y0209580D01*
X0094296Y0208802D01*
X0094667Y0208073D01*
X0095148Y0207412D01*
X0095726Y0206834D01*
X0096388Y0206353D01*
X0097116Y0205982D01*
X0097894Y0205729D01*
X0098702Y0205601D01*
X0098779Y0205601D01*
X0098779Y0210465D01*
X0099443Y0210465D01*
X0099443Y0211128D01*
X0104306Y0211128D01*
X0104306Y0211205D01*
X0104178Y0212013D01*
X0103926Y0212791D01*
X0103629Y0213373D01*
X0106233Y0213373D01*
X0105937Y0212791D01*
X0105684Y0212013D01*
X0105556Y0211205D01*
X0105556Y0211128D01*
X0110420Y0211128D01*
X0110420Y0210465D01*
X0105556Y0210465D01*
X0105556Y0210388D01*
X0105684Y0209580D01*
X0105937Y0208802D01*
X0106308Y0208073D01*
X0106789Y0207412D01*
X0107367Y0206834D01*
X0108029Y0206353D01*
X0108757Y0205982D01*
X0109535Y0205729D01*
X0110343Y0205601D01*
X0110420Y0205601D01*
X0110420Y0210465D01*
X0111084Y0210465D01*
X0111084Y0211128D01*
X0115947Y0211128D01*
X0115947Y0211205D01*
X0115819Y0212013D01*
X0115567Y0212791D01*
X0115270Y0213373D01*
X0133792Y0213373D01*
X0133496Y0212791D01*
X0133243Y0212013D01*
X0133115Y0211205D01*
X0133115Y0211128D01*
X0137979Y0211128D01*
X0137979Y0210465D01*
X0133115Y0210465D01*
X0133115Y0210388D01*
X0133243Y0209580D01*
X0133496Y0208802D01*
X0133867Y0208073D01*
X0134348Y0207412D01*
X0134926Y0206834D01*
X0135588Y0206353D01*
X0136316Y0205982D01*
X0137094Y0205729D01*
X0137902Y0205601D01*
X0137979Y0205601D01*
X0137979Y0210465D01*
X0138643Y0210465D01*
X0138643Y0211128D01*
X0143506Y0211128D01*
X0143506Y0211205D01*
X0143378Y0212013D01*
X0143126Y0212791D01*
X0142829Y0213373D01*
X0185152Y0213373D01*
X0185152Y0213359D01*
X0189752Y0213359D01*
X0189752Y0212959D01*
X0185152Y0212959D01*
X0185152Y0212781D01*
X0185271Y0212035D01*
X0185504Y0211316D01*
X0185847Y0210643D01*
X0186291Y0210032D01*
X0186825Y0209498D01*
X0187437Y0209053D01*
X0188110Y0208710D01*
X0188828Y0208477D01*
X0189575Y0208359D01*
X0189752Y0208359D01*
X0189752Y0212959D01*
X0190152Y0212959D01*
X0190152Y0208359D01*
X0190330Y0208359D01*
X0191076Y0208477D01*
X0191795Y0208710D01*
X0192468Y0209053D01*
X0193079Y0209498D01*
X0193614Y0210032D01*
X0194058Y0210643D01*
X0194401Y0211316D01*
X0194634Y0212035D01*
X0194752Y0212781D01*
X0194752Y0212959D01*
X0190153Y0212959D01*
X0190153Y0213359D01*
X0194752Y0213359D01*
X0194752Y0213373D01*
X0195152Y0213373D01*
X0195152Y0212204D01*
X0195883Y0210440D01*
X0197233Y0209090D01*
X0198998Y0208359D01*
X0200907Y0208359D01*
X0202671Y0209090D01*
X0202731Y0209149D01*
X0202731Y0207168D01*
X0202671Y0207228D01*
X0200907Y0207959D01*
X0198998Y0207959D01*
X0197233Y0207228D01*
X0195883Y0205878D01*
X0195152Y0204114D01*
X0195152Y0202204D01*
X0195569Y0201198D01*
X0195028Y0201423D01*
X0194429Y0201423D01*
X0194731Y0202153D02*
X0195174Y0202153D01*
X0195152Y0203751D02*
X0194752Y0203751D01*
X0194240Y0205350D02*
X0195665Y0205350D01*
X0196954Y0206948D02*
X0192951Y0206948D01*
X0191292Y0208547D02*
X0198544Y0208547D01*
X0201361Y0208547D02*
X0202731Y0208547D01*
X0196178Y0210145D02*
X0193696Y0210145D01*
X0194540Y0211744D02*
X0195343Y0211744D01*
X0195152Y0213342D02*
X0190153Y0213342D01*
X0189752Y0213342D02*
X0142845Y0213342D01*
X0143421Y0211744D02*
X0150335Y0211744D01*
X0150346Y0211755D02*
X0148742Y0210151D01*
X0147875Y0208056D01*
X0147875Y0205789D01*
X0148742Y0203694D01*
X0150346Y0202090D01*
X0152441Y0201223D01*
X0154708Y0201223D01*
X0156803Y0202090D01*
X0158407Y0203694D01*
X0159274Y0205789D01*
X0159274Y0208056D01*
X0158407Y0210151D01*
X0156803Y0211755D01*
X0154708Y0212623D01*
X0152441Y0212623D01*
X0150346Y0211755D01*
X0148740Y0210145D02*
X0143468Y0210145D01*
X0143506Y0210388D02*
X0143506Y0210465D01*
X0138643Y0210465D01*
X0138643Y0205601D01*
X0138720Y0205601D01*
X0139527Y0205729D01*
X0140305Y0205982D01*
X0141034Y0206353D01*
X0141695Y0206834D01*
X0142274Y0207412D01*
X0142754Y0208073D01*
X0143126Y0208802D01*
X0143378Y0209580D01*
X0143506Y0210388D01*
X0142996Y0208547D02*
X0148078Y0208547D01*
X0147875Y0206948D02*
X0141810Y0206948D01*
X0138643Y0206948D02*
X0137979Y0206948D01*
X0137979Y0208547D02*
X0138643Y0208547D01*
X0138643Y0210145D02*
X0137979Y0210145D01*
X0134811Y0206948D02*
X0114251Y0206948D01*
X0114136Y0206834D02*
X0114715Y0207412D01*
X0115195Y0208073D01*
X0115567Y0208802D01*
X0115819Y0209580D01*
X0115947Y0210388D01*
X0115947Y0210465D01*
X0111084Y0210465D01*
X0111084Y0205601D01*
X0111161Y0205601D01*
X0111968Y0205729D01*
X0112746Y0205982D01*
X0113475Y0206353D01*
X0114136Y0206834D01*
X0113831Y0204772D02*
X0112247Y0204116D01*
X0111035Y0202903D01*
X0110379Y0201319D01*
X0110379Y0199605D01*
X0111035Y0198021D01*
X0112247Y0196808D01*
X0113831Y0196152D01*
X0115546Y0196152D01*
X0117130Y0196808D01*
X0118342Y0198021D01*
X0118999Y0199605D01*
X0118999Y0201319D01*
X0118342Y0202903D01*
X0117130Y0204116D01*
X0115546Y0204772D01*
X0113831Y0204772D01*
X0111883Y0203751D02*
X0097979Y0203751D01*
X0097615Y0204116D02*
X0098827Y0202903D01*
X0099484Y0201319D01*
X0099484Y0199605D01*
X0098827Y0198021D01*
X0097615Y0196808D01*
X0096031Y0196152D01*
X0094316Y0196152D01*
X0092732Y0196808D01*
X0091520Y0198021D01*
X0090864Y0199605D01*
X0090864Y0201319D01*
X0091520Y0202903D01*
X0092732Y0204116D01*
X0094316Y0204772D01*
X0096031Y0204772D01*
X0097615Y0204116D01*
X0099443Y0205601D02*
X0099520Y0205601D01*
X0100327Y0205729D01*
X0101105Y0205982D01*
X0101834Y0206353D01*
X0102495Y0206834D01*
X0103074Y0207412D01*
X0103554Y0208073D01*
X0103926Y0208802D01*
X0104178Y0209580D01*
X0104306Y0210388D01*
X0104306Y0210465D01*
X0099443Y0210465D01*
X0099443Y0205601D01*
X0099443Y0206948D02*
X0098779Y0206948D01*
X0098779Y0208547D02*
X0099443Y0208547D01*
X0099443Y0210145D02*
X0098779Y0210145D01*
X0095611Y0206948D02*
X0075051Y0206948D01*
X0074936Y0206834D02*
X0075515Y0207412D01*
X0075995Y0208073D01*
X0076367Y0208802D01*
X0076619Y0209580D01*
X0076747Y0210388D01*
X0076747Y0210465D01*
X0071884Y0210465D01*
X0071884Y0205601D01*
X0071961Y0205601D01*
X0072768Y0205729D01*
X0073546Y0205982D01*
X0074275Y0206353D01*
X0074936Y0206834D01*
X0074631Y0204772D02*
X0073047Y0204116D01*
X0071835Y0202903D01*
X0071179Y0201319D01*
X0071179Y0199605D01*
X0071835Y0198021D01*
X0073047Y0196808D01*
X0074631Y0196152D01*
X0076346Y0196152D01*
X0077930Y0196808D01*
X0079142Y0198021D01*
X0079799Y0199605D01*
X0079799Y0201319D01*
X0079142Y0202903D01*
X0077930Y0204116D01*
X0076346Y0204772D01*
X0074631Y0204772D01*
X0072683Y0203751D02*
X0064718Y0203751D01*
X0064752Y0203537D02*
X0064634Y0204283D01*
X0064401Y0205001D01*
X0064058Y0205675D01*
X0063614Y0206286D01*
X0063079Y0206820D01*
X0062468Y0207264D01*
X0061795Y0207607D01*
X0061076Y0207841D01*
X0060330Y0207959D01*
X0060152Y0207959D01*
X0060152Y0203359D01*
X0059752Y0203359D01*
X0059752Y0202959D01*
X0055152Y0202959D01*
X0055152Y0202781D01*
X0055271Y0202035D01*
X0055504Y0201316D01*
X0055847Y0200643D01*
X0056291Y0200032D01*
X0056825Y0199498D01*
X0057437Y0199053D01*
X0058110Y0198710D01*
X0058828Y0198477D01*
X0059575Y0198359D01*
X0059752Y0198359D01*
X0059752Y0202959D01*
X0060152Y0202959D01*
X0060152Y0198359D01*
X0060330Y0198359D01*
X0061076Y0198477D01*
X0061795Y0198710D01*
X0062468Y0199053D01*
X0063079Y0199498D01*
X0063614Y0200032D01*
X0064058Y0200643D01*
X0064401Y0201316D01*
X0064634Y0202035D01*
X0064752Y0202781D01*
X0064752Y0202959D01*
X0060153Y0202959D01*
X0060153Y0203359D01*
X0064752Y0203359D01*
X0064752Y0203537D01*
X0064653Y0202153D02*
X0071524Y0202153D01*
X0071179Y0200554D02*
X0063993Y0200554D01*
X0062277Y0198956D02*
X0071448Y0198956D01*
X0072498Y0197357D02*
X0062359Y0197357D01*
X0062671Y0197228D02*
X0060907Y0197959D01*
X0058998Y0197959D01*
X0057233Y0197228D01*
X0055883Y0195878D01*
X0055152Y0194114D01*
X0055152Y0192204D01*
X0055883Y0190440D01*
X0057233Y0189090D01*
X0058998Y0188359D01*
X0060907Y0188359D01*
X0062671Y0189090D01*
X0064022Y0190440D01*
X0064752Y0192204D01*
X0064752Y0194114D01*
X0064022Y0195878D01*
X0062671Y0197228D01*
X0064071Y0195759D02*
X0185834Y0195759D01*
X0185172Y0194160D02*
X0132883Y0194160D01*
X0132774Y0194422D02*
X0131931Y0195266D01*
X0130828Y0195723D01*
X0129634Y0195723D01*
X0128532Y0195266D01*
X0127688Y0194422D01*
X0127231Y0193319D01*
X0127231Y0192126D01*
X0127688Y0191023D01*
X0128532Y0190179D01*
X0129634Y0189723D01*
X0130828Y0189723D01*
X0131931Y0190179D01*
X0132774Y0191023D01*
X0133231Y0192126D01*
X0133231Y0193319D01*
X0132774Y0194422D01*
X0133516Y0196152D02*
X0135231Y0196152D01*
X0136815Y0196808D01*
X0138027Y0198021D01*
X0138684Y0199605D01*
X0138684Y0201319D01*
X0138027Y0202903D01*
X0136815Y0204116D01*
X0135231Y0204772D01*
X0133516Y0204772D01*
X0131932Y0204116D01*
X0130720Y0202903D01*
X0130064Y0201319D01*
X0130064Y0199605D01*
X0130720Y0198021D01*
X0131932Y0196808D01*
X0133516Y0196152D01*
X0131383Y0197357D02*
X0117679Y0197357D01*
X0118730Y0198956D02*
X0130333Y0198956D01*
X0130064Y0200554D02*
X0118999Y0200554D01*
X0118653Y0202153D02*
X0130409Y0202153D01*
X0131568Y0203751D02*
X0117494Y0203751D01*
X0115437Y0208547D02*
X0133626Y0208547D01*
X0133153Y0210145D02*
X0115909Y0210145D01*
X0115862Y0211744D02*
X0133200Y0211744D01*
X0133777Y0213342D02*
X0115286Y0213342D01*
X0111084Y0210145D02*
X0110420Y0210145D01*
X0110420Y0208547D02*
X0111084Y0208547D01*
X0111084Y0206948D02*
X0110420Y0206948D01*
X0107252Y0206948D02*
X0102610Y0206948D01*
X0103796Y0208547D02*
X0106067Y0208547D01*
X0105594Y0210145D02*
X0104268Y0210145D01*
X0104221Y0211744D02*
X0105641Y0211744D01*
X0106218Y0213342D02*
X0103645Y0213342D01*
X0094577Y0213342D02*
X0076086Y0213342D01*
X0076662Y0211744D02*
X0094000Y0211744D01*
X0093953Y0210145D02*
X0076709Y0210145D01*
X0076237Y0208547D02*
X0094426Y0208547D01*
X0092368Y0203751D02*
X0078294Y0203751D01*
X0079453Y0202153D02*
X0091209Y0202153D01*
X0090864Y0200554D02*
X0079799Y0200554D01*
X0079530Y0198956D02*
X0091133Y0198956D01*
X0092183Y0197357D02*
X0078479Y0197357D01*
X0079834Y0193623D02*
X0078732Y0193166D01*
X0077888Y0192322D01*
X0077431Y0191219D01*
X0077431Y0190026D01*
X0077888Y0188923D01*
X0078732Y0188079D01*
X0079834Y0187623D01*
X0081028Y0187623D01*
X0082131Y0188079D01*
X0082974Y0188923D01*
X0083431Y0190026D01*
X0083431Y0191219D01*
X0082974Y0192322D01*
X0082131Y0193166D01*
X0081028Y0193623D01*
X0079834Y0193623D01*
X0078128Y0192562D02*
X0064752Y0192562D01*
X0064733Y0194160D02*
X0105821Y0194160D01*
X0105888Y0194322D02*
X0105431Y0193219D01*
X0105431Y0192026D01*
X0105888Y0190923D01*
X0106732Y0190079D01*
X0107834Y0189623D01*
X0109028Y0189623D01*
X0110131Y0190079D01*
X0110974Y0190923D01*
X0111431Y0192026D01*
X0111431Y0193219D01*
X0110974Y0194322D01*
X0110131Y0195166D01*
X0109028Y0195623D01*
X0107834Y0195623D01*
X0106732Y0195166D01*
X0105888Y0194322D01*
X0105431Y0192562D02*
X0082735Y0192562D01*
X0083431Y0190963D02*
X0093286Y0190963D01*
X0093373Y0191051D02*
X0092203Y0189880D01*
X0091569Y0188350D01*
X0091569Y0186695D01*
X0092203Y0185165D01*
X0093373Y0183994D01*
X0094903Y0183360D01*
X0096559Y0183360D01*
X0098089Y0183994D01*
X0099260Y0185165D01*
X0099893Y0186695D01*
X0099893Y0188350D01*
X0099260Y0189880D01*
X0098089Y0191051D01*
X0096559Y0191685D01*
X0094903Y0191685D01*
X0093373Y0191051D01*
X0091989Y0189365D02*
X0083157Y0189365D01*
X0081375Y0187766D02*
X0091569Y0187766D01*
X0091787Y0186168D02*
X0063732Y0186168D01*
X0064022Y0185878D02*
X0062671Y0187228D01*
X0060907Y0187959D01*
X0058998Y0187959D01*
X0057233Y0187228D01*
X0055883Y0185878D01*
X0055152Y0184114D01*
X0055152Y0182204D01*
X0055883Y0180440D01*
X0057233Y0179090D01*
X0058998Y0178359D01*
X0060907Y0178359D01*
X0062671Y0179090D01*
X0064022Y0180440D01*
X0064752Y0182204D01*
X0064752Y0184114D01*
X0064022Y0185878D01*
X0064564Y0184569D02*
X0092798Y0184569D01*
X0098664Y0184569D02*
X0152893Y0184569D01*
X0152831Y0184419D02*
X0152831Y0183226D01*
X0153288Y0182123D01*
X0154132Y0181279D01*
X0155234Y0180823D01*
X0156428Y0180823D01*
X0157531Y0181279D01*
X0158374Y0182123D01*
X0158831Y0183226D01*
X0158831Y0184419D01*
X0158374Y0185522D01*
X0157531Y0186366D01*
X0156428Y0186823D01*
X0155234Y0186823D01*
X0154132Y0186366D01*
X0153288Y0185522D01*
X0152831Y0184419D01*
X0152937Y0182971D02*
X0064752Y0182971D01*
X0064408Y0181372D02*
X0068289Y0181372D01*
X0068032Y0181266D02*
X0069134Y0181723D01*
X0070328Y0181723D01*
X0071431Y0181266D01*
X0072274Y0180422D01*
X0072731Y0179319D01*
X0072731Y0178126D01*
X0072274Y0177023D01*
X0071431Y0176179D01*
X0070328Y0175723D01*
X0069134Y0175723D01*
X0068032Y0176179D01*
X0067188Y0177023D01*
X0066731Y0178126D01*
X0066731Y0179319D01*
X0067188Y0180422D01*
X0068032Y0181266D01*
X0066919Y0179774D02*
X0063356Y0179774D01*
X0062671Y0177228D02*
X0060907Y0177959D01*
X0058998Y0177959D01*
X0057233Y0177228D01*
X0055883Y0175878D01*
X0055152Y0174114D01*
X0055152Y0172204D01*
X0055883Y0170440D01*
X0057233Y0169090D01*
X0058998Y0168359D01*
X0060907Y0168359D01*
X0062671Y0169090D01*
X0064022Y0170440D01*
X0064752Y0172204D01*
X0064752Y0174114D01*
X0064022Y0175878D01*
X0062671Y0177228D01*
X0063323Y0176577D02*
X0067634Y0176577D01*
X0066731Y0178175D02*
X0048331Y0178175D01*
X0053323Y0176577D02*
X0056582Y0176577D01*
X0055511Y0174978D02*
X0054394Y0174978D01*
X0054752Y0173380D02*
X0055152Y0173380D01*
X0055328Y0171781D02*
X0054577Y0171781D01*
X0053765Y0170183D02*
X0056140Y0170183D01*
X0058454Y0168584D02*
X0051451Y0168584D01*
X0052914Y0166986D02*
X0057053Y0166986D01*
X0056825Y0166820D02*
X0056291Y0166286D01*
X0055847Y0165675D01*
X0055504Y0165001D01*
X0055271Y0164283D01*
X0055152Y0163537D01*
X0055152Y0163359D01*
X0059752Y0163359D01*
X0059752Y0162959D01*
X0055152Y0162959D01*
X0055152Y0162781D01*
X0055271Y0162035D01*
X0055504Y0161316D01*
X0055847Y0160643D01*
X0056291Y0160032D01*
X0056825Y0159498D01*
X0057437Y0159053D01*
X0058110Y0158710D01*
X0058828Y0158477D01*
X0059575Y0158359D01*
X0059752Y0158359D01*
X0059752Y0162959D01*
X0060152Y0162959D01*
X0060152Y0158359D01*
X0060330Y0158359D01*
X0061076Y0158477D01*
X0061795Y0158710D01*
X0062468Y0159053D01*
X0063079Y0159498D01*
X0063614Y0160032D01*
X0064058Y0160643D01*
X0064401Y0161316D01*
X0064634Y0162035D01*
X0064752Y0162781D01*
X0064752Y0162959D01*
X0060153Y0162959D01*
X0060153Y0163359D01*
X0064752Y0163359D01*
X0064752Y0163537D01*
X0064634Y0164283D01*
X0064401Y0165001D01*
X0064058Y0165675D01*
X0063614Y0166286D01*
X0063079Y0166820D01*
X0062468Y0167264D01*
X0061795Y0167607D01*
X0061076Y0167841D01*
X0060330Y0167959D01*
X0060152Y0167959D01*
X0060152Y0163359D01*
X0059752Y0163359D01*
X0059752Y0167959D01*
X0059575Y0167959D01*
X0058828Y0167841D01*
X0058110Y0167607D01*
X0057437Y0167264D01*
X0056825Y0166820D01*
X0055701Y0165387D02*
X0054225Y0165387D01*
X0054752Y0163789D02*
X0055192Y0163789D01*
X0055246Y0162190D02*
X0054747Y0162190D01*
X0054085Y0160592D02*
X0055885Y0160592D01*
X0057555Y0158993D02*
X0052438Y0158993D01*
X0052269Y0157395D02*
X0057636Y0157395D01*
X0057233Y0157228D02*
X0055883Y0155878D01*
X0055152Y0154114D01*
X0055152Y0152204D01*
X0055883Y0150440D01*
X0057233Y0149090D01*
X0058998Y0148359D01*
X0060907Y0148359D01*
X0062671Y0149090D01*
X0064022Y0150440D01*
X0064752Y0152204D01*
X0064752Y0154114D01*
X0064022Y0155878D01*
X0062671Y0157228D01*
X0060907Y0157959D01*
X0058998Y0157959D01*
X0057233Y0157228D01*
X0055849Y0155796D02*
X0054056Y0155796D01*
X0054718Y0154198D02*
X0055187Y0154198D01*
X0055152Y0152599D02*
X0054752Y0152599D01*
X0054254Y0151000D02*
X0055651Y0151000D01*
X0056921Y0149402D02*
X0052984Y0149402D01*
X0051282Y0147803D02*
X0058623Y0147803D01*
X0058998Y0147959D02*
X0057233Y0147228D01*
X0055883Y0145878D01*
X0055152Y0144114D01*
X0055152Y0142204D01*
X0055883Y0140440D01*
X0057233Y0139090D01*
X0058998Y0138359D01*
X0060907Y0138359D01*
X0062671Y0139090D01*
X0064022Y0140440D01*
X0064752Y0142204D01*
X0064752Y0144114D01*
X0064022Y0145878D01*
X0062671Y0147228D01*
X0060907Y0147959D01*
X0058998Y0147959D01*
X0061282Y0147803D02*
X0188623Y0147803D01*
X0188998Y0147959D02*
X0187233Y0147228D01*
X0185883Y0145878D01*
X0185152Y0144114D01*
X0185152Y0142204D01*
X0185883Y0140440D01*
X0187233Y0139090D01*
X0188998Y0138359D01*
X0190907Y0138359D01*
X0192671Y0139090D01*
X0194022Y0140440D01*
X0194752Y0142204D01*
X0194752Y0144114D01*
X0194022Y0145878D01*
X0192671Y0147228D01*
X0190907Y0147959D01*
X0188998Y0147959D01*
X0188998Y0148359D02*
X0190907Y0148359D01*
X0192671Y0149090D01*
X0194022Y0150440D01*
X0194752Y0152204D01*
X0194752Y0154114D01*
X0194022Y0155878D01*
X0192671Y0157228D01*
X0190907Y0157959D01*
X0188998Y0157959D01*
X0187233Y0157228D01*
X0185883Y0155878D01*
X0185152Y0154114D01*
X0185152Y0152204D01*
X0185883Y0150440D01*
X0187233Y0149090D01*
X0188998Y0148359D01*
X0186921Y0149402D02*
X0062984Y0149402D01*
X0064254Y0151000D02*
X0079414Y0151000D01*
X0079488Y0150823D02*
X0080332Y0149979D01*
X0081434Y0149523D01*
X0082628Y0149523D01*
X0083731Y0149979D01*
X0084574Y0150823D01*
X0085031Y0151926D01*
X0085031Y0153119D01*
X0084574Y0154222D01*
X0083731Y0155066D01*
X0082628Y0155523D01*
X0081434Y0155523D01*
X0080332Y0155066D01*
X0079488Y0154222D01*
X0079031Y0153119D01*
X0079031Y0151926D01*
X0079488Y0150823D01*
X0079031Y0152599D02*
X0064752Y0152599D01*
X0064718Y0154198D02*
X0066171Y0154198D01*
X0065732Y0154379D02*
X0066834Y0153923D01*
X0068028Y0153923D01*
X0069131Y0154379D01*
X0069974Y0155223D01*
X0070431Y0156326D01*
X0070431Y0157519D01*
X0069974Y0158622D01*
X0069131Y0159466D01*
X0068028Y0159923D01*
X0066834Y0159923D01*
X0065732Y0159466D01*
X0064888Y0158622D01*
X0064431Y0157519D01*
X0064431Y0156326D01*
X0064888Y0155223D01*
X0065732Y0154379D01*
X0064651Y0155796D02*
X0064056Y0155796D01*
X0064431Y0157395D02*
X0062269Y0157395D01*
X0062350Y0158993D02*
X0065259Y0158993D01*
X0064020Y0160592D02*
X0104444Y0160592D01*
X0104331Y0160319D02*
X0104331Y0159126D01*
X0104788Y0158023D01*
X0105632Y0157179D01*
X0106734Y0156723D01*
X0107928Y0156723D01*
X0109031Y0157179D01*
X0109874Y0158023D01*
X0110331Y0159126D01*
X0110331Y0160319D01*
X0110218Y0160594D01*
X0110832Y0159979D01*
X0111934Y0159523D01*
X0113128Y0159523D01*
X0114231Y0159979D01*
X0114674Y0160423D01*
X0115088Y0159423D01*
X0115932Y0158579D01*
X0117034Y0158123D01*
X0118228Y0158123D01*
X0119331Y0158579D01*
X0120174Y0159423D01*
X0120505Y0160222D01*
X0120588Y0160023D01*
X0121432Y0159179D01*
X0122534Y0158723D01*
X0123728Y0158723D01*
X0124831Y0159179D01*
X0125674Y0160023D01*
X0126131Y0161126D01*
X0126131Y0162319D01*
X0125674Y0163422D01*
X0124831Y0164266D01*
X0123728Y0164723D01*
X0122534Y0164723D01*
X0121432Y0164266D01*
X0120588Y0163422D01*
X0120257Y0162623D01*
X0120174Y0162822D01*
X0119331Y0163666D01*
X0118228Y0164123D01*
X0117034Y0164123D01*
X0115932Y0163666D01*
X0115488Y0163222D01*
X0115074Y0164222D01*
X0114902Y0164395D01*
X0115831Y0164779D01*
X0116674Y0165623D01*
X0117131Y0166726D01*
X0117131Y0167919D01*
X0116674Y0169022D01*
X0115831Y0169866D01*
X0114728Y0170323D01*
X0113534Y0170323D01*
X0112432Y0169866D01*
X0111588Y0169022D01*
X0111131Y0167919D01*
X0111131Y0166726D01*
X0111588Y0165623D01*
X0111761Y0165451D01*
X0110832Y0165066D01*
X0109988Y0164222D01*
X0109531Y0163119D01*
X0109531Y0161926D01*
X0109645Y0161652D01*
X0109031Y0162266D01*
X0107928Y0162723D01*
X0106734Y0162723D01*
X0105632Y0162266D01*
X0104788Y0161422D01*
X0104331Y0160319D01*
X0104386Y0158993D02*
X0069603Y0158993D01*
X0070431Y0157395D02*
X0105417Y0157395D01*
X0109246Y0157395D02*
X0175487Y0157395D01*
X0175331Y0157019D02*
X0175331Y0155826D01*
X0175788Y0154723D01*
X0176632Y0153879D01*
X0177734Y0153423D01*
X0178928Y0153423D01*
X0180031Y0153879D01*
X0180831Y0154680D01*
X0181232Y0154279D01*
X0182334Y0153823D01*
X0183528Y0153823D01*
X0184631Y0154279D01*
X0185474Y0155123D01*
X0185931Y0156226D01*
X0185931Y0157419D01*
X0185474Y0158522D01*
X0184631Y0159366D01*
X0183528Y0159823D01*
X0182334Y0159823D01*
X0181232Y0159366D01*
X0180431Y0158565D01*
X0180031Y0158966D01*
X0178928Y0159423D01*
X0177734Y0159423D01*
X0176632Y0158966D01*
X0175788Y0158122D01*
X0175331Y0157019D01*
X0175344Y0155796D02*
X0070212Y0155796D01*
X0068692Y0154198D02*
X0079478Y0154198D01*
X0084585Y0154198D02*
X0118895Y0154198D01*
X0118988Y0154422D02*
X0118531Y0153319D01*
X0118531Y0152126D01*
X0118988Y0151023D01*
X0119832Y0150179D01*
X0120934Y0149723D01*
X0122128Y0149723D01*
X0123231Y0150179D01*
X0124074Y0151023D01*
X0124531Y0152126D01*
X0124531Y0153319D01*
X0124074Y0154422D01*
X0123231Y0155266D01*
X0122128Y0155723D01*
X0120934Y0155723D01*
X0119832Y0155266D01*
X0118988Y0154422D01*
X0118531Y0152599D02*
X0085031Y0152599D01*
X0084648Y0151000D02*
X0119011Y0151000D01*
X0124052Y0151000D02*
X0185651Y0151000D01*
X0185152Y0152599D02*
X0124531Y0152599D01*
X0124167Y0154198D02*
X0176314Y0154198D01*
X0180349Y0154198D02*
X0181429Y0154198D01*
X0184433Y0154198D02*
X0185187Y0154198D01*
X0185753Y0155796D02*
X0185849Y0155796D01*
X0185931Y0157395D02*
X0187636Y0157395D01*
X0187466Y0158993D02*
X0185003Y0158993D01*
X0185883Y0160440D02*
X0187233Y0159090D01*
X0188998Y0158359D01*
X0190907Y0158359D01*
X0192671Y0159090D01*
X0194022Y0160440D01*
X0194752Y0162204D01*
X0194752Y0164114D01*
X0194022Y0165878D01*
X0192671Y0167228D01*
X0190907Y0167959D01*
X0188998Y0167959D01*
X0187233Y0167228D01*
X0185883Y0165878D01*
X0185152Y0164114D01*
X0185152Y0162204D01*
X0185883Y0160440D01*
X0185820Y0160592D02*
X0134131Y0160592D01*
X0134131Y0160326D02*
X0133674Y0159223D01*
X0132831Y0158379D01*
X0131728Y0157923D01*
X0130534Y0157923D01*
X0129432Y0158379D01*
X0128588Y0159223D01*
X0128131Y0160326D01*
X0128131Y0161519D01*
X0128588Y0162622D01*
X0129432Y0163466D01*
X0130534Y0163923D01*
X0131728Y0163923D01*
X0132831Y0163466D01*
X0133674Y0162622D01*
X0134131Y0161519D01*
X0134131Y0160326D01*
X0133444Y0158993D02*
X0176698Y0158993D01*
X0179965Y0158993D02*
X0180859Y0158993D01*
X0185158Y0162190D02*
X0133853Y0162190D01*
X0132051Y0163789D02*
X0185152Y0163789D01*
X0185680Y0165387D02*
X0116438Y0165387D01*
X0116228Y0163789D02*
X0115254Y0163789D01*
X0117131Y0166986D02*
X0186991Y0166986D01*
X0187233Y0169090D02*
X0188998Y0168359D01*
X0190907Y0168359D01*
X0192671Y0169090D01*
X0194022Y0170440D01*
X0194752Y0172204D01*
X0194752Y0174114D01*
X0194022Y0175878D01*
X0192671Y0177228D01*
X0190907Y0177959D01*
X0188998Y0177959D01*
X0187233Y0177228D01*
X0185883Y0175878D01*
X0185152Y0174114D01*
X0185152Y0172204D01*
X0185883Y0170440D01*
X0187233Y0169090D01*
X0188454Y0168584D02*
X0116856Y0168584D01*
X0115066Y0170183D02*
X0186140Y0170183D01*
X0185328Y0171781D02*
X0064577Y0171781D01*
X0064752Y0173380D02*
X0185152Y0173380D01*
X0185511Y0174978D02*
X0064394Y0174978D01*
X0063765Y0170183D02*
X0113197Y0170183D01*
X0111407Y0168584D02*
X0061451Y0168584D01*
X0060152Y0166986D02*
X0059752Y0166986D01*
X0059752Y0165387D02*
X0060152Y0165387D01*
X0060152Y0163789D02*
X0059752Y0163789D01*
X0059752Y0162190D02*
X0060152Y0162190D01*
X0060152Y0160592D02*
X0059752Y0160592D01*
X0059752Y0158993D02*
X0060152Y0158993D01*
X0064659Y0162190D02*
X0105556Y0162190D01*
X0109106Y0162190D02*
X0109531Y0162190D01*
X0109808Y0163789D02*
X0064713Y0163789D01*
X0064204Y0165387D02*
X0111607Y0165387D01*
X0111131Y0166986D02*
X0062852Y0166986D01*
X0071828Y0176577D02*
X0186582Y0176577D01*
X0187233Y0179090D02*
X0188998Y0178359D01*
X0190907Y0178359D01*
X0192671Y0179090D01*
X0194022Y0180440D01*
X0194752Y0182204D01*
X0194752Y0184114D01*
X0194022Y0185878D01*
X0192671Y0187228D01*
X0190907Y0187959D01*
X0188998Y0187959D01*
X0187233Y0187228D01*
X0185883Y0185878D01*
X0185152Y0184114D01*
X0185152Y0182204D01*
X0185883Y0180440D01*
X0187233Y0179090D01*
X0186549Y0179774D02*
X0072543Y0179774D01*
X0072731Y0178175D02*
X0202731Y0178175D01*
X0196582Y0176577D02*
X0193323Y0176577D01*
X0194394Y0174978D02*
X0195511Y0174978D01*
X0195152Y0173380D02*
X0194752Y0173380D01*
X0194577Y0171781D02*
X0195328Y0171781D01*
X0196140Y0170183D02*
X0193765Y0170183D01*
X0191451Y0168584D02*
X0198454Y0168584D01*
X0196991Y0166986D02*
X0192914Y0166986D01*
X0194225Y0165387D02*
X0195680Y0165387D01*
X0195152Y0163789D02*
X0194752Y0163789D01*
X0194747Y0162190D02*
X0195158Y0162190D01*
X0195820Y0160592D02*
X0194085Y0160592D01*
X0192438Y0158993D02*
X0197466Y0158993D01*
X0197636Y0157395D02*
X0192269Y0157395D01*
X0194056Y0155796D02*
X0195849Y0155796D01*
X0195187Y0154198D02*
X0194718Y0154198D01*
X0194752Y0152599D02*
X0195152Y0152599D01*
X0195651Y0151000D02*
X0194254Y0151000D01*
X0192984Y0149402D02*
X0196921Y0149402D01*
X0198623Y0147803D02*
X0191282Y0147803D01*
X0193694Y0146205D02*
X0196210Y0146205D01*
X0195357Y0144606D02*
X0194548Y0144606D01*
X0194752Y0143008D02*
X0195152Y0143008D01*
X0195482Y0141409D02*
X0194423Y0141409D01*
X0193393Y0139811D02*
X0196512Y0139811D01*
X0196619Y0136614D02*
X0193286Y0136614D01*
X0192671Y0137228D02*
X0190907Y0137959D01*
X0188998Y0137959D01*
X0187233Y0137228D01*
X0185883Y0135878D01*
X0185152Y0134114D01*
X0185152Y0132204D01*
X0185883Y0130440D01*
X0187233Y0129090D01*
X0188998Y0128359D01*
X0190907Y0128359D01*
X0192671Y0129090D01*
X0194022Y0130440D01*
X0194752Y0132204D01*
X0194752Y0134114D01*
X0194022Y0135878D01*
X0192671Y0137228D01*
X0194379Y0135015D02*
X0195526Y0135015D01*
X0195152Y0133417D02*
X0194752Y0133417D01*
X0194593Y0131818D02*
X0195312Y0131818D01*
X0196103Y0130220D02*
X0193802Y0130220D01*
X0191541Y0128621D02*
X0198364Y0128621D01*
X0197028Y0127023D02*
X0192877Y0127023D01*
X0192671Y0127228D02*
X0190907Y0127959D01*
X0188998Y0127959D01*
X0187233Y0127228D01*
X0185883Y0125878D01*
X0185152Y0124114D01*
X0185152Y0122204D01*
X0185883Y0120440D01*
X0187233Y0119090D01*
X0188998Y0118359D01*
X0190907Y0118359D01*
X0192671Y0119090D01*
X0194022Y0120440D01*
X0194752Y0122204D01*
X0194752Y0124114D01*
X0194022Y0125878D01*
X0192671Y0127228D01*
X0194210Y0125424D02*
X0195695Y0125424D01*
X0195152Y0123826D02*
X0194752Y0123826D01*
X0194752Y0122227D02*
X0195152Y0122227D01*
X0195805Y0120629D02*
X0194100Y0120629D01*
X0192528Y0119030D02*
X0197377Y0119030D01*
X0198110Y0117607D02*
X0197437Y0117264D01*
X0196825Y0116820D01*
X0196291Y0116286D01*
X0195847Y0115675D01*
X0195504Y0115001D01*
X0195271Y0114283D01*
X0195152Y0113537D01*
X0195152Y0113359D01*
X0199752Y0113359D01*
X0199752Y0117959D01*
X0199575Y0117959D01*
X0198828Y0117841D01*
X0198110Y0117607D01*
X0197766Y0117432D02*
X0192139Y0117432D01*
X0192468Y0117264D02*
X0191795Y0117607D01*
X0191076Y0117841D01*
X0190330Y0117959D01*
X0190152Y0117959D01*
X0190152Y0113359D01*
X0189752Y0113359D01*
X0189752Y0112959D01*
X0185152Y0112959D01*
X0185152Y0112781D01*
X0185271Y0112035D01*
X0185504Y0111316D01*
X0185847Y0110643D01*
X0186291Y0110032D01*
X0186825Y0109498D01*
X0187437Y0109053D01*
X0188110Y0108710D01*
X0188828Y0108477D01*
X0189575Y0108359D01*
X0189752Y0108359D01*
X0189752Y0112959D01*
X0190152Y0112959D01*
X0190152Y0108359D01*
X0190330Y0108359D01*
X0191076Y0108477D01*
X0191795Y0108710D01*
X0192468Y0109053D01*
X0193079Y0109498D01*
X0193614Y0110032D01*
X0194058Y0110643D01*
X0194401Y0111316D01*
X0194634Y0112035D01*
X0194752Y0112781D01*
X0194752Y0112959D01*
X0190153Y0112959D01*
X0190153Y0113359D01*
X0194752Y0113359D01*
X0194752Y0113537D01*
X0194634Y0114283D01*
X0194401Y0115001D01*
X0194058Y0115675D01*
X0193614Y0116286D01*
X0193079Y0116820D01*
X0192468Y0117264D01*
X0193942Y0115833D02*
X0195962Y0115833D01*
X0195263Y0114235D02*
X0194642Y0114235D01*
X0194730Y0112636D02*
X0195175Y0112636D01*
X0195646Y0111038D02*
X0194259Y0111038D01*
X0192999Y0109439D02*
X0196906Y0109439D01*
X0198713Y0107841D02*
X0191192Y0107841D01*
X0190907Y0107959D02*
X0188998Y0107959D01*
X0187233Y0107228D01*
X0185883Y0105878D01*
X0185152Y0104114D01*
X0185152Y0102204D01*
X0185883Y0100440D01*
X0187233Y0099090D01*
X0188998Y0098359D01*
X0190907Y0098359D01*
X0192671Y0099090D01*
X0194022Y0100440D01*
X0194752Y0102204D01*
X0194752Y0104114D01*
X0194022Y0105878D01*
X0192671Y0107228D01*
X0190907Y0107959D01*
X0190152Y0109439D02*
X0189752Y0109439D01*
X0189752Y0111038D02*
X0190152Y0111038D01*
X0190152Y0112636D02*
X0189752Y0112636D01*
X0189752Y0113359D02*
X0185152Y0113359D01*
X0185152Y0113537D01*
X0185271Y0114283D01*
X0185504Y0115001D01*
X0185847Y0115675D01*
X0186291Y0116286D01*
X0186825Y0116820D01*
X0187437Y0117264D01*
X0188110Y0117607D01*
X0188828Y0117841D01*
X0189575Y0117959D01*
X0189752Y0117959D01*
X0189752Y0113359D01*
X0189752Y0114235D02*
X0190152Y0114235D01*
X0190152Y0115833D02*
X0189752Y0115833D01*
X0189752Y0117432D02*
X0190152Y0117432D01*
X0187766Y0117432D02*
X0173889Y0117432D01*
X0173821Y0117460D02*
X0173931Y0117726D01*
X0173931Y0118919D01*
X0173474Y0120022D01*
X0172631Y0120866D01*
X0171528Y0121323D01*
X0170334Y0121323D01*
X0169232Y0120866D01*
X0168388Y0120022D01*
X0167931Y0118919D01*
X0167931Y0117726D01*
X0168388Y0116623D01*
X0169232Y0115779D01*
X0169941Y0115485D01*
X0169831Y0115219D01*
X0169831Y0114026D01*
X0170288Y0112923D01*
X0170489Y0112723D01*
X0169988Y0112222D01*
X0169531Y0111119D01*
X0169531Y0110623D01*
X0169134Y0110623D01*
X0168032Y0110166D01*
X0167188Y0109322D01*
X0166731Y0108219D01*
X0166731Y0107026D01*
X0167188Y0105923D01*
X0168032Y0105079D01*
X0169134Y0104623D01*
X0170328Y0104623D01*
X0171431Y0105079D01*
X0172228Y0105876D01*
X0171831Y0104919D01*
X0171831Y0104823D01*
X0171734Y0104823D01*
X0170632Y0104366D01*
X0169788Y0103522D01*
X0169331Y0102419D01*
X0169331Y0101226D01*
X0169788Y0100123D01*
X0170632Y0099279D01*
X0171734Y0098823D01*
X0172928Y0098823D01*
X0174031Y0099279D01*
X0174874Y0100123D01*
X0175331Y0101226D01*
X0175331Y0101323D01*
X0175428Y0101323D01*
X0176531Y0101779D01*
X0177374Y0102623D01*
X0177831Y0103726D01*
X0177831Y0104919D01*
X0177374Y0106022D01*
X0176531Y0106866D01*
X0175428Y0107323D01*
X0174234Y0107323D01*
X0173132Y0106866D01*
X0172335Y0106069D01*
X0172731Y0107026D01*
X0172731Y0107523D01*
X0173128Y0107523D01*
X0174231Y0107979D01*
X0175074Y0108823D01*
X0175531Y0109926D01*
X0175531Y0111119D01*
X0175074Y0112222D01*
X0174874Y0112423D01*
X0175374Y0112923D01*
X0175831Y0114026D01*
X0175831Y0115219D01*
X0175374Y0116322D01*
X0174531Y0117166D01*
X0173821Y0117460D01*
X0173885Y0119030D02*
X0187377Y0119030D01*
X0185805Y0120629D02*
X0172868Y0120629D01*
X0168995Y0120629D02*
X0142567Y0120629D01*
X0142731Y0121026D02*
X0142274Y0119923D01*
X0141431Y0119079D01*
X0140328Y0118623D01*
X0139134Y0118623D01*
X0138032Y0119079D01*
X0137188Y0119923D01*
X0136731Y0121026D01*
X0136731Y0122219D01*
X0137188Y0123322D01*
X0138032Y0124166D01*
X0139134Y0124623D01*
X0140328Y0124623D01*
X0141431Y0124166D01*
X0142274Y0123322D01*
X0142731Y0122219D01*
X0142731Y0121026D01*
X0142728Y0122227D02*
X0185152Y0122227D01*
X0185152Y0123826D02*
X0141771Y0123826D01*
X0137692Y0123826D02*
X0110571Y0123826D01*
X0110574Y0123822D02*
X0109731Y0124666D01*
X0108628Y0125123D01*
X0107434Y0125123D01*
X0106332Y0124666D01*
X0105488Y0123822D01*
X0105031Y0122719D01*
X0105031Y0121526D01*
X0105488Y0120423D01*
X0106332Y0119579D01*
X0107434Y0119123D01*
X0108628Y0119123D01*
X0109731Y0119579D01*
X0110574Y0120423D01*
X0111031Y0121526D01*
X0111031Y0122719D01*
X0110574Y0123822D01*
X0111031Y0122227D02*
X0125593Y0122227D01*
X0125832Y0122466D02*
X0124988Y0121622D01*
X0124531Y0120519D01*
X0124531Y0119326D01*
X0124988Y0118223D01*
X0125832Y0117379D01*
X0126934Y0116923D01*
X0128128Y0116923D01*
X0129231Y0117379D01*
X0130074Y0118223D01*
X0130531Y0119326D01*
X0130531Y0120519D01*
X0130074Y0121622D01*
X0129231Y0122466D01*
X0128128Y0122923D01*
X0126934Y0122923D01*
X0125832Y0122466D01*
X0124577Y0120629D02*
X0119067Y0120629D01*
X0119174Y0120522D02*
X0118330Y0121366D01*
X0117227Y0121823D01*
X0116034Y0121823D01*
X0114931Y0121366D01*
X0114087Y0120522D01*
X0113630Y0119419D01*
X0113630Y0118226D01*
X0114087Y0117123D01*
X0114931Y0116279D01*
X0116034Y0115823D01*
X0117227Y0115823D01*
X0118330Y0116279D01*
X0119174Y0117123D01*
X0119630Y0118226D01*
X0119630Y0119419D01*
X0119174Y0120522D01*
X0119630Y0119030D02*
X0124654Y0119030D01*
X0125779Y0117432D02*
X0119301Y0117432D01*
X0117253Y0115833D02*
X0146019Y0115833D01*
X0146234Y0115923D02*
X0145132Y0115466D01*
X0144288Y0114622D01*
X0143831Y0113519D01*
X0143831Y0112326D01*
X0144288Y0111223D01*
X0145132Y0110379D01*
X0146234Y0109923D01*
X0147428Y0109923D01*
X0148531Y0110379D01*
X0149374Y0111223D01*
X0149831Y0112326D01*
X0149831Y0112565D01*
X0149934Y0112523D01*
X0151128Y0112523D01*
X0152231Y0112979D01*
X0153074Y0113823D01*
X0153531Y0114926D01*
X0153531Y0116119D01*
X0153074Y0117222D01*
X0152231Y0118066D01*
X0151128Y0118523D01*
X0149934Y0118523D01*
X0148832Y0118066D01*
X0147988Y0117222D01*
X0147531Y0116119D01*
X0147531Y0115880D01*
X0147428Y0115923D01*
X0146234Y0115923D01*
X0148198Y0117432D02*
X0129283Y0117432D01*
X0130409Y0119030D02*
X0138150Y0119030D01*
X0136896Y0120629D02*
X0130486Y0120629D01*
X0129469Y0122227D02*
X0136735Y0122227D01*
X0141312Y0119030D02*
X0167977Y0119030D01*
X0168053Y0117432D02*
X0152865Y0117432D01*
X0153531Y0115833D02*
X0169178Y0115833D01*
X0169831Y0114235D02*
X0153245Y0114235D01*
X0151402Y0112636D02*
X0170402Y0112636D01*
X0169531Y0111038D02*
X0155959Y0111038D01*
X0155831Y0111166D02*
X0156674Y0110322D01*
X0157131Y0109219D01*
X0157131Y0108026D01*
X0156674Y0106923D01*
X0155831Y0106079D01*
X0154728Y0105623D01*
X0153534Y0105623D01*
X0152432Y0106079D01*
X0151588Y0106923D01*
X0151131Y0108026D01*
X0151131Y0109219D01*
X0151588Y0110322D01*
X0152432Y0111166D01*
X0153534Y0111623D01*
X0154728Y0111623D01*
X0155831Y0111166D01*
X0157040Y0109439D02*
X0167305Y0109439D01*
X0166731Y0107841D02*
X0157055Y0107841D01*
X0155993Y0106242D02*
X0167056Y0106242D01*
X0169084Y0104644D02*
X0094173Y0104644D01*
X0093974Y0105122D02*
X0093131Y0105966D01*
X0092028Y0106423D01*
X0090834Y0106423D01*
X0089732Y0105966D01*
X0088888Y0105122D01*
X0088431Y0104019D01*
X0088431Y0102826D01*
X0088888Y0101723D01*
X0089732Y0100879D01*
X0090834Y0100423D01*
X0092028Y0100423D01*
X0093131Y0100879D01*
X0093974Y0101723D01*
X0094431Y0102826D01*
X0094431Y0104019D01*
X0093974Y0105122D01*
X0092463Y0106242D02*
X0097087Y0106242D01*
X0097134Y0106223D02*
X0098328Y0106223D01*
X0099431Y0106679D01*
X0100274Y0107523D01*
X0100731Y0108626D01*
X0100731Y0109819D01*
X0100274Y0110922D01*
X0099431Y0111766D01*
X0098328Y0112223D01*
X0097134Y0112223D01*
X0096032Y0111766D01*
X0095188Y0110922D01*
X0094731Y0109819D01*
X0094731Y0108626D01*
X0095188Y0107523D01*
X0096032Y0106679D01*
X0097134Y0106223D01*
X0098375Y0106242D02*
X0152269Y0106242D01*
X0151208Y0107841D02*
X0100406Y0107841D01*
X0100731Y0109439D02*
X0151222Y0109439D01*
X0152304Y0111038D02*
X0149189Y0111038D01*
X0144473Y0111038D02*
X0100159Y0111038D01*
X0095304Y0111038D02*
X0064269Y0111038D01*
X0064022Y0110440D02*
X0064752Y0112204D01*
X0064752Y0114114D01*
X0064022Y0115878D01*
X0062671Y0117228D01*
X0060907Y0117959D01*
X0058998Y0117959D01*
X0057233Y0117228D01*
X0055883Y0115878D01*
X0055152Y0114114D01*
X0055152Y0112204D01*
X0055883Y0110440D01*
X0057233Y0109090D01*
X0058998Y0108359D01*
X0060907Y0108359D01*
X0062671Y0109090D01*
X0064022Y0110440D01*
X0063021Y0109439D02*
X0094731Y0109439D01*
X0095056Y0107841D02*
X0061192Y0107841D01*
X0060907Y0107959D02*
X0058998Y0107959D01*
X0057233Y0107228D01*
X0055883Y0105878D01*
X0055152Y0104114D01*
X0055152Y0102204D01*
X0055883Y0100440D01*
X0057233Y0099090D01*
X0058998Y0098359D01*
X0060907Y0098359D01*
X0062671Y0099090D01*
X0064022Y0100440D01*
X0064752Y0102204D01*
X0064752Y0104114D01*
X0064022Y0105878D01*
X0062671Y0107228D01*
X0060907Y0107959D01*
X0058713Y0107841D02*
X0051192Y0107841D01*
X0053021Y0109439D02*
X0056884Y0109439D01*
X0055636Y0111038D02*
X0054269Y0111038D01*
X0054752Y0112636D02*
X0055152Y0112636D01*
X0055203Y0114235D02*
X0054702Y0114235D01*
X0054040Y0115833D02*
X0055865Y0115833D01*
X0057725Y0117432D02*
X0052180Y0117432D01*
X0052528Y0119030D02*
X0057377Y0119030D01*
X0057233Y0119090D02*
X0058998Y0118359D01*
X0060907Y0118359D01*
X0062671Y0119090D01*
X0064022Y0120440D01*
X0064752Y0122204D01*
X0064752Y0124114D01*
X0064022Y0125878D01*
X0062671Y0127228D01*
X0060907Y0127959D01*
X0058998Y0127959D01*
X0057233Y0127228D01*
X0055883Y0125878D01*
X0055152Y0124114D01*
X0055152Y0122204D01*
X0055883Y0120440D01*
X0057233Y0119090D01*
X0055805Y0120629D02*
X0054100Y0120629D01*
X0054752Y0122227D02*
X0055152Y0122227D01*
X0055152Y0123826D02*
X0054752Y0123826D01*
X0054210Y0125424D02*
X0055695Y0125424D01*
X0057028Y0127023D02*
X0052877Y0127023D01*
X0051541Y0128621D02*
X0058364Y0128621D01*
X0058998Y0128359D02*
X0060907Y0128359D01*
X0062671Y0129090D01*
X0064022Y0130440D01*
X0064752Y0132204D01*
X0064752Y0134114D01*
X0064022Y0135878D01*
X0062671Y0137228D01*
X0060907Y0137959D01*
X0058998Y0137959D01*
X0057233Y0137228D01*
X0055883Y0135878D01*
X0055152Y0134114D01*
X0055152Y0132204D01*
X0055883Y0130440D01*
X0057233Y0129090D01*
X0058998Y0128359D01*
X0061541Y0128621D02*
X0188364Y0128621D01*
X0187028Y0127023D02*
X0062877Y0127023D01*
X0064210Y0125424D02*
X0185695Y0125424D01*
X0186103Y0130220D02*
X0139471Y0130220D01*
X0139474Y0130223D02*
X0139931Y0131326D01*
X0139931Y0132519D01*
X0139474Y0133622D01*
X0138774Y0134323D01*
X0139128Y0134323D01*
X0140231Y0134779D01*
X0141074Y0135623D01*
X0141531Y0136726D01*
X0141531Y0137919D01*
X0141074Y0139022D01*
X0140231Y0139866D01*
X0139128Y0140323D01*
X0137934Y0140323D01*
X0136832Y0139866D01*
X0135988Y0139022D01*
X0135531Y0137919D01*
X0135531Y0136726D01*
X0135988Y0135623D01*
X0136689Y0134923D01*
X0136334Y0134923D01*
X0135232Y0134466D01*
X0134388Y0133622D01*
X0133931Y0132519D01*
X0133931Y0131326D01*
X0134388Y0130223D01*
X0135232Y0129379D01*
X0136334Y0128923D01*
X0137528Y0128923D01*
X0138631Y0129379D01*
X0139474Y0130223D01*
X0139931Y0131818D02*
X0145366Y0131818D01*
X0145488Y0131523D02*
X0146332Y0130679D01*
X0147434Y0130223D01*
X0148628Y0130223D01*
X0149731Y0130679D01*
X0150574Y0131523D01*
X0151031Y0132626D01*
X0151031Y0133819D01*
X0150574Y0134922D01*
X0149731Y0135766D01*
X0148628Y0136223D01*
X0147434Y0136223D01*
X0146332Y0135766D01*
X0145488Y0134922D01*
X0145031Y0133819D01*
X0145031Y0132626D01*
X0145488Y0131523D01*
X0145031Y0133417D02*
X0139559Y0133417D01*
X0140467Y0135015D02*
X0145581Y0135015D01*
X0141485Y0136614D02*
X0164709Y0136614D01*
X0164671Y0136497D02*
X0164569Y0135850D01*
X0164569Y0135523D01*
X0168731Y0135523D01*
X0168731Y0139685D01*
X0168404Y0139685D01*
X0167757Y0139582D01*
X0167133Y0139380D01*
X0166550Y0139082D01*
X0166020Y0138697D01*
X0165556Y0138234D01*
X0165171Y0137704D01*
X0164874Y0137120D01*
X0164671Y0136497D01*
X0164569Y0135522D02*
X0164569Y0135195D01*
X0164671Y0134548D01*
X0164874Y0133925D01*
X0165171Y0133341D01*
X0165556Y0132811D01*
X0166020Y0132348D01*
X0166550Y0131963D01*
X0167133Y0131665D01*
X0167757Y0131463D01*
X0168404Y0131360D01*
X0168731Y0131360D01*
X0168731Y0135522D01*
X0168731Y0135522D01*
X0168731Y0131360D01*
X0169059Y0131360D01*
X0169706Y0131463D01*
X0170329Y0131665D01*
X0170913Y0131963D01*
X0171443Y0132348D01*
X0171906Y0132811D01*
X0172291Y0133341D01*
X0172588Y0133925D01*
X0172791Y0134548D01*
X0172893Y0135195D01*
X0172893Y0135522D01*
X0168731Y0135522D01*
X0164569Y0135522D01*
X0164597Y0135015D02*
X0150481Y0135015D01*
X0151031Y0133417D02*
X0165133Y0133417D01*
X0166833Y0131818D02*
X0150697Y0131818D01*
X0154632Y0139779D02*
X0155734Y0139323D01*
X0156928Y0139323D01*
X0158031Y0139779D01*
X0158874Y0140623D01*
X0159331Y0141726D01*
X0159331Y0142919D01*
X0158874Y0144022D01*
X0158031Y0144866D01*
X0156928Y0145323D01*
X0155734Y0145323D01*
X0154632Y0144866D01*
X0153788Y0144022D01*
X0153331Y0142919D01*
X0153331Y0141726D01*
X0153788Y0140623D01*
X0154632Y0139779D01*
X0154600Y0139811D02*
X0140285Y0139811D01*
X0141410Y0138212D02*
X0165541Y0138212D01*
X0168731Y0138212D02*
X0168731Y0138212D01*
X0168731Y0139685D02*
X0168731Y0135523D01*
X0168731Y0135523D01*
X0168731Y0135522D01*
X0168731Y0135523D01*
X0172893Y0135523D01*
X0172893Y0135850D01*
X0172791Y0136497D01*
X0172588Y0137120D01*
X0172291Y0137704D01*
X0171906Y0138234D01*
X0171443Y0138697D01*
X0170913Y0139082D01*
X0170329Y0139380D01*
X0169706Y0139582D01*
X0169059Y0139685D01*
X0168731Y0139685D01*
X0169432Y0141279D02*
X0170534Y0140823D01*
X0171728Y0140823D01*
X0172831Y0141279D01*
X0173674Y0142123D01*
X0174131Y0143226D01*
X0174131Y0144419D01*
X0173674Y0145522D01*
X0172831Y0146366D01*
X0171728Y0146823D01*
X0170534Y0146823D01*
X0169432Y0146366D01*
X0168588Y0145522D01*
X0168131Y0144419D01*
X0168131Y0143226D01*
X0168588Y0142123D01*
X0169432Y0141279D01*
X0169302Y0141409D02*
X0159200Y0141409D01*
X0159294Y0143008D02*
X0168221Y0143008D01*
X0168209Y0144606D02*
X0158290Y0144606D01*
X0154372Y0144606D02*
X0064548Y0144606D01*
X0064752Y0143008D02*
X0121674Y0143008D01*
X0121732Y0143066D02*
X0120888Y0142222D01*
X0120431Y0141119D01*
X0120431Y0140623D01*
X0119534Y0140623D01*
X0118432Y0140166D01*
X0117588Y0139322D01*
X0117131Y0138219D01*
X0117131Y0137026D01*
X0117588Y0135923D01*
X0118432Y0135079D01*
X0119531Y0134624D01*
X0119531Y0133726D01*
X0119988Y0132623D01*
X0120832Y0131779D01*
X0121934Y0131323D01*
X0123128Y0131323D01*
X0124231Y0131779D01*
X0125074Y0132623D01*
X0125531Y0133726D01*
X0125531Y0134919D01*
X0125074Y0136022D01*
X0124231Y0136866D01*
X0123131Y0137321D01*
X0123131Y0137523D01*
X0124028Y0137523D01*
X0125131Y0137979D01*
X0125974Y0138823D01*
X0126431Y0139926D01*
X0126431Y0141119D01*
X0125974Y0142222D01*
X0125131Y0143066D01*
X0124028Y0143523D01*
X0122834Y0143523D01*
X0121732Y0143066D01*
X0120551Y0141409D02*
X0064423Y0141409D01*
X0063393Y0139811D02*
X0118077Y0139811D01*
X0117131Y0138212D02*
X0098922Y0138212D01*
X0098906Y0138234D02*
X0098443Y0138697D01*
X0097913Y0139082D01*
X0097329Y0139380D01*
X0096706Y0139582D01*
X0096059Y0139685D01*
X0095731Y0139685D01*
X0095404Y0139685D01*
X0094757Y0139582D01*
X0094133Y0139380D01*
X0093550Y0139082D01*
X0093020Y0138697D01*
X0092556Y0138234D01*
X0092171Y0137704D01*
X0091874Y0137120D01*
X0091671Y0136497D01*
X0091569Y0135850D01*
X0091569Y0135523D01*
X0095731Y0135523D01*
X0095731Y0139685D01*
X0095731Y0135523D01*
X0095731Y0135523D01*
X0095731Y0135522D01*
X0095731Y0135522D01*
X0095731Y0131360D01*
X0095404Y0131360D01*
X0094757Y0131463D01*
X0094133Y0131665D01*
X0093550Y0131963D01*
X0093020Y0132348D01*
X0092556Y0132811D01*
X0092171Y0133341D01*
X0091874Y0133925D01*
X0091671Y0134548D01*
X0091569Y0135195D01*
X0091569Y0135522D01*
X0095731Y0135522D01*
X0095731Y0131360D01*
X0096059Y0131360D01*
X0096706Y0131463D01*
X0097329Y0131665D01*
X0097913Y0131963D01*
X0098443Y0132348D01*
X0098906Y0132811D01*
X0099291Y0133341D01*
X0099588Y0133925D01*
X0099791Y0134548D01*
X0099893Y0135195D01*
X0099893Y0135522D01*
X0095731Y0135522D01*
X0095731Y0135523D01*
X0099893Y0135523D01*
X0099893Y0135850D01*
X0099791Y0136497D01*
X0099588Y0137120D01*
X0099291Y0137704D01*
X0098906Y0138234D01*
X0099753Y0136614D02*
X0117302Y0136614D01*
X0118586Y0135015D02*
X0099865Y0135015D01*
X0099330Y0133417D02*
X0119659Y0133417D01*
X0120793Y0131818D02*
X0097629Y0131818D01*
X0095731Y0131818D02*
X0095731Y0131818D01*
X0095731Y0133417D02*
X0095731Y0133417D01*
X0095731Y0135015D02*
X0095731Y0135015D01*
X0095731Y0136614D02*
X0095731Y0136614D01*
X0095731Y0138212D02*
X0095731Y0138212D01*
X0092541Y0138212D02*
X0070518Y0138212D01*
X0070631Y0138166D02*
X0069528Y0138623D01*
X0068334Y0138623D01*
X0067232Y0138166D01*
X0066388Y0137322D01*
X0065931Y0136219D01*
X0065931Y0135026D01*
X0066388Y0133923D01*
X0067232Y0133079D01*
X0068334Y0132623D01*
X0069528Y0132623D01*
X0070631Y0133079D01*
X0071474Y0133923D01*
X0071931Y0135026D01*
X0071931Y0136219D01*
X0071474Y0137322D01*
X0070631Y0138166D01*
X0071768Y0136614D02*
X0091709Y0136614D01*
X0091597Y0135015D02*
X0071927Y0135015D01*
X0070968Y0133417D02*
X0092133Y0133417D01*
X0093833Y0131818D02*
X0064593Y0131818D01*
X0064752Y0133417D02*
X0066894Y0133417D01*
X0065936Y0135015D02*
X0064379Y0135015D01*
X0063286Y0136614D02*
X0066095Y0136614D01*
X0067344Y0138212D02*
X0048331Y0138212D01*
X0053286Y0136614D02*
X0056619Y0136614D01*
X0055526Y0135015D02*
X0054379Y0135015D01*
X0054752Y0133417D02*
X0055152Y0133417D01*
X0055312Y0131818D02*
X0054593Y0131818D01*
X0053802Y0130220D02*
X0056103Y0130220D01*
X0063802Y0130220D02*
X0128775Y0130220D01*
X0128632Y0130279D02*
X0129734Y0129823D01*
X0130928Y0129823D01*
X0132031Y0130279D01*
X0132874Y0131123D01*
X0133331Y0132226D01*
X0133331Y0133419D01*
X0132874Y0134522D01*
X0132031Y0135366D01*
X0130928Y0135823D01*
X0129734Y0135823D01*
X0128632Y0135366D01*
X0127788Y0134522D01*
X0127331Y0133419D01*
X0127331Y0132226D01*
X0127788Y0131123D01*
X0128632Y0130279D01*
X0127500Y0131818D02*
X0124270Y0131818D01*
X0125403Y0133417D02*
X0127331Y0133417D01*
X0128281Y0135015D02*
X0125491Y0135015D01*
X0124483Y0136614D02*
X0135578Y0136614D01*
X0135653Y0138212D02*
X0125364Y0138212D01*
X0126384Y0139811D02*
X0136777Y0139811D01*
X0136596Y0135015D02*
X0132381Y0135015D01*
X0133331Y0133417D02*
X0134303Y0133417D01*
X0133931Y0131818D02*
X0133162Y0131818D01*
X0134391Y0130220D02*
X0131887Y0130220D01*
X0126311Y0141409D02*
X0153462Y0141409D01*
X0153368Y0143008D02*
X0125188Y0143008D01*
X0124381Y0158993D02*
X0128818Y0158993D01*
X0128131Y0160592D02*
X0125910Y0160592D01*
X0126131Y0162190D02*
X0128409Y0162190D01*
X0130211Y0163789D02*
X0125308Y0163789D01*
X0120955Y0163789D02*
X0119034Y0163789D01*
X0119744Y0158993D02*
X0121881Y0158993D01*
X0115518Y0158993D02*
X0110276Y0158993D01*
X0110220Y0160592D02*
X0110218Y0160592D01*
X0099675Y0186168D02*
X0153934Y0186168D01*
X0157729Y0186168D02*
X0164787Y0186168D01*
X0164569Y0186695D02*
X0165203Y0185165D01*
X0166373Y0183994D01*
X0167903Y0183360D01*
X0169559Y0183360D01*
X0171089Y0183994D01*
X0172260Y0185165D01*
X0172893Y0186695D01*
X0172893Y0188350D01*
X0172260Y0189880D01*
X0171089Y0191051D01*
X0169559Y0191685D01*
X0167903Y0191685D01*
X0166373Y0191051D01*
X0165203Y0189880D01*
X0164569Y0188350D01*
X0164569Y0186695D01*
X0164569Y0187766D02*
X0099893Y0187766D01*
X0099473Y0189365D02*
X0164989Y0189365D01*
X0166286Y0190963D02*
X0132715Y0190963D01*
X0133231Y0192562D02*
X0185152Y0192562D01*
X0185666Y0190963D02*
X0171177Y0190963D01*
X0172473Y0189365D02*
X0186958Y0189365D01*
X0188533Y0187766D02*
X0172893Y0187766D01*
X0172675Y0186168D02*
X0186173Y0186168D01*
X0185341Y0184569D02*
X0171664Y0184569D01*
X0165798Y0184569D02*
X0158769Y0184569D01*
X0158726Y0182971D02*
X0185152Y0182971D01*
X0185497Y0181372D02*
X0157623Y0181372D01*
X0154039Y0181372D02*
X0071174Y0181372D01*
X0077705Y0189365D02*
X0062947Y0189365D01*
X0064239Y0190963D02*
X0077431Y0190963D01*
X0079488Y0187766D02*
X0061372Y0187766D01*
X0058533Y0187766D02*
X0051372Y0187766D01*
X0052947Y0189365D02*
X0056958Y0189365D01*
X0055666Y0190963D02*
X0054239Y0190963D01*
X0054752Y0192562D02*
X0055152Y0192562D01*
X0055172Y0194160D02*
X0054733Y0194160D01*
X0054071Y0195759D02*
X0055834Y0195759D01*
X0057546Y0197357D02*
X0052359Y0197357D01*
X0052349Y0198956D02*
X0057628Y0198956D01*
X0059752Y0198956D02*
X0060152Y0198956D01*
X0060152Y0200554D02*
X0059752Y0200554D01*
X0059752Y0202153D02*
X0060152Y0202153D01*
X0059752Y0203359D02*
X0055152Y0203359D01*
X0055152Y0203537D01*
X0055271Y0204283D01*
X0055504Y0205001D01*
X0055847Y0205675D01*
X0056291Y0206286D01*
X0056825Y0206820D01*
X0057437Y0207264D01*
X0058110Y0207607D01*
X0058828Y0207841D01*
X0059575Y0207959D01*
X0059752Y0207959D01*
X0059752Y0203359D01*
X0059752Y0203751D02*
X0060152Y0203751D01*
X0060152Y0205350D02*
X0059752Y0205350D01*
X0059752Y0206948D02*
X0060152Y0206948D01*
X0061361Y0208547D02*
X0066867Y0208547D01*
X0066394Y0210145D02*
X0063727Y0210145D01*
X0064562Y0211744D02*
X0066441Y0211744D01*
X0067018Y0213342D02*
X0064752Y0213342D01*
X0062903Y0206948D02*
X0068052Y0206948D01*
X0071220Y0206948D02*
X0071884Y0206948D01*
X0071884Y0208547D02*
X0071220Y0208547D01*
X0071220Y0210145D02*
X0071884Y0210145D01*
X0064223Y0205350D02*
X0148056Y0205350D01*
X0148718Y0203751D02*
X0137179Y0203751D01*
X0138338Y0202153D02*
X0150283Y0202153D01*
X0156866Y0202153D02*
X0170127Y0202153D01*
X0170272Y0202047D02*
X0171071Y0201640D01*
X0171925Y0201363D01*
X0172760Y0201231D01*
X0172760Y0206422D01*
X0173760Y0206422D01*
X0173760Y0206423D02*
X0173760Y0207423D01*
X0178951Y0207423D01*
X0178819Y0208257D01*
X0178542Y0209111D01*
X0178135Y0209910D01*
X0177607Y0210636D01*
X0176973Y0211270D01*
X0176247Y0211798D01*
X0175448Y0212205D01*
X0174594Y0212482D01*
X0173760Y0212614D01*
X0173760Y0207423D01*
X0172760Y0207423D01*
X0172760Y0212614D01*
X0171925Y0212482D01*
X0171071Y0212205D01*
X0170272Y0211798D01*
X0169546Y0211270D01*
X0168912Y0210636D01*
X0168384Y0209910D01*
X0167977Y0209111D01*
X0167700Y0208257D01*
X0167568Y0207423D01*
X0172759Y0207423D01*
X0172759Y0206423D01*
X0167568Y0206423D01*
X0167700Y0205588D01*
X0167977Y0204735D01*
X0168384Y0203935D01*
X0168912Y0203209D01*
X0169546Y0202575D01*
X0170272Y0202047D01*
X0168518Y0203751D02*
X0158431Y0203751D01*
X0159093Y0205350D02*
X0167777Y0205350D01*
X0167794Y0208547D02*
X0159071Y0208547D01*
X0159274Y0206948D02*
X0172759Y0206948D01*
X0173760Y0206948D02*
X0186954Y0206948D01*
X0185665Y0205350D02*
X0178742Y0205350D01*
X0178819Y0205588D02*
X0178951Y0206423D01*
X0173760Y0206423D01*
X0173760Y0206422D02*
X0173760Y0201231D01*
X0174594Y0201363D01*
X0175448Y0201640D01*
X0176247Y0202047D01*
X0176973Y0202575D01*
X0177607Y0203209D01*
X0178135Y0203935D01*
X0178542Y0204735D01*
X0178819Y0205588D01*
X0178001Y0203751D02*
X0185152Y0203751D01*
X0185174Y0202153D02*
X0176392Y0202153D01*
X0173760Y0202153D02*
X0172760Y0202153D01*
X0172760Y0203751D02*
X0173760Y0203751D01*
X0173760Y0205350D02*
X0172760Y0205350D01*
X0172760Y0208547D02*
X0173760Y0208547D01*
X0173760Y0210145D02*
X0172760Y0210145D01*
X0172760Y0211744D02*
X0173760Y0211744D01*
X0176321Y0211744D02*
X0185365Y0211744D01*
X0186209Y0210145D02*
X0177964Y0210145D01*
X0178725Y0208547D02*
X0188613Y0208547D01*
X0189752Y0208547D02*
X0190152Y0208547D01*
X0190152Y0210145D02*
X0189752Y0210145D01*
X0189752Y0211744D02*
X0190152Y0211744D01*
X0185836Y0200554D02*
X0138684Y0200554D01*
X0138415Y0198956D02*
X0187556Y0198956D01*
X0187546Y0197357D02*
X0137364Y0197357D01*
X0127580Y0194160D02*
X0111041Y0194160D01*
X0111431Y0192562D02*
X0127231Y0192562D01*
X0127748Y0190963D02*
X0110991Y0190963D01*
X0105871Y0190963D02*
X0098177Y0190963D01*
X0098164Y0197357D02*
X0111698Y0197357D01*
X0110648Y0198956D02*
X0099215Y0198956D01*
X0099484Y0200554D02*
X0110379Y0200554D01*
X0110724Y0202153D02*
X0099138Y0202153D01*
X0058544Y0208547D02*
X0051292Y0208547D01*
X0050152Y0208547D02*
X0049752Y0208547D01*
X0048613Y0208547D02*
X0048331Y0208547D01*
X0049752Y0210145D02*
X0050152Y0210145D01*
X0050152Y0211744D02*
X0049752Y0211744D01*
X0050153Y0213342D02*
X0055152Y0213342D01*
X0055343Y0211744D02*
X0054540Y0211744D01*
X0053696Y0210145D02*
X0056178Y0210145D01*
X0057002Y0206948D02*
X0052951Y0206948D01*
X0054240Y0205350D02*
X0055682Y0205350D01*
X0055186Y0203751D02*
X0054752Y0203751D01*
X0054731Y0202153D02*
X0055252Y0202153D01*
X0055912Y0200554D02*
X0054069Y0200554D01*
X0048533Y0187766D02*
X0048331Y0187766D01*
X0053732Y0186168D02*
X0056173Y0186168D01*
X0055341Y0184569D02*
X0054564Y0184569D01*
X0054752Y0182971D02*
X0055152Y0182971D01*
X0055497Y0181372D02*
X0054408Y0181372D01*
X0053356Y0179774D02*
X0056549Y0179774D01*
X0048454Y0168584D02*
X0048331Y0168584D01*
X0048331Y0147803D02*
X0048623Y0147803D01*
X0053694Y0146205D02*
X0056210Y0146205D01*
X0055357Y0144606D02*
X0054548Y0144606D01*
X0054752Y0143008D02*
X0055152Y0143008D01*
X0055482Y0141409D02*
X0054423Y0141409D01*
X0053393Y0139811D02*
X0056512Y0139811D01*
X0063694Y0146205D02*
X0169271Y0146205D01*
X0172991Y0146205D02*
X0186210Y0146205D01*
X0185357Y0144606D02*
X0174054Y0144606D01*
X0174041Y0143008D02*
X0185152Y0143008D01*
X0185482Y0141409D02*
X0172961Y0141409D01*
X0171922Y0138212D02*
X0202731Y0138212D01*
X0202731Y0128621D02*
X0201541Y0128621D01*
X0202528Y0119030D02*
X0202731Y0119030D01*
X0202731Y0117432D02*
X0202139Y0117432D01*
X0200152Y0117432D02*
X0199752Y0117432D01*
X0199752Y0115833D02*
X0200152Y0115833D01*
X0200152Y0114235D02*
X0199752Y0114235D01*
X0199752Y0112636D02*
X0200152Y0112636D01*
X0200152Y0111038D02*
X0199752Y0111038D01*
X0199752Y0109439D02*
X0200152Y0109439D01*
X0201192Y0107841D02*
X0202731Y0107841D01*
X0196248Y0106242D02*
X0193657Y0106242D01*
X0194533Y0104644D02*
X0195372Y0104644D01*
X0195152Y0103045D02*
X0194752Y0103045D01*
X0194439Y0101447D02*
X0195466Y0101447D01*
X0196475Y0099848D02*
X0193430Y0099848D01*
X0192671Y0097228D02*
X0190907Y0097959D01*
X0188998Y0097959D01*
X0187233Y0097228D01*
X0185883Y0095878D01*
X0185152Y0094114D01*
X0185152Y0092204D01*
X0185883Y0090440D01*
X0187233Y0089090D01*
X0188998Y0088359D01*
X0190907Y0088359D01*
X0192671Y0089090D01*
X0194022Y0090440D01*
X0194752Y0092204D01*
X0194752Y0094114D01*
X0194022Y0095878D01*
X0192671Y0097228D01*
X0193248Y0096651D02*
X0196657Y0096651D01*
X0195541Y0095053D02*
X0194363Y0095053D01*
X0194752Y0093454D02*
X0195152Y0093454D01*
X0195297Y0091856D02*
X0194608Y0091856D01*
X0193839Y0090257D02*
X0196066Y0090257D01*
X0198274Y0088659D02*
X0191631Y0088659D01*
X0190907Y0087959D02*
X0188998Y0087959D01*
X0187233Y0087228D01*
X0185883Y0085878D01*
X0185152Y0084114D01*
X0185152Y0082204D01*
X0185883Y0080440D01*
X0187233Y0079090D01*
X0188998Y0078359D01*
X0190907Y0078359D01*
X0192671Y0079090D01*
X0194022Y0080440D01*
X0194752Y0082204D01*
X0194752Y0084114D01*
X0194022Y0085878D01*
X0192671Y0087228D01*
X0190907Y0087959D01*
X0192839Y0087060D02*
X0197066Y0087060D01*
X0195711Y0085462D02*
X0194194Y0085462D01*
X0194752Y0083863D02*
X0195152Y0083863D01*
X0195152Y0082265D02*
X0194752Y0082265D01*
X0194115Y0080666D02*
X0195790Y0080666D01*
X0197287Y0079067D02*
X0192618Y0079067D01*
X0192090Y0077469D02*
X0197815Y0077469D01*
X0195880Y0075870D02*
X0194025Y0075870D01*
X0194022Y0075878D02*
X0192671Y0077228D01*
X0190907Y0077959D01*
X0188998Y0077959D01*
X0187233Y0077228D01*
X0185883Y0075878D01*
X0185152Y0074114D01*
X0185152Y0072204D01*
X0185883Y0070440D01*
X0187233Y0069090D01*
X0188998Y0068359D01*
X0190907Y0068359D01*
X0192671Y0069090D01*
X0194022Y0070440D01*
X0194752Y0072204D01*
X0194752Y0074114D01*
X0194022Y0075878D01*
X0194687Y0074272D02*
X0195218Y0074272D01*
X0195152Y0072673D02*
X0194752Y0072673D01*
X0194285Y0071075D02*
X0195620Y0071075D01*
X0196847Y0069476D02*
X0193058Y0069476D01*
X0192671Y0067228D02*
X0190907Y0067959D01*
X0188998Y0067959D01*
X0187233Y0067228D01*
X0185883Y0065878D01*
X0185152Y0064114D01*
X0185152Y0062204D01*
X0185883Y0060440D01*
X0187233Y0059090D01*
X0188998Y0058359D01*
X0190907Y0058359D01*
X0192671Y0059090D01*
X0194022Y0060440D01*
X0194752Y0062204D01*
X0194752Y0064114D01*
X0194022Y0065878D01*
X0192671Y0067228D01*
X0193620Y0066279D02*
X0196285Y0066279D01*
X0195387Y0064681D02*
X0194517Y0064681D01*
X0194752Y0063082D02*
X0195152Y0063082D01*
X0195451Y0061484D02*
X0194454Y0061484D01*
X0193467Y0059885D02*
X0196438Y0059885D01*
X0196694Y0056688D02*
X0193211Y0056688D01*
X0192671Y0057228D02*
X0190907Y0057959D01*
X0188998Y0057959D01*
X0187233Y0057228D01*
X0185883Y0055878D01*
X0185152Y0054114D01*
X0185152Y0052204D01*
X0185883Y0050440D01*
X0187233Y0049090D01*
X0188998Y0048359D01*
X0190907Y0048359D01*
X0192671Y0049090D01*
X0194022Y0050440D01*
X0194752Y0052204D01*
X0194752Y0054114D01*
X0194022Y0055878D01*
X0192671Y0057228D01*
X0194348Y0055090D02*
X0195557Y0055090D01*
X0195152Y0053491D02*
X0194752Y0053491D01*
X0194624Y0051893D02*
X0195281Y0051893D01*
X0196029Y0050294D02*
X0193876Y0050294D01*
X0191721Y0048696D02*
X0198184Y0048696D01*
X0197103Y0047097D02*
X0192802Y0047097D01*
X0194179Y0045499D02*
X0195726Y0045499D01*
X0195152Y0043900D02*
X0194752Y0043900D01*
X0194752Y0042302D02*
X0195152Y0042302D01*
X0197699Y0038897D02*
X0198998Y0038359D01*
X0200907Y0038359D01*
X0202671Y0039090D01*
X0202731Y0039149D01*
X0202731Y0037168D01*
X0202671Y0037228D01*
X0200907Y0037959D01*
X0198998Y0037959D01*
X0197635Y0037394D01*
X0197731Y0037626D01*
X0197731Y0038819D01*
X0197699Y0038897D01*
X0197682Y0037506D02*
X0197905Y0037506D01*
X0195233Y0034309D02*
X0194671Y0034309D01*
X0194752Y0032711D02*
X0195152Y0032711D01*
X0195605Y0031112D02*
X0194300Y0031112D01*
X0193096Y0029514D02*
X0196809Y0029514D01*
X0198110Y0027607D02*
X0197437Y0027264D01*
X0196825Y0026820D01*
X0196291Y0026286D01*
X0195847Y0025675D01*
X0195504Y0025001D01*
X0195271Y0024283D01*
X0195152Y0023537D01*
X0195152Y0023359D01*
X0199752Y0023359D01*
X0199752Y0027959D01*
X0199575Y0027959D01*
X0198828Y0027841D01*
X0198110Y0027607D01*
X0199299Y0027915D02*
X0190606Y0027915D01*
X0190152Y0027915D02*
X0189752Y0027915D01*
X0189752Y0027959D02*
X0189575Y0027959D01*
X0188828Y0027841D01*
X0188110Y0027607D01*
X0187437Y0027264D01*
X0186825Y0026820D01*
X0186291Y0026286D01*
X0185847Y0025675D01*
X0185504Y0025001D01*
X0185271Y0024283D01*
X0185152Y0023537D01*
X0185152Y0023359D01*
X0189752Y0023359D01*
X0189752Y0027959D01*
X0189299Y0027915D02*
X0162846Y0027915D01*
X0162846Y0029514D02*
X0186809Y0029514D01*
X0185605Y0031112D02*
X0162846Y0031112D01*
X0162846Y0032711D02*
X0185152Y0032711D01*
X0185233Y0034309D02*
X0162846Y0034309D01*
X0162246Y0035908D02*
X0185913Y0035908D01*
X0187905Y0037506D02*
X0160666Y0037506D01*
X0155883Y0037506D02*
X0155292Y0037506D01*
X0155174Y0037223D02*
X0155631Y0038326D01*
X0155631Y0039519D01*
X0155174Y0040622D01*
X0154331Y0041466D01*
X0153228Y0041923D01*
X0152034Y0041923D01*
X0150932Y0041466D01*
X0150088Y0040622D01*
X0149631Y0039519D01*
X0149631Y0038326D01*
X0150088Y0037223D01*
X0150932Y0036379D01*
X0152034Y0035923D01*
X0153228Y0035923D01*
X0154331Y0036379D01*
X0155174Y0037223D01*
X0154303Y0035908D02*
X0105159Y0035908D01*
X0105760Y0034309D02*
X0153703Y0034309D01*
X0153703Y0032711D02*
X0105760Y0032711D01*
X0105760Y0031112D02*
X0153703Y0031112D01*
X0153703Y0029514D02*
X0105760Y0029514D01*
X0105760Y0027915D02*
X0153703Y0027915D01*
X0153876Y0026317D02*
X0105587Y0026317D01*
X0104728Y0024718D02*
X0154734Y0024718D01*
X0161815Y0024718D02*
X0185412Y0024718D01*
X0186322Y0026317D02*
X0162673Y0026317D01*
X0149971Y0037506D02*
X0103580Y0037506D01*
X0098796Y0037506D02*
X0062000Y0037506D01*
X0062687Y0039105D02*
X0149631Y0039105D01*
X0150169Y0040703D02*
X0064131Y0040703D01*
X0064752Y0042302D02*
X0112419Y0042302D01*
X0112232Y0042379D02*
X0113334Y0041923D01*
X0114528Y0041923D01*
X0115631Y0042379D01*
X0116474Y0043223D01*
X0116931Y0044326D01*
X0116931Y0045519D01*
X0116474Y0046622D01*
X0115631Y0047466D01*
X0114528Y0047923D01*
X0113334Y0047923D01*
X0112232Y0047466D01*
X0111388Y0046622D01*
X0110931Y0045519D01*
X0110931Y0044326D01*
X0111388Y0043223D01*
X0112232Y0042379D01*
X0111107Y0043900D02*
X0064752Y0043900D01*
X0064179Y0045499D02*
X0110931Y0045499D01*
X0110431Y0046079D02*
X0111274Y0046923D01*
X0111731Y0048026D01*
X0111731Y0049219D01*
X0111274Y0050322D01*
X0110431Y0051166D01*
X0109328Y0051623D01*
X0108134Y0051623D01*
X0107032Y0051166D01*
X0106188Y0050322D01*
X0105731Y0049219D01*
X0105731Y0048026D01*
X0106188Y0046923D01*
X0107032Y0046079D01*
X0108134Y0045623D01*
X0109328Y0045623D01*
X0110431Y0046079D01*
X0111347Y0047097D02*
X0111863Y0047097D01*
X0111731Y0048696D02*
X0154309Y0048696D01*
X0154399Y0048479D02*
X0155685Y0047193D01*
X0157365Y0046497D01*
X0159184Y0046497D01*
X0160864Y0047193D01*
X0162150Y0048479D01*
X0162846Y0050159D01*
X0162846Y0053749D01*
X0162734Y0054021D01*
X0162846Y0054293D01*
X0162846Y0057883D01*
X0162150Y0059563D01*
X0160864Y0060849D01*
X0159184Y0061545D01*
X0157365Y0061545D01*
X0155685Y0060849D01*
X0154399Y0059563D01*
X0153703Y0057883D01*
X0153703Y0054293D01*
X0153815Y0054021D01*
X0153703Y0053749D01*
X0153703Y0050159D01*
X0154399Y0048479D01*
X0153703Y0050294D02*
X0111286Y0050294D01*
X0106176Y0050294D02*
X0105760Y0050294D01*
X0105760Y0050159D02*
X0105760Y0053749D01*
X0105647Y0054021D01*
X0105760Y0054293D01*
X0105760Y0057852D01*
X0105832Y0057779D01*
X0106934Y0057323D01*
X0108128Y0057323D01*
X0109231Y0057779D01*
X0110074Y0058623D01*
X0110531Y0059726D01*
X0110531Y0060919D01*
X0110074Y0062022D01*
X0109231Y0062866D01*
X0108128Y0063323D01*
X0106934Y0063323D01*
X0105832Y0062866D01*
X0104988Y0062022D01*
X0104531Y0060919D01*
X0104531Y0060096D01*
X0103778Y0060849D01*
X0102097Y0061545D01*
X0100279Y0061545D01*
X0098598Y0060849D01*
X0097312Y0059563D01*
X0096616Y0057883D01*
X0096616Y0054293D01*
X0096729Y0054021D01*
X0096616Y0053749D01*
X0096616Y0050159D01*
X0097312Y0048479D01*
X0098598Y0047193D01*
X0100279Y0046497D01*
X0102097Y0046497D01*
X0103778Y0047193D01*
X0105064Y0048479D01*
X0105760Y0050159D01*
X0105731Y0048696D02*
X0105153Y0048696D01*
X0106116Y0047097D02*
X0103547Y0047097D01*
X0098828Y0047097D02*
X0062802Y0047097D01*
X0061721Y0048696D02*
X0097222Y0048696D01*
X0096616Y0050294D02*
X0063876Y0050294D01*
X0064022Y0050440D02*
X0064752Y0052204D01*
X0064752Y0054114D01*
X0064022Y0055878D01*
X0062671Y0057228D01*
X0060907Y0057959D01*
X0058998Y0057959D01*
X0057233Y0057228D01*
X0055883Y0055878D01*
X0055152Y0054114D01*
X0055152Y0052204D01*
X0055883Y0050440D01*
X0057233Y0049090D01*
X0058998Y0048359D01*
X0060907Y0048359D01*
X0062671Y0049090D01*
X0064022Y0050440D01*
X0064624Y0051893D02*
X0096616Y0051893D01*
X0096616Y0053491D02*
X0064752Y0053491D01*
X0064348Y0055090D02*
X0096616Y0055090D01*
X0096616Y0056688D02*
X0063211Y0056688D01*
X0062671Y0059090D02*
X0064022Y0060440D01*
X0064752Y0062204D01*
X0064752Y0064114D01*
X0064022Y0065878D01*
X0062671Y0067228D01*
X0060907Y0067959D01*
X0058998Y0067959D01*
X0057233Y0067228D01*
X0055883Y0065878D01*
X0055152Y0064114D01*
X0055152Y0062204D01*
X0055883Y0060440D01*
X0057233Y0059090D01*
X0058998Y0058359D01*
X0060907Y0058359D01*
X0062671Y0059090D01*
X0063467Y0059885D02*
X0097634Y0059885D01*
X0096783Y0058287D02*
X0048331Y0058287D01*
X0053211Y0056688D02*
X0056694Y0056688D01*
X0055557Y0055090D02*
X0054348Y0055090D01*
X0054752Y0053491D02*
X0055152Y0053491D01*
X0055281Y0051893D02*
X0054624Y0051893D01*
X0053876Y0050294D02*
X0056029Y0050294D01*
X0058184Y0048696D02*
X0051721Y0048696D01*
X0052802Y0047097D02*
X0057103Y0047097D01*
X0055726Y0045499D02*
X0054179Y0045499D01*
X0054752Y0043900D02*
X0055152Y0043900D01*
X0055152Y0042302D02*
X0054752Y0042302D01*
X0054131Y0040703D02*
X0055774Y0040703D01*
X0057831Y0037506D02*
X0057905Y0037506D01*
X0055233Y0034309D02*
X0054671Y0034309D01*
X0054752Y0032711D02*
X0055152Y0032711D01*
X0055605Y0031112D02*
X0054300Y0031112D01*
X0053096Y0029514D02*
X0056809Y0029514D01*
X0058892Y0027915D02*
X0050606Y0027915D01*
X0050152Y0027915D02*
X0049752Y0027915D01*
X0049299Y0027915D02*
X0048331Y0027915D01*
X0049752Y0026317D02*
X0050152Y0026317D01*
X0050152Y0024718D02*
X0049752Y0024718D01*
X0053583Y0026317D02*
X0056322Y0026317D01*
X0055403Y0024718D02*
X0054493Y0024718D01*
X0061013Y0027915D02*
X0079470Y0027915D01*
X0079934Y0027723D02*
X0081128Y0027723D01*
X0082231Y0028179D01*
X0083074Y0029023D01*
X0083531Y0030126D01*
X0083531Y0031319D01*
X0083074Y0032422D01*
X0082231Y0033266D01*
X0081128Y0033723D01*
X0079934Y0033723D01*
X0078832Y0033266D01*
X0077988Y0032422D01*
X0077531Y0031319D01*
X0077531Y0030126D01*
X0077988Y0029023D01*
X0078832Y0028179D01*
X0079934Y0027723D01*
X0081593Y0027915D02*
X0096616Y0027915D01*
X0096616Y0029514D02*
X0083278Y0029514D01*
X0083531Y0031112D02*
X0096616Y0031112D01*
X0096616Y0032711D02*
X0082786Y0032711D01*
X0078277Y0032711D02*
X0064752Y0032711D01*
X0064671Y0034309D02*
X0096616Y0034309D01*
X0097217Y0035908D02*
X0063992Y0035908D01*
X0064300Y0031112D02*
X0077531Y0031112D01*
X0077785Y0029514D02*
X0063096Y0029514D01*
X0063583Y0026317D02*
X0096789Y0026317D01*
X0097648Y0024718D02*
X0064502Y0024718D01*
X0051831Y0037576D02*
X0050907Y0037959D01*
X0048998Y0037959D01*
X0048331Y0037683D01*
X0048331Y0038635D01*
X0048998Y0038359D01*
X0050907Y0038359D01*
X0052242Y0038912D01*
X0051831Y0037919D01*
X0051831Y0037576D01*
X0053467Y0059885D02*
X0056438Y0059885D01*
X0055451Y0061484D02*
X0054454Y0061484D01*
X0054752Y0063082D02*
X0055152Y0063082D01*
X0055387Y0064681D02*
X0054517Y0064681D01*
X0053620Y0066279D02*
X0056285Y0066279D01*
X0057233Y0069090D02*
X0058998Y0068359D01*
X0060907Y0068359D01*
X0062671Y0069090D01*
X0064022Y0070440D01*
X0064752Y0072204D01*
X0064752Y0074114D01*
X0064022Y0075878D01*
X0062671Y0077228D01*
X0060907Y0077959D01*
X0058998Y0077959D01*
X0057233Y0077228D01*
X0055883Y0075878D01*
X0055152Y0074114D01*
X0055152Y0072204D01*
X0055883Y0070440D01*
X0057233Y0069090D01*
X0056847Y0069476D02*
X0053058Y0069476D01*
X0054285Y0071075D02*
X0055620Y0071075D01*
X0055152Y0072673D02*
X0054752Y0072673D01*
X0054687Y0074272D02*
X0055218Y0074272D01*
X0055880Y0075870D02*
X0054025Y0075870D01*
X0052090Y0077469D02*
X0057815Y0077469D01*
X0058998Y0078359D02*
X0057233Y0079090D01*
X0055883Y0080440D01*
X0055152Y0082204D01*
X0055152Y0084114D01*
X0055883Y0085878D01*
X0057233Y0087228D01*
X0058998Y0087959D01*
X0060907Y0087959D01*
X0062671Y0087228D01*
X0064022Y0085878D01*
X0064752Y0084114D01*
X0064752Y0082204D01*
X0064022Y0080440D01*
X0062671Y0079090D01*
X0060907Y0078359D01*
X0058998Y0078359D01*
X0057287Y0079067D02*
X0052618Y0079067D01*
X0054115Y0080666D02*
X0055790Y0080666D01*
X0055152Y0082265D02*
X0054752Y0082265D01*
X0054752Y0083863D02*
X0055152Y0083863D01*
X0055711Y0085462D02*
X0054194Y0085462D01*
X0052839Y0087060D02*
X0057066Y0087060D01*
X0058274Y0088659D02*
X0051631Y0088659D01*
X0053839Y0090257D02*
X0056066Y0090257D01*
X0055883Y0090440D02*
X0057233Y0089090D01*
X0058998Y0088359D01*
X0060907Y0088359D01*
X0062671Y0089090D01*
X0064022Y0090440D01*
X0064752Y0092204D01*
X0064752Y0094114D01*
X0064022Y0095878D01*
X0062671Y0097228D01*
X0060907Y0097959D01*
X0058998Y0097959D01*
X0057233Y0097228D01*
X0055883Y0095878D01*
X0055152Y0094114D01*
X0055152Y0092204D01*
X0055883Y0090440D01*
X0055297Y0091856D02*
X0054608Y0091856D01*
X0054752Y0093454D02*
X0055152Y0093454D01*
X0055541Y0095053D02*
X0054363Y0095053D01*
X0053248Y0096651D02*
X0056657Y0096651D01*
X0056475Y0099848D02*
X0053430Y0099848D01*
X0054439Y0101447D02*
X0055466Y0101447D01*
X0055152Y0103045D02*
X0054752Y0103045D01*
X0054533Y0104644D02*
X0055372Y0104644D01*
X0056248Y0106242D02*
X0053657Y0106242D01*
X0048713Y0107841D02*
X0048331Y0107841D01*
X0048331Y0098250D02*
X0150458Y0098250D01*
X0150488Y0098322D02*
X0150031Y0097219D01*
X0150031Y0096856D01*
X0149628Y0097023D01*
X0148434Y0097023D01*
X0147332Y0096566D01*
X0146488Y0095722D01*
X0146031Y0094619D01*
X0146031Y0094165D01*
X0145231Y0094966D01*
X0144128Y0095423D01*
X0142934Y0095423D01*
X0141832Y0094966D01*
X0140988Y0094122D01*
X0140531Y0093019D01*
X0140531Y0091826D01*
X0140988Y0090723D01*
X0141832Y0089879D01*
X0142934Y0089423D01*
X0144128Y0089423D01*
X0145231Y0089879D01*
X0146074Y0090723D01*
X0146531Y0091826D01*
X0146531Y0092280D01*
X0147332Y0091479D01*
X0148434Y0091023D01*
X0149628Y0091023D01*
X0150731Y0091479D01*
X0151574Y0092323D01*
X0152031Y0093426D01*
X0152031Y0093790D01*
X0152434Y0093623D01*
X0152731Y0093623D01*
X0152731Y0093226D01*
X0153188Y0092123D01*
X0154032Y0091279D01*
X0154893Y0090923D01*
X0154334Y0090923D01*
X0153232Y0090466D01*
X0152388Y0089622D01*
X0151931Y0088519D01*
X0151931Y0087326D01*
X0152388Y0086223D01*
X0153232Y0085379D01*
X0154334Y0084923D01*
X0155528Y0084923D01*
X0156631Y0085379D01*
X0157474Y0086223D01*
X0157931Y0087326D01*
X0157931Y0088519D01*
X0157474Y0089622D01*
X0156631Y0090466D01*
X0155769Y0090823D01*
X0156328Y0090823D01*
X0157431Y0091279D01*
X0158274Y0092123D01*
X0158731Y0093226D01*
X0158731Y0094419D01*
X0158274Y0095522D01*
X0157431Y0096366D01*
X0156328Y0096823D01*
X0156031Y0096823D01*
X0156031Y0097219D01*
X0155574Y0098322D01*
X0154731Y0099166D01*
X0153628Y0099623D01*
X0152434Y0099623D01*
X0151332Y0099166D01*
X0150488Y0098322D01*
X0147538Y0096651D02*
X0063248Y0096651D01*
X0064363Y0095053D02*
X0142041Y0095053D01*
X0140711Y0093454D02*
X0064752Y0093454D01*
X0064608Y0091856D02*
X0068119Y0091856D01*
X0068188Y0092022D02*
X0067731Y0090919D01*
X0067731Y0089726D01*
X0068188Y0088623D01*
X0069032Y0087779D01*
X0070134Y0087323D01*
X0071328Y0087323D01*
X0072431Y0087779D01*
X0073274Y0088623D01*
X0073731Y0089726D01*
X0073731Y0090919D01*
X0073274Y0092022D01*
X0072431Y0092866D01*
X0071328Y0093323D01*
X0070134Y0093323D01*
X0069032Y0092866D01*
X0068188Y0092022D01*
X0067731Y0090257D02*
X0063839Y0090257D01*
X0061631Y0088659D02*
X0068173Y0088659D01*
X0064194Y0085462D02*
X0119931Y0085462D01*
X0119931Y0085719D02*
X0119931Y0084526D01*
X0120388Y0083423D01*
X0120524Y0083287D01*
X0120232Y0083166D01*
X0119388Y0082322D01*
X0118931Y0081219D01*
X0118931Y0080026D01*
X0119388Y0078923D01*
X0120232Y0078079D01*
X0121334Y0077623D01*
X0122528Y0077623D01*
X0123631Y0078079D01*
X0124474Y0078923D01*
X0124931Y0080026D01*
X0124931Y0081219D01*
X0124474Y0082322D01*
X0124338Y0082458D01*
X0124631Y0082579D01*
X0125474Y0083423D01*
X0125931Y0084526D01*
X0125931Y0085719D01*
X0125474Y0086822D01*
X0124631Y0087666D01*
X0123528Y0088123D01*
X0122334Y0088123D01*
X0121232Y0087666D01*
X0120388Y0086822D01*
X0119931Y0085719D01*
X0120626Y0087060D02*
X0101011Y0087060D01*
X0101274Y0087323D02*
X0101731Y0088426D01*
X0101731Y0089619D01*
X0101274Y0090722D01*
X0100431Y0091566D01*
X0099328Y0092023D01*
X0098134Y0092023D01*
X0097032Y0091566D01*
X0096188Y0090722D01*
X0095731Y0089619D01*
X0095731Y0088426D01*
X0096188Y0087323D01*
X0097032Y0086479D01*
X0098134Y0086023D01*
X0099328Y0086023D01*
X0100431Y0086479D01*
X0101274Y0087323D01*
X0101731Y0088659D02*
X0151989Y0088659D01*
X0152041Y0087060D02*
X0125236Y0087060D01*
X0125931Y0085462D02*
X0153150Y0085462D01*
X0156713Y0085462D02*
X0174304Y0085462D01*
X0173832Y0085266D02*
X0172988Y0084422D01*
X0172531Y0083319D01*
X0172531Y0082126D01*
X0172988Y0081023D01*
X0173832Y0080179D01*
X0174934Y0079723D01*
X0176128Y0079723D01*
X0177231Y0080179D01*
X0178074Y0081023D01*
X0178531Y0082126D01*
X0178531Y0082423D01*
X0179128Y0082423D01*
X0180231Y0082879D01*
X0181074Y0083723D01*
X0181531Y0084826D01*
X0181531Y0086019D01*
X0181074Y0087122D01*
X0180231Y0087966D01*
X0179128Y0088423D01*
X0177934Y0088423D01*
X0176832Y0087966D01*
X0175988Y0087122D01*
X0175531Y0086019D01*
X0175531Y0085723D01*
X0174934Y0085723D01*
X0173832Y0085266D01*
X0173928Y0086623D02*
X0175031Y0087079D01*
X0175874Y0087923D01*
X0176331Y0089026D01*
X0176331Y0090219D01*
X0175874Y0091322D01*
X0175031Y0092166D01*
X0173928Y0092623D01*
X0172734Y0092623D01*
X0171632Y0092166D01*
X0170788Y0091322D01*
X0170331Y0090219D01*
X0170331Y0089026D01*
X0170788Y0087923D01*
X0171632Y0087079D01*
X0172734Y0086623D01*
X0173928Y0086623D01*
X0174984Y0087060D02*
X0175962Y0087060D01*
X0176179Y0088659D02*
X0188274Y0088659D01*
X0187066Y0087060D02*
X0181100Y0087060D01*
X0181531Y0085462D02*
X0185711Y0085462D01*
X0185152Y0083863D02*
X0181132Y0083863D01*
X0178531Y0082265D02*
X0185152Y0082265D01*
X0185790Y0080666D02*
X0177717Y0080666D01*
X0173345Y0080666D02*
X0145046Y0080666D01*
X0145231Y0080219D02*
X0144774Y0081322D01*
X0143931Y0082166D01*
X0142828Y0082623D01*
X0141634Y0082623D01*
X0140532Y0082166D01*
X0139688Y0081322D01*
X0139231Y0080219D01*
X0139231Y0079026D01*
X0139688Y0077923D01*
X0140532Y0077079D01*
X0141634Y0076623D01*
X0142828Y0076623D01*
X0143931Y0077079D01*
X0144774Y0077923D01*
X0145231Y0079026D01*
X0145231Y0080219D01*
X0145231Y0079067D02*
X0187287Y0079067D01*
X0187815Y0077469D02*
X0144320Y0077469D01*
X0140142Y0077469D02*
X0132420Y0077469D01*
X0132131Y0077179D02*
X0132974Y0078023D01*
X0133431Y0079126D01*
X0133431Y0080319D01*
X0132974Y0081422D01*
X0132131Y0082266D01*
X0131028Y0082723D01*
X0129834Y0082723D01*
X0128732Y0082266D01*
X0127888Y0081422D01*
X0127431Y0080319D01*
X0127431Y0079126D01*
X0127888Y0078023D01*
X0128732Y0077179D01*
X0129834Y0076723D01*
X0131028Y0076723D01*
X0132131Y0077179D01*
X0133407Y0079067D02*
X0139231Y0079067D01*
X0139416Y0080666D02*
X0133288Y0080666D01*
X0132132Y0082265D02*
X0140770Y0082265D01*
X0143692Y0082265D02*
X0172531Y0082265D01*
X0172756Y0083863D02*
X0125657Y0083863D01*
X0124498Y0082265D02*
X0128730Y0082265D01*
X0127575Y0080666D02*
X0124931Y0080666D01*
X0124534Y0079067D02*
X0127455Y0079067D01*
X0128442Y0077469D02*
X0062090Y0077469D01*
X0062618Y0079067D02*
X0067970Y0079067D01*
X0067988Y0079023D02*
X0068832Y0078179D01*
X0069934Y0077723D01*
X0071128Y0077723D01*
X0072231Y0078179D01*
X0073074Y0079023D01*
X0073531Y0080126D01*
X0073531Y0081319D01*
X0073074Y0082422D01*
X0072231Y0083266D01*
X0071128Y0083723D01*
X0069934Y0083723D01*
X0068832Y0083266D01*
X0067988Y0082422D01*
X0067531Y0081319D01*
X0067531Y0080126D01*
X0067988Y0079023D01*
X0067531Y0080666D02*
X0064115Y0080666D01*
X0064752Y0082265D02*
X0067923Y0082265D01*
X0064752Y0083863D02*
X0120206Y0083863D01*
X0119364Y0082265D02*
X0073140Y0082265D01*
X0073531Y0080666D02*
X0118931Y0080666D01*
X0119328Y0079067D02*
X0073093Y0079067D01*
X0064025Y0075870D02*
X0185880Y0075870D01*
X0185218Y0074272D02*
X0064687Y0074272D01*
X0064752Y0072673D02*
X0185152Y0072673D01*
X0185620Y0071075D02*
X0115121Y0071075D01*
X0115274Y0070922D02*
X0114431Y0071766D01*
X0113328Y0072223D01*
X0112134Y0072223D01*
X0111032Y0071766D01*
X0110188Y0070922D01*
X0109731Y0069819D01*
X0109731Y0068626D01*
X0110188Y0067523D01*
X0111032Y0066679D01*
X0112134Y0066223D01*
X0113328Y0066223D01*
X0114431Y0066679D01*
X0115274Y0067523D01*
X0115731Y0068626D01*
X0115731Y0069819D01*
X0115274Y0070922D01*
X0115731Y0069476D02*
X0120440Y0069476D01*
X0119932Y0069266D02*
X0119088Y0068422D01*
X0118631Y0067319D01*
X0118631Y0066126D01*
X0119088Y0065023D01*
X0119932Y0064179D01*
X0121034Y0063723D01*
X0122228Y0063723D01*
X0123331Y0064179D01*
X0124174Y0065023D01*
X0124631Y0066126D01*
X0124631Y0067319D01*
X0124174Y0068422D01*
X0123331Y0069266D01*
X0122228Y0069723D01*
X0121034Y0069723D01*
X0119932Y0069266D01*
X0118863Y0067878D02*
X0115421Y0067878D01*
X0113465Y0066279D02*
X0118631Y0066279D01*
X0119430Y0064681D02*
X0064517Y0064681D01*
X0064752Y0063082D02*
X0106355Y0063082D01*
X0104765Y0061484D02*
X0102246Y0061484D01*
X0100130Y0061484D02*
X0064454Y0061484D01*
X0063620Y0066279D02*
X0111997Y0066279D01*
X0110041Y0067878D02*
X0061102Y0067878D01*
X0058802Y0067878D02*
X0051102Y0067878D01*
X0048802Y0067878D02*
X0048331Y0067878D01*
X0063058Y0069476D02*
X0109731Y0069476D01*
X0110341Y0071075D02*
X0064285Y0071075D01*
X0062839Y0087060D02*
X0096451Y0087060D01*
X0095731Y0088659D02*
X0073289Y0088659D01*
X0073731Y0090257D02*
X0095995Y0090257D01*
X0097731Y0091856D02*
X0073343Y0091856D01*
X0063430Y0099848D02*
X0170063Y0099848D01*
X0169331Y0101447D02*
X0093698Y0101447D01*
X0094431Y0103045D02*
X0169590Y0103045D01*
X0170379Y0104644D02*
X0171303Y0104644D01*
X0172407Y0106242D02*
X0172508Y0106242D01*
X0173896Y0107841D02*
X0188713Y0107841D01*
X0186906Y0109439D02*
X0175330Y0109439D01*
X0175531Y0111038D02*
X0185646Y0111038D01*
X0185175Y0112636D02*
X0175087Y0112636D01*
X0175831Y0114235D02*
X0185263Y0114235D01*
X0185962Y0115833D02*
X0175577Y0115833D01*
X0177154Y0106242D02*
X0186248Y0106242D01*
X0185372Y0104644D02*
X0177831Y0104644D01*
X0177549Y0103045D02*
X0185152Y0103045D01*
X0185466Y0101447D02*
X0175727Y0101447D01*
X0174599Y0099848D02*
X0186475Y0099848D01*
X0186657Y0096651D02*
X0156742Y0096651D01*
X0155604Y0098250D02*
X0202731Y0098250D01*
X0202731Y0088659D02*
X0201631Y0088659D01*
X0202618Y0079067D02*
X0202731Y0079067D01*
X0202731Y0077469D02*
X0202090Y0077469D01*
X0202731Y0067878D02*
X0201102Y0067878D01*
X0198802Y0067878D02*
X0191102Y0067878D01*
X0188802Y0067878D02*
X0124400Y0067878D01*
X0124631Y0066279D02*
X0186285Y0066279D01*
X0185387Y0064681D02*
X0123832Y0064681D01*
X0122822Y0069476D02*
X0186847Y0069476D01*
X0185152Y0063082D02*
X0108708Y0063082D01*
X0110297Y0061484D02*
X0157217Y0061484D01*
X0159332Y0061484D02*
X0176550Y0061484D01*
X0176732Y0061666D02*
X0175888Y0060822D01*
X0175431Y0059719D01*
X0175431Y0058526D01*
X0175888Y0057423D01*
X0176732Y0056579D01*
X0177834Y0056123D01*
X0179028Y0056123D01*
X0180131Y0056579D01*
X0180974Y0057423D01*
X0181431Y0058526D01*
X0181431Y0059719D01*
X0180974Y0060822D01*
X0180131Y0061666D01*
X0179028Y0062123D01*
X0177834Y0062123D01*
X0176732Y0061666D01*
X0175500Y0059885D02*
X0173711Y0059885D01*
X0174074Y0059522D02*
X0173231Y0060366D01*
X0172128Y0060823D01*
X0170934Y0060823D01*
X0169832Y0060366D01*
X0168988Y0059522D01*
X0168531Y0058419D01*
X0168531Y0057226D01*
X0168988Y0056123D01*
X0169832Y0055279D01*
X0170934Y0054823D01*
X0172128Y0054823D01*
X0173231Y0055279D01*
X0174074Y0056123D01*
X0174531Y0057226D01*
X0174531Y0058419D01*
X0174074Y0059522D01*
X0174531Y0058287D02*
X0175530Y0058287D01*
X0176623Y0056688D02*
X0174309Y0056688D01*
X0172773Y0055090D02*
X0185557Y0055090D01*
X0185152Y0053491D02*
X0162846Y0053491D01*
X0162846Y0051893D02*
X0185281Y0051893D01*
X0186029Y0050294D02*
X0162846Y0050294D01*
X0162240Y0048696D02*
X0188184Y0048696D01*
X0187103Y0047097D02*
X0160634Y0047097D01*
X0155915Y0047097D02*
X0123899Y0047097D01*
X0123631Y0047366D02*
X0122528Y0047823D01*
X0121334Y0047823D01*
X0120232Y0047366D01*
X0119388Y0046522D01*
X0118931Y0045419D01*
X0118931Y0044226D01*
X0119388Y0043123D01*
X0120232Y0042279D01*
X0121334Y0041823D01*
X0122528Y0041823D01*
X0123631Y0042279D01*
X0124474Y0043123D01*
X0124931Y0044226D01*
X0124931Y0045419D01*
X0124474Y0046522D01*
X0123631Y0047366D01*
X0124898Y0045499D02*
X0185726Y0045499D01*
X0185152Y0043900D02*
X0124796Y0043900D01*
X0123653Y0042302D02*
X0185152Y0042302D01*
X0185774Y0040703D02*
X0155093Y0040703D01*
X0155631Y0039105D02*
X0187218Y0039105D01*
X0199752Y0027915D02*
X0200152Y0027915D01*
X0200606Y0027915D02*
X0202731Y0027915D01*
X0200152Y0026317D02*
X0199752Y0026317D01*
X0199752Y0024718D02*
X0200152Y0024718D01*
X0200153Y0023359D02*
X0202731Y0023359D01*
X0202731Y0023223D01*
X0200153Y0023223D01*
X0200153Y0023359D01*
X0196322Y0026317D02*
X0193583Y0026317D01*
X0194493Y0024718D02*
X0195412Y0024718D01*
X0190152Y0024718D02*
X0189752Y0024718D01*
X0189752Y0026317D02*
X0190152Y0026317D01*
X0202000Y0037506D02*
X0202731Y0037506D01*
X0202687Y0039105D02*
X0202731Y0039105D01*
X0202731Y0048696D02*
X0201721Y0048696D01*
X0202731Y0058287D02*
X0181332Y0058287D01*
X0181362Y0059885D02*
X0186438Y0059885D01*
X0185451Y0061484D02*
X0180313Y0061484D01*
X0180240Y0056688D02*
X0186694Y0056688D01*
X0170289Y0055090D02*
X0162846Y0055090D01*
X0162846Y0056688D02*
X0168754Y0056688D01*
X0168531Y0058287D02*
X0162679Y0058287D01*
X0161828Y0059885D02*
X0169351Y0059885D01*
X0154721Y0059885D02*
X0110531Y0059885D01*
X0109738Y0058287D02*
X0153870Y0058287D01*
X0153703Y0056688D02*
X0105760Y0056688D01*
X0105760Y0055090D02*
X0153703Y0055090D01*
X0153703Y0053491D02*
X0105760Y0053491D01*
X0105760Y0051893D02*
X0153703Y0051893D01*
X0119963Y0047097D02*
X0115999Y0047097D01*
X0116931Y0045499D02*
X0118964Y0045499D01*
X0119066Y0043900D02*
X0116755Y0043900D01*
X0115443Y0042302D02*
X0120209Y0042302D01*
X0157821Y0087060D02*
X0171678Y0087060D01*
X0170483Y0088659D02*
X0157874Y0088659D01*
X0156839Y0090257D02*
X0170347Y0090257D01*
X0171322Y0091856D02*
X0158007Y0091856D01*
X0158731Y0093454D02*
X0185152Y0093454D01*
X0185297Y0091856D02*
X0175341Y0091856D01*
X0176316Y0090257D02*
X0186066Y0090257D01*
X0185541Y0095053D02*
X0158469Y0095053D01*
X0153456Y0091856D02*
X0151107Y0091856D01*
X0152031Y0093454D02*
X0152731Y0093454D01*
X0153023Y0090257D02*
X0145608Y0090257D01*
X0146531Y0091856D02*
X0146956Y0091856D01*
X0146211Y0095053D02*
X0145021Y0095053D01*
X0140531Y0091856D02*
X0099731Y0091856D01*
X0101467Y0090257D02*
X0141454Y0090257D01*
X0143831Y0112636D02*
X0064752Y0112636D01*
X0064702Y0114235D02*
X0144128Y0114235D01*
X0168731Y0131818D02*
X0168731Y0131818D01*
X0168731Y0133417D02*
X0168731Y0133417D01*
X0168731Y0135015D02*
X0168731Y0135015D01*
X0168731Y0136614D02*
X0168731Y0136614D01*
X0172753Y0136614D02*
X0186619Y0136614D01*
X0185526Y0135015D02*
X0172865Y0135015D01*
X0172330Y0133417D02*
X0185152Y0133417D01*
X0185312Y0131818D02*
X0170629Y0131818D01*
X0158062Y0139811D02*
X0186512Y0139811D01*
X0201282Y0147803D02*
X0202731Y0147803D01*
X0202731Y0157395D02*
X0202269Y0157395D01*
X0202438Y0158993D02*
X0202731Y0158993D01*
X0202731Y0168584D02*
X0201451Y0168584D01*
X0196549Y0179774D02*
X0193356Y0179774D01*
X0194408Y0181372D02*
X0195497Y0181372D01*
X0195152Y0182971D02*
X0194752Y0182971D01*
X0194564Y0184569D02*
X0195341Y0184569D01*
X0196173Y0186168D02*
X0193732Y0186168D01*
X0191372Y0187766D02*
X0198533Y0187766D01*
X0196958Y0189365D02*
X0192947Y0189365D01*
X0194239Y0190963D02*
X0195666Y0190963D01*
X0195152Y0192562D02*
X0194752Y0192562D01*
X0194733Y0194160D02*
X0195172Y0194160D01*
X0197148Y0197143D02*
X0197431Y0197826D01*
X0197431Y0199008D01*
X0198998Y0198359D01*
X0200907Y0198359D01*
X0202671Y0199090D01*
X0202731Y0199149D01*
X0202731Y0197168D01*
X0202671Y0197228D01*
X0200907Y0197959D01*
X0198998Y0197959D01*
X0197233Y0197228D01*
X0197148Y0197143D01*
X0197237Y0197357D02*
X0197546Y0197357D01*
X0197556Y0198956D02*
X0197431Y0198956D01*
X0202349Y0198956D02*
X0202731Y0198956D01*
X0202731Y0197357D02*
X0202359Y0197357D01*
X0202731Y0187766D02*
X0201372Y0187766D01*
X0170198Y0211744D02*
X0156814Y0211744D01*
X0158409Y0210145D02*
X0168555Y0210145D01*
X0105492Y0123826D02*
X0064752Y0123826D01*
X0064752Y0122227D02*
X0105031Y0122227D01*
X0105403Y0120629D02*
X0064100Y0120629D01*
X0062528Y0119030D02*
X0113630Y0119030D01*
X0113959Y0117432D02*
X0062180Y0117432D01*
X0064040Y0115833D02*
X0116008Y0115833D01*
X0114194Y0120629D02*
X0110660Y0120629D01*
X0090399Y0106242D02*
X0063657Y0106242D01*
X0064533Y0104644D02*
X0088690Y0104644D01*
X0088431Y0103045D02*
X0064752Y0103045D01*
X0064439Y0101447D02*
X0089164Y0101447D01*
X0048364Y0128621D02*
X0048331Y0128621D01*
M02*
